<?xml version="1.0" encoding="UTF-8" standalone="no"?>

<svg xmlns="http://www.w3.org/2000/svg" version="1.1" viewBox="0.00 0.00 1254.00 1254.00">
<g stroke-width="2.00" fill="none" stroke-linecap="butt">
<path stroke="#878787" vector-effect="non-scaling-stroke" d="&#xA;  M 626.14 911.67&#xA;  Q 808.81 911.65 827.91 911.62&#xA;  Q 833.58 911.61 838.08 911.75&#xA;  A 1.80 1.77 70.4 0 1 839.40 912.39&#xA;  Q 847.25 921.90 861.83 940.18&#xA;  Q 864.69 943.76 866.33 944.66&#xA;  C 878.28 951.23 890.62 937.00 881.94 926.29&#xA;  Q 833.11 866.07 771.67 791.07&#xA;  A 0.29 0.28 -19.9 0 1 771.89 790.61&#xA;  C 781.87 790.45 794.56 791.05 804.62 789.31&#xA;  C 842.91 782.70 872.16 752.99 879.08 715.29&#xA;  Q 880.41 708.06 880.40 694.62&#xA;  Q 880.33 448.22 880.38 351.21&#xA;  Q 880.39 332.75 878.88 323.90&#xA;  C 870.34 274.02 826.19 235.68 775.26 235.60&#xA;  Q 767.83 235.59 626.06 235.61&#xA;  Q 484.29 235.62 476.86 235.63&#xA;  C 425.93 235.73 381.79 274.08 373.26 323.96&#xA;  Q 371.75 332.81 371.76 351.27&#xA;  Q 371.84 448.28 371.82 694.68&#xA;  Q 371.81 708.12 373.15 715.35&#xA;  C 380.07 753.05 409.33 782.75 447.62 789.35&#xA;  C 457.68 791.09 470.37 790.49 480.35 790.64&#xA;  A 0.29 0.28 19.9 0 1 480.57 791.10&#xA;  Q 419.15 866.12 370.33 926.35&#xA;  C 361.66 937.06 374.00 951.29 385.95 944.71&#xA;  Q 387.59 943.81 390.45 940.23&#xA;  Q 405.02 921.95 412.87 912.44&#xA;  A 1.80 1.77 -70.5 0 1 414.19 911.80&#xA;  Q 418.69 911.66 424.36 911.66&#xA;  Q 443.46 911.69 626.14 911.67"></path>
<path stroke="#878787" vector-effect="non-scaling-stroke" d="&#xA;  M 626.09 765.94&#xA;  Q 778.47 765.94 789.00 766.02&#xA;  C 825.70 766.29 855.58 736.36 855.63 699.74&#xA;  Q 855.69 662.80 855.70 349.91&#xA;  Q 855.70 334.05 854.30 326.76&#xA;  C 847.01 288.80 813.70 260.34 774.97 260.25&#xA;  Q 756.03 260.20 626.12 260.19&#xA;  Q 496.21 260.18 477.27 260.23&#xA;  C 438.54 260.32 405.23 288.77 397.93 326.73&#xA;  Q 396.53 334.02 396.53 349.88&#xA;  Q 396.50 662.77 396.56 699.71&#xA;  C 396.60 736.33 426.48 766.27 463.18 766.00&#xA;  Q 473.71 765.93 626.09 765.94"></path>
<path stroke="#878787" vector-effect="non-scaling-stroke" d="&#xA;  M 482.59 826.78&#xA;  A 0.62 0.62 0.0 0 0 483.07 827.79&#xA;  L 769.26 827.79&#xA;  A 0.62 0.62 0.0 0 0 769.74 826.78&#xA;  L 740.53 790.77&#xA;  A 0.62 0.62 0.0 0 0 740.04 790.54&#xA;  L 512.30 790.54&#xA;  A 0.62 0.62 0.0 0 0 511.81 790.77&#xA;  L 482.59 826.78"></path>
<path stroke="#878787" vector-effect="non-scaling-stroke" d="&#xA;  M 788.68 849.84&#xA;  A 0.33 0.33 0.0 0 0 788.42 849.72&#xA;  L 463.90 849.72&#xA;  A 0.33 0.33 0.0 0 0 463.64 849.84&#xA;  L 431.95 888.91&#xA;  A 0.33 0.33 0.0 0 0 432.20 889.45&#xA;  L 820.12 889.45&#xA;  A 0.33 0.33 0.0 0 0 820.37 888.91&#xA;  L 788.68 849.84"></path>
<path stroke="#878787" vector-effect="non-scaling-stroke" d="&#xA;  M 706.04 308.95&#xA;  A 11.94 11.94 0.0 0 0 694.10 297.01&#xA;  L 558.30 297.01&#xA;  A 11.94 11.94 0.0 0 0 546.36 308.95&#xA;  L 546.36 309.35&#xA;  A 11.94 11.94 0.0 0 0 558.30 321.29&#xA;  L 694.10 321.29&#xA;  A 11.94 11.94 0.0 0 0 706.04 309.35&#xA;  L 706.04 308.95"></path>
<path stroke="#878787" vector-effect="non-scaling-stroke" d="&#xA;  M 434.40 529.99&#xA;  A 41.19 41.19 0.0 0 0 475.59 571.18&#xA;  L 776.54 571.18&#xA;  A 41.19 41.19 0.0 0 0 817.73 529.99&#xA;  L 817.73 400.27&#xA;  A 41.19 41.19 0.0 0 0 776.54 359.08&#xA;  L 475.59 359.08&#xA;  A 41.19 41.19 0.0 0 0 434.40 400.27&#xA;  L 434.40 529.99"></path>
<path stroke="#878787" vector-effect="non-scaling-stroke" d="&#xA;  M 489.1815 623.4706&#xA;  A 49.77 49.64 -83.7 0 0 434.3798 667.4928&#xA;  A 49.77 49.64 -83.7 0 0 478.2585 722.4094&#xA;  A 49.77 49.64 -83.7 0 0 533.0602 678.3872&#xA;  A 49.77 49.64 -83.7 0 0 489.1815 623.4706"></path>
<path stroke="#878787" vector-effect="non-scaling-stroke" d="&#xA;  M 818.32 672.89&#xA;  A 49.71 49.71 0.0 0 0 768.61 623.18&#xA;  A 49.71 49.71 0.0 0 0 718.90 672.89&#xA;  A 49.71 49.71 0.0 0 0 768.61 722.60&#xA;  A 49.71 49.71 0.0 0 0 818.32 672.89"></path>
<path stroke="#878787" vector-effect="non-scaling-stroke" d="&#xA;  M 793.63 400.33&#xA;  A 16.91 16.91 0.0 0 0 776.72 383.42&#xA;  L 475.46 383.42&#xA;  A 16.91 16.91 0.0 0 0 458.55 400.33&#xA;  L 458.55 529.93&#xA;  A 16.91 16.91 0.0 0 0 475.46 546.84&#xA;  L 776.72 546.84&#xA;  A 16.91 16.91 0.0 0 0 793.63 529.93&#xA;  L 793.63 400.33"></path>
<path stroke="#878787" vector-effect="non-scaling-stroke" d="&#xA;  M 509.60 672.83&#xA;  A 25.92 25.92 0.0 0 0 483.68 646.91&#xA;  A 25.92 25.92 0.0 0 0 457.76 672.83&#xA;  A 25.92 25.92 0.0 0 0 483.68 698.75&#xA;  A 25.92 25.92 0.0 0 0 509.60 672.83"></path>
<path stroke="#878787" vector-effect="non-scaling-stroke" d="&#xA;  M 794.58 672.85&#xA;  A 25.92 25.92 0.0 0 0 768.66 646.93&#xA;  A 25.92 25.92 0.0 0 0 742.74 672.85&#xA;  A 25.92 25.92 0.0 0 0 768.66 698.77&#xA;  A 25.92 25.92 0.0 0 0 794.58 672.85"></path>
</g>
<path fill="#0e0e0e" d="&#xA;  M 626.06 235.61&#xA;  Q 767.83 235.59 775.26 235.60&#xA;  C 826.19 235.68 870.34 274.02 878.88 323.90&#xA;  Q 880.39 332.75 880.38 351.21&#xA;  Q 880.33 448.22 880.40 694.62&#xA;  Q 880.41 708.06 879.08 715.29&#xA;  C 872.16 752.99 842.91 782.70 804.62 789.31&#xA;  C 794.56 791.05 781.87 790.45 771.89 790.61&#xA;  A 0.29 0.28 -19.9 0 0 771.67 791.07&#xA;  Q 833.11 866.07 881.94 926.29&#xA;  C 890.62 937.00 878.28 951.23 866.33 944.66&#xA;  Q 864.69 943.76 861.83 940.18&#xA;  Q 847.25 921.90 839.40 912.39&#xA;  A 1.80 1.77 70.4 0 0 838.08 911.75&#xA;  Q 833.58 911.61 827.91 911.62&#xA;  Q 808.81 911.65 626.14 911.67&#xA;  Q 443.46 911.69 424.36 911.66&#xA;  Q 418.69 911.66 414.19 911.80&#xA;  A 1.80 1.77 -70.5 0 0 412.87 912.44&#xA;  Q 405.02 921.95 390.45 940.23&#xA;  Q 387.59 943.81 385.95 944.71&#xA;  C 374.00 951.29 361.66 937.06 370.33 926.35&#xA;  Q 419.15 866.12 480.57 791.10&#xA;  A 0.29 0.28 19.9 0 0 480.35 790.64&#xA;  C 470.37 790.49 457.68 791.09 447.62 789.35&#xA;  C 409.33 782.75 380.07 753.05 373.15 715.35&#xA;  Q 371.81 708.12 371.82 694.68&#xA;  Q 371.84 448.28 371.76 351.27&#xA;  Q 371.75 332.81 373.26 323.96&#xA;  C 381.79 274.08 425.93 235.73 476.86 235.63&#xA;  Q 484.29 235.62 626.06 235.61&#xA;  Z&#xA;  M 626.09 765.94&#xA;  Q 778.47 765.94 789.00 766.02&#xA;  C 825.70 766.29 855.58 736.36 855.63 699.74&#xA;  Q 855.69 662.80 855.70 349.91&#xA;  Q 855.70 334.05 854.30 326.76&#xA;  C 847.01 288.80 813.70 260.34 774.97 260.25&#xA;  Q 756.03 260.20 626.12 260.19&#xA;  Q 496.21 260.18 477.27 260.23&#xA;  C 438.54 260.32 405.23 288.77 397.93 326.73&#xA;  Q 396.53 334.02 396.53 349.88&#xA;  Q 396.50 662.77 396.56 699.71&#xA;  C 396.60 736.33 426.48 766.27 463.18 766.00&#xA;  Q 473.71 765.93 626.09 765.94&#xA;  Z&#xA;  M 482.59 826.78&#xA;  A 0.62 0.62 0.0 0 0 483.07 827.79&#xA;  L 769.26 827.79&#xA;  A 0.62 0.62 0.0 0 0 769.74 826.78&#xA;  L 740.53 790.77&#xA;  A 0.62 0.62 0.0 0 0 740.04 790.54&#xA;  L 512.30 790.54&#xA;  A 0.62 0.62 0.0 0 0 511.81 790.77&#xA;  L 482.59 826.78&#xA;  Z&#xA;  M 788.68 849.84&#xA;  A 0.33 0.33 0.0 0 0 788.42 849.72&#xA;  L 463.90 849.72&#xA;  A 0.33 0.33 0.0 0 0 463.64 849.84&#xA;  L 431.95 888.91&#xA;  A 0.33 0.33 0.0 0 0 432.20 889.45&#xA;  L 820.12 889.45&#xA;  A 0.33 0.33 0.0 0 0 820.37 888.91&#xA;  L 788.68 849.84&#xA;  Z"></path>
<path fill="#ffffff" d="&#xA;  M 626.12 260.19&#xA;  Q 756.03 260.20 774.97 260.25&#xA;  C 813.70 260.34 847.01 288.80 854.30 326.76&#xA;  Q 855.70 334.05 855.70 349.91&#xA;  Q 855.69 662.80 855.63 699.74&#xA;  C 855.58 736.36 825.70 766.29 789.00 766.02&#xA;  Q 778.47 765.94 626.09 765.94&#xA;  Q 473.71 765.93 463.18 766.00&#xA;  C 426.48 766.27 396.60 736.33 396.56 699.71&#xA;  Q 396.50 662.77 396.53 349.88&#xA;  Q 396.53 334.02 397.93 326.73&#xA;  C 405.23 288.77 438.54 260.32 477.27 260.23&#xA;  Q 496.21 260.18 626.12 260.19&#xA;  Z&#xA;  M 706.04 308.95&#xA;  A 11.94 11.94 0.0 0 0 694.10 297.01&#xA;  L 558.30 297.01&#xA;  A 11.94 11.94 0.0 0 0 546.36 308.95&#xA;  L 546.36 309.35&#xA;  A 11.94 11.94 0.0 0 0 558.30 321.29&#xA;  L 694.10 321.29&#xA;  A 11.94 11.94 0.0 0 0 706.04 309.35&#xA;  L 706.04 308.95&#xA;  Z&#xA;  M 434.40 529.99&#xA;  A 41.19 41.19 0.0 0 0 475.59 571.18&#xA;  L 776.54 571.18&#xA;  A 41.19 41.19 0.0 0 0 817.73 529.99&#xA;  L 817.73 400.27&#xA;  A 41.19 41.19 0.0 0 0 776.54 359.08&#xA;  L 475.59 359.08&#xA;  A 41.19 41.19 0.0 0 0 434.40 400.27&#xA;  L 434.40 529.99&#xA;  Z&#xA;  M 489.1815 623.4706&#xA;  A 49.77 49.64 -83.7 0 0 434.3798 667.4928&#xA;  A 49.77 49.64 -83.7 0 0 478.2585 722.4094&#xA;  A 49.77 49.64 -83.7 0 0 533.0602 678.3872&#xA;  A 49.77 49.64 -83.7 0 0 489.1815 623.4706&#xA;  Z&#xA;  M 818.32 672.89&#xA;  A 49.71 49.71 0.0 0 0 768.61 623.18&#xA;  A 49.71 49.71 0.0 0 0 718.90 672.89&#xA;  A 49.71 49.71 0.0 0 0 768.61 722.60&#xA;  A 49.71 49.71 0.0 0 0 818.32 672.89&#xA;  Z"></path>
<rect fill="#0e0e0e" x="546.36" y="297.01" width="159.68" height="24.28" rx="11.94"></rect>
<path fill="#0e0e0e" d="&#xA;  M 434.40 529.99&#xA;  L 434.40 400.27&#xA;  A 41.19 41.19 0.0 0 1 475.59 359.08&#xA;  L 776.54 359.08&#xA;  A 41.19 41.19 0.0 0 1 817.73 400.27&#xA;  L 817.73 529.99&#xA;  A 41.19 41.19 0.0 0 1 776.54 571.18&#xA;  L 475.59 571.18&#xA;  A 41.19 41.19 0.0 0 1 434.40 529.99&#xA;  Z&#xA;  M 793.63 400.33&#xA;  A 16.91 16.91 0.0 0 0 776.72 383.42&#xA;  L 475.46 383.42&#xA;  A 16.91 16.91 0.0 0 0 458.55 400.33&#xA;  L 458.55 529.93&#xA;  A 16.91 16.91 0.0 0 0 475.46 546.84&#xA;  L 776.72 546.84&#xA;  A 16.91 16.91 0.0 0 0 793.63 529.93&#xA;  L 793.63 400.33&#xA;  Z"></path>
<rect fill="#ffffff" x="458.55" y="383.42" width="335.08" height="163.42" rx="16.91"></rect>
<path fill="#0e0e0e" d="&#xA;  M 489.1815 623.4706&#xA;  A 49.77 49.64 -83.7 0 1 533.0602 678.3872&#xA;  A 49.77 49.64 -83.7 0 1 478.2585 722.4094&#xA;  A 49.77 49.64 -83.7 0 1 434.3798 667.4928&#xA;  A 49.77 49.64 -83.7 0 1 489.1815 623.4706&#xA;  Z&#xA;  M 509.60 672.83&#xA;  A 25.92 25.92 0.0 0 0 483.68 646.91&#xA;  A 25.92 25.92 0.0 0 0 457.76 672.83&#xA;  A 25.92 25.92 0.0 0 0 483.68 698.75&#xA;  A 25.92 25.92 0.0 0 0 509.60 672.83&#xA;  Z"></path>
<path fill="#0e0e0e" d="&#xA;  M 818.32 672.89&#xA;  A 49.71 49.71 0.0 0 1 768.61 722.60&#xA;  A 49.71 49.71 0.0 0 1 718.90 672.89&#xA;  A 49.71 49.71 0.0 0 1 768.61 623.18&#xA;  A 49.71 49.71 0.0 0 1 818.32 672.89&#xA;  Z&#xA;  M 794.58 672.85&#xA;  A 25.92 25.92 0.0 0 0 768.66 646.93&#xA;  A 25.92 25.92 0.0 0 0 742.74 672.85&#xA;  A 25.92 25.92 0.0 0 0 768.66 698.77&#xA;  A 25.92 25.92 0.0 0 0 794.58 672.85&#xA;  Z"></path>
<circle fill="#ffffff" cx="483.68" cy="672.83" r="25.92"></circle>
<circle fill="#ffffff" cx="768.66" cy="672.85" r="25.92"></circle>
<path fill="#ffffff" d="&#xA;  M 482.59 826.78&#xA;  L 511.81 790.77&#xA;  A 0.62 0.62 0.0 0 1 512.30 790.54&#xA;  L 740.04 790.54&#xA;  A 0.62 0.62 0.0 0 1 740.53 790.77&#xA;  L 769.74 826.78&#xA;  A 0.62 0.62 0.0 0 1 769.26 827.79&#xA;  L 483.07 827.79&#xA;  A 0.62 0.62 0.0 0 1 482.59 826.78&#xA;  Z"></path>
<path fill="#ffffff" d="&#xA;  M 788.68 849.84&#xA;  L 820.37 888.91&#xA;  A 0.33 0.33 0.0 0 1 820.12 889.45&#xA;  L 432.20 889.45&#xA;  A 0.33 0.33 0.0 0 1 431.95 888.91&#xA;  L 463.64 849.84&#xA;  A 0.33 0.33 0.0 0 1 463.90 849.72&#xA;  L 788.42 849.72&#xA;  A 0.33 0.33 0.0 0 1 788.68 849.84&#xA;  Z"></path>
</svg>