<?xml version="1.0" encoding="UTF-8" standalone="no"?>

<svg xmlns="http://www.w3.org/2000/svg" version="1.1" viewBox="0.00 0.00 1254.00 1254.00">
<g stroke-width="2.00" fill="none" stroke-linecap="butt">
<path stroke="#878787" vector-effect="non-scaling-stroke" d="&#xA;  M 251.13 534.64&#xA;  A 0.26 0.26 0.0 0 1 251.28 535.10&#xA;  Q 229.21 553.81 219.75 581.48&#xA;  Q 213.96 598.38 213.96 615.02&#xA;  Q 213.98 722.75 213.87 779.61&#xA;  Q 213.84 798.12 215.28 805.81&#xA;  Q 220.88 835.69 245.13 856.29&#xA;  A 0.73 0.73 0.0 0 1 245.39 856.85&#xA;  Q 245.25 887.91 245.40 904.23&#xA;  C 245.59 925.91 258.19 942.70 279.10 949.10&#xA;  Q 284.57 950.77 290.00 950.77&#xA;  Q 297.22 950.76 322.72 950.89&#xA;  Q 337.27 950.97 343.62 949.20&#xA;  C 362.80 943.86 376.56 926.85 377.22 906.90&#xA;  Q 377.62 894.48 377.32 876.35&#xA;  A 0.86 0.85 -0.7 0 1 378.18 875.48&#xA;  L 872.90 875.48&#xA;  A 0.56 0.55 0.5 0 1 873.46 876.04&#xA;  Q 873.39 883.55 873.32 899.91&#xA;  Q 873.27 912.35 875.30 918.46&#xA;  C 880.54 934.28 891.30 944.65 907.41 949.33&#xA;  Q 913.45 951.09 928.26 950.87&#xA;  Q 932.44 950.81 958.99 950.81&#xA;  C 976.76 950.80 993.52 940.86 1000.97 924.55&#xA;  Q 1005.39 914.86 1005.42 905.98&#xA;  Q 1005.55 865.21 1005.55 857.38&#xA;  A 2.10 2.10 0.0 0 1 1006.30 855.77&#xA;  Q 1023.81 841.05 1031.76 819.57&#xA;  Q 1036.75 806.10 1036.76 793.74&#xA;  Q 1036.85 653.29 1037.00 628.88&#xA;  Q 1037.14 608.21 1035.55 598.69&#xA;  Q 1029.26 560.98 999.67 535.02&#xA;  A 0.25 0.25 0.0 0 1 999.83 534.58&#xA;  Q 1007.92 534.40 1015.09 534.50&#xA;  Q 1024.34 534.64 1030.21 533.23&#xA;  Q 1048.69 528.76 1057.74 510.45&#xA;  C 1062.81 500.18 1062.36 488.21 1062.14 477.78&#xA;  C 1061.75 459.42 1051.14 442.79 1033.17 436.77&#xA;  Q 1028.15 435.08 1013.21 435.06&#xA;  Q 968.16 435.00 966.52 435.01&#xA;  Q 953.88 435.11 943.93 441.94&#xA;  A 0.58 0.57 -27.1 0 1 943.06 441.66&#xA;  C 939.45 431.06 932.89 417.68 929.61 408.58&#xA;  Q 929.58 408.50 899.10 334.27&#xA;  Q 892.87 319.09 888.81 312.77&#xA;  C 870.94 284.97 839.11 267.35 805.99 267.34&#xA;  Q 637.21 267.30 458.72 267.28&#xA;  Q 438.46 267.28 429.63 268.83&#xA;  C 401.93 273.68 377.42 289.55 362.16 313.04&#xA;  Q 357.53 320.18 350.98 336.03&#xA;  Q 332.99 379.59 325.99 396.22&#xA;  C 322.62 404.20 319.21 413.56 315.38 422.37&#xA;  Q 311.14 432.15 307.93 440.81&#xA;  A 0.62 0.61 27.3 0 1 307.00 441.10&#xA;  C 299.22 435.83 291.55 434.98 281.05 435.03&#xA;  Q 257.43 435.14 241.77 434.94&#xA;  Q 231.55 434.80 225.30 435.63&#xA;  Q 219.97 436.34 217.35 437.44&#xA;  Q 200.97 444.28 193.99 460.24&#xA;  C 189.70 470.02 189.58 480.80 189.91 491.06&#xA;  C 190.58 512.25 204.94 530.91 226.34 533.93&#xA;  C 234.23 535.05 243.62 534.04 251.13 534.64"></path>
<path stroke="#878787" vector-effect="non-scaling-stroke" d="&#xA;  M 625.38 510.40&#xA;  Q 922.42 510.39 941.78 510.34&#xA;  A 0.30 0.30 0.0 0 0 942.05 509.92&#xA;  Q 928.86 478.83 910.74 435.26&#xA;  Q 876.60 353.17 870.39 338.78&#xA;  C 859.01 312.39 833.27 296.31 804.50 296.30&#xA;  Q 714.87 296.29 625.38 296.29&#xA;  Q 535.88 296.29 446.25 296.31&#xA;  C 417.48 296.32 391.74 312.40 380.36 338.79&#xA;  Q 374.15 353.18 340.02 435.27&#xA;  Q 321.90 478.84 308.71 509.93&#xA;  A 0.30 0.30 0.0 0 0 308.98 510.35&#xA;  Q 328.34 510.41 625.38 510.40"></path>
<path stroke="#878787" vector-effect="non-scaling-stroke" d="&#xA;  M 279.72 508.87&#xA;  L 296.36 468.25&#xA;  A 1.05 1.04 -46.5 0 0 296.34 467.42&#xA;  C 293.53 461.33 288.94 460.23 282.11 460.30&#xA;  Q 275.95 460.35 233.27 460.34&#xA;  Q 226.31 460.34 221.50 465.50&#xA;  C 214.75 472.74 215.67 480.37 215.86 489.74&#xA;  C 216.06 499.19 222.66 509.30 232.61 509.51&#xA;  Q 250.08 509.87 278.78 509.52&#xA;  A 1.04 1.03 -79.2 0 0 279.72 508.87"></path>
<path stroke="#878787" vector-effect="non-scaling-stroke" d="&#xA;  M 971.92 509.57&#xA;  Q 982.11 509.68 1017.49 509.60&#xA;  C 1030.00 509.57 1035.96 500.60 1036.40 489.21&#xA;  Q 1036.71 480.92 1036.19 476.58&#xA;  C 1035.23 468.66 1029.11 460.71 1020.50 460.40&#xA;  Q 1017.42 460.29 971.08 460.32&#xA;  C 964.39 460.33 960.51 460.76 956.65 465.89&#xA;  Q 954.53 468.71 955.26 470.36&#xA;  Q 961.32 484.26 971.09 509.00&#xA;  A 0.89 0.89 0.0 0 0 971.92 509.57"></path>
<path stroke="#878787" vector-effect="non-scaling-stroke" d="&#xA;  M 625.45 850.38&#xA;  Q 758.33 850.37 943.57 850.33&#xA;  Q 958.90 850.33 964.82 848.89&#xA;  C 986.94 843.53 1004.54 825.47 1009.56 803.59&#xA;  Q 1010.98 797.41 1010.96 783.33&#xA;  Q 1010.84 676.08 1010.97 628.36&#xA;  Q 1011.03 608.36 1009.38 600.29&#xA;  Q 1005.61 581.85 994.53 567.31&#xA;  Q 978.07 545.71 951.72 538.36&#xA;  Q 948.42 537.43 947.00 537.40&#xA;  Q 946.79 537.39 625.42 537.42&#xA;  Q 304.05 537.45 303.84 537.45&#xA;  Q 302.42 537.48 299.12 538.42&#xA;  Q 272.77 545.77 256.32 567.37&#xA;  Q 245.24 581.91 241.47 600.36&#xA;  Q 239.82 608.43 239.89 628.43&#xA;  Q 240.03 676.15 239.92 783.40&#xA;  Q 239.91 797.48 241.33 803.66&#xA;  C 246.35 825.53 263.95 843.59 286.08 848.95&#xA;  Q 292.00 850.39 307.32 850.39&#xA;  Q 492.56 850.39 625.45 850.38"></path>
<path stroke="#878787" vector-effect="non-scaling-stroke" d="&#xA;  M 898.65 876.58&#xA;  Q 898.48 900.20 898.88 906.63&#xA;  C 899.55 917.54 908.82 926.38 919.55 926.37&#xA;  Q 953.36 926.36 957.49 926.39&#xA;  C 967.59 926.47 975.26 921.58 979.02 912.21&#xA;  Q 980.39 908.79 980.38 900.18&#xA;  Q 980.34 879.27 980.22 871.56&#xA;  A 0.45 0.45 0.0 0 0 979.62 871.14&#xA;  Q 966.70 875.70 952.77 875.72&#xA;  Q 909.49 875.80 899.42 875.81&#xA;  A 0.77 0.77 0.0 0 0 898.65 876.58"></path>
<path stroke="#878787" vector-effect="non-scaling-stroke" d="&#xA;  M 352.19 876.50&#xA;  A 0.77 0.77 0.0 0 0 351.42 875.73&#xA;  Q 341.37 875.75 298.15 875.77&#xA;  Q 284.24 875.79 271.33 871.26&#xA;  A 0.45 0.45 0.0 0 0 270.73 871.69&#xA;  Q 270.63 879.38 270.64 900.26&#xA;  Q 270.65 908.86 272.03 912.27&#xA;  C 275.80 921.62 283.48 926.49 293.56 926.38&#xA;  Q 297.68 926.34 331.45 926.27&#xA;  C 342.16 926.25 351.40 917.40 352.04 906.51&#xA;  Q 352.42 900.09 352.19 876.50"></path>
<path stroke="#878787" vector-effect="non-scaling-stroke" d="&#xA;  M 449.80 659.94&#xA;  C 450.75 635.19 434.93 613.61 410.51 608.32&#xA;  Q 405.10 607.14 384.43 607.27&#xA;  Q 367.33 607.38 333.71 607.29&#xA;  Q 321.34 607.25 315.92 608.66&#xA;  C 296.17 613.78 283.82 630.82 283.49 650.98&#xA;  Q 283.30 662.64 284.12 667.13&#xA;  Q 288.88 692.90 312.09 702.67&#xA;  C 316.61 704.57 321.81 705.61 326.56 705.64&#xA;  Q 349.42 705.79 400.00 705.69&#xA;  Q 412.61 705.67 422.04 701.53&#xA;  C 438.75 694.19 449.08 678.52 449.80 659.94"></path>
<path stroke="#878787" vector-effect="non-scaling-stroke" d="&#xA;  M 964.30 672.36&#xA;  C 967.94 657.34 967.31 638.69 958.39 625.80&#xA;  Q 949.60 613.09 934.20 608.73&#xA;  Q 929.06 607.27 918.14 607.28&#xA;  Q 851.01 607.33 846.75 607.33&#xA;  Q 835.78 607.33 824.45 612.63&#xA;  Q 814.47 617.30 807.18 626.60&#xA;  C 799.41 636.52 796.27 647.78 796.65 660.43&#xA;  C 797.46 686.84 819.43 705.67 844.75 705.68&#xA;  Q 907.05 705.69 911.02 705.75&#xA;  Q 926.39 705.96 932.36 704.26&#xA;  C 947.81 699.87 960.52 687.98 964.30 672.36"></path>
<path stroke="#878787" vector-effect="non-scaling-stroke" d="&#xA;  M 734.48 756.44&#xA;  A 25.22 25.22 0.0 0 0 709.26 731.22&#xA;  L 542.02 731.22&#xA;  A 25.22 25.22 0.0 0 0 516.80 756.44&#xA;  L 516.80 808.88&#xA;  A 25.22 25.22 0.0 0 0 542.02 834.10&#xA;  L 709.26 834.10&#xA;  A 25.22 25.22 0.0 0 0 734.48 808.88&#xA;  L 734.48 756.44"></path>
<path stroke="#878787" vector-effect="non-scaling-stroke" d="&#xA;  M 309.23 659.74&#xA;  C 309.31 670.35 317.57 681.01 328.54 681.02&#xA;  Q 361.84 681.04 395.50 681.01&#xA;  Q 402.13 681.00 406.82 680.11&#xA;  C 415.35 678.48 422.95 670.41 423.76 661.78&#xA;  C 424.40 654.94 423.58 648.66 419.54 642.99&#xA;  Q 414.13 635.40 406.16 633.07&#xA;  Q 402.55 632.01 389.30 632.03&#xA;  Q 352.68 632.10 339.49 631.97&#xA;  Q 326.18 631.85 323.08 632.70&#xA;  Q 315.08 634.90 311.01 643.23&#xA;  C 308.64 648.08 309.18 653.49 309.23 659.74"></path>
<path stroke="#878787" vector-effect="non-scaling-stroke" d="&#xA;  M 940.08 648.69&#xA;  C 938.69 639.11 931.23 632.13 921.32 632.11&#xA;  Q 883.79 632.01 848.77 632.08&#xA;  Q 834.18 632.10 826.26 643.89&#xA;  C 821.88 650.41 821.07 661.09 824.62 668.05&#xA;  Q 828.92 676.48 837.99 679.70&#xA;  Q 842.26 681.22 853.21 681.11&#xA;  Q 882.75 680.79 905.00 681.05&#xA;  Q 916.04 681.17 921.53 680.81&#xA;  C 931.55 680.15 939.30 671.57 940.17 661.76&#xA;  Q 940.86 654.04 940.08 648.69"></path>
<path stroke="#878787" vector-effect="non-scaling-stroke" d="&#xA;  M 709.94 760.38&#xA;  A 4.95 4.95 0.0 0 0 704.99 755.43&#xA;  L 546.31 755.43&#xA;  A 4.95 4.95 0.0 0 0 541.36 760.38&#xA;  L 541.36 804.74&#xA;  A 4.95 4.95 0.0 0 0 546.31 809.69&#xA;  L 704.99 809.69&#xA;  A 4.95 4.95 0.0 0 0 709.94 804.74&#xA;  L 709.94 760.38"></path>
</g>
<path fill="#0f0f0f" d="&#xA;  M 251.13 534.64&#xA;  C 243.62 534.04 234.23 535.05 226.34 533.93&#xA;  C 204.94 530.91 190.58 512.25 189.91 491.06&#xA;  C 189.58 480.80 189.70 470.02 193.99 460.24&#xA;  Q 200.97 444.28 217.35 437.44&#xA;  Q 219.97 436.34 225.30 435.63&#xA;  Q 231.55 434.80 241.77 434.94&#xA;  Q 257.43 435.14 281.05 435.03&#xA;  C 291.55 434.98 299.22 435.83 307.00 441.10&#xA;  A 0.62 0.61 27.3 0 0 307.93 440.81&#xA;  Q 311.14 432.15 315.38 422.37&#xA;  C 319.21 413.56 322.62 404.20 325.99 396.22&#xA;  Q 332.99 379.59 350.98 336.03&#xA;  Q 357.53 320.18 362.16 313.04&#xA;  C 377.42 289.55 401.93 273.68 429.63 268.83&#xA;  Q 438.46 267.28 458.72 267.28&#xA;  Q 637.21 267.30 805.99 267.34&#xA;  C 839.11 267.35 870.94 284.97 888.81 312.77&#xA;  Q 892.87 319.09 899.10 334.27&#xA;  Q 929.58 408.50 929.61 408.58&#xA;  C 932.89 417.68 939.45 431.06 943.06 441.66&#xA;  A 0.58 0.57 -27.1 0 0 943.93 441.94&#xA;  Q 953.88 435.11 966.52 435.01&#xA;  Q 968.16 435.00 1013.21 435.06&#xA;  Q 1028.15 435.08 1033.17 436.77&#xA;  C 1051.14 442.79 1061.75 459.42 1062.14 477.78&#xA;  C 1062.36 488.21 1062.81 500.18 1057.74 510.45&#xA;  Q 1048.69 528.76 1030.21 533.23&#xA;  Q 1024.34 534.64 1015.09 534.50&#xA;  Q 1007.92 534.40 999.83 534.58&#xA;  A 0.25 0.25 0.0 0 0 999.67 535.02&#xA;  Q 1029.26 560.98 1035.55 598.69&#xA;  Q 1037.14 608.21 1037.00 628.88&#xA;  Q 1036.85 653.29 1036.76 793.74&#xA;  Q 1036.75 806.10 1031.76 819.57&#xA;  Q 1023.81 841.05 1006.30 855.77&#xA;  A 2.10 2.10 0.0 0 0 1005.55 857.38&#xA;  Q 1005.55 865.21 1005.42 905.98&#xA;  Q 1005.39 914.86 1000.97 924.55&#xA;  C 993.52 940.86 976.76 950.80 958.99 950.81&#xA;  Q 932.44 950.81 928.26 950.87&#xA;  Q 913.45 951.09 907.41 949.33&#xA;  C 891.30 944.65 880.54 934.28 875.30 918.46&#xA;  Q 873.27 912.35 873.32 899.91&#xA;  Q 873.39 883.55 873.46 876.04&#xA;  A 0.56 0.55 0.5 0 0 872.90 875.48&#xA;  L 378.18 875.48&#xA;  A 0.86 0.85 -0.7 0 0 377.32 876.35&#xA;  Q 377.62 894.48 377.22 906.90&#xA;  C 376.56 926.85 362.80 943.86 343.62 949.20&#xA;  Q 337.27 950.97 322.72 950.89&#xA;  Q 297.22 950.76 290.00 950.77&#xA;  Q 284.57 950.77 279.10 949.10&#xA;  C 258.19 942.70 245.59 925.91 245.40 904.23&#xA;  Q 245.25 887.91 245.39 856.85&#xA;  A 0.73 0.73 0.0 0 0 245.13 856.29&#xA;  Q 220.88 835.69 215.28 805.81&#xA;  Q 213.84 798.12 213.87 779.61&#xA;  Q 213.98 722.75 213.96 615.02&#xA;  Q 213.96 598.38 219.75 581.48&#xA;  Q 229.21 553.81 251.28 535.10&#xA;  A 0.26 0.26 0.0 0 0 251.13 534.64&#xA;  Z&#xA;  M 625.38 510.40&#xA;  Q 922.42 510.39 941.78 510.34&#xA;  A 0.30 0.30 0.0 0 0 942.05 509.92&#xA;  Q 928.86 478.83 910.74 435.26&#xA;  Q 876.60 353.17 870.39 338.78&#xA;  C 859.01 312.39 833.27 296.31 804.50 296.30&#xA;  Q 714.87 296.29 625.38 296.29&#xA;  Q 535.88 296.29 446.25 296.31&#xA;  C 417.48 296.32 391.74 312.40 380.36 338.79&#xA;  Q 374.15 353.18 340.02 435.27&#xA;  Q 321.90 478.84 308.71 509.93&#xA;  A 0.30 0.30 0.0 0 0 308.98 510.35&#xA;  Q 328.34 510.41 625.38 510.40&#xA;  Z&#xA;  M 279.72 508.87&#xA;  L 296.36 468.25&#xA;  A 1.05 1.04 -46.5 0 0 296.34 467.42&#xA;  C 293.53 461.33 288.94 460.23 282.11 460.30&#xA;  Q 275.95 460.35 233.27 460.34&#xA;  Q 226.31 460.34 221.50 465.50&#xA;  C 214.75 472.74 215.67 480.37 215.86 489.74&#xA;  C 216.06 499.19 222.66 509.30 232.61 509.51&#xA;  Q 250.08 509.87 278.78 509.52&#xA;  A 1.04 1.03 -79.2 0 0 279.72 508.87&#xA;  Z&#xA;  M 971.92 509.57&#xA;  Q 982.11 509.68 1017.49 509.60&#xA;  C 1030.00 509.57 1035.96 500.60 1036.40 489.21&#xA;  Q 1036.71 480.92 1036.19 476.58&#xA;  C 1035.23 468.66 1029.11 460.71 1020.50 460.40&#xA;  Q 1017.42 460.29 971.08 460.32&#xA;  C 964.39 460.33 960.51 460.76 956.65 465.89&#xA;  Q 954.53 468.71 955.26 470.36&#xA;  Q 961.32 484.26 971.09 509.00&#xA;  A 0.89 0.89 0.0 0 0 971.92 509.57&#xA;  Z&#xA;  M 625.45 850.38&#xA;  Q 758.33 850.37 943.57 850.33&#xA;  Q 958.90 850.33 964.82 848.89&#xA;  C 986.94 843.53 1004.54 825.47 1009.56 803.59&#xA;  Q 1010.98 797.41 1010.96 783.33&#xA;  Q 1010.84 676.08 1010.97 628.36&#xA;  Q 1011.03 608.36 1009.38 600.29&#xA;  Q 1005.61 581.85 994.53 567.31&#xA;  Q 978.07 545.71 951.72 538.36&#xA;  Q 948.42 537.43 947.00 537.40&#xA;  Q 946.79 537.39 625.42 537.42&#xA;  Q 304.05 537.45 303.84 537.45&#xA;  Q 302.42 537.48 299.12 538.42&#xA;  Q 272.77 545.77 256.32 567.37&#xA;  Q 245.24 581.91 241.47 600.36&#xA;  Q 239.82 608.43 239.89 628.43&#xA;  Q 240.03 676.15 239.92 783.40&#xA;  Q 239.91 797.48 241.33 803.66&#xA;  C 246.35 825.53 263.95 843.59 286.08 848.95&#xA;  Q 292.00 850.39 307.32 850.39&#xA;  Q 492.56 850.39 625.45 850.38&#xA;  Z&#xA;  M 898.65 876.58&#xA;  Q 898.48 900.20 898.88 906.63&#xA;  C 899.55 917.54 908.82 926.38 919.55 926.37&#xA;  Q 953.36 926.36 957.49 926.39&#xA;  C 967.59 926.47 975.26 921.58 979.02 912.21&#xA;  Q 980.39 908.79 980.38 900.18&#xA;  Q 980.34 879.27 980.22 871.56&#xA;  A 0.45 0.45 0.0 0 0 979.62 871.14&#xA;  Q 966.70 875.70 952.77 875.72&#xA;  Q 909.49 875.80 899.42 875.81&#xA;  A 0.77 0.77 0.0 0 0 898.65 876.58&#xA;  Z&#xA;  M 352.19 876.50&#xA;  A 0.77 0.77 0.0 0 0 351.42 875.73&#xA;  Q 341.37 875.75 298.15 875.77&#xA;  Q 284.24 875.79 271.33 871.26&#xA;  A 0.45 0.45 0.0 0 0 270.73 871.69&#xA;  Q 270.63 879.38 270.64 900.26&#xA;  Q 270.65 908.86 272.03 912.27&#xA;  C 275.80 921.62 283.48 926.49 293.56 926.38&#xA;  Q 297.68 926.34 331.45 926.27&#xA;  C 342.16 926.25 351.40 917.40 352.04 906.51&#xA;  Q 352.42 900.09 352.19 876.50&#xA;  Z"></path>
<path fill="#ffffff" d="&#xA;  M 625.38 296.29&#xA;  Q 714.87 296.29 804.50 296.30&#xA;  C 833.27 296.31 859.01 312.39 870.39 338.78&#xA;  Q 876.60 353.17 910.74 435.26&#xA;  Q 928.86 478.83 942.05 509.92&#xA;  A 0.30 0.30 0.0 0 1 941.78 510.34&#xA;  Q 922.42 510.39 625.38 510.40&#xA;  Q 328.34 510.41 308.98 510.35&#xA;  A 0.30 0.30 0.0 0 1 308.71 509.93&#xA;  Q 321.90 478.84 340.02 435.27&#xA;  Q 374.15 353.18 380.36 338.79&#xA;  C 391.74 312.40 417.48 296.32 446.25 296.31&#xA;  Q 535.88 296.29 625.38 296.29&#xA;  Z"></path>
<path fill="#ffffff" d="&#xA;  M 279.72 508.87&#xA;  A 1.04 1.03 -79.2 0 1 278.78 509.52&#xA;  Q 250.08 509.87 232.61 509.51&#xA;  C 222.66 509.30 216.06 499.19 215.86 489.74&#xA;  C 215.67 480.37 214.75 472.74 221.50 465.50&#xA;  Q 226.31 460.34 233.27 460.34&#xA;  Q 275.95 460.35 282.11 460.30&#xA;  C 288.94 460.23 293.53 461.33 296.34 467.42&#xA;  A 1.05 1.04 -46.5 0 1 296.36 468.25&#xA;  L 279.72 508.87&#xA;  Z"></path>
<path fill="#ffffff" d="&#xA;  M 971.92 509.57&#xA;  A 0.89 0.89 0.0 0 1 971.09 509.00&#xA;  Q 961.32 484.26 955.26 470.36&#xA;  Q 954.53 468.71 956.65 465.89&#xA;  C 960.51 460.76 964.39 460.33 971.08 460.32&#xA;  Q 1017.42 460.29 1020.50 460.40&#xA;  C 1029.11 460.71 1035.23 468.66 1036.19 476.58&#xA;  Q 1036.71 480.92 1036.40 489.21&#xA;  C 1035.96 500.60 1030.00 509.57 1017.49 509.60&#xA;  Q 982.11 509.68 971.92 509.57&#xA;  Z"></path>
<path fill="#ffffff" d="&#xA;  M 625.42 537.42&#xA;  Q 946.79 537.39 947.00 537.40&#xA;  Q 948.42 537.43 951.72 538.36&#xA;  Q 978.07 545.71 994.53 567.31&#xA;  Q 1005.61 581.85 1009.38 600.29&#xA;  Q 1011.03 608.36 1010.97 628.36&#xA;  Q 1010.84 676.08 1010.96 783.33&#xA;  Q 1010.98 797.41 1009.56 803.59&#xA;  C 1004.54 825.47 986.94 843.53 964.82 848.89&#xA;  Q 958.90 850.33 943.57 850.33&#xA;  Q 758.33 850.37 625.45 850.38&#xA;  Q 492.56 850.39 307.32 850.39&#xA;  Q 292.00 850.39 286.08 848.95&#xA;  C 263.95 843.59 246.35 825.53 241.33 803.66&#xA;  Q 239.91 797.48 239.92 783.40&#xA;  Q 240.03 676.15 239.89 628.43&#xA;  Q 239.82 608.43 241.47 600.36&#xA;  Q 245.24 581.91 256.32 567.37&#xA;  Q 272.77 545.77 299.12 538.42&#xA;  Q 302.42 537.48 303.84 537.45&#xA;  Q 304.05 537.45 625.42 537.42&#xA;  Z&#xA;  M 449.80 659.94&#xA;  C 450.75 635.19 434.93 613.61 410.51 608.32&#xA;  Q 405.10 607.14 384.43 607.27&#xA;  Q 367.33 607.38 333.71 607.29&#xA;  Q 321.34 607.25 315.92 608.66&#xA;  C 296.17 613.78 283.82 630.82 283.49 650.98&#xA;  Q 283.30 662.64 284.12 667.13&#xA;  Q 288.88 692.90 312.09 702.67&#xA;  C 316.61 704.57 321.81 705.61 326.56 705.64&#xA;  Q 349.42 705.79 400.00 705.69&#xA;  Q 412.61 705.67 422.04 701.53&#xA;  C 438.75 694.19 449.08 678.52 449.80 659.94&#xA;  Z&#xA;  M 964.30 672.36&#xA;  C 967.94 657.34 967.31 638.69 958.39 625.80&#xA;  Q 949.60 613.09 934.20 608.73&#xA;  Q 929.06 607.27 918.14 607.28&#xA;  Q 851.01 607.33 846.75 607.33&#xA;  Q 835.78 607.33 824.45 612.63&#xA;  Q 814.47 617.30 807.18 626.60&#xA;  C 799.41 636.52 796.27 647.78 796.65 660.43&#xA;  C 797.46 686.84 819.43 705.67 844.75 705.68&#xA;  Q 907.05 705.69 911.02 705.75&#xA;  Q 926.39 705.96 932.36 704.26&#xA;  C 947.81 699.87 960.52 687.98 964.30 672.36&#xA;  Z&#xA;  M 734.48 756.44&#xA;  A 25.22 25.22 0.0 0 0 709.26 731.22&#xA;  L 542.02 731.22&#xA;  A 25.22 25.22 0.0 0 0 516.80 756.44&#xA;  L 516.80 808.88&#xA;  A 25.22 25.22 0.0 0 0 542.02 834.10&#xA;  L 709.26 834.10&#xA;  A 25.22 25.22 0.0 0 0 734.48 808.88&#xA;  L 734.48 756.44&#xA;  Z"></path>
<path fill="#0f0f0f" d="&#xA;  M 410.51 608.32&#xA;  C 434.93 613.61 450.75 635.19 449.80 659.94&#xA;  C 449.08 678.52 438.75 694.19 422.04 701.53&#xA;  Q 412.61 705.67 400.00 705.69&#xA;  Q 349.42 705.79 326.56 705.64&#xA;  C 321.81 705.61 316.61 704.57 312.09 702.67&#xA;  Q 288.88 692.90 284.12 667.13&#xA;  Q 283.30 662.64 283.49 650.98&#xA;  C 283.82 630.82 296.17 613.78 315.92 608.66&#xA;  Q 321.34 607.25 333.71 607.29&#xA;  Q 367.33 607.38 384.43 607.27&#xA;  Q 405.10 607.14 410.51 608.32&#xA;  Z&#xA;  M 309.23 659.74&#xA;  C 309.31 670.35 317.57 681.01 328.54 681.02&#xA;  Q 361.84 681.04 395.50 681.01&#xA;  Q 402.13 681.00 406.82 680.11&#xA;  C 415.35 678.48 422.95 670.41 423.76 661.78&#xA;  C 424.40 654.94 423.58 648.66 419.54 642.99&#xA;  Q 414.13 635.40 406.16 633.07&#xA;  Q 402.55 632.01 389.30 632.03&#xA;  Q 352.68 632.10 339.49 631.97&#xA;  Q 326.18 631.85 323.08 632.70&#xA;  Q 315.08 634.90 311.01 643.23&#xA;  C 308.64 648.08 309.18 653.49 309.23 659.74&#xA;  Z"></path>
<path fill="#0f0f0f" d="&#xA;  M 964.30 672.36&#xA;  C 960.52 687.98 947.81 699.87 932.36 704.26&#xA;  Q 926.39 705.96 911.02 705.75&#xA;  Q 907.05 705.69 844.75 705.68&#xA;  C 819.43 705.67 797.46 686.84 796.65 660.43&#xA;  C 796.27 647.78 799.41 636.52 807.18 626.60&#xA;  Q 814.47 617.30 824.45 612.63&#xA;  Q 835.78 607.33 846.75 607.33&#xA;  Q 851.01 607.33 918.14 607.28&#xA;  Q 929.06 607.27 934.20 608.73&#xA;  Q 949.60 613.09 958.39 625.80&#xA;  C 967.31 638.69 967.94 657.34 964.30 672.36&#xA;  Z&#xA;  M 940.08 648.69&#xA;  C 938.69 639.11 931.23 632.13 921.32 632.11&#xA;  Q 883.79 632.01 848.77 632.08&#xA;  Q 834.18 632.10 826.26 643.89&#xA;  C 821.88 650.41 821.07 661.09 824.62 668.05&#xA;  Q 828.92 676.48 837.99 679.70&#xA;  Q 842.26 681.22 853.21 681.11&#xA;  Q 882.75 680.79 905.00 681.05&#xA;  Q 916.04 681.17 921.53 680.81&#xA;  C 931.55 680.15 939.30 671.57 940.17 661.76&#xA;  Q 940.86 654.04 940.08 648.69&#xA;  Z"></path>
<path fill="#ffffff" d="&#xA;  M 328.54 681.02&#xA;  C 317.57 681.01 309.31 670.35 309.23 659.74&#xA;  C 309.18 653.49 308.64 648.08 311.01 643.23&#xA;  Q 315.08 634.90 323.08 632.70&#xA;  Q 326.18 631.85 339.49 631.97&#xA;  Q 352.68 632.10 389.30 632.03&#xA;  Q 402.55 632.01 406.16 633.07&#xA;  Q 414.13 635.40 419.54 642.99&#xA;  C 423.58 648.66 424.40 654.94 423.76 661.78&#xA;  C 422.95 670.41 415.35 678.48 406.82 680.11&#xA;  Q 402.13 681.00 395.50 681.01&#xA;  Q 361.84 681.04 328.54 681.02&#xA;  Z"></path>
<path fill="#ffffff" d="&#xA;  M 940.08 648.69&#xA;  Q 940.86 654.04 940.17 661.76&#xA;  C 939.30 671.57 931.55 680.15 921.53 680.81&#xA;  Q 916.04 681.17 905.00 681.05&#xA;  Q 882.75 680.79 853.21 681.11&#xA;  Q 842.26 681.22 837.99 679.70&#xA;  Q 828.92 676.48 824.62 668.05&#xA;  C 821.07 661.09 821.88 650.41 826.26 643.89&#xA;  Q 834.18 632.10 848.77 632.08&#xA;  Q 883.79 632.01 921.32 632.11&#xA;  C 931.23 632.13 938.69 639.11 940.08 648.69&#xA;  Z"></path>
<path fill="#0f0f0f" d="&#xA;  M 734.48 808.88&#xA;  A 25.22 25.22 0.0 0 1 709.26 834.10&#xA;  L 542.02 834.10&#xA;  A 25.22 25.22 0.0 0 1 516.80 808.88&#xA;  L 516.80 756.44&#xA;  A 25.22 25.22 0.0 0 1 542.02 731.22&#xA;  L 709.26 731.22&#xA;  A 25.22 25.22 0.0 0 1 734.48 756.44&#xA;  L 734.48 808.88&#xA;  Z&#xA;  M 709.94 760.38&#xA;  A 4.95 4.95 0.0 0 0 704.99 755.43&#xA;  L 546.31 755.43&#xA;  A 4.95 4.95 0.0 0 0 541.36 760.38&#xA;  L 541.36 804.74&#xA;  A 4.95 4.95 0.0 0 0 546.31 809.69&#xA;  L 704.99 809.69&#xA;  A 4.95 4.95 0.0 0 0 709.94 804.74&#xA;  L 709.94 760.38&#xA;  Z"></path>
<rect fill="#ffffff" x="541.36" y="755.43" width="168.58" height="54.26" rx="4.95"></rect>
<path fill="#ffffff" d="&#xA;  M 899.42 875.81&#xA;  Q 909.49 875.80 952.77 875.72&#xA;  Q 966.70 875.70 979.62 871.14&#xA;  A 0.45 0.45 0.0 0 1 980.22 871.56&#xA;  Q 980.34 879.27 980.38 900.18&#xA;  Q 980.39 908.79 979.02 912.21&#xA;  C 975.26 921.58 967.59 926.47 957.49 926.39&#xA;  Q 953.36 926.36 919.55 926.37&#xA;  C 908.82 926.38 899.55 917.54 898.88 906.63&#xA;  Q 898.48 900.20 898.65 876.58&#xA;  A 0.77 0.77 0.0 0 1 899.42 875.81&#xA;  Z"></path>
<path fill="#ffffff" d="&#xA;  M 352.19 876.50&#xA;  Q 352.42 900.09 352.04 906.51&#xA;  C 351.40 917.40 342.16 926.25 331.45 926.27&#xA;  Q 297.68 926.34 293.56 926.38&#xA;  C 283.48 926.49 275.80 921.62 272.03 912.27&#xA;  Q 270.65 908.86 270.64 900.26&#xA;  Q 270.63 879.38 270.73 871.69&#xA;  A 0.45 0.45 0.0 0 1 271.33 871.26&#xA;  Q 284.24 875.79 298.15 875.77&#xA;  Q 341.37 875.75 351.42 875.73&#xA;  A 0.77 0.77 0.0 0 1 352.19 876.50&#xA;  Z"></path>
</svg>