<?xml version="1.0" encoding="UTF-8" standalone="no"?>

<svg xmlns="http://www.w3.org/2000/svg" version="1.1" viewBox="0.00 0.00 1983.00 793.00">
<path stroke="#eefb9b" stroke-width="2.00" fill="none" stroke-linecap="butt" vector-effect="non-scaling-stroke" d="&#xA;  M 99.42 396.75&#xA;  C 99.42 479.24 144.24 551.68 220.73 584.29&#xA;  C 243.05 593.81 268.19 599.62 292.49 602.22&#xA;  C 306.58 603.72 321.33 604.18 337.87 604.19&#xA;  Q 427.21 604.22 991.55 604.23&#xA;  Q 1555.89 604.24 1645.23 604.20&#xA;  C 1661.77 604.19 1676.52 603.73 1690.61 602.23&#xA;  C 1714.91 599.63 1740.05 593.83 1762.37 584.31&#xA;  C 1838.86 551.70 1883.68 479.25 1883.68 396.77&#xA;  C 1883.68 314.29 1838.86 241.84 1762.38 209.23&#xA;  C 1740.05 199.71 1714.91 193.90 1690.61 191.30&#xA;  C 1676.52 189.80 1661.77 189.34 1645.24 189.34&#xA;  Q 1555.89 189.30 991.55 189.29&#xA;  Q 427.21 189.29 337.87 189.32&#xA;  C 321.33 189.33 306.58 189.79 292.49 191.29&#xA;  C 268.19 193.89 243.05 199.70 220.73 209.21&#xA;  C 144.24 241.82 99.42 314.27 99.42 396.75"></path>
<path fill="#ddf636" d="&#xA;  M 991.55 189.29&#xA;  Q 1555.89 189.30 1645.24 189.34&#xA;  C 1661.77 189.34 1676.52 189.80 1690.61 191.30&#xA;  C 1714.91 193.90 1740.05 199.71 1762.38 209.23&#xA;  C 1838.86 241.84 1883.68 314.29 1883.68 396.77&#xA;  C 1883.68 479.25 1838.86 551.70 1762.37 584.31&#xA;  C 1740.05 593.83 1714.91 599.63 1690.61 602.23&#xA;  C 1676.52 603.73 1661.77 604.19 1645.23 604.20&#xA;  Q 1555.89 604.24 991.55 604.23&#xA;  Q 427.21 604.22 337.87 604.19&#xA;  C 321.33 604.18 306.58 603.72 292.49 602.22&#xA;  C 268.19 599.62 243.05 593.81 220.73 584.29&#xA;  C 144.24 551.68 99.42 479.24 99.42 396.75&#xA;  C 99.42 314.27 144.24 241.82 220.73 209.21&#xA;  C 243.05 199.70 268.19 193.89 292.49 191.29&#xA;  C 306.58 189.79 321.33 189.33 337.87 189.32&#xA;  Q 427.21 189.29 991.55 189.29&#xA;  Z"></path>
</svg>