<?xml version="1.0" encoding="UTF-8" standalone="no"?>

<svg xmlns="http://www.w3.org/2000/svg" version="1.1" viewBox="0.00 0.00 1024.00 1536.00">
<path stroke="#e3f5f0" stroke-width="2.00" fill="none" stroke-linecap="butt" vector-effect="non-scaling-stroke" d="&#xA;  M 250.88 441.64&#xA;  C 232.08 458.49 212.31 473.19 192.07 490.82&#xA;  Q 176.10 504.73 163.19 519.68&#xA;  Q 152.99 531.49 142.23 548.79&#xA;  Q 139.22 553.63 136.28 560.02&#xA;  Q 132.11 569.08 131.12 571.69&#xA;  Q 116.19 611.06 123.30 651.25&#xA;  Q 127.51 675.07 140.91 697.74&#xA;  C 146.17 706.63 152.47 715.76 159.11 723.39&#xA;  C 173.09 739.48 188.43 756.30 196.23 765.56&#xA;  Q 212.54 784.94 224.15 805.83&#xA;  Q 233.46 822.58 239.08 844.14&#xA;  Q 240.78 850.66 241.52 859.10&#xA;  Q 242.55 870.66 242.57 874.25&#xA;  C 242.76 904.00 231.93 932.72 213.06 955.58&#xA;  Q 201.99 968.99 191.73 978.74&#xA;  C 172.64 996.89 158.35 1010.97 145.48 1029.68&#xA;  Q 125.86 1058.19 118.65 1091.54&#xA;  C 107.94 1141.10 120.94 1193.94 144.78 1237.71&#xA;  Q 158.31 1262.56 176.07 1284.42&#xA;  C 204.87 1319.85 239.24 1349.74 279.74 1370.23&#xA;  C 317.30 1389.23 358.99 1396.12 401.00 1392.72&#xA;  C 419.75 1391.20 438.72 1388.33 456.50 1386.25&#xA;  C 479.38 1383.57 502.35 1383.31 525.21 1386.71&#xA;  C 546.47 1389.88 569.21 1395.43 586.44 1398.58&#xA;  C 617.68 1404.29 648.14 1405.39 680.25 1400.23&#xA;  C 755.94 1388.06 817.76 1340.10 858.52 1276.31&#xA;  Q 878.03 1245.77 890.82 1207.76&#xA;  C 910.60 1148.94 914.16 1086.38 902.01 1025.09&#xA;  C 896.20 995.72 887.52 967.03 877.20 939.55&#xA;  Q 861.58 897.97 841.17 855.81&#xA;  Q 823.65 819.61 815.13 801.65&#xA;  Q 805.40 781.11 797.81 760.65&#xA;  Q 792.30 745.77 789.12 732.12&#xA;  Q 785.02 714.48 783.98 702.74&#xA;  Q 779.10 647.88 794.22 593.97&#xA;  Q 800.09 573.04 807.74 552.99&#xA;  Q 821.96 515.77 825.37 506.66&#xA;  Q 831.39 490.59 838.57 465.35&#xA;  C 845.78 439.99 850.01 413.13 850.83 388.14&#xA;  Q 853.22 315.71 819.92 251.51&#xA;  C 782.40 179.16 715.74 125.33 637.76 101.85&#xA;  Q 568.78 81.08 496.21 94.16&#xA;  C 441.69 103.99 391.18 132.06 359.86 178.31&#xA;  C 343.73 202.14 333.85 230.28 328.99 259.00&#xA;  Q 325.81 277.86 322.79 302.02&#xA;  C 319.38 329.29 312.71 355.82 299.77 380.26&#xA;  Q 286.60 405.12 266.20 426.46&#xA;  Q 256.52 436.58 250.88 441.64"></path>
<path fill="#c6ebe0" d="&#xA;  M 250.88 441.64&#xA;  Q 256.52 436.58 266.20 426.46&#xA;  Q 286.60 405.12 299.77 380.26&#xA;  C 312.71 355.82 319.38 329.29 322.79 302.02&#xA;  Q 325.81 277.86 328.99 259.00&#xA;  C 333.85 230.28 343.73 202.14 359.86 178.31&#xA;  C 391.18 132.06 441.69 103.99 496.21 94.16&#xA;  Q 568.78 81.08 637.76 101.85&#xA;  C 715.74 125.33 782.40 179.16 819.92 251.51&#xA;  Q 853.22 315.71 850.83 388.14&#xA;  C 850.01 413.13 845.78 439.99 838.57 465.35&#xA;  Q 831.39 490.59 825.37 506.66&#xA;  Q 821.96 515.77 807.74 552.99&#xA;  Q 800.09 573.04 794.22 593.97&#xA;  Q 779.10 647.88 783.98 702.74&#xA;  Q 785.02 714.48 789.12 732.12&#xA;  Q 792.30 745.77 797.81 760.65&#xA;  Q 805.40 781.11 815.13 801.65&#xA;  Q 823.65 819.61 841.17 855.81&#xA;  Q 861.58 897.97 877.20 939.55&#xA;  C 887.52 967.03 896.20 995.72 902.01 1025.09&#xA;  C 914.16 1086.38 910.60 1148.94 890.82 1207.76&#xA;  Q 878.03 1245.77 858.52 1276.31&#xA;  C 817.76 1340.10 755.94 1388.06 680.25 1400.23&#xA;  C 648.14 1405.39 617.68 1404.29 586.44 1398.58&#xA;  C 569.21 1395.43 546.47 1389.88 525.21 1386.71&#xA;  C 502.35 1383.31 479.38 1383.57 456.50 1386.25&#xA;  C 438.72 1388.33 419.75 1391.20 401.00 1392.72&#xA;  C 358.99 1396.12 317.30 1389.23 279.74 1370.23&#xA;  C 239.24 1349.74 204.87 1319.85 176.07 1284.42&#xA;  Q 158.31 1262.56 144.78 1237.71&#xA;  C 120.94 1193.94 107.94 1141.10 118.65 1091.54&#xA;  Q 125.86 1058.19 145.48 1029.68&#xA;  C 158.35 1010.97 172.64 996.89 191.73 978.74&#xA;  Q 201.99 968.99 213.06 955.58&#xA;  C 231.93 932.72 242.76 904.00 242.57 874.25&#xA;  Q 242.55 870.66 241.52 859.10&#xA;  Q 240.78 850.66 239.08 844.14&#xA;  Q 233.46 822.58 224.15 805.83&#xA;  Q 212.54 784.94 196.23 765.56&#xA;  C 188.43 756.30 173.09 739.48 159.11 723.39&#xA;  C 152.47 715.76 146.17 706.63 140.91 697.74&#xA;  Q 127.51 675.07 123.30 651.25&#xA;  Q 116.19 611.06 131.12 571.69&#xA;  Q 132.11 569.08 136.28 560.02&#xA;  Q 139.22 553.63 142.23 548.79&#xA;  Q 152.99 531.49 163.19 519.68&#xA;  Q 176.10 504.73 192.07 490.82&#xA;  C 212.31 473.19 232.08 458.49 250.88 441.64&#xA;  Z"></path>
</svg>