<?xml version="1.0" encoding="UTF-8" standalone="no"?>

<svg xmlns="http://www.w3.org/2000/svg" version="1.1" viewBox="0.00 0.00 936.00 1681.00">
<g stroke-width="2.00" fill="none" stroke-linecap="butt">
<path stroke="#bfa1ff" vector-effect="non-scaling-stroke" d="&#xA;  M 737.97 137.48&#xA;  Q 742.24 139.06 747.77 142.29&#xA;  A 6.73 6.31 -17.1 0 0 748.69 142.74&#xA;  Q 756.74 145.79 763.84 150.41&#xA;  C 766.41 152.09 774.04 155.20 773.65 149.71&#xA;  C 773.45 146.97 768.95 143.82 766.65 142.63&#xA;  C 761.90 140.19 759.54 139.47 755.07 136.76&#xA;  C 750.30 133.86 744.79 132.65 739.84 130.05&#xA;  C 737.46 128.80 730.81 125.80 728.06 126.86&#xA;  Q 725.21 127.96 724.78 131.02&#xA;  Q 722.78 145.34 721.24 169.06&#xA;  A 3.75 3.74 -85.2 0 0 724.59 173.03&#xA;  L 724.75 173.05&#xA;  A 3.78 3.78 0.0 0 0 728.87 169.88&#xA;  Q 731.31 154.50 731.66 142.52&#xA;  A 0.50 0.49 29.5 0 1 732.57 142.27&#xA;  Q 737.65 150.04 741.23 157.46&#xA;  C 743.58 162.34 747.15 167.23 749.28 172.57&#xA;  Q 753.22 182.40 756.32 188.58&#xA;  C 759.45 194.80 760.87 201.55 763.86 208.82&#xA;  Q 766.48 215.21 768.42 223.03&#xA;  Q 770.33 230.70 773.67 242.23&#xA;  Q 774.70 245.78 775.18 249.28&#xA;  C 776.06 255.84 776.47 259.03 777.72 265.42&#xA;  Q 778.66 270.19 779.09 274.44&#xA;  Q 779.80 281.33 780.33 292.74&#xA;  Q 781.37 315.48 776.51 335.27&#xA;  Q 775.49 339.43 774.84 341.27&#xA;  A 0.72 0.72 0.0 0 1 774.07 341.75&#xA;  C 769.68 341.27 762.67 340.39 757.63 341.06&#xA;  Q 742.57 343.07 731.72 351.74&#xA;  Q 724.26 357.70 720.67 368.08&#xA;  C 717.91 376.02 719.63 384.03 727.01 388.09&#xA;  Q 732.83 391.30 742.29 388.88&#xA;  Q 751.32 386.57 759.57 379.38&#xA;  Q 773.17 367.54 778.74 350.93&#xA;  A 0.76 0.75 18.9 0 1 779.71 350.46&#xA;  C 786.97 353.05 793.76 358.45 799.96 363.45&#xA;  C 801.71 364.86 804.08 367.32 805.09 368.69&#xA;  Q 808.20 372.92 815.40 382.64&#xA;  Q 819.58 388.28 822.24 393.92&#xA;  C 826.27 402.46 831.68 412.59 834.82 422.78&#xA;  Q 836.82 429.26 840.17 437.85&#xA;  Q 840.88 439.66 842.43 447.43&#xA;  C 843.74 454.03 846.40 461.47 847.17 468.56&#xA;  C 847.70 473.53 848.64 478.78 849.45 482.12&#xA;  Q 850.32 485.67 850.72 492.33&#xA;  Q 851.14 499.28 851.87 504.04&#xA;  Q 852.63 508.97 852.56 511.74&#xA;  C 852.40 518.24 853.05 524.34 852.90 531.04&#xA;  Q 852.30 557.00 849.29 579.98&#xA;  C 848.02 589.63 845.40 600.33 844.44 608.04&#xA;  C 843.37 616.67 840.12 626.11 838.68 633.93&#xA;  C 837.15 642.19 833.81 650.11 831.63 658.78&#xA;  C 829.96 665.40 826.95 671.81 825.24 678.22&#xA;  C 823.48 684.81 820.42 690.83 818.23 697.01&#xA;  C 816.70 701.36 814.49 705.18 812.16 710.15&#xA;  A 0.93 0.92 -65.9 0 1 810.97 710.61&#xA;  Q 805.00 708.15 799.24 708.91&#xA;  Q 789.56 710.19 784.80 717.39&#xA;  C 779.66 725.17 782.54 735.46 792.66 736.58&#xA;  C 798.74 737.26 802.48 734.18 806.85 730.11&#xA;  Q 811.15 726.12 813.70 720.13&#xA;  A 0.47 0.46 34.3 0 1 814.46 719.99&#xA;  Q 824.21 729.90 828.15 743.40&#xA;  Q 831.90 756.28 832.47 763.56&#xA;  C 832.56 764.71 833.41 767.09 834.61 767.81&#xA;  A 2.23 2.20 -62.4 0 0 837.78 766.79&#xA;  Q 838.46 765.28 838.47 762.75&#xA;  C 838.58 746.12 830.62 724.50 817.68 714.41&#xA;  A 0.76 0.76 0.0 0 1 817.47 713.46&#xA;  Q 818.49 711.48 822.49 702.71&#xA;  C 826.11 694.79 828.24 688.07 831.33 680.75&#xA;  C 833.79 674.91 834.97 669.30 837.22 663.41&#xA;  Q 839.09 658.53 841.06 650.27&#xA;  C 842.74 643.21 845.47 636.77 846.60 630.13&#xA;  C 847.94 622.30 851.16 611.59 852.92 601.92&#xA;  Q 857.47 576.84 859.54 549.86&#xA;  C 860.63 535.61 859.92 521.17 859.41 506.40&#xA;  C 859.01 494.65 856.99 484.46 855.53 472.97&#xA;  C 854.78 467.13 852.69 461.38 851.88 456.03&#xA;  Q 851.05 450.59 848.79 443.44&#xA;  C 846.31 435.57 843.84 425.64 840.15 416.85&#xA;  Q 840.00 416.48 836.78 408.56&#xA;  Q 831.39 395.29 827.80 389.65&#xA;  Q 825.40 385.88 819.14 375.59&#xA;  C 815.21 369.15 809.53 363.96 802.68 356.96&#xA;  C 796.93 351.08 789.45 347.60 782.13 344.40&#xA;  A 0.82 0.82 0.0 0 1 781.69 343.38&#xA;  Q 783.53 338.07 784.60 331.88&#xA;  Q 786.91 318.49 787.27 310.51&#xA;  Q 787.73 300.41 787.03 283.26&#xA;  C 786.70 275.30 785.28 268.23 784.40 261.34&#xA;  C 783.10 251.16 780.22 241.70 778.09 231.72&#xA;  Q 777.21 227.56 774.31 218.55&#xA;  Q 770.59 206.97 769.34 203.00&#xA;  C 767.21 196.20 763.57 189.71 761.29 183.17&#xA;  Q 759.19 177.13 755.68 170.56&#xA;  C 751.19 162.16 748.53 155.24 743.63 148.25&#xA;  Q 741.31 144.95 737.25 138.35&#xA;  A 0.60 0.59 -5.6 0 1 737.97 137.48"></path>
<path stroke="#bae6da" vector-effect="non-scaling-stroke" d="&#xA;  M 742.82 765.71&#xA;  Q 743.35 763.61 741.60 760.67&#xA;  C 739.07 756.39 731.14 753.90 727.03 753.88&#xA;  Q 719.66 753.85 714.32 759.29&#xA;  C 707.16 766.59 706.34 775.94 711.19 784.72&#xA;  C 714.31 790.37 718.80 795.34 724.97 797.77&#xA;  C 743.79 805.20 765.48 792.17 776.27 777.28&#xA;  C 778.79 773.81 781.07 770.94 782.22 767.51&#xA;  C 783.23 764.53 783.98 758.34 778.94 760.08&#xA;  A 2.42 2.25 -73.5 0 0 778.16 760.54&#xA;  Q 776.96 761.63 774.23 766.22&#xA;  C 770.81 771.98 764.53 777.34 758.60 782.33&#xA;  C 751.94 787.94 741.42 791.58 732.80 788.94&#xA;  C 724.18 786.31 718.86 780.81 719.69 771.16&#xA;  Q 719.87 769.08 721.76 767.49&#xA;  Q 726.21 763.74 731.51 765.93&#xA;  A 3.24 3.12 72.6 0 1 732.17 766.29&#xA;  Q 733.69 767.38 735.65 768.62&#xA;  C 738.73 770.56 741.99 768.99 742.82 765.71"></path>
<path stroke="#fe9dc2" vector-effect="non-scaling-stroke" d="&#xA;  M 749.55 855.29&#xA;  Q 750.08 859.46 750.39 867.25&#xA;  Q 750.51 870.35 752.05 872.45&#xA;  A 2.36 2.13 49.6 0 0 755.45 872.90&#xA;  C 758.70 869.59 756.84 859.42 756.22 854.45&#xA;  C 755.59 849.48 754.87 839.17 750.89 836.77&#xA;  A 2.36 2.13 -64.0 0 0 747.72 838.05&#xA;  Q 746.74 840.46 747.39 843.49&#xA;  Q 749.03 851.12 749.55 855.29"></path>
<path stroke="#fe9dc2" vector-effect="non-scaling-stroke" d="&#xA;  M 746.90 932.16&#xA;  Q 746.03 938.31 744.68 945.11&#xA;  Q 744.04 948.35 744.76 951.00&#xA;  A 2.36 2.16 78.3 0 0 747.17 952.74&#xA;  C 751.94 952.13 753.01 936.76 753.53 933.10&#xA;  C 754.05 929.43 757.29 914.37 752.89 912.46&#xA;  A 2.36 2.16 -62.2 0 0 750.08 913.46&#xA;  Q 748.66 915.80 748.37 919.09&#xA;  Q 747.78 926.00 746.90 932.16"></path>
<path stroke="#fe9dc2" vector-effect="non-scaling-stroke" d="&#xA;  M 737.36 985.42&#xA;  A 1.49 1.47 77.9 0 0 735.44 984.16&#xA;  Q 733.97 984.65 733.28 986.30&#xA;  Q 726.07 1003.65 719.70 1016.64&#xA;  A 3.52 3.51 -54.4 0 0 720.36 1020.66&#xA;  L 720.44 1020.73&#xA;  A 2.12 2.12 0.0 0 0 723.69 1020.45&#xA;  Q 731.36 1009.48 735.02 998.12&#xA;  C 736.49 993.56 737.81 989.63 737.36 985.42"></path>
<path stroke="#fe9dc2" vector-effect="non-scaling-stroke" d="&#xA;  M 689.97 1061.31&#xA;  Q 686.65 1065.05 683.12 1068.63&#xA;  C 681.11 1070.66 678.36 1075.09 681.80 1076.65&#xA;  C 686.10 1078.58 692.52 1070.41 695.91 1066.59&#xA;  C 699.30 1062.78 706.66 1055.43 704.23 1051.39&#xA;  C 702.28 1048.16 698.20 1051.41 696.42 1053.65&#xA;  Q 693.29 1057.58 689.97 1061.31"></path>
<path stroke="#fe9dc2" vector-effect="non-scaling-stroke" d="&#xA;  M 647.02 1090.15&#xA;  Q 642.06 1089.81 624.75 1087.97&#xA;  Q 621.09 1087.58 617.95 1087.90&#xA;  C 614.62 1088.25 611.48 1091.85 613.90 1095.05&#xA;  C 616.86 1098.95 621.60 1099.60 626.26 1100.28&#xA;  Q 628.35 1100.58 638.19 1100.09&#xA;  C 642.53 1099.87 646.28 1098.56 650.26 1097.30&#xA;  Q 650.49 1097.23 650.82 1097.31&#xA;  A 0.57 0.57 0.0 0 1 651.04 1098.30&#xA;  Q 641.43 1106.36 633.00 1117.00&#xA;  C 627.29 1124.20 634.10 1131.11 641.15 1124.90&#xA;  C 647.78 1119.06 652.10 1113.28 657.97 1105.55&#xA;  A 0.95 0.95 0.0 0 1 659.44 1105.51&#xA;  Q 668.95 1116.52 681.75 1123.22&#xA;  Q 684.72 1124.77 687.52 1124.89&#xA;  C 694.74 1125.19 697.36 1117.70 692.07 1112.98&#xA;  C 688.77 1110.03 683.98 1108.12 681.41 1106.37&#xA;  Q 678.72 1104.55 673.79 1102.08&#xA;  Q 670.15 1100.26 666.25 1097.09&#xA;  A 0.96 0.96 0.0 0 1 666.12 1095.72&#xA;  Q 669.07 1092.26 671.20 1089.44&#xA;  C 673.62 1086.23 674.04 1081.69 668.23 1082.32&#xA;  A 1.86 1.82 -63.1 0 0 667.43 1082.59&#xA;  L 658.91 1087.88&#xA;  A 0.80 0.79 60.2 0 1 657.78 1087.57&#xA;  Q 656.46 1085.03 655.70 1082.79&#xA;  Q 651.42 1070.22 646.72 1057.79&#xA;  Q 645.59 1054.80 643.94 1053.04&#xA;  C 641.32 1050.23 637.35 1050.69 635.13 1053.74&#xA;  C 629.94 1060.83 639.76 1077.17 643.08 1083.67&#xA;  A 11.15 11.04 12.7 0 0 644.18 1085.39&#xA;  L 647.38 1089.48&#xA;  A 0.42 0.42 0.0 0 1 647.02 1090.15"></path>
<path stroke="#bfa1ff" vector-effect="non-scaling-stroke" d="&#xA;  M 102.39 1239.80&#xA;  Q 106.29 1234.85 113.14 1234.55&#xA;  Q 126.36 1233.97 133.73 1243.62&#xA;  Q 139.27 1250.87 145.55 1263.44&#xA;  Q 150.00 1272.37 152.06 1274.86&#xA;  C 161.56 1286.32 172.52 1291.73 186.85 1291.73&#xA;  Q 193.52 1291.73 199.01 1289.89&#xA;  C 207.34 1287.10 214.14 1283.99 220.23 1278.05&#xA;  A 1.01 1.01 0.0 0 1 221.74 1278.17&#xA;  Q 224.78 1282.20 226.90 1285.49&#xA;  C 232.63 1294.32 239.83 1299.27 245.96 1305.54&#xA;  Q 249.69 1309.35 254.86 1312.78&#xA;  Q 268.98 1322.13 270.87 1323.14&#xA;  Q 292.78 1334.82 318.41 1341.71&#xA;  Q 322.09 1342.70 330.37 1344.24&#xA;  C 338.34 1345.72 343.74 1347.10 351.16 1347.80&#xA;  Q 387.30 1351.18 422.74 1346.36&#xA;  Q 425.67 1345.96 434.76 1344.28&#xA;  Q 511.66 1330.06 572.47 1281.84&#xA;  Q 576.77 1278.44 581.71 1273.80&#xA;  Q 590.21 1265.82 590.64 1265.40&#xA;  C 595.50 1260.54 598.62 1256.59 603.52 1251.27&#xA;  Q 610.85 1243.31 616.78 1234.03&#xA;  C 619.37 1229.97 622.68 1226.18 625.45 1221.45&#xA;  C 636.63 1202.40 646.62 1183.55 651.21 1162.50&#xA;  Q 652.22 1157.88 652.05 1153.33&#xA;  A 1.25 1.25 0.0 0 0 650.49 1152.16&#xA;  Q 649.50 1152.41 649.27 1153.54&#xA;  C 647.98 1159.83 646.30 1166.51 643.42 1174.04&#xA;  Q 636.86 1191.16 626.41 1209.20&#xA;  C 623.27 1214.60 620.37 1218.06 617.70 1222.66&#xA;  Q 615.23 1226.92 610.88 1232.55&#xA;  Q 609.81 1233.94 600.44 1245.81&#xA;  Q 595.58 1251.95 589.89 1257.55&#xA;  Q 579.30 1267.95 578.56 1268.57&#xA;  Q 560.49 1283.76 549.62 1290.86&#xA;  Q 546.59 1292.83 543.48 1294.89&#xA;  C 536.94 1299.22 528.17 1304.18 520.20 1308.27&#xA;  Q 494.60 1321.38 466.65 1329.85&#xA;  Q 442.47 1337.18 414.71 1340.41&#xA;  Q 373.99 1345.15 334.91 1338.46&#xA;  Q 329.25 1337.49 326.21 1336.62&#xA;  C 318.57 1334.46 311.79 1333.33 304.81 1330.75&#xA;  Q 289.07 1324.95 282.03 1321.48&#xA;  Q 278.24 1319.60 263.21 1310.83&#xA;  C 260.70 1309.37 257.33 1306.65 255.63 1304.87&#xA;  Q 254.97 1304.18 249.95 1300.59&#xA;  Q 246.34 1298.01 243.96 1295.26&#xA;  Q 236.75 1286.93 229.90 1279.16&#xA;  C 228.32 1277.37 226.90 1275.11 225.84 1273.11&#xA;  A 1.61 1.61 0.0 0 1 225.97 1271.39&#xA;  Q 230.91 1264.78 234.62 1257.62&#xA;  Q 235.09 1256.72 238.59 1246.76&#xA;  C 242.36 1236.05 242.26 1223.86 240.71 1212.60&#xA;  C 239.48 1203.67 236.38 1197.91 229.39 1193.23&#xA;  Q 222.52 1188.63 214.00 1191.13&#xA;  C 204.11 1194.03 199.80 1201.90 199.01 1211.80&#xA;  Q 198.87 1213.46 199.69 1223.20&#xA;  C 200.49 1232.85 203.22 1239.41 206.32 1248.65&#xA;  C 208.98 1256.59 213.40 1262.68 216.62 1270.37&#xA;  A 1.99 1.99 0.0 0 1 216.31 1272.42&#xA;  Q 211.28 1278.40 203.87 1281.90&#xA;  Q 195.12 1286.03 183.43 1285.42&#xA;  C 179.39 1285.21 176.43 1284.77 173.23 1283.26&#xA;  C 167.26 1280.44 162.15 1277.63 158.17 1272.09&#xA;  Q 150.73 1261.74 147.02 1253.17&#xA;  Q 144.17 1246.59 142.20 1244.08&#xA;  C 138.00 1238.74 131.47 1233.30 125.63 1230.69&#xA;  C 118.26 1227.41 109.69 1228.36 103.24 1233.76&#xA;  Q 101.17 1235.49 100.31 1238.26&#xA;  A 1.63 1.55 -74.7 0 0 101.41 1240.30&#xA;  Q 101.49 1240.32 101.75 1240.24&#xA;  A 1.30 1.29 10.2 0 0 102.39 1239.80"></path>
<path stroke="#bfa1ff" vector-effect="non-scaling-stroke" d="&#xA;  M 66.65 1258.28&#xA;  Q 67.98 1258.14 68.94 1257.68&#xA;  Q 73.29 1255.63 76.41 1253.62&#xA;  Q 80.20 1251.18 81.66 1250.55&#xA;  C 84.13 1249.48 88.55 1248.01 89.26 1245.87&#xA;  A 1.13 1.13 0.0 0 0 88.20 1244.38&#xA;  Q 86.19 1244.36 84.03 1245.04&#xA;  C 80.29 1246.21 64.39 1252.52 65.33 1257.29&#xA;  A 1.24 1.22 81.4 0 0 66.65 1258.28"></path>
<path stroke="#bfa1ff" vector-effect="non-scaling-stroke" d="&#xA;  M 86.75 1281.68&#xA;  Q 88.34 1282.21 89.72 1279.22&#xA;  C 92.69 1272.83 93.76 1267.92 97.28 1255.94&#xA;  Q 98.08 1253.21 96.47 1252.66&#xA;  Q 94.85 1252.12 93.85 1254.79&#xA;  C 89.44 1266.47 87.33 1271.04 85.85 1277.92&#xA;  Q 85.16 1281.15 86.75 1281.68"></path>
<path stroke="#bfa1ff" vector-effect="non-scaling-stroke" d="&#xA;  M 107.99 1262.62&#xA;  Q 109.15 1267.77 110.24 1270.26&#xA;  Q 110.92 1271.82 112.03 1271.57&#xA;  Q 113.15 1271.32 113.10 1269.62&#xA;  Q 113.02 1266.90 111.86 1261.76&#xA;  Q 110.71 1256.61 109.62 1254.12&#xA;  Q 108.93 1252.56 107.82 1252.81&#xA;  Q 106.70 1253.06 106.75 1254.76&#xA;  Q 106.84 1257.48 107.99 1262.62"></path>
<path stroke="#bfa1ff" vector-effect="non-scaling-stroke" d="&#xA;  M 771.97 349.47&#xA;  A 0.76 0.75 15.3 0 0 771.40 348.48&#xA;  C 769.49 348.11 766.33 347.57 763.84 347.75&#xA;  Q 755.78 348.34 753.52 348.78&#xA;  Q 750.68 349.32 743.98 352.17&#xA;  Q 738.65 354.43 735.49 357.59&#xA;  C 729.71 363.37 725.16 368.54 726.77 377.48&#xA;  C 728.75 388.48 744.67 381.12 749.68 377.94&#xA;  Q 760.17 371.29 766.44 360.93&#xA;  Q 770.09 354.89 771.97 349.47"></path>
<path stroke="#bfa1ff" vector-effect="non-scaling-stroke" d="&#xA;  M 808.41 716.95&#xA;  A 0.50 0.50 0.0 0 0 808.12 716.23&#xA;  C 801.67 714.25 794.96 714.71 790.57 720.34&#xA;  Q 788.64 722.82 788.73 725.05&#xA;  C 788.85 727.93 791.11 731.47 794.46 730.52&#xA;  C 801.35 728.57 805.16 722.81 808.41 716.95"></path>
<path stroke="#bfa1ff" vector-effect="non-scaling-stroke" d="&#xA;  M 222.04 1265.65&#xA;  Q 225.38 1262.47 227.38 1257.87&#xA;  Q 229.45 1253.13 232.32 1245.60&#xA;  A 10.01 9.90 -30.6 0 0 232.88 1243.46&#xA;  Q 235.08 1228.58 235.36 1225.07&#xA;  Q 236.04 1216.58 231.59 1205.21&#xA;  Q 229.03 1198.67 223.25 1197.24&#xA;  C 214.54 1195.07 207.19 1200.95 205.85 1209.60&#xA;  Q 204.93 1215.56 205.38 1220.29&#xA;  Q 205.84 1225.17 209.26 1238.30&#xA;  Q 210.53 1243.17 212.90 1248.31&#xA;  C 214.59 1251.96 217.37 1260.23 221.18 1265.57&#xA;  A 0.57 0.57 0.0 0 0 222.04 1265.65"></path>
</g>
<path fill="#7e42fe" d="&#xA;  M 737.97 137.48&#xA;  A 0.60 0.59 -5.6 0 0 737.25 138.35&#xA;  Q 741.31 144.95 743.63 148.25&#xA;  C 748.53 155.24 751.19 162.16 755.68 170.56&#xA;  Q 759.19 177.13 761.29 183.17&#xA;  C 763.57 189.71 767.21 196.20 769.34 203.00&#xA;  Q 770.59 206.97 774.31 218.55&#xA;  Q 777.21 227.56 778.09 231.72&#xA;  C 780.22 241.70 783.10 251.16 784.40 261.34&#xA;  C 785.28 268.23 786.70 275.30 787.03 283.26&#xA;  Q 787.73 300.41 787.27 310.51&#xA;  Q 786.91 318.49 784.60 331.88&#xA;  Q 783.53 338.07 781.69 343.38&#xA;  A 0.82 0.82 0.0 0 0 782.13 344.40&#xA;  C 789.45 347.60 796.93 351.08 802.68 356.96&#xA;  C 809.53 363.96 815.21 369.15 819.14 375.59&#xA;  Q 825.40 385.88 827.80 389.65&#xA;  Q 831.39 395.29 836.78 408.56&#xA;  Q 840.00 416.48 840.15 416.85&#xA;  C 843.84 425.64 846.31 435.57 848.79 443.44&#xA;  Q 851.05 450.59 851.88 456.03&#xA;  C 852.69 461.38 854.78 467.13 855.53 472.97&#xA;  C 856.99 484.46 859.01 494.65 859.41 506.40&#xA;  C 859.92 521.17 860.63 535.61 859.54 549.86&#xA;  Q 857.47 576.84 852.92 601.92&#xA;  C 851.16 611.59 847.94 622.30 846.60 630.13&#xA;  C 845.47 636.77 842.74 643.21 841.06 650.27&#xA;  Q 839.09 658.53 837.22 663.41&#xA;  C 834.97 669.30 833.79 674.91 831.33 680.75&#xA;  C 828.24 688.07 826.11 694.79 822.49 702.71&#xA;  Q 818.49 711.48 817.47 713.46&#xA;  A 0.76 0.76 0.0 0 0 817.68 714.41&#xA;  C 830.62 724.50 838.58 746.12 838.47 762.75&#xA;  Q 838.46 765.28 837.78 766.79&#xA;  A 2.23 2.20 -62.4 0 1 834.61 767.81&#xA;  C 833.41 767.09 832.56 764.71 832.47 763.56&#xA;  Q 831.90 756.28 828.15 743.40&#xA;  Q 824.21 729.90 814.46 719.99&#xA;  A 0.47 0.46 34.3 0 0 813.70 720.13&#xA;  Q 811.15 726.12 806.85 730.11&#xA;  C 802.48 734.18 798.74 737.26 792.66 736.58&#xA;  C 782.54 735.46 779.66 725.17 784.80 717.39&#xA;  Q 789.56 710.19 799.24 708.91&#xA;  Q 805.00 708.15 810.97 710.61&#xA;  A 0.93 0.92 -65.9 0 0 812.16 710.15&#xA;  C 814.49 705.18 816.70 701.36 818.23 697.01&#xA;  C 820.42 690.83 823.48 684.81 825.24 678.22&#xA;  C 826.95 671.81 829.96 665.40 831.63 658.78&#xA;  C 833.81 650.11 837.15 642.19 838.68 633.93&#xA;  C 840.12 626.11 843.37 616.67 844.44 608.04&#xA;  C 845.40 600.33 848.02 589.63 849.29 579.98&#xA;  Q 852.30 557.00 852.90 531.04&#xA;  C 853.05 524.34 852.40 518.24 852.56 511.74&#xA;  Q 852.63 508.97 851.87 504.04&#xA;  Q 851.14 499.28 850.72 492.33&#xA;  Q 850.32 485.67 849.45 482.12&#xA;  C 848.64 478.78 847.70 473.53 847.17 468.56&#xA;  C 846.40 461.47 843.74 454.03 842.43 447.43&#xA;  Q 840.88 439.66 840.17 437.85&#xA;  Q 836.82 429.26 834.82 422.78&#xA;  C 831.68 412.59 826.27 402.46 822.24 393.92&#xA;  Q 819.58 388.28 815.40 382.64&#xA;  Q 808.20 372.92 805.09 368.69&#xA;  C 804.08 367.32 801.71 364.86 799.96 363.45&#xA;  C 793.76 358.45 786.97 353.05 779.71 350.46&#xA;  A 0.76 0.75 18.9 0 0 778.74 350.93&#xA;  Q 773.17 367.54 759.57 379.38&#xA;  Q 751.32 386.57 742.29 388.88&#xA;  Q 732.83 391.30 727.01 388.09&#xA;  C 719.63 384.03 717.91 376.02 720.67 368.08&#xA;  Q 724.26 357.70 731.72 351.74&#xA;  Q 742.57 343.07 757.63 341.06&#xA;  C 762.67 340.39 769.68 341.27 774.07 341.75&#xA;  A 0.72 0.72 0.0 0 0 774.84 341.27&#xA;  Q 775.49 339.43 776.51 335.27&#xA;  Q 781.37 315.48 780.33 292.74&#xA;  Q 779.80 281.33 779.09 274.44&#xA;  Q 778.66 270.19 777.72 265.42&#xA;  C 776.47 259.03 776.06 255.84 775.18 249.28&#xA;  Q 774.70 245.78 773.67 242.23&#xA;  Q 770.33 230.70 768.42 223.03&#xA;  Q 766.48 215.21 763.86 208.82&#xA;  C 760.87 201.55 759.45 194.80 756.32 188.58&#xA;  Q 753.22 182.40 749.28 172.57&#xA;  C 747.15 167.23 743.58 162.34 741.23 157.46&#xA;  Q 737.65 150.04 732.57 142.27&#xA;  A 0.50 0.49 29.5 0 0 731.66 142.52&#xA;  Q 731.31 154.50 728.87 169.88&#xA;  A 3.78 3.78 0.0 0 1 724.75 173.05&#xA;  L 724.59 173.03&#xA;  A 3.75 3.74 -85.2 0 1 721.24 169.06&#xA;  Q 722.78 145.34 724.78 131.02&#xA;  Q 725.21 127.96 728.06 126.86&#xA;  C 730.81 125.80 737.46 128.80 739.84 130.05&#xA;  C 744.79 132.65 750.30 133.86 755.07 136.76&#xA;  C 759.54 139.47 761.90 140.19 766.65 142.63&#xA;  C 768.95 143.82 773.45 146.97 773.65 149.71&#xA;  C 774.04 155.20 766.41 152.09 763.84 150.41&#xA;  Q 756.74 145.79 748.69 142.74&#xA;  A 6.73 6.31 -17.1 0 1 747.77 142.29&#xA;  Q 742.24 139.06 737.97 137.48&#xA;  Z&#xA;  M 771.97 349.47&#xA;  A 0.76 0.75 15.3 0 0 771.40 348.48&#xA;  C 769.49 348.11 766.33 347.57 763.84 347.75&#xA;  Q 755.78 348.34 753.52 348.78&#xA;  Q 750.68 349.32 743.98 352.17&#xA;  Q 738.65 354.43 735.49 357.59&#xA;  C 729.71 363.37 725.16 368.54 726.77 377.48&#xA;  C 728.75 388.48 744.67 381.12 749.68 377.94&#xA;  Q 760.17 371.29 766.44 360.93&#xA;  Q 770.09 354.89 771.97 349.47&#xA;  Z&#xA;  M 808.41 716.95&#xA;  A 0.50 0.50 0.0 0 0 808.12 716.23&#xA;  C 801.67 714.25 794.96 714.71 790.57 720.34&#xA;  Q 788.64 722.82 788.73 725.05&#xA;  C 788.85 727.93 791.11 731.47 794.46 730.52&#xA;  C 801.35 728.57 805.16 722.81 808.41 716.95&#xA;  Z"></path>
<path fill="#74cdb4" d="&#xA;  M 742.82 765.71&#xA;  C 741.99 768.99 738.73 770.56 735.65 768.62&#xA;  Q 733.69 767.38 732.17 766.29&#xA;  A 3.24 3.12 72.6 0 0 731.51 765.93&#xA;  Q 726.21 763.74 721.76 767.49&#xA;  Q 719.87 769.08 719.69 771.16&#xA;  C 718.86 780.81 724.18 786.31 732.80 788.94&#xA;  C 741.42 791.58 751.94 787.94 758.60 782.33&#xA;  C 764.53 777.34 770.81 771.98 774.23 766.22&#xA;  Q 776.96 761.63 778.16 760.54&#xA;  A 2.42 2.25 -73.5 0 1 778.94 760.08&#xA;  C 783.98 758.34 783.23 764.53 782.22 767.51&#xA;  C 781.07 770.94 778.79 773.81 776.27 777.28&#xA;  C 765.48 792.17 743.79 805.20 724.97 797.77&#xA;  C 718.80 795.34 714.31 790.37 711.19 784.72&#xA;  C 706.34 775.94 707.16 766.59 714.32 759.29&#xA;  Q 719.66 753.85 727.03 753.88&#xA;  C 731.14 753.90 739.07 756.39 741.60 760.67&#xA;  Q 743.35 763.61 742.82 765.71&#xA;  Z"></path>
<path fill="#fd3b85" d="&#xA;  M 756.22 854.45&#xA;  C 756.84 859.42 758.70 869.59 755.45 872.90&#xA;  A 2.36 2.13 49.6 0 1 752.05 872.45&#xA;  Q 750.51 870.35 750.39 867.25&#xA;  Q 750.08 859.46 749.55 855.29&#xA;  Q 749.03 851.12 747.39 843.49&#xA;  Q 746.74 840.46 747.72 838.05&#xA;  A 2.36 2.13 -64.0 0 1 750.89 836.77&#xA;  C 754.87 839.17 755.59 849.48 756.22 854.45&#xA;  Z"></path>
<path fill="#fd3b85" d="&#xA;  M 753.53 933.10&#xA;  C 753.01 936.76 751.94 952.13 747.17 952.74&#xA;  A 2.36 2.16 78.3 0 1 744.76 951.00&#xA;  Q 744.04 948.35 744.68 945.11&#xA;  Q 746.03 938.31 746.90 932.16&#xA;  Q 747.78 926.00 748.37 919.09&#xA;  Q 748.66 915.80 750.08 913.46&#xA;  A 2.36 2.16 -62.2 0 1 752.89 912.46&#xA;  C 757.29 914.37 754.05 929.43 753.53 933.10&#xA;  Z"></path>
<path fill="#fd3b85" d="&#xA;  M 737.36 985.42&#xA;  C 737.81 989.63 736.49 993.56 735.02 998.12&#xA;  Q 731.36 1009.48 723.69 1020.45&#xA;  A 2.12 2.12 0.0 0 1 720.44 1020.73&#xA;  L 720.36 1020.66&#xA;  A 3.52 3.51 -54.4 0 1 719.70 1016.64&#xA;  Q 726.07 1003.65 733.28 986.30&#xA;  Q 733.97 984.65 735.44 984.16&#xA;  A 1.49 1.47 77.9 0 1 737.36 985.42&#xA;  Z"></path>
<path fill="#fd3b85" d="&#xA;  M 695.91 1066.59&#xA;  C 692.52 1070.41 686.10 1078.58 681.80 1076.65&#xA;  C 678.36 1075.09 681.11 1070.66 683.12 1068.63&#xA;  Q 686.65 1065.05 689.97 1061.31&#xA;  Q 693.29 1057.58 696.42 1053.65&#xA;  C 698.20 1051.41 702.28 1048.16 704.23 1051.39&#xA;  C 706.66 1055.43 699.30 1062.78 695.91 1066.59&#xA;  Z"></path>
<path fill="#fd3b85" d="&#xA;  M 647.02 1090.15&#xA;  A 0.42 0.42 0.0 0 0 647.38 1089.48&#xA;  L 644.18 1085.39&#xA;  A 11.15 11.04 12.7 0 1 643.08 1083.67&#xA;  C 639.76 1077.17 629.94 1060.83 635.13 1053.74&#xA;  C 637.35 1050.69 641.32 1050.23 643.94 1053.04&#xA;  Q 645.59 1054.80 646.72 1057.79&#xA;  Q 651.42 1070.22 655.70 1082.79&#xA;  Q 656.46 1085.03 657.78 1087.57&#xA;  A 0.80 0.79 60.2 0 0 658.91 1087.88&#xA;  L 667.43 1082.59&#xA;  A 1.86 1.82 -63.1 0 1 668.23 1082.32&#xA;  C 674.04 1081.69 673.62 1086.23 671.20 1089.44&#xA;  Q 669.07 1092.26 666.12 1095.72&#xA;  A 0.96 0.96 0.0 0 0 666.25 1097.09&#xA;  Q 670.15 1100.26 673.79 1102.08&#xA;  Q 678.72 1104.55 681.41 1106.37&#xA;  C 683.98 1108.12 688.77 1110.03 692.07 1112.98&#xA;  C 697.36 1117.70 694.74 1125.19 687.52 1124.89&#xA;  Q 684.72 1124.77 681.75 1123.22&#xA;  Q 668.95 1116.52 659.44 1105.51&#xA;  A 0.95 0.95 0.0 0 0 657.97 1105.55&#xA;  C 652.10 1113.28 647.78 1119.06 641.15 1124.90&#xA;  C 634.10 1131.11 627.29 1124.20 633.00 1117.00&#xA;  Q 641.43 1106.36 651.04 1098.30&#xA;  A 0.57 0.57 0.0 0 0 650.82 1097.31&#xA;  Q 650.49 1097.23 650.26 1097.30&#xA;  C 646.28 1098.56 642.53 1099.87 638.19 1100.09&#xA;  Q 628.35 1100.58 626.26 1100.28&#xA;  C 621.60 1099.60 616.86 1098.95 613.90 1095.05&#xA;  C 611.48 1091.85 614.62 1088.25 617.95 1087.90&#xA;  Q 621.09 1087.58 624.75 1087.97&#xA;  Q 642.06 1089.81 647.02 1090.15&#xA;  Z"></path>
<path fill="#7e42fe" d="&#xA;  M 101.75 1240.24&#xA;  Q 101.49 1240.32 101.41 1240.30&#xA;  A 1.63 1.55 -74.7 0 1 100.31 1238.26&#xA;  Q 101.17 1235.49 103.24 1233.76&#xA;  C 109.69 1228.36 118.26 1227.41 125.63 1230.69&#xA;  C 131.47 1233.30 138.00 1238.74 142.20 1244.08&#xA;  Q 144.17 1246.59 147.02 1253.17&#xA;  Q 150.73 1261.74 158.17 1272.09&#xA;  C 162.15 1277.63 167.26 1280.44 173.23 1283.26&#xA;  C 176.43 1284.77 179.39 1285.21 183.43 1285.42&#xA;  Q 195.12 1286.03 203.87 1281.90&#xA;  Q 211.28 1278.40 216.31 1272.42&#xA;  A 1.99 1.99 0.0 0 0 216.62 1270.37&#xA;  C 213.40 1262.68 208.98 1256.59 206.32 1248.65&#xA;  C 203.22 1239.41 200.49 1232.85 199.69 1223.20&#xA;  Q 198.87 1213.46 199.01 1211.80&#xA;  C 199.80 1201.90 204.11 1194.03 214.00 1191.13&#xA;  Q 222.52 1188.63 229.39 1193.23&#xA;  C 236.38 1197.91 239.48 1203.67 240.71 1212.60&#xA;  C 242.26 1223.86 242.36 1236.05 238.59 1246.76&#xA;  Q 235.09 1256.72 234.62 1257.62&#xA;  Q 230.91 1264.78 225.97 1271.39&#xA;  A 1.61 1.61 0.0 0 0 225.84 1273.11&#xA;  C 226.90 1275.11 228.32 1277.37 229.90 1279.16&#xA;  Q 236.75 1286.93 243.96 1295.26&#xA;  Q 246.34 1298.01 249.95 1300.59&#xA;  Q 254.97 1304.18 255.63 1304.87&#xA;  C 257.33 1306.65 260.70 1309.37 263.21 1310.83&#xA;  Q 278.24 1319.60 282.03 1321.48&#xA;  Q 289.07 1324.95 304.81 1330.75&#xA;  C 311.79 1333.33 318.57 1334.46 326.21 1336.62&#xA;  Q 329.25 1337.49 334.91 1338.46&#xA;  Q 373.99 1345.15 414.71 1340.41&#xA;  Q 442.47 1337.18 466.65 1329.85&#xA;  Q 494.60 1321.38 520.20 1308.27&#xA;  C 528.17 1304.18 536.94 1299.22 543.48 1294.89&#xA;  Q 546.59 1292.83 549.62 1290.86&#xA;  Q 560.49 1283.76 578.56 1268.57&#xA;  Q 579.30 1267.95 589.89 1257.55&#xA;  Q 595.58 1251.95 600.44 1245.81&#xA;  Q 609.81 1233.94 610.88 1232.55&#xA;  Q 615.23 1226.92 617.70 1222.66&#xA;  C 620.37 1218.06 623.27 1214.60 626.41 1209.20&#xA;  Q 636.86 1191.16 643.42 1174.04&#xA;  C 646.30 1166.51 647.98 1159.83 649.27 1153.54&#xA;  Q 649.50 1152.41 650.49 1152.16&#xA;  A 1.25 1.25 0.0 0 1 652.05 1153.33&#xA;  Q 652.22 1157.88 651.21 1162.50&#xA;  C 646.62 1183.55 636.63 1202.40 625.45 1221.45&#xA;  C 622.68 1226.18 619.37 1229.97 616.78 1234.03&#xA;  Q 610.85 1243.31 603.52 1251.27&#xA;  C 598.62 1256.59 595.50 1260.54 590.64 1265.40&#xA;  Q 590.21 1265.82 581.71 1273.80&#xA;  Q 576.77 1278.44 572.47 1281.84&#xA;  Q 511.66 1330.06 434.76 1344.28&#xA;  Q 425.67 1345.96 422.74 1346.36&#xA;  Q 387.30 1351.18 351.16 1347.80&#xA;  C 343.74 1347.10 338.34 1345.72 330.37 1344.24&#xA;  Q 322.09 1342.70 318.41 1341.71&#xA;  Q 292.78 1334.82 270.87 1323.14&#xA;  Q 268.98 1322.13 254.86 1312.78&#xA;  Q 249.69 1309.35 245.96 1305.54&#xA;  C 239.83 1299.27 232.63 1294.32 226.90 1285.49&#xA;  Q 224.78 1282.20 221.74 1278.17&#xA;  A 1.01 1.01 0.0 0 0 220.23 1278.05&#xA;  C 214.14 1283.99 207.34 1287.10 199.01 1289.89&#xA;  Q 193.52 1291.73 186.85 1291.73&#xA;  C 172.52 1291.73 161.56 1286.32 152.06 1274.86&#xA;  Q 150.00 1272.37 145.55 1263.44&#xA;  Q 139.27 1250.87 133.73 1243.62&#xA;  Q 126.36 1233.97 113.14 1234.55&#xA;  Q 106.29 1234.85 102.39 1239.80&#xA;  A 1.30 1.29 10.2 0 1 101.75 1240.24&#xA;  Z&#xA;  M 222.04 1265.65&#xA;  Q 225.38 1262.47 227.38 1257.87&#xA;  Q 229.45 1253.13 232.32 1245.60&#xA;  A 10.01 9.90 -30.6 0 0 232.88 1243.46&#xA;  Q 235.08 1228.58 235.36 1225.07&#xA;  Q 236.04 1216.58 231.59 1205.21&#xA;  Q 229.03 1198.67 223.25 1197.24&#xA;  C 214.54 1195.07 207.19 1200.95 205.85 1209.60&#xA;  Q 204.93 1215.56 205.38 1220.29&#xA;  Q 205.84 1225.17 209.26 1238.30&#xA;  Q 210.53 1243.17 212.90 1248.31&#xA;  C 214.59 1251.96 217.37 1260.23 221.18 1265.57&#xA;  A 0.57 0.57 0.0 0 0 222.04 1265.65&#xA;  Z"></path>
<path fill="#7e42fe" d="&#xA;  M 66.65 1258.28&#xA;  A 1.24 1.22 81.4 0 1 65.33 1257.29&#xA;  C 64.39 1252.52 80.29 1246.21 84.03 1245.04&#xA;  Q 86.19 1244.36 88.20 1244.38&#xA;  A 1.13 1.13 0.0 0 1 89.26 1245.87&#xA;  C 88.55 1248.01 84.13 1249.48 81.66 1250.55&#xA;  Q 80.20 1251.18 76.41 1253.62&#xA;  Q 73.29 1255.63 68.94 1257.68&#xA;  Q 67.98 1258.14 66.65 1258.28&#xA;  Z"></path>
<path fill="#7e42fe" d="&#xA;  M 96.47 1252.66&#xA;  Q 98.08 1253.21 97.28 1255.94&#xA;  C 93.76 1267.92 92.69 1272.83 89.72 1279.22&#xA;  Q 88.34 1282.21 86.75 1281.68&#xA;  Q 85.16 1281.15 85.85 1277.92&#xA;  C 87.33 1271.04 89.44 1266.47 93.85 1254.79&#xA;  Q 94.85 1252.12 96.47 1252.66&#xA;  Z"></path>
<path fill="#7e42fe" d="&#xA;  M 107.82 1252.81&#xA;  Q 108.93 1252.56 109.62 1254.12&#xA;  Q 110.71 1256.61 111.86 1261.76&#xA;  Q 113.02 1266.90 113.10 1269.62&#xA;  Q 113.15 1271.32 112.03 1271.57&#xA;  Q 110.92 1271.82 110.24 1270.26&#xA;  Q 109.15 1267.77 107.99 1262.62&#xA;  Q 106.84 1257.48 106.75 1254.76&#xA;  Q 106.70 1253.06 107.82 1252.81&#xA;  Z"></path>
</svg>