<?xml version="1.0" encoding="UTF-8" standalone="no"?>

<svg xmlns="http://www.w3.org/2000/svg" version="1.1" viewBox="0.00 0.00 1393.00 1129.00">
<path stroke="#e5f883" stroke-width="2.00" fill="none" stroke-linecap="butt" vector-effect="non-scaling-stroke" d="&#xA;  M 1111.58 208.42&#xA;  C 1066.01 178.04 1016.09 156.15 963.20 139.07&#xA;  Q 940.70 131.80 922.46 127.06&#xA;  Q 912.71 124.53 893.34 119.88&#xA;  Q 878.80 116.39 864.02 113.60&#xA;  Q 774.84 96.77 682.76 95.77&#xA;  C 667.97 95.61 648.59 96.43 638.75 96.79&#xA;  Q 564.18 99.56 490.51 115.28&#xA;  Q 428.20 128.57 372.18 151.51&#xA;  C 338.23 165.41 305.81 182.44 275.58 203.06&#xA;  Q 238.66 228.24 207.99 261.40&#xA;  Q 163.86 309.12 143.32 369.97&#xA;  Q 129.65 410.50 129.29 454.55&#xA;  C 128.91 500.65 142.08 547.85 164.50 588.77&#xA;  Q 184.37 625.02 213.12 657.63&#xA;  Q 237.08 684.78 266.17 706.58&#xA;  C 285.56 721.10 306.58 732.92 330.11 739.59&#xA;  Q 343.65 743.43 348.07 744.18&#xA;  Q 381.67 749.91 415.77 745.04&#xA;  Q 436.16 742.12 457.62 736.08&#xA;  C 477.85 730.39 505.48 721.13 529.18 716.19&#xA;  C 551.17 711.60 574.39 708.77 596.75 710.46&#xA;  Q 622.84 712.42 647.65 720.30&#xA;  C 664.11 725.53 680.50 733.50 695.10 742.68&#xA;  C 723.25 760.39 747.78 783.57 768.12 810.12&#xA;  C 770.44 813.13 777.44 821.75 781.29 827.77&#xA;  C 784.95 833.46 789.20 839.02 792.60 844.35&#xA;  Q 811.40 873.84 826.90 898.87&#xA;  Q 847.06 931.47 868.33 957.44&#xA;  Q 884.78 977.54 902.29 992.19&#xA;  C 923.00 1009.53 947.61 1022.62 974.34 1029.59&#xA;  Q 998.35 1035.85 1020.00 1036.66&#xA;  Q 1064.67 1038.31 1110.26 1025.03&#xA;  C 1130.03 1019.27 1150.31 1009.97 1167.22 997.45&#xA;  Q 1193.99 977.64 1209.53 945.77&#xA;  Q 1212.95 938.75 1215.72 930.22&#xA;  C 1229.70 887.21 1224.72 842.72 1214.31 799.44&#xA;  Q 1213.32 795.35 1209.18 780.46&#xA;  C 1201.50 752.81 1190.04 724.27 1184.27 695.75&#xA;  C 1177.39 661.69 1179.30 627.60 1190.83 593.88&#xA;  C 1197.90 573.21 1204.96 556.93 1214.46 534.74&#xA;  Q 1222.51 515.94 1229.65 492.24&#xA;  Q 1236.29 470.17 1238.79 442.26&#xA;  Q 1244.18 381.87 1219.56 328.55&#xA;  C 1208.82 305.29 1193.68 283.43 1176.43 264.32&#xA;  Q 1147.75 232.53 1111.58 208.42"></path>
<path fill="#caf007" d="&#xA;  M 963.20 139.07&#xA;  C 1016.09 156.15 1066.01 178.04 1111.58 208.42&#xA;  Q 1147.75 232.53 1176.43 264.32&#xA;  C 1193.68 283.43 1208.82 305.29 1219.56 328.55&#xA;  Q 1244.18 381.87 1238.79 442.26&#xA;  Q 1236.29 470.17 1229.65 492.24&#xA;  Q 1222.51 515.94 1214.46 534.74&#xA;  C 1204.96 556.93 1197.90 573.21 1190.83 593.88&#xA;  C 1179.30 627.60 1177.39 661.69 1184.27 695.75&#xA;  C 1190.04 724.27 1201.50 752.81 1209.18 780.46&#xA;  Q 1213.32 795.35 1214.31 799.44&#xA;  C 1224.72 842.72 1229.70 887.21 1215.72 930.22&#xA;  Q 1212.95 938.75 1209.53 945.77&#xA;  Q 1193.99 977.64 1167.22 997.45&#xA;  C 1150.31 1009.97 1130.03 1019.27 1110.26 1025.03&#xA;  Q 1064.67 1038.31 1020.00 1036.66&#xA;  Q 998.35 1035.85 974.34 1029.59&#xA;  C 947.61 1022.62 923.00 1009.53 902.29 992.19&#xA;  Q 884.78 977.54 868.33 957.44&#xA;  Q 847.06 931.47 826.90 898.87&#xA;  Q 811.40 873.84 792.60 844.35&#xA;  C 789.20 839.02 784.95 833.46 781.29 827.77&#xA;  C 777.44 821.75 770.44 813.13 768.12 810.12&#xA;  C 747.78 783.57 723.25 760.39 695.10 742.68&#xA;  C 680.50 733.50 664.11 725.53 647.65 720.30&#xA;  Q 622.84 712.42 596.75 710.46&#xA;  C 574.39 708.77 551.17 711.60 529.18 716.19&#xA;  C 505.48 721.13 477.85 730.39 457.62 736.08&#xA;  Q 436.16 742.12 415.77 745.04&#xA;  Q 381.67 749.91 348.07 744.18&#xA;  Q 343.65 743.43 330.11 739.59&#xA;  C 306.58 732.92 285.56 721.10 266.17 706.58&#xA;  Q 237.08 684.78 213.12 657.63&#xA;  Q 184.37 625.02 164.50 588.77&#xA;  C 142.08 547.85 128.91 500.65 129.29 454.55&#xA;  Q 129.65 410.50 143.32 369.97&#xA;  Q 163.86 309.12 207.99 261.40&#xA;  Q 238.66 228.24 275.58 203.06&#xA;  C 305.81 182.44 338.23 165.41 372.18 151.51&#xA;  Q 428.20 128.57 490.51 115.28&#xA;  Q 564.18 99.56 638.75 96.79&#xA;  C 648.59 96.43 667.97 95.61 682.76 95.77&#xA;  Q 774.84 96.77 864.02 113.60&#xA;  Q 878.80 116.39 893.34 119.88&#xA;  Q 912.71 124.53 922.46 127.06&#xA;  Q 940.70 131.80 963.20 139.07&#xA;  Z"></path>
</svg>