<?xml version="1.0" encoding="UTF-8" standalone="no"?>

<svg xmlns="http://www.w3.org/2000/svg" version="1.1" viewBox="0.00 0.00 1086.00 1448.00">
<g stroke-width="2.00" fill="none" stroke-linecap="butt">
<path stroke="#ff95bc" vector-effect="non-scaling-stroke" d="&#xA;  M 572.11 375.03&#xA;  A 0.39 0.39 0.0 0 1 571.35 375.14&#xA;  C 570.16 372.09 567.88 367.11 564.81 366.35&#xA;  C 561.49 365.53 558.78 367.94 559.81 371.30&#xA;  Q 560.53 373.67 560.91 374.35&#xA;  Q 566.72 384.79 570.95 393.05&#xA;  A 3.03 2.98 9.5 0 0 571.45 393.74&#xA;  C 574.54 396.97 577.40 395.19 580.03 391.95&#xA;  Q 580.34 391.57 584.79 386.77&#xA;  C 588.27 383.03 593.70 379.36 596.38 375.85&#xA;  C 598.79 372.70 596.25 368.96 592.44 369.14&#xA;  A 3.05 2.97 -57.0 0 0 591.51 369.35&#xA;  C 587.31 371.05 583.69 374.84 580.70 378.39&#xA;  A 0.62 0.62 0.0 0 1 579.65 378.21&#xA;  Q 579.58 378.02 579.62 377.50&#xA;  C 580.01 372.41 581.86 365.09 582.26 359.16&#xA;  Q 582.61 353.85 582.65 350.34&#xA;  A 1.90 1.89 76.8 0 1 583.67 348.69&#xA;  C 590.92 344.94 597.00 342.32 603.43 337.32&#xA;  Q 605.12 336.01 611.86 331.61&#xA;  C 627.58 321.35 643.27 307.76 654.41 292.68&#xA;  C 660.01 285.11 664.28 273.70 656.54 265.79&#xA;  C 651.81 260.95 641.17 262.16 635.55 264.63&#xA;  Q 628.20 267.85 621.74 273.00&#xA;  C 618.88 275.27 615.64 277.57 613.21 280.15&#xA;  C 606.22 287.57 601.67 292.30 598.51 296.75&#xA;  A 0.33 0.33 0.0 0 1 597.92 296.51&#xA;  Q 600.13 282.35 601.54 267.50&#xA;  Q 602.21 260.43 599.82 249.54&#xA;  C 598.27 242.49 596.41 234.71 587.70 234.72&#xA;  C 581.54 234.73 579.20 238.49 576.31 243.87&#xA;  Q 572.55 250.89 571.43 259.18&#xA;  C 569.75 271.74 569.07 284.21 571.16 296.46&#xA;  Q 571.21 296.71 572.92 307.92&#xA;  A 0.39 0.38 -3.7 0 1 572.53 308.36&#xA;  Q 572.34 308.35 571.99 308.01&#xA;  Q 570.65 306.72 562.01 297.84&#xA;  C 557.40 293.11 553.17 290.13 548.17 285.75&#xA;  Q 540.28 278.83 528.53 274.35&#xA;  C 521.12 271.52 511.77 275.01 510.66 283.37&#xA;  C 509.81 289.74 511.90 295.24 515.10 300.65&#xA;  Q 522.54 313.22 532.10 321.17&#xA;  C 536.93 325.19 543.85 330.87 550.54 335.01&#xA;  C 558.31 339.82 564.37 343.51 572.33 346.30&#xA;  A 2.56 2.56 0.0 0 1 574.04 348.91&#xA;  L 572.11 375.03"></path>
<path stroke="#ff95bc" vector-effect="non-scaling-stroke" d="&#xA;  M 334.1613 404.1021&#xA;  A 17.27 16.54 -89.1 0 0 317.3520 421.1102&#xA;  A 17.27 16.54 -89.1 0 0 333.6187 438.6379&#xA;  A 17.27 16.54 -89.1 0 0 350.4280 421.6298&#xA;  A 17.27 16.54 -89.1 0 0 334.1613 404.1021"></path>
<path stroke="#ff95bc" vector-effect="non-scaling-stroke" d="&#xA;  M 461.5626 404.1559&#xA;  A 17.29 16.64 -88.5 0 0 444.4757 421.0044&#xA;  A 17.29 16.64 -88.5 0 0 460.6574 438.7241&#xA;  A 17.29 16.64 -88.5 0 0 477.7443 421.8756&#xA;  A 17.29 16.64 -88.5 0 0 461.5626 404.1559"></path>
<path stroke="#ff95bc" vector-effect="non-scaling-stroke" d="&#xA;  M 752.4384 404.1582&#xA;  A 17.31 16.59 -85.3 0 0 734.4858 420.0506&#xA;  A 17.31 16.59 -85.3 0 0 749.6016 438.6618&#xA;  A 17.31 16.59 -85.3 0 0 767.5542 422.7694&#xA;  A 17.31 16.59 -85.3 0 0 752.4384 404.1582"></path>
<path stroke="#ff95bc" vector-effect="non-scaling-stroke" d="&#xA;  M 875.5806 404.1159&#xA;  A 17.34 16.68 -85.4 0 0 857.5637 420.0623&#xA;  A 17.34 16.68 -85.4 0 0 872.7994 438.6841&#xA;  A 17.34 16.68 -85.4 0 0 890.8163 422.7377&#xA;  A 17.34 16.68 -85.4 0 0 875.5806 404.1159"></path>
<path stroke="#ff95bc" vector-effect="non-scaling-stroke" d="&#xA;  M 211.8850 404.3176&#xA;  A 17.36 16.67 -88.3 0 0 194.7073 421.1755&#xA;  A 17.36 16.67 -88.3 0 0 210.8550 439.0224&#xA;  A 17.36 16.67 -88.3 0 0 228.0327 422.1645&#xA;  A 17.36 16.67 -88.3 0 0 211.8850 404.3176"></path>
<path stroke="#ff95bc" vector-effect="non-scaling-stroke" d="&#xA;  M 626.9626 404.1791&#xA;  A 17.25 16.70 -87.3 0 0 609.4685 420.6233&#xA;  A 17.25 16.70 -87.3 0 0 625.3374 438.6409&#xA;  A 17.25 16.70 -87.3 0 0 642.8315 422.1967&#xA;  A 17.25 16.70 -87.3 0 0 626.9626 404.1791"></path>
<path stroke="#ff95bc" vector-effect="non-scaling-stroke" d="&#xA;  M 624.8894 537.8378&#xA;  A 17.21 16.59 -93.8 0 0 609.4765 556.1095&#xA;  A 17.21 16.59 -93.8 0 0 627.1706 572.1822&#xA;  A 17.21 16.59 -93.8 0 0 642.5835 553.9105&#xA;  A 17.21 16.59 -93.8 0 0 624.8894 537.8378"></path>
<path stroke="#ff95bc" vector-effect="non-scaling-stroke" d="&#xA;  M 874.5802 537.7059&#xA;  A 17.20 16.54 -88.5 0 0 857.5957 554.4670&#xA;  A 17.20 16.54 -88.5 0 0 873.6798 572.0941&#xA;  A 17.20 16.54 -88.5 0 0 890.6643 555.3330&#xA;  A 17.20 16.54 -88.5 0 0 874.5802 537.7059"></path>
<path stroke="#ff95bc" vector-effect="non-scaling-stroke" d="&#xA;  M 333.2503 537.7251&#xA;  A 17.18 16.49 -91.4 0 0 317.1849 555.3029&#xA;  A 17.18 16.49 -91.4 0 0 334.0897 572.0749&#xA;  A 17.18 16.49 -91.4 0 0 350.1551 554.4971&#xA;  A 17.18 16.49 -91.4 0 0 333.2503 537.7251"></path>
<path stroke="#ff95bc" vector-effect="non-scaling-stroke" d="&#xA;  M 750.9801 537.7400&#xA;  A 17.22 16.56 -89.9 0 0 734.3900 554.9311&#xA;  A 17.22 16.56 -89.9 0 0 750.9199 572.1800&#xA;  A 17.22 16.56 -89.9 0 0 767.5100 554.9889&#xA;  A 17.22 16.56 -89.9 0 0 750.9801 537.7400"></path>
<path stroke="#ff95bc" vector-effect="non-scaling-stroke" d="&#xA;  M 210.4365 538.1939&#xA;  A 17.28 16.59 -92.3 0 0 194.5534 556.1258&#xA;  A 17.28 16.59 -92.3 0 0 211.8235 572.7261&#xA;  A 17.28 16.59 -92.3 0 0 227.7066 554.7942&#xA;  A 17.28 16.59 -92.3 0 0 210.4365 538.1939"></path>
<path stroke="#ff95bc" vector-effect="non-scaling-stroke" d="&#xA;  M 460.2885 538.1639&#xA;  A 17.23 16.57 -92.3 0 0 444.4233 556.0450&#xA;  A 17.23 16.57 -92.3 0 0 461.6715 572.5961&#xA;  A 17.23 16.57 -92.3 0 0 477.5367 554.7150&#xA;  A 17.23 16.57 -92.3 0 0 460.2885 538.1639"></path>
<path stroke="#ff95bc" vector-effect="non-scaling-stroke" d="&#xA;  M 332.7694 669.6695&#xA;  A 17.21 16.49 -91.9 0 0 316.8591 687.4167&#xA;  A 17.21 16.49 -91.9 0 0 333.9106 704.0705&#xA;  A 17.21 16.49 -91.9 0 0 349.8209 686.3233&#xA;  A 17.21 16.49 -91.9 0 0 332.7694 669.6695"></path>
<path stroke="#ff95bc" vector-effect="non-scaling-stroke" d="&#xA;  M 460.7195 670.0209&#xA;  A 17.24 16.56 -90.6 0 0 444.3409 687.4334&#xA;  A 17.24 16.56 -90.6 0 0 461.0805 704.4991&#xA;  A 17.24 16.56 -90.6 0 0 477.4591 687.0866&#xA;  A 17.24 16.56 -90.6 0 0 460.7195 670.0209"></path>
<path stroke="#ff95bc" vector-effect="non-scaling-stroke" d="&#xA;  M 624.7975 669.9159&#xA;  A 17.24 16.61 -93.7 0 0 609.3346 688.1919&#xA;  A 17.24 16.61 -93.7 0 0 627.0225 704.3241&#xA;  A 17.24 16.61 -93.7 0 0 642.4854 686.0481&#xA;  A 17.24 16.61 -93.7 0 0 624.7975 669.9159"></path>
<path stroke="#ff95bc" vector-effect="non-scaling-stroke" d="&#xA;  M 210.1646 669.9092&#xA;  A 17.31 16.66 -92.7 0 0 194.3385 687.9848&#xA;  A 17.31 16.66 -92.7 0 0 211.7954 704.4908&#xA;  A 17.31 16.66 -92.7 0 0 227.6215 686.4152&#xA;  A 17.31 16.66 -92.7 0 0 210.1646 669.9092"></path>
<path stroke="#ff95bc" vector-effect="non-scaling-stroke" d="&#xA;  M 751.4519 669.9295&#xA;  A 17.25 16.65 -88.1 0 0 734.2392 686.6180&#xA;  A 17.25 16.65 -88.1 0 0 750.3081 704.4105&#xA;  A 17.25 16.65 -88.1 0 0 767.5208 687.7220&#xA;  A 17.25 16.65 -88.1 0 0 751.4519 669.9295"></path>
<path stroke="#ff95bc" vector-effect="non-scaling-stroke" d="&#xA;  M 874.0296 669.8704&#xA;  A 17.24 16.61 -90.4 0 0 857.5404 687.2260&#xA;  A 17.24 16.61 -90.4 0 0 874.2704 704.3496&#xA;  A 17.24 16.61 -90.4 0 0 890.7596 686.9940&#xA;  A 17.24 16.61 -90.4 0 0 874.0296 669.8704"></path>
<path stroke="#ff95bc" vector-effect="non-scaling-stroke" d="&#xA;  M 211.9082 802.9461&#xA;  A 17.18 16.59 -85.8 0 0 194.1046 818.8650&#xA;  A 17.18 16.59 -85.8 0 0 209.3918 837.2139&#xA;  A 17.18 16.59 -85.8 0 0 227.1954 821.2950&#xA;  A 17.18 16.59 -85.8 0 0 211.9082 802.9461"></path>
<path stroke="#ff95bc" vector-effect="non-scaling-stroke" d="&#xA;  M 333.6967 803.0938&#xA;  A 17.11 16.43 -87.7 0 0 316.5932 819.5306&#xA;  A 17.11 16.43 -87.7 0 0 332.3233 837.2862&#xA;  A 17.11 16.43 -87.7 0 0 349.4268 820.8494&#xA;  A 17.11 16.43 -87.7 0 0 333.6967 803.0938"></path>
<path stroke="#ff95bc" vector-effect="non-scaling-stroke" d="&#xA;  M 626.8870 803.6418&#xA;  A 17.16 16.57 -86.0 0 0 609.1604 819.6041&#xA;  A 17.16 16.57 -86.0 0 0 624.4930 837.8782&#xA;  A 17.16 16.57 -86.0 0 0 642.2196 821.9159&#xA;  A 17.16 16.57 -86.0 0 0 626.8870 803.6418"></path>
<path stroke="#ff95bc" vector-effect="non-scaling-stroke" d="&#xA;  M 750.9597 803.5321&#xA;  A 17.17 16.55 -89.1 0 0 734.1420 820.4400&#xA;  A 17.17 16.55 -89.1 0 0 750.4203 837.8679&#xA;  A 17.17 16.55 -89.1 0 0 767.2380 820.9600&#xA;  A 17.17 16.55 -89.1 0 0 750.9597 803.5321"></path>
<path stroke="#ff95bc" vector-effect="non-scaling-stroke" d="&#xA;  M 874.3700 803.5038&#xA;  A 17.19 16.48 -88.8 0 0 857.5336 820.3449&#xA;  A 17.19 16.48 -88.8 0 0 873.6500 837.8762&#xA;  A 17.19 16.48 -88.8 0 0 890.4864 821.0351&#xA;  A 17.19 16.48 -88.8 0 0 874.3700 803.5038"></path>
<path stroke="#ff95bc" vector-effect="non-scaling-stroke" d="&#xA;  M 461.2289 803.7694&#xA;  A 17.16 16.51 -88.1 0 0 444.1591 820.3726&#xA;  A 17.16 16.51 -88.1 0 0 460.0911 838.0706&#xA;  A 17.16 16.51 -88.1 0 0 477.1609 821.4674&#xA;  A 17.16 16.51 -88.1 0 0 461.2289 803.7694"></path>
<path stroke="#ff95bc" vector-effect="non-scaling-stroke" d="&#xA;  M 210.4789 937.0413&#xA;  A 17.28 16.63 -90.7 0 0 194.0612 954.5232&#xA;  A 17.28 16.63 -90.7 0 0 210.9011 971.5987&#xA;  A 17.28 16.63 -90.7 0 0 227.3188 954.1168&#xA;  A 17.28 16.63 -90.7 0 0 210.4789 937.0413"></path>
<path stroke="#ff95bc" vector-effect="non-scaling-stroke" d="&#xA;  M 333.1299 937.2901&#xA;  A 17.17 16.51 -89.8 0 0 316.5601 954.4024&#xA;  A 17.17 16.51 -89.8 0 0 333.0101 971.6299&#xA;  A 17.17 16.51 -89.8 0 0 349.5799 954.5176&#xA;  A 17.17 16.51 -89.8 0 0 333.1299 937.2901"></path>
<path stroke="#ff95bc" vector-effect="non-scaling-stroke" d="&#xA;  M 460.4091 937.6826&#xA;  A 17.24 16.55 -91.0 0 0 444.1625 955.2088&#xA;  A 17.24 16.55 -91.0 0 0 461.0109 972.1574&#xA;  A 17.24 16.55 -91.0 0 0 477.2575 954.6312&#xA;  A 17.24 16.55 -91.0 0 0 460.4091 937.6826"></path>
<path stroke="#ff95bc" vector-effect="non-scaling-stroke" d="&#xA;  M 625.6398 937.5201&#xA;  A 17.26 16.60 -90.2 0 0 609.1001 954.8379&#xA;  A 17.26 16.60 -90.2 0 0 625.7602 972.0399&#xA;  A 17.26 16.60 -90.2 0 0 642.2999 954.7221&#xA;  A 17.26 16.60 -90.2 0 0 625.6398 937.5201"></path>
<path stroke="#ff95bc" vector-effect="non-scaling-stroke" d="&#xA;  M 750.7299 937.3500&#xA;  A 17.22 16.59 -90.1 0 0 734.1700 954.5990&#xA;  A 17.22 16.59 -90.1 0 0 750.7901 971.7900&#xA;  A 17.22 16.59 -90.1 0 0 767.3500 954.5410&#xA;  A 17.22 16.59 -90.1 0 0 750.7299 937.3500"></path>
<path stroke="#ff95bc" vector-effect="non-scaling-stroke" d="&#xA;  M 873.8902 937.4702&#xA;  A 17.16 16.61 -90.3 0 0 857.3702 954.7170&#xA;  A 17.16 16.61 -90.3 0 0 874.0698 971.7898&#xA;  A 17.16 16.61 -90.3 0 0 890.5898 954.5430&#xA;  A 17.16 16.61 -90.3 0 0 873.8902 937.4702"></path>
<path stroke="#ff95bc" vector-effect="non-scaling-stroke" d="&#xA;  M 211.5501 1070.9068&#xA;  A 17.20 16.51 -86.8 0 0 194.1057 1087.1584&#xA;  A 17.20 16.51 -86.8 0 0 209.6299 1105.2532&#xA;  A 17.20 16.51 -86.8 0 0 227.0743 1089.0016&#xA;  A 17.20 16.51 -86.8 0 0 211.5501 1070.9068"></path>
<path stroke="#ff95bc" vector-effect="non-scaling-stroke" d="&#xA;  M 333.4069 1071.2167&#xA;  A 17.08 16.39 -88.4 0 0 316.5464 1087.8324&#xA;  A 17.08 16.39 -88.4 0 0 332.4531 1105.3633&#xA;  A 17.08 16.39 -88.4 0 0 349.3136 1088.7476&#xA;  A 17.08 16.39 -88.4 0 0 333.4069 1071.2167"></path>
<path stroke="#ff95bc" vector-effect="non-scaling-stroke" d="&#xA;  M 751.8279 1071.5077&#xA;  A 17.17 16.53 -86.2 0 0 734.1963 1087.5445&#xA;  A 17.17 16.53 -86.2 0 0 749.5521 1105.7723&#xA;  A 17.17 16.53 -86.2 0 0 767.1837 1089.7355&#xA;  A 17.17 16.53 -86.2 0 0 751.8279 1071.5077"></path>
<path stroke="#ff95bc" vector-effect="non-scaling-stroke" d="&#xA;  M 874.8392 1071.4405&#xA;  A 17.18 16.48 -87.2 0 0 857.5397 1087.7950&#xA;  A 17.18 16.48 -87.2 0 0 873.1608 1105.7595&#xA;  A 17.18 16.48 -87.2 0 0 890.4603 1089.4050&#xA;  A 17.18 16.48 -87.2 0 0 874.8392 1071.4405"></path>
<path stroke="#ff95bc" vector-effect="non-scaling-stroke" d="&#xA;  M 460.7700 1071.7701&#xA;  A 17.20 16.54 -89.8 0 0 444.1701 1088.9123&#xA;  A 17.20 16.54 -89.8 0 0 460.6500 1106.1699&#xA;  A 17.20 16.54 -89.8 0 0 477.2499 1089.0277&#xA;  A 17.20 16.54 -89.8 0 0 460.7700 1071.7701"></path>
<path stroke="#ff95bc" vector-effect="non-scaling-stroke" d="&#xA;  M 624.4224 1071.6839&#xA;  A 17.17 16.56 -94.1 0 0 609.1324 1089.9940&#xA;  A 17.17 16.56 -94.1 0 0 626.8776 1105.9361&#xA;  A 17.17 16.56 -94.1 0 0 642.1676 1087.6260&#xA;  A 17.17 16.56 -94.1 0 0 624.4224 1071.6839"></path>
<path stroke="#ff95bc" vector-effect="non-scaling-stroke" d="&#xA;  M 586.91 247.78&#xA;  C 583.03 251.78 581.81 261.46 580.69 268.84&#xA;  C 579.86 274.27 580.59 279.35 580.41 284.58&#xA;  C 580.10 293.93 581.40 302.87 583.74 312.21&#xA;  Q 584.34 314.60 583.76 316.89&#xA;  C 582.58 321.58 576.29 321.54 574.84 316.74&#xA;  A 1.22 1.20 -0.3 0 0 574.00 315.92&#xA;  L 571.69 315.29&#xA;  A 1.85 1.70 67.5 0 1 571.11 315.02&#xA;  Q 562.66 309.11 561.55 308.48&#xA;  Q 557.81 306.38 557.54 306.20&#xA;  Q 552.12 302.63 544.07 295.78&#xA;  Q 540.66 292.88 529.50 286.35&#xA;  Q 526.39 284.53 523.11 284.59&#xA;  A 1.55 1.55 0.0 0 0 521.59 286.01&#xA;  C 521.23 290.38 524.71 296.22 527.00 299.23&#xA;  Q 531.50 305.14 535.56 309.04&#xA;  Q 543.66 316.81 543.68 316.84&#xA;  Q 544.75 318.00 549.86 321.39&#xA;  C 556.01 325.48 560.68 329.21 567.43 332.56&#xA;  C 571.42 334.54 575.23 337.49 578.83 339.42&#xA;  A 1.96 1.96 0.0 0 0 581.01 339.19&#xA;  Q 585.35 335.49 587.15 334.01&#xA;  C 590.46 331.30 594.80 328.87 598.46 326.88&#xA;  Q 600.91 325.54 602.84 323.86&#xA;  C 611.02 316.76 623.47 308.94 631.91 300.12&#xA;  Q 639.37 292.32 643.73 286.01&#xA;  C 645.55 283.38 648.64 279.04 648.40 275.94&#xA;  A 1.33 1.31 -86.5 0 0 647.36 274.75&#xA;  Q 645.52 274.36 643.18 275.17&#xA;  Q 632.07 279.02 622.54 287.03&#xA;  Q 605.62 301.24 599.25 306.75&#xA;  Q 597.37 308.37 596.33 308.59&#xA;  A 2.29 2.29 0.0 0 1 594.89 308.41&#xA;  L 590.60 306.35&#xA;  A 2.25 2.25 0.0 0 1 589.33 304.31&#xA;  Q 589.46 292.58 590.09 279.25&#xA;  C 590.65 267.50 591.66 257.87 588.13 248.04&#xA;  A 0.74 0.73 -32.9 0 0 586.91 247.78"></path>
</g>
<path fill="#fe2a79" d="&#xA;  M 572.11 375.03&#xA;  L 574.04 348.91&#xA;  A 2.56 2.56 0.0 0 0 572.33 346.30&#xA;  C 564.37 343.51 558.31 339.82 550.54 335.01&#xA;  C 543.85 330.87 536.93 325.19 532.10 321.17&#xA;  Q 522.54 313.22 515.10 300.65&#xA;  C 511.90 295.24 509.81 289.74 510.66 283.37&#xA;  C 511.77 275.01 521.12 271.52 528.53 274.35&#xA;  Q 540.28 278.83 548.17 285.75&#xA;  C 553.17 290.13 557.40 293.11 562.01 297.84&#xA;  Q 570.65 306.72 571.99 308.01&#xA;  Q 572.34 308.35 572.53 308.36&#xA;  A 0.39 0.38 -3.7 0 0 572.92 307.92&#xA;  Q 571.21 296.71 571.16 296.46&#xA;  C 569.07 284.21 569.75 271.74 571.43 259.18&#xA;  Q 572.55 250.89 576.31 243.87&#xA;  C 579.20 238.49 581.54 234.73 587.70 234.72&#xA;  C 596.41 234.71 598.27 242.49 599.82 249.54&#xA;  Q 602.21 260.43 601.54 267.50&#xA;  Q 600.13 282.35 597.92 296.51&#xA;  A 0.33 0.33 0.0 0 0 598.51 296.75&#xA;  C 601.67 292.30 606.22 287.57 613.21 280.15&#xA;  C 615.64 277.57 618.88 275.27 621.74 273.00&#xA;  Q 628.20 267.85 635.55 264.63&#xA;  C 641.17 262.16 651.81 260.95 656.54 265.79&#xA;  C 664.28 273.70 660.01 285.11 654.41 292.68&#xA;  C 643.27 307.76 627.58 321.35 611.86 331.61&#xA;  Q 605.12 336.01 603.43 337.32&#xA;  C 597.00 342.32 590.92 344.94 583.67 348.69&#xA;  A 1.90 1.89 76.8 0 0 582.65 350.34&#xA;  Q 582.61 353.85 582.26 359.16&#xA;  C 581.86 365.09 580.01 372.41 579.62 377.50&#xA;  Q 579.58 378.02 579.65 378.21&#xA;  A 0.62 0.62 0.0 0 0 580.70 378.39&#xA;  C 583.69 374.84 587.31 371.05 591.51 369.35&#xA;  A 3.05 2.97 -57.0 0 1 592.44 369.14&#xA;  C 596.25 368.96 598.79 372.70 596.38 375.85&#xA;  C 593.70 379.36 588.27 383.03 584.79 386.77&#xA;  Q 580.34 391.57 580.03 391.95&#xA;  C 577.40 395.19 574.54 396.97 571.45 393.74&#xA;  A 3.03 2.98 9.5 0 1 570.95 393.05&#xA;  Q 566.72 384.79 560.91 374.35&#xA;  Q 560.53 373.67 559.81 371.30&#xA;  C 558.78 367.94 561.49 365.53 564.81 366.35&#xA;  C 567.88 367.11 570.16 372.09 571.35 375.14&#xA;  A 0.39 0.39 0.0 0 0 572.11 375.03&#xA;  Z&#xA;  M 586.91 247.78&#xA;  C 583.03 251.78 581.81 261.46 580.69 268.84&#xA;  C 579.86 274.27 580.59 279.35 580.41 284.58&#xA;  C 580.10 293.93 581.40 302.87 583.74 312.21&#xA;  Q 584.34 314.60 583.76 316.89&#xA;  C 582.58 321.58 576.29 321.54 574.84 316.74&#xA;  A 1.22 1.20 -0.3 0 0 574.00 315.92&#xA;  L 571.69 315.29&#xA;  A 1.85 1.70 67.5 0 1 571.11 315.02&#xA;  Q 562.66 309.11 561.55 308.48&#xA;  Q 557.81 306.38 557.54 306.20&#xA;  Q 552.12 302.63 544.07 295.78&#xA;  Q 540.66 292.88 529.50 286.35&#xA;  Q 526.39 284.53 523.11 284.59&#xA;  A 1.55 1.55 0.0 0 0 521.59 286.01&#xA;  C 521.23 290.38 524.71 296.22 527.00 299.23&#xA;  Q 531.50 305.14 535.56 309.04&#xA;  Q 543.66 316.81 543.68 316.84&#xA;  Q 544.75 318.00 549.86 321.39&#xA;  C 556.01 325.48 560.68 329.21 567.43 332.56&#xA;  C 571.42 334.54 575.23 337.49 578.83 339.42&#xA;  A 1.96 1.96 0.0 0 0 581.01 339.19&#xA;  Q 585.35 335.49 587.15 334.01&#xA;  C 590.46 331.30 594.80 328.87 598.46 326.88&#xA;  Q 600.91 325.54 602.84 323.86&#xA;  C 611.02 316.76 623.47 308.94 631.91 300.12&#xA;  Q 639.37 292.32 643.73 286.01&#xA;  C 645.55 283.38 648.64 279.04 648.40 275.94&#xA;  A 1.33 1.31 -86.5 0 0 647.36 274.75&#xA;  Q 645.52 274.36 643.18 275.17&#xA;  Q 632.07 279.02 622.54 287.03&#xA;  Q 605.62 301.24 599.25 306.75&#xA;  Q 597.37 308.37 596.33 308.59&#xA;  A 2.29 2.29 0.0 0 1 594.89 308.41&#xA;  L 590.60 306.35&#xA;  A 2.25 2.25 0.0 0 1 589.33 304.31&#xA;  Q 589.46 292.58 590.09 279.25&#xA;  C 590.65 267.50 591.66 257.87 588.13 248.04&#xA;  A 0.74 0.73 -32.9 0 0 586.91 247.78&#xA;  Z"></path>
<ellipse fill="#fe2a79" cx="0.00" cy="0.00" transform="translate(333.89,421.37) rotate(-89.1)" rx="17.27" ry="16.54"></ellipse>
<ellipse fill="#fe2a79" cx="0.00" cy="0.00" transform="translate(461.11,421.44) rotate(-88.5)" rx="17.29" ry="16.64"></ellipse>
<ellipse fill="#fe2a79" cx="0.00" cy="0.00" transform="translate(751.02,421.41) rotate(-85.3)" rx="17.31" ry="16.59"></ellipse>
<ellipse fill="#fe2a79" cx="0.00" cy="0.00" transform="translate(874.19,421.40) rotate(-85.4)" rx="17.34" ry="16.68"></ellipse>
<ellipse fill="#fe2a79" cx="0.00" cy="0.00" transform="translate(211.37,421.67) rotate(-88.3)" rx="17.36" ry="16.67"></ellipse>
<ellipse fill="#fe2a79" cx="0.00" cy="0.00" transform="translate(626.15,421.41) rotate(-87.3)" rx="17.25" ry="16.70"></ellipse>
<ellipse fill="#fe2a79" cx="0.00" cy="0.00" transform="translate(626.03,555.01) rotate(-93.8)" rx="17.21" ry="16.59"></ellipse>
<ellipse fill="#fe2a79" cx="0.00" cy="0.00" transform="translate(874.13,554.90) rotate(-88.5)" rx="17.20" ry="16.54"></ellipse>
<ellipse fill="#fe2a79" cx="0.00" cy="0.00" transform="translate(333.67,554.90) rotate(-91.4)" rx="17.18" ry="16.49"></ellipse>
<ellipse fill="#fe2a79" cx="0.00" cy="0.00" transform="translate(750.95,554.96) rotate(-89.9)" rx="17.22" ry="16.56"></ellipse>
<ellipse fill="#fe2a79" cx="0.00" cy="0.00" transform="translate(211.13,555.46) rotate(-92.3)" rx="17.28" ry="16.59"></ellipse>
<ellipse fill="#fe2a79" cx="0.00" cy="0.00" transform="translate(460.98,555.38) rotate(-92.3)" rx="17.23" ry="16.57"></ellipse>
<ellipse fill="#fe2a79" cx="0.00" cy="0.00" transform="translate(333.34,686.87) rotate(-91.9)" rx="17.21" ry="16.49"></ellipse>
<ellipse fill="#fe2a79" cx="0.00" cy="0.00" transform="translate(460.90,687.26) rotate(-90.6)" rx="17.24" ry="16.56"></ellipse>
<ellipse fill="#fe2a79" cx="0.00" cy="0.00" transform="translate(625.91,687.12) rotate(-93.7)" rx="17.24" ry="16.61"></ellipse>
<ellipse fill="#fe2a79" cx="0.00" cy="0.00" transform="translate(210.98,687.20) rotate(-92.7)" rx="17.31" ry="16.66"></ellipse>
<ellipse fill="#fe2a79" cx="0.00" cy="0.00" transform="translate(750.88,687.17) rotate(-88.1)" rx="17.25" ry="16.65"></ellipse>
<ellipse fill="#fe2a79" cx="0.00" cy="0.00" transform="translate(874.15,687.11) rotate(-90.4)" rx="17.24" ry="16.61"></ellipse>
<ellipse fill="#fe2a79" cx="0.00" cy="0.00" transform="translate(210.65,820.08) rotate(-85.8)" rx="17.18" ry="16.59"></ellipse>
<ellipse fill="#fe2a79" cx="0.00" cy="0.00" transform="translate(333.01,820.19) rotate(-87.7)" rx="17.11" ry="16.43"></ellipse>
<ellipse fill="#fe2a79" cx="0.00" cy="0.00" transform="translate(625.69,820.76) rotate(-86.0)" rx="17.16" ry="16.57"></ellipse>
<ellipse fill="#fe2a79" cx="0.00" cy="0.00" transform="translate(750.69,820.70) rotate(-89.1)" rx="17.17" ry="16.55"></ellipse>
<ellipse fill="#fe2a79" cx="0.00" cy="0.00" transform="translate(874.01,820.69) rotate(-88.8)" rx="17.19" ry="16.48"></ellipse>
<ellipse fill="#fe2a79" cx="0.00" cy="0.00" transform="translate(460.66,820.92) rotate(-88.1)" rx="17.16" ry="16.51"></ellipse>
<ellipse fill="#fe2a79" cx="0.00" cy="0.00" transform="translate(210.69,954.32) rotate(-90.7)" rx="17.28" ry="16.63"></ellipse>
<ellipse fill="#fe2a79" cx="0.00" cy="0.00" transform="translate(333.07,954.46) rotate(-89.8)" rx="17.17" ry="16.51"></ellipse>
<ellipse fill="#fe2a79" cx="0.00" cy="0.00" transform="translate(460.71,954.92) rotate(-91.0)" rx="17.24" ry="16.55"></ellipse>
<ellipse fill="#fe2a79" cx="0.00" cy="0.00" transform="translate(625.70,954.78) rotate(-90.2)" rx="17.26" ry="16.60"></ellipse>
<ellipse fill="#fe2a79" cx="0.00" cy="0.00" transform="translate(750.76,954.57) rotate(-90.1)" rx="17.22" ry="16.59"></ellipse>
<ellipse fill="#fe2a79" cx="0.00" cy="0.00" transform="translate(873.98,954.63) rotate(-90.3)" rx="17.16" ry="16.61"></ellipse>
<ellipse fill="#fe2a79" cx="0.00" cy="0.00" transform="translate(210.59,1088.08) rotate(-86.8)" rx="17.20" ry="16.51"></ellipse>
<ellipse fill="#fe2a79" cx="0.00" cy="0.00" transform="translate(332.93,1088.29) rotate(-88.4)" rx="17.08" ry="16.39"></ellipse>
<ellipse fill="#fe2a79" cx="0.00" cy="0.00" transform="translate(750.69,1088.64) rotate(-86.2)" rx="17.17" ry="16.53"></ellipse>
<ellipse fill="#fe2a79" cx="0.00" cy="0.00" transform="translate(874.00,1088.60) rotate(-87.2)" rx="17.18" ry="16.48"></ellipse>
<ellipse fill="#fe2a79" cx="0.00" cy="0.00" transform="translate(460.71,1088.97) rotate(-89.8)" rx="17.20" ry="16.54"></ellipse>
<ellipse fill="#fe2a79" cx="0.00" cy="0.00" transform="translate(625.65,1088.81) rotate(-94.1)" rx="17.17" ry="16.56"></ellipse>
</svg>