<?xml version="1.0" encoding="UTF-8" standalone="no"?>

<svg xmlns="http://www.w3.org/2000/svg" version="1.1" viewBox="0.00 0.00 960.00 1638.00">
<path stroke="#ffeef1" stroke-width="2.00" fill="none" stroke-linecap="butt" vector-effect="non-scaling-stroke" d="&#xA;  M 263.41 94.30&#xA;  Q 242.43 100.54 226.11 107.15&#xA;  C 192.64 120.71 161.61 140.04 136.17 165.93&#xA;  Q 105.28 197.37 89.19 238.42&#xA;  Q 66.91 295.29 79.63 357.57&#xA;  Q 83.01 374.12 91.25 395.86&#xA;  C 93.00 400.49 95.21 404.47 97.10 408.84&#xA;  Q 99.84 415.15 101.66 418.50&#xA;  Q 113.53 440.31 123.66 453.61&#xA;  Q 128.70 460.22 136.61 470.22&#xA;  C 141.33 476.19 146.42 481.00 151.08 486.40&#xA;  Q 154.92 490.85 161.71 497.39&#xA;  Q 176.49 511.65 187.72 520.98&#xA;  C 203.13 533.79 217.10 544.89 231.05 557.26&#xA;  Q 241.64 566.65 244.07 568.91&#xA;  Q 252.80 577.01 265.24 591.25&#xA;  C 283.65 612.32 297.74 637.93 304.96 665.27&#xA;  Q 309.94 684.16 310.55 706.09&#xA;  C 311.28 732.20 307.37 757.87 300.00 783.30&#xA;  Q 291.45 812.84 279.39 839.88&#xA;  Q 269.13 862.90 258.28 883.05&#xA;  Q 253.03 892.79 252.28 894.41&#xA;  C 249.11 901.32 244.67 907.97 241.18 915.20&#xA;  C 238.65 920.44 235.43 925.52 232.83 930.79&#xA;  Q 228.33 939.86 222.21 951.42&#xA;  Q 216.07 962.99 204.15 988.84&#xA;  Q 190.67 1018.06 179.81 1053.54&#xA;  Q 170.52 1083.91 166.08 1116.57&#xA;  Q 153.49 1209.31 189.39 1295.40&#xA;  Q 202.92 1327.85 221.09 1356.21&#xA;  Q 231.91 1373.11 237.01 1379.77&#xA;  Q 251.29 1398.41 269.67 1417.55&#xA;  Q 290.03 1438.75 315.41 1457.57&#xA;  C 339.21 1475.21 364.26 1489.22 390.58 1498.89&#xA;  Q 438.26 1516.41 489.14 1510.61&#xA;  C 532.43 1505.68 573.86 1492.04 609.14 1468.64&#xA;  Q 645.93 1444.25 670.15 1407.12&#xA;  Q 687.47 1380.58 693.93 1349.28&#xA;  C 695.38 1342.28 695.67 1337.27 696.56 1328.81&#xA;  Q 697.49 1320.06 696.42 1308.50&#xA;  Q 695.46 1298.20 694.82 1293.94&#xA;  Q 693.39 1284.55 690.07 1273.45&#xA;  C 680.77 1242.36 664.15 1214.49 644.50 1188.24&#xA;  C 635.35 1176.02 626.59 1165.08 618.45 1153.13&#xA;  Q 611.03 1142.23 610.64 1141.60&#xA;  Q 596.05 1118.29 589.86 1097.96&#xA;  Q 585.16 1082.55 583.94 1073.31&#xA;  Q 583.44 1069.56 582.57 1059.61&#xA;  C 581.18 1043.65 582.41 1027.29 585.27 1012.00&#xA;  Q 590.11 986.18 600.62 960.35&#xA;  Q 612.40 931.40 622.05 909.83&#xA;  Q 622.14 909.63 630.21 890.26&#xA;  Q 640.13 866.43 649.37 836.01&#xA;  Q 652.99 824.10 655.69 811.52&#xA;  C 659.70 792.84 662.67 774.22 663.29 756.98&#xA;  Q 663.66 746.88 662.89 726.75&#xA;  Q 662.55 717.90 658.81 696.56&#xA;  Q 656.26 682.00 648.73 661.47&#xA;  Q 642.21 643.68 629.57 622.44&#xA;  Q 629.30 621.97 621.68 609.52&#xA;  Q 617.60 602.86 613.36 596.62&#xA;  C 596.81 572.26 580.65 549.99 570.27 523.76&#xA;  Q 561.83 502.41 559.51 479.51&#xA;  Q 557.43 458.99 558.22 441.00&#xA;  C 558.51 434.34 559.26 421.14 560.28 412.35&#xA;  Q 562.94 389.40 566.49 366.78&#xA;  C 570.97 338.23 575.49 306.65 576.26 276.50&#xA;  C 577.37 232.53 568.48 186.19 541.97 150.51&#xA;  Q 520.92 122.18 489.66 104.84&#xA;  C 452.73 84.35 409.55 76.42 367.50 77.73&#xA;  Q 313.60 79.40 263.41 94.30"></path>
<path fill="#ffdce2" d="&#xA;  M 263.41 94.30&#xA;  Q 313.60 79.40 367.50 77.73&#xA;  C 409.55 76.42 452.73 84.35 489.66 104.84&#xA;  Q 520.92 122.18 541.97 150.51&#xA;  C 568.48 186.19 577.37 232.53 576.26 276.50&#xA;  C 575.49 306.65 570.97 338.23 566.49 366.78&#xA;  Q 562.94 389.40 560.28 412.35&#xA;  C 559.26 421.14 558.51 434.34 558.22 441.00&#xA;  Q 557.43 458.99 559.51 479.51&#xA;  Q 561.83 502.41 570.27 523.76&#xA;  C 580.65 549.99 596.81 572.26 613.36 596.62&#xA;  Q 617.60 602.86 621.68 609.52&#xA;  Q 629.30 621.97 629.57 622.44&#xA;  Q 642.21 643.68 648.73 661.47&#xA;  Q 656.26 682.00 658.81 696.56&#xA;  Q 662.55 717.90 662.89 726.75&#xA;  Q 663.66 746.88 663.29 756.98&#xA;  C 662.67 774.22 659.70 792.84 655.69 811.52&#xA;  Q 652.99 824.10 649.37 836.01&#xA;  Q 640.13 866.43 630.21 890.26&#xA;  Q 622.14 909.63 622.05 909.83&#xA;  Q 612.40 931.40 600.62 960.35&#xA;  Q 590.11 986.18 585.27 1012.00&#xA;  C 582.41 1027.29 581.18 1043.65 582.57 1059.61&#xA;  Q 583.44 1069.56 583.94 1073.31&#xA;  Q 585.16 1082.55 589.86 1097.96&#xA;  Q 596.05 1118.29 610.64 1141.60&#xA;  Q 611.03 1142.23 618.45 1153.13&#xA;  C 626.59 1165.08 635.35 1176.02 644.50 1188.24&#xA;  C 664.15 1214.49 680.77 1242.36 690.07 1273.45&#xA;  Q 693.39 1284.55 694.82 1293.94&#xA;  Q 695.46 1298.20 696.42 1308.50&#xA;  Q 697.49 1320.06 696.56 1328.81&#xA;  C 695.67 1337.27 695.38 1342.28 693.93 1349.28&#xA;  Q 687.47 1380.58 670.15 1407.12&#xA;  Q 645.93 1444.25 609.14 1468.64&#xA;  C 573.86 1492.04 532.43 1505.68 489.14 1510.61&#xA;  Q 438.26 1516.41 390.58 1498.89&#xA;  C 364.26 1489.22 339.21 1475.21 315.41 1457.57&#xA;  Q 290.03 1438.75 269.67 1417.55&#xA;  Q 251.29 1398.41 237.01 1379.77&#xA;  Q 231.91 1373.11 221.09 1356.21&#xA;  Q 202.92 1327.85 189.39 1295.40&#xA;  Q 153.49 1209.31 166.08 1116.57&#xA;  Q 170.52 1083.91 179.81 1053.54&#xA;  Q 190.67 1018.06 204.15 988.84&#xA;  Q 216.07 962.99 222.21 951.42&#xA;  Q 228.33 939.86 232.83 930.79&#xA;  C 235.43 925.52 238.65 920.44 241.18 915.20&#xA;  C 244.67 907.97 249.11 901.32 252.28 894.41&#xA;  Q 253.03 892.79 258.28 883.05&#xA;  Q 269.13 862.90 279.39 839.88&#xA;  Q 291.45 812.84 300.00 783.30&#xA;  C 307.37 757.87 311.28 732.20 310.55 706.09&#xA;  Q 309.94 684.16 304.96 665.27&#xA;  C 297.74 637.93 283.65 612.32 265.24 591.25&#xA;  Q 252.80 577.01 244.07 568.91&#xA;  Q 241.64 566.65 231.05 557.26&#xA;  C 217.10 544.89 203.13 533.79 187.72 520.98&#xA;  Q 176.49 511.65 161.71 497.39&#xA;  Q 154.92 490.85 151.08 486.40&#xA;  C 146.42 481.00 141.33 476.19 136.61 470.22&#xA;  Q 128.70 460.22 123.66 453.61&#xA;  Q 113.53 440.31 101.66 418.50&#xA;  Q 99.84 415.15 97.10 408.84&#xA;  C 95.21 404.47 93.00 400.49 91.25 395.86&#xA;  Q 83.01 374.12 79.63 357.57&#xA;  Q 66.91 295.29 89.19 238.42&#xA;  Q 105.28 197.37 136.17 165.93&#xA;  C 161.61 140.04 192.64 120.71 226.11 107.15&#xA;  Q 242.43 100.54 263.41 94.30&#xA;  Z"></path>
</svg>