<?xml version="1.0" encoding="UTF-8" standalone="no"?>

<svg xmlns="http://www.w3.org/2000/svg" version="1.1" viewBox="0.00 0.00 1254.00 1254.00">
<g stroke-width="2.00" fill="none" stroke-linecap="butt">
<path stroke="#c8aeff" vector-effect="non-scaling-stroke" d="&#xA;  M 816.4847 188.9896&#xA;  A 24.53 24.21 -94.9 0 0 794.4585 215.4979&#xA;  A 24.53 24.21 -94.9 0 0 820.6753 237.8704&#xA;  A 24.53 24.21 -94.9 0 0 842.7015 211.3621&#xA;  A 24.53 24.21 -94.9 0 0 816.4847 188.9896"></path>
<path stroke="#c8aeff" vector-effect="non-scaling-stroke" d="&#xA;  M 655.2369 248.2913&#xA;  A 24.17 23.79 -90.6 0 0 631.7013 272.7091&#xA;  A 24.17 23.79 -90.6 0 0 655.7431 296.6287&#xA;  A 24.17 23.79 -90.6 0 0 679.2787 272.2109&#xA;  A 24.17 23.79 -90.6 0 0 655.2369 248.2913"></path>
<path stroke="#c8aeff" vector-effect="non-scaling-stroke" d="&#xA;  M 491.5422 307.1336&#xA;  A 23.94 23.43 -91.0 0 0 468.5336 331.4789&#xA;  A 23.94 23.43 -91.0 0 0 492.3778 355.0064&#xA;  A 23.94 23.43 -91.0 0 0 515.3864 330.6611&#xA;  A 23.94 23.43 -91.0 0 0 491.5422 307.1336"></path>
<path stroke="#c8aeff" vector-effect="non-scaling-stroke" d="&#xA;  M 884.1628 359.6248&#xA;  A 24.09 23.63 -87.4 0 0 859.4643 382.6181&#xA;  A 24.09 23.63 -87.4 0 0 881.9772 407.7552&#xA;  A 24.09 23.63 -87.4 0 0 906.6757 384.7619&#xA;  A 24.09 23.63 -87.4 0 0 884.1628 359.6248"></path>
<path stroke="#c8aeff" vector-effect="non-scaling-stroke" d="&#xA;  M 327.0576 367.7031&#xA;  A 23.90 23.20 -91.9 0 0 304.6628 392.3592&#xA;  A 23.90 23.20 -91.9 0 0 328.6424 415.4769&#xA;  A 23.90 23.20 -91.9 0 0 351.0372 390.8208&#xA;  A 23.90 23.20 -91.9 0 0 327.0576 367.7031"></path>
<path stroke="#c8aeff" vector-effect="non-scaling-stroke" d="&#xA;  M 718.8072 420.1305&#xA;  A 23.84 23.21 -88.3 0 0 694.9002 443.2714&#xA;  A 23.84 23.21 -88.3 0 0 717.3928 467.7895&#xA;  A 23.84 23.21 -88.3 0 0 741.2998 444.6486&#xA;  A 23.84 23.21 -88.3 0 0 718.8072 420.1305"></path>
<path stroke="#c8aeff" vector-effect="non-scaling-stroke" d="&#xA;  M 554.0699 479.6252&#xA;  A 23.87 23.11 -88.8 0 0 530.4651 503.0060&#xA;  A 23.87 23.11 -88.8 0 0 553.0701 527.3548&#xA;  A 23.87 23.11 -88.8 0 0 576.6749 503.9740&#xA;  A 23.87 23.11 -88.8 0 0 554.0699 479.6252"></path>
<path stroke="#c8aeff" vector-effect="non-scaling-stroke" d="&#xA;  M 945.4500 532.3900&#xA;  A 23.98 23.31 -90.0 0 0 922.1400 556.3700&#xA;  A 23.98 23.31 -90.0 0 0 945.4500 580.3500&#xA;  A 23.98 23.31 -90.0 0 0 968.7600 556.3700&#xA;  A 23.98 23.31 -90.0 0 0 945.4500 532.3900"></path>
<path stroke="#c8aeff" vector-effect="non-scaling-stroke" d="&#xA;  M 389.4947 539.7232&#xA;  A 23.97 23.17 -88.1 0 0 365.5427 562.9118&#xA;  A 23.97 23.17 -88.1 0 0 387.9053 587.6368&#xA;  A 23.97 23.17 -88.1 0 0 411.8573 564.4482&#xA;  A 23.97 23.17 -88.1 0 0 389.4947 539.7232"></path>
<path stroke="#c8aeff" vector-effect="non-scaling-stroke" d="&#xA;  M 780.4617 593.2271&#xA;  A 23.81 23.01 -88.6 0 0 756.8769 616.4678&#xA;  A 23.81 23.01 -88.6 0 0 779.2983 640.8329&#xA;  A 23.81 23.01 -88.6 0 0 802.8831 617.5922&#xA;  A 23.81 23.01 -88.6 0 0 780.4617 593.2271"></path>
<path stroke="#c8aeff" vector-effect="non-scaling-stroke" d="&#xA;  M 615.6173 653.3707&#xA;  A 24.01 23.21 -85.3 0 0 590.5180 675.3982&#xA;  A 24.01 23.21 -85.3 0 0 611.6827 701.2293&#xA;  A 24.01 23.21 -85.3 0 0 636.7820 679.2018&#xA;  A 24.01 23.21 -85.3 0 0 615.6173 653.3707"></path>
<path stroke="#c8aeff" vector-effect="non-scaling-stroke" d="&#xA;  M 1011.3969 705.7601&#xA;  A 24.16 23.63 -83.4 0 0 985.1466 727.0440&#xA;  A 24.16 23.63 -83.4 0 0 1005.8431 753.7599&#xA;  A 24.16 23.63 -83.4 0 0 1032.0934 732.4760&#xA;  A 24.16 23.63 -83.4 0 0 1011.3969 705.7601"></path>
<path stroke="#c8aeff" vector-effect="non-scaling-stroke" d="&#xA;  M 449.9035 713.6301&#xA;  A 23.92 23.09 -89.8 0 0 426.7301 737.4694&#xA;  A 23.92 23.09 -89.8 0 0 449.7365 761.4699&#xA;  A 23.92 23.09 -89.8 0 0 472.9099 737.6306&#xA;  A 23.92 23.09 -89.8 0 0 449.9035 713.6301"></path>
<path stroke="#c8aeff" vector-effect="non-scaling-stroke" d="&#xA;  M 844.0551 768.3981&#xA;  A 23.87 23.11 -86.0 0 0 819.3363 790.5979&#xA;  A 23.87 23.11 -86.0 0 0 840.7249 816.0219&#xA;  A 23.87 23.11 -86.0 0 0 865.4437 793.8221&#xA;  A 23.87 23.11 -86.0 0 0 844.0551 768.3981"></path>
<path stroke="#c8aeff" vector-effect="non-scaling-stroke" d="&#xA;  M 676.1183 830.0200&#xA;  A 23.89 23.03 -90.1 0 0 653.1300 853.9502&#xA;  A 23.89 23.03 -90.1 0 0 676.2017 877.8000&#xA;  A 23.89 23.03 -90.1 0 0 699.1900 853.8698&#xA;  A 23.89 23.03 -90.1 0 0 676.1183 830.0200"></path>
<path stroke="#c8aeff" vector-effect="non-scaling-stroke" d="&#xA;  M 514.8444 890.0188&#xA;  A 23.87 23.24 -82.6 0 0 488.7236 910.6968&#xA;  A 23.87 23.24 -82.6 0 0 508.6956 937.3612&#xA;  A 23.87 23.24 -82.6 0 0 534.8164 916.6832&#xA;  A 23.87 23.24 -82.6 0 0 514.8444 890.0188"></path>
</g>
<ellipse fill="#905cfe" cx="0.00" cy="0.00" transform="translate(818.58,213.43) rotate(-94.9)" rx="24.53" ry="24.21"></ellipse>
<ellipse fill="#905cfe" cx="0.00" cy="0.00" transform="translate(655.49,272.46) rotate(-90.6)" rx="24.17" ry="23.79"></ellipse>
<ellipse fill="#905cfe" cx="0.00" cy="0.00" transform="translate(491.96,331.07) rotate(-91.0)" rx="23.94" ry="23.43"></ellipse>
<ellipse fill="#905cfe" cx="0.00" cy="0.00" transform="translate(883.07,383.69) rotate(-87.4)" rx="24.09" ry="23.63"></ellipse>
<ellipse fill="#905cfe" cx="0.00" cy="0.00" transform="translate(327.85,391.59) rotate(-91.9)" rx="23.90" ry="23.20"></ellipse>
<ellipse fill="#905cfe" cx="0.00" cy="0.00" transform="translate(718.10,443.96) rotate(-88.3)" rx="23.84" ry="23.21"></ellipse>
<ellipse fill="#905cfe" cx="0.00" cy="0.00" transform="translate(553.57,503.49) rotate(-88.8)" rx="23.87" ry="23.11"></ellipse>
<ellipse fill="#905cfe" cx="0.00" cy="0.00" transform="translate(945.45,556.37) rotate(-90.0)" rx="23.98" ry="23.31"></ellipse>
<ellipse fill="#905cfe" cx="0.00" cy="0.00" transform="translate(388.70,563.68) rotate(-88.1)" rx="23.97" ry="23.17"></ellipse>
<ellipse fill="#905cfe" cx="0.00" cy="0.00" transform="translate(779.88,617.03) rotate(-88.6)" rx="23.81" ry="23.01"></ellipse>
<ellipse fill="#905cfe" cx="0.00" cy="0.00" transform="translate(613.65,677.30) rotate(-85.3)" rx="24.01" ry="23.21"></ellipse>
<ellipse fill="#905cfe" cx="0.00" cy="0.00" transform="translate(1008.62,729.76) rotate(-83.4)" rx="24.16" ry="23.63"></ellipse>
<ellipse fill="#905cfe" cx="0.00" cy="0.00" transform="translate(449.82,737.55) rotate(-89.8)" rx="23.92" ry="23.09"></ellipse>
<ellipse fill="#905cfe" cx="0.00" cy="0.00" transform="translate(842.39,792.21) rotate(-86.0)" rx="23.87" ry="23.11"></ellipse>
<ellipse fill="#905cfe" cx="0.00" cy="0.00" transform="translate(676.16,853.91) rotate(-90.1)" rx="23.89" ry="23.03"></ellipse>
<ellipse fill="#905cfe" cx="0.00" cy="0.00" transform="translate(511.77,913.69) rotate(-82.6)" rx="23.87" ry="23.24"></ellipse>
</svg>