<?xml version="1.0" encoding="UTF-8" standalone="no"?>

<svg xmlns="http://www.w3.org/2000/svg" version="1.1" viewBox="0.00 0.00 1254.00 1254.00">
<g stroke-width="2.00" fill="none" stroke-linecap="butt">
<path stroke="#808080" vector-effect="non-scaling-stroke" d="&#xA;  M 976.61 432.87&#xA;  A 66.03 66.03 0.0 0 0 910.58 366.84&#xA;  L 345.08 366.84&#xA;  A 66.03 66.03 0.0 0 0 279.05 432.87&#xA;  L 279.05 797.61&#xA;  A 66.03 66.03 0.0 0 0 345.08 863.64&#xA;  L 910.58 863.64&#xA;  A 66.03 66.03 0.0 0 0 976.61 797.61&#xA;  L 976.61 432.87"></path>
<path stroke="#808080" vector-effect="non-scaling-stroke" d="&#xA;  M 627.86 498.37&#xA;  Q 923.05 498.37 948.25 498.40&#xA;  Q 950.90 498.40 953.44 498.21&#xA;  A 0.80 0.79 87.7 0 0 954.18 497.40&#xA;  Q 954.11 470.10 954.27 439.45&#xA;  Q 954.33 426.85 952.77 421.21&#xA;  C 947.75 403.06 931.21 389.22 912.00 389.21&#xA;  Q 766.35 389.13 627.86 389.13&#xA;  Q 489.37 389.13 343.72 389.21&#xA;  C 324.51 389.22 307.97 403.06 302.95 421.21&#xA;  Q 301.39 426.85 301.45 439.45&#xA;  Q 301.61 470.10 301.54 497.40&#xA;  A 0.80 0.79 -87.7 0 0 302.28 498.21&#xA;  Q 304.82 498.40 307.47 498.40&#xA;  Q 332.67 498.37 627.86 498.37"></path>
<path stroke="#808080" vector-effect="non-scaling-stroke" d="&#xA;  M 627.84 841.38&#xA;  Q 880.81 841.37 911.50 841.15&#xA;  Q 921.86 841.08 930.32 836.54&#xA;  Q 947.81 827.14 952.80 808.43&#xA;  Q 954.29 802.84 954.20 791.44&#xA;  Q 954.12 781.36 954.15 521.31&#xA;  A 0.66 0.66 0.0 0 0 953.49 520.65&#xA;  Q 790.53 520.62 627.82 520.63&#xA;  Q 465.12 520.64 302.15 520.69&#xA;  A 0.66 0.66 0.0 0 0 301.50 521.35&#xA;  Q 301.56 781.40 301.48 791.48&#xA;  Q 301.39 802.88 302.88 808.47&#xA;  Q 307.88 827.18 325.37 836.58&#xA;  Q 333.83 841.12 344.19 841.19&#xA;  Q 374.87 841.40 627.84 841.38"></path>
<path stroke="#808080" vector-effect="non-scaling-stroke" d="&#xA;  M 498.4823 683.8106&#xA;  A 24.21 24.21 0.0 0 0 474.2300 659.6429&#xA;  L 385.7502 659.7973&#xA;  A 24.21 24.21 0.0 0 0 361.5825 684.0495&#xA;  L 361.7177 761.5494&#xA;  A 24.21 24.21 0.0 0 0 385.9700 785.7171&#xA;  L 474.4498 785.5627&#xA;  A 24.21 24.21 0.0 0 0 498.6175 761.3105&#xA;  L 498.4823 683.8106"></path>
<path stroke="#808080" vector-effect="non-scaling-stroke" d="&#xA;  M 893.6403 674.8530&#xA;  A 11.04 11.04 0.0 0 0 882.6196 663.7937&#xA;  L 786.7198 663.6263&#xA;  A 11.04 11.04 0.0 0 0 775.6605 674.6470&#xA;  L 775.6597 675.1270&#xA;  A 11.04 11.04 0.0 0 0 786.6804 686.1863&#xA;  L 882.5802 686.3537&#xA;  A 11.04 11.04 0.0 0 0 893.6395 675.3330&#xA;  L 893.6403 674.8530"></path>
<path stroke="#808080" vector-effect="non-scaling-stroke" d="&#xA;  M 893.63 744.30&#xA;  A 10.97 10.97 0.0 0 0 882.66 733.33&#xA;  L 650.16 733.33&#xA;  A 10.97 10.97 0.0 0 0 639.19 744.30&#xA;  L 639.19 744.72&#xA;  A 10.97 10.97 0.0 0 0 650.16 755.69&#xA;  L 882.66 755.69&#xA;  A 10.97 10.97 0.0 0 0 893.63 744.72&#xA;  L 893.63 744.30"></path>
<path stroke="#808080" vector-effect="non-scaling-stroke" d="&#xA;  M 476.65 685.17&#xA;  A 3.49 3.49 0.0 0 0 473.16 681.68&#xA;  L 387.44 681.68&#xA;  A 3.49 3.49 0.0 0 0 383.95 685.17&#xA;  L 383.95 759.87&#xA;  A 3.49 3.49 0.0 0 0 387.44 763.36&#xA;  L 473.16 763.36&#xA;  A 3.49 3.49 0.0 0 0 476.65 759.87&#xA;  L 476.65 685.17"></path>
</g>
<path fill="#000000" d="&#xA;  M 976.61 797.61&#xA;  A 66.03 66.03 0.0 0 1 910.58 863.64&#xA;  L 345.08 863.64&#xA;  A 66.03 66.03 0.0 0 1 279.05 797.61&#xA;  L 279.05 432.87&#xA;  A 66.03 66.03 0.0 0 1 345.08 366.84&#xA;  L 910.58 366.84&#xA;  A 66.03 66.03 0.0 0 1 976.61 432.87&#xA;  L 976.61 797.61&#xA;  Z&#xA;  M 627.86 498.37&#xA;  Q 923.05 498.37 948.25 498.40&#xA;  Q 950.90 498.40 953.44 498.21&#xA;  A 0.80 0.79 87.7 0 0 954.18 497.40&#xA;  Q 954.11 470.10 954.27 439.45&#xA;  Q 954.33 426.85 952.77 421.21&#xA;  C 947.75 403.06 931.21 389.22 912.00 389.21&#xA;  Q 766.35 389.13 627.86 389.13&#xA;  Q 489.37 389.13 343.72 389.21&#xA;  C 324.51 389.22 307.97 403.06 302.95 421.21&#xA;  Q 301.39 426.85 301.45 439.45&#xA;  Q 301.61 470.10 301.54 497.40&#xA;  A 0.80 0.79 -87.7 0 0 302.28 498.21&#xA;  Q 304.82 498.40 307.47 498.40&#xA;  Q 332.67 498.37 627.86 498.37&#xA;  Z&#xA;  M 627.84 841.38&#xA;  Q 880.81 841.37 911.50 841.15&#xA;  Q 921.86 841.08 930.32 836.54&#xA;  Q 947.81 827.14 952.80 808.43&#xA;  Q 954.29 802.84 954.20 791.44&#xA;  Q 954.12 781.36 954.15 521.31&#xA;  A 0.66 0.66 0.0 0 0 953.49 520.65&#xA;  Q 790.53 520.62 627.82 520.63&#xA;  Q 465.12 520.64 302.15 520.69&#xA;  A 0.66 0.66 0.0 0 0 301.50 521.35&#xA;  Q 301.56 781.40 301.48 791.48&#xA;  Q 301.39 802.88 302.88 808.47&#xA;  Q 307.88 827.18 325.37 836.58&#xA;  Q 333.83 841.12 344.19 841.19&#xA;  Q 374.87 841.40 627.84 841.38&#xA;  Z"></path>
<path fill="#ffffff" d="&#xA;  M 627.86 389.13&#xA;  Q 766.35 389.13 912.00 389.21&#xA;  C 931.21 389.22 947.75 403.06 952.77 421.21&#xA;  Q 954.33 426.85 954.27 439.45&#xA;  Q 954.11 470.10 954.18 497.40&#xA;  A 0.80 0.79 87.7 0 1 953.44 498.21&#xA;  Q 950.90 498.40 948.25 498.40&#xA;  Q 923.05 498.37 627.86 498.37&#xA;  Q 332.67 498.37 307.47 498.40&#xA;  Q 304.82 498.40 302.28 498.21&#xA;  A 0.80 0.79 -87.7 0 1 301.54 497.40&#xA;  Q 301.61 470.10 301.45 439.45&#xA;  Q 301.39 426.85 302.95 421.21&#xA;  C 307.97 403.06 324.51 389.22 343.72 389.21&#xA;  Q 489.37 389.13 627.86 389.13&#xA;  Z"></path>
<path fill="#ffffff" d="&#xA;  M 627.82 520.63&#xA;  Q 790.53 520.62 953.49 520.65&#xA;  A 0.66 0.66 0.0 0 1 954.15 521.31&#xA;  Q 954.12 781.36 954.20 791.44&#xA;  Q 954.29 802.84 952.80 808.43&#xA;  Q 947.81 827.14 930.32 836.54&#xA;  Q 921.86 841.08 911.50 841.15&#xA;  Q 880.81 841.37 627.84 841.38&#xA;  Q 374.87 841.40 344.19 841.19&#xA;  Q 333.83 841.12 325.37 836.58&#xA;  Q 307.88 827.18 302.88 808.47&#xA;  Q 301.39 802.88 301.48 791.48&#xA;  Q 301.56 781.40 301.50 521.35&#xA;  A 0.66 0.66 0.0 0 1 302.15 520.69&#xA;  Q 465.12 520.64 627.82 520.63&#xA;  Z&#xA;  M 498.4823 683.8106&#xA;  A 24.21 24.21 0.0 0 0 474.2300 659.6429&#xA;  L 385.7502 659.7973&#xA;  A 24.21 24.21 0.0 0 0 361.5825 684.0495&#xA;  L 361.7177 761.5494&#xA;  A 24.21 24.21 0.0 0 0 385.9700 785.7171&#xA;  L 474.4498 785.5627&#xA;  A 24.21 24.21 0.0 0 0 498.6175 761.3105&#xA;  L 498.4823 683.8106&#xA;  Z&#xA;  M 893.6403 674.8530&#xA;  A 11.04 11.04 0.0 0 0 882.6196 663.7937&#xA;  L 786.7198 663.6263&#xA;  A 11.04 11.04 0.0 0 0 775.6605 674.6470&#xA;  L 775.6597 675.1270&#xA;  A 11.04 11.04 0.0 0 0 786.6804 686.1863&#xA;  L 882.5802 686.3537&#xA;  A 11.04 11.04 0.0 0 0 893.6395 675.3330&#xA;  L 893.6403 674.8530&#xA;  Z&#xA;  M 893.63 744.30&#xA;  A 10.97 10.97 0.0 0 0 882.66 733.33&#xA;  L 650.16 733.33&#xA;  A 10.97 10.97 0.0 0 0 639.19 744.30&#xA;  L 639.19 744.72&#xA;  A 10.97 10.97 0.0 0 0 650.16 755.69&#xA;  L 882.66 755.69&#xA;  A 10.97 10.97 0.0 0 0 893.63 744.72&#xA;  L 893.63 744.30&#xA;  Z"></path>
<path fill="#000000" d="&#xA;  M 498.6175 761.3105&#xA;  A 24.21 24.21 0.0 0 1 474.4498 785.5627&#xA;  L 385.9700 785.7171&#xA;  A 24.21 24.21 0.0 0 1 361.7177 761.5494&#xA;  L 361.5825 684.0495&#xA;  A 24.21 24.21 0.0 0 1 385.7502 659.7973&#xA;  L 474.2300 659.6429&#xA;  A 24.21 24.21 0.0 0 1 498.4823 683.8106&#xA;  L 498.6175 761.3105&#xA;  Z&#xA;  M 476.65 685.17&#xA;  A 3.49 3.49 0.0 0 0 473.16 681.68&#xA;  L 387.44 681.68&#xA;  A 3.49 3.49 0.0 0 0 383.95 685.17&#xA;  L 383.95 759.87&#xA;  A 3.49 3.49 0.0 0 0 387.44 763.36&#xA;  L 473.16 763.36&#xA;  A 3.49 3.49 0.0 0 0 476.65 759.87&#xA;  L 476.65 685.17&#xA;  Z"></path>
<rect fill="#000000" x="-58.99" y="-11.28" transform="translate(834.65,674.99) rotate(0.1)" width="117.98" height="22.56" rx="11.04"></rect>
<rect fill="#ffffff" x="383.95" y="681.68" width="92.70" height="81.68" rx="3.49"></rect>
<rect fill="#000000" x="639.19" y="733.33" width="254.44" height="22.36" rx="10.97"></rect>
</svg>