<?xml version="1.0" encoding="UTF-8" standalone="no"?>

<svg xmlns="http://www.w3.org/2000/svg" version="1.1" viewBox="0.00 0.00 1254.00 1254.00">
<g stroke-width="2.00" fill="none" stroke-linecap="butt">
<path stroke="#c1b3fe" vector-effect="non-scaling-stroke" d="&#xA;  M 908.34 950.85&#xA;  Q 927.16 935.33 941.81 920.31&#xA;  C 1013.40 846.91 1058.96 752.46 1069.25 650.23&#xA;  Q 1078.64 557.11 1049.05 466.94&#xA;  C 1027.74 402.00 991.41 342.89 944.01 293.73&#xA;  Q 916.00 264.69 880.01 239.24&#xA;  C 805.48 186.53 717.44 157.72 626.26 157.60&#xA;  C 567.83 157.52 508.98 169.42 454.18 192.83&#xA;  Q 440.29 198.76 431.42 203.20&#xA;  C 389.28 224.33 350.20 251.64 316.64 284.16&#xA;  C 253.27 345.58 208.49 423.92 189.42 509.80&#xA;  C 171.45 590.69 176.52 676.35 204.53 754.78&#xA;  Q 222.74 805.76 253.07 851.68&#xA;  Q 304.93 930.22 384.34 981.60&#xA;  Q 472.15 1038.42 576.06 1050.62&#xA;  Q 602.64 1053.74 633.63 1053.16&#xA;  Q 669.77 1052.47 703.85 1046.16&#xA;  Q 753.05 1037.05 797.64 1018.14&#xA;  Q 857.48 992.76 908.34 950.85"></path>
<path stroke="#493b86" vector-effect="non-scaling-stroke" d="&#xA;  M 713.66 593.86&#xA;  Q 708.15 581.68 702.72 572.28&#xA;  Q 699.02 565.89 694.39 555.92&#xA;  Q 691.72 550.17 685.77 539.77&#xA;  Q 683.75 536.25 668.08 506.08&#xA;  Q 664.29 498.77 661.76 494.47&#xA;  Q 658.47 488.88 655.97 482.58&#xA;  A 5.83 5.76 18.1 0 0 655.45 481.57&#xA;  Q 650.30 473.45 647.18 466.04&#xA;  A 2.22 2.21 -29.6 0 1 647.92 463.38&#xA;  Q 652.85 459.81 656.15 455.21&#xA;  C 658.89 451.38 660.31 446.00 661.57 441.56&#xA;  C 664.02 432.97 661.86 426.06 657.88 417.81&#xA;  Q 655.41 412.69 650.93 408.82&#xA;  C 646.87 405.31 640.22 400.89 634.99 399.99&#xA;  Q 624.56 398.18 614.52 401.50&#xA;  Q 604.49 404.81 598.08 413.44&#xA;  C 592.24 421.29 588.93 432.94 591.77 442.60&#xA;  C 594.34 451.33 597.74 458.47 605.57 463.82&#xA;  A 1.60 1.60 0.0 0 1 606.08 465.87&#xA;  L 539.16 593.76&#xA;  A 1.03 1.02 32.9 0 1 537.62 594.09&#xA;  L 442.37 519.17&#xA;  A 1.84 1.84 0.0 0 1 441.75 517.16&#xA;  Q 444.75 507.72 442.36 497.17&#xA;  Q 441.47 493.24 437.71 487.10&#xA;  Q 432.15 478.02 423.83 474.19&#xA;  Q 416.62 470.88 410.98 470.25&#xA;  C 394.24 468.37 376.27 479.84 373.03 497.06&#xA;  Q 371.41 505.64 371.47 506.55&#xA;  C 372.05 514.76 374.49 523.81 380.31 529.51&#xA;  C 384.47 533.57 388.21 537.31 393.65 539.16&#xA;  Q 396.33 540.08 399.91 540.86&#xA;  A 1.77 1.77 0.0 0 1 401.30 542.55&#xA;  C 401.41 546.49 401.55 550.69 402.34 554.63&#xA;  C 404.87 567.13 405.72 580.07 407.88 592.67&#xA;  Q 410.27 606.69 412.06 621.49&#xA;  C 413.07 629.86 414.61 637.32 415.68 645.97&#xA;  Q 416.38 651.61 418.10 663.50&#xA;  Q 425.73 716.20 434.93 780.12&#xA;  Q 437.25 796.30 438.00 802.50&#xA;  C 439.09 811.49 444.15 818.26 454.00 818.25&#xA;  Q 633.36 818.02 800.80 818.25&#xA;  C 805.85 818.26 810.15 814.52 812.73 810.26&#xA;  Q 814.35 807.58 815.00 801.16&#xA;  Q 815.31 798.17 818.12 778.98&#xA;  Q 826.85 719.48 840.40 624.65&#xA;  C 843.29 604.38 846.34 585.86 848.88 565.07&#xA;  C 849.74 558.02 851.39 550.55 852.02 543.17&#xA;  A 2.10 2.08 -5.4 0 1 853.55 541.33&#xA;  Q 862.16 538.98 869.15 533.41&#xA;  C 879.62 525.07 883.26 511.15 880.69 498.07&#xA;  Q 879.64 492.76 876.95 488.27&#xA;  Q 867.03 471.72 847.20 470.11&#xA;  C 840.29 469.55 834.71 471.51 828.46 474.63&#xA;  C 818.44 479.64 812.13 489.72 810.30 500.49&#xA;  Q 808.70 509.92 811.27 516.83&#xA;  A 1.97 1.96 -29.4 0 1 810.64 519.06&#xA;  L 715.27 594.26&#xA;  A 1.06 1.05 58.7 0 1 713.66 593.86"></path>
<path stroke="#493b86" vector-effect="non-scaling-stroke" d="&#xA;  M 619.9414 423.6599&#xA;  A 13.08 12.69 -120.5 0 0 615.6459 441.3707&#xA;  A 13.08 12.69 -120.5 0 0 633.2186 446.2001&#xA;  A 13.08 12.69 -120.5 0 0 637.5141 428.4893&#xA;  A 13.08 12.69 -120.5 0 0 619.9414 423.6599"></path>
<path stroke="#493b86" vector-effect="non-scaling-stroke" d="&#xA;  M 626.28 477.46&#xA;  Q 626.19 477.48 626.04 477.76&#xA;  C 610.71 507.39 591.57 542.83 581.02 563.53&#xA;  C 577.50 570.44 574.03 575.98 571.09 582.18&#xA;  Q 568.38 587.90 559.27 604.85&#xA;  C 556.74 609.57 554.94 614.34 552.43 617.65&#xA;  C 547.94 623.59 540.16 625.04 533.99 620.45&#xA;  Q 529.09 616.81 513.04 604.44&#xA;  Q 512.29 603.86 477.47 576.53&#xA;  Q 458.01 561.25 456.71 560.07&#xA;  Q 452.83 556.55 445.98 551.52&#xA;  C 440.01 547.14 434.75 542.04 427.95 536.89&#xA;  A 1.23 1.21 -37.5 0 0 426.73 536.74&#xA;  Q 425.59 537.25 424.84 537.98&#xA;  A 1.70 1.67 -23.1 0 0 424.32 539.24&#xA;  Q 424.50 546.77 425.89 553.89&#xA;  Q 428.12 565.28 429.55 579.00&#xA;  Q 430.18 585.10 430.98 589.51&#xA;  C 433.03 600.82 434.10 611.53 436.03 624.10&#xA;  Q 437.77 635.37 439.59 648.17&#xA;  Q 443.39 674.82 451.90 734.48&#xA;  Q 453.29 744.22 454.36 751.75&#xA;  Q 456.60 767.50 460.53 793.54&#xA;  A 1.04 1.04 0.0 0 0 461.56 794.43&#xA;  L 791.26 794.43&#xA;  A 1.18 1.18 0.0 0 0 792.43 793.40&#xA;  Q 793.01 788.95 794.04 783.47&#xA;  Q 794.63 780.35 795.59 773.50&#xA;  Q 803.24 718.97 815.42 635.89&#xA;  C 816.00 631.97 816.32 626.92 816.90 623.43&#xA;  Q 820.29 602.87 822.82 583.65&#xA;  C 823.73 576.75 824.97 571.21 825.60 565.04&#xA;  C 826.48 556.57 827.37 552.71 829.05 543.01&#xA;  Q 829.08 542.84 829.23 538.81&#xA;  A 1.32 1.32 0.0 0 0 828.68 537.70&#xA;  Q 827.45 536.83 826.29 536.53&#xA;  A 1.32 1.29 -55.7 0 0 825.15 536.76&#xA;  C 820.28 540.49 815.08 545.88 810.11 549.14&#xA;  C 805.55 552.14 802.19 555.53 796.95 559.59&#xA;  Q 790.48 564.60 783.59 570.09&#xA;  Q 755.83 592.19 742.66 602.44&#xA;  Q 729.32 612.82 719.22 620.47&#xA;  Q 713.55 624.77 706.92 622.31&#xA;  Q 702.10 620.52 700.35 617.09&#xA;  Q 694.42 605.46 687.18 592.30&#xA;  Q 685.84 589.85 684.74 587.36&#xA;  C 682.43 582.13 680.09 578.41 675.38 570.15&#xA;  Q 673.17 566.27 668.98 557.63&#xA;  Q 666.74 553.01 659.63 540.13&#xA;  Q 653.83 529.64 645.66 513.46&#xA;  Q 639.92 502.07 636.39 495.81&#xA;  Q 632.74 489.32 627.42 478.02&#xA;  Q 627.08 477.29 626.28 477.46"></path>
<path stroke="#493b86" vector-effect="non-scaling-stroke" d="&#xA;  M 420.2303 507.2633&#xA;  A 11.51 11.51 0.0 0 0 411.1751 493.7368&#xA;  L 408.6835 493.2435&#xA;  A 11.51 11.51 0.0 0 0 395.1571 502.2986&#xA;  L 394.7297 504.4567&#xA;  A 11.51 11.51 0.0 0 0 403.7849 517.9832&#xA;  L 406.2765 518.4765&#xA;  A 11.51 11.51 0.0 0 0 419.8029 509.4214&#xA;  L 420.2303 507.2633"></path>
<path stroke="#493b86" vector-effect="non-scaling-stroke" d="&#xA;  M 858.1650 504.0062&#xA;  A 11.44 11.44 0.0 0 0 846.1042 493.2227&#xA;  L 843.7080 493.3566&#xA;  A 11.44 11.44 0.0 0 0 832.9244 505.4174&#xA;  L 833.0550 507.7538&#xA;  A 11.44 11.44 0.0 0 0 845.1158 518.5373&#xA;  L 847.5120 518.4034&#xA;  A 11.44 11.44 0.0 0 0 858.2956 506.3426&#xA;  L 858.1650 504.0062"></path>
</g>
<path fill="#8267fc" d="&#xA;  M 908.34 950.85&#xA;  Q 857.48 992.76 797.64 1018.14&#xA;  Q 753.05 1037.05 703.85 1046.16&#xA;  Q 669.77 1052.47 633.63 1053.16&#xA;  Q 602.64 1053.74 576.06 1050.62&#xA;  Q 472.15 1038.42 384.34 981.60&#xA;  Q 304.93 930.22 253.07 851.68&#xA;  Q 222.74 805.76 204.53 754.78&#xA;  C 176.52 676.35 171.45 590.69 189.42 509.80&#xA;  C 208.49 423.92 253.27 345.58 316.64 284.16&#xA;  C 350.20 251.64 389.28 224.33 431.42 203.20&#xA;  Q 440.29 198.76 454.18 192.83&#xA;  C 508.98 169.42 567.83 157.52 626.26 157.60&#xA;  C 717.44 157.72 805.48 186.53 880.01 239.24&#xA;  Q 916.00 264.69 944.01 293.73&#xA;  C 991.41 342.89 1027.74 402.00 1049.05 466.94&#xA;  Q 1078.64 557.11 1069.25 650.23&#xA;  C 1058.96 752.46 1013.40 846.91 941.81 920.31&#xA;  Q 927.16 935.33 908.34 950.85&#xA;  Z&#xA;  M 713.66 593.86&#xA;  Q 708.15 581.68 702.72 572.28&#xA;  Q 699.02 565.89 694.39 555.92&#xA;  Q 691.72 550.17 685.77 539.77&#xA;  Q 683.75 536.25 668.08 506.08&#xA;  Q 664.29 498.77 661.76 494.47&#xA;  Q 658.47 488.88 655.97 482.58&#xA;  A 5.83 5.76 18.1 0 0 655.45 481.57&#xA;  Q 650.30 473.45 647.18 466.04&#xA;  A 2.22 2.21 -29.6 0 1 647.92 463.38&#xA;  Q 652.85 459.81 656.15 455.21&#xA;  C 658.89 451.38 660.31 446.00 661.57 441.56&#xA;  C 664.02 432.97 661.86 426.06 657.88 417.81&#xA;  Q 655.41 412.69 650.93 408.82&#xA;  C 646.87 405.31 640.22 400.89 634.99 399.99&#xA;  Q 624.56 398.18 614.52 401.50&#xA;  Q 604.49 404.81 598.08 413.44&#xA;  C 592.24 421.29 588.93 432.94 591.77 442.60&#xA;  C 594.34 451.33 597.74 458.47 605.57 463.82&#xA;  A 1.60 1.60 0.0 0 1 606.08 465.87&#xA;  L 539.16 593.76&#xA;  A 1.03 1.02 32.9 0 1 537.62 594.09&#xA;  L 442.37 519.17&#xA;  A 1.84 1.84 0.0 0 1 441.75 517.16&#xA;  Q 444.75 507.72 442.36 497.17&#xA;  Q 441.47 493.24 437.71 487.10&#xA;  Q 432.15 478.02 423.83 474.19&#xA;  Q 416.62 470.88 410.98 470.25&#xA;  C 394.24 468.37 376.27 479.84 373.03 497.06&#xA;  Q 371.41 505.64 371.47 506.55&#xA;  C 372.05 514.76 374.49 523.81 380.31 529.51&#xA;  C 384.47 533.57 388.21 537.31 393.65 539.16&#xA;  Q 396.33 540.08 399.91 540.86&#xA;  A 1.77 1.77 0.0 0 1 401.30 542.55&#xA;  C 401.41 546.49 401.55 550.69 402.34 554.63&#xA;  C 404.87 567.13 405.72 580.07 407.88 592.67&#xA;  Q 410.27 606.69 412.06 621.49&#xA;  C 413.07 629.86 414.61 637.32 415.68 645.97&#xA;  Q 416.38 651.61 418.10 663.50&#xA;  Q 425.73 716.20 434.93 780.12&#xA;  Q 437.25 796.30 438.00 802.50&#xA;  C 439.09 811.49 444.15 818.26 454.00 818.25&#xA;  Q 633.36 818.02 800.80 818.25&#xA;  C 805.85 818.26 810.15 814.52 812.73 810.26&#xA;  Q 814.35 807.58 815.00 801.16&#xA;  Q 815.31 798.17 818.12 778.98&#xA;  Q 826.85 719.48 840.40 624.65&#xA;  C 843.29 604.38 846.34 585.86 848.88 565.07&#xA;  C 849.74 558.02 851.39 550.55 852.02 543.17&#xA;  A 2.10 2.08 -5.4 0 1 853.55 541.33&#xA;  Q 862.16 538.98 869.15 533.41&#xA;  C 879.62 525.07 883.26 511.15 880.69 498.07&#xA;  Q 879.64 492.76 876.95 488.27&#xA;  Q 867.03 471.72 847.20 470.11&#xA;  C 840.29 469.55 834.71 471.51 828.46 474.63&#xA;  C 818.44 479.64 812.13 489.72 810.30 500.49&#xA;  Q 808.70 509.92 811.27 516.83&#xA;  A 1.97 1.96 -29.4 0 1 810.64 519.06&#xA;  L 715.27 594.26&#xA;  A 1.06 1.05 58.7 0 1 713.66 593.86&#xA;  Z"></path>
<path fill="#0f0f0f" d="&#xA;  M 713.66 593.86&#xA;  A 1.06 1.05 58.7 0 0 715.27 594.26&#xA;  L 810.64 519.06&#xA;  A 1.97 1.96 -29.4 0 0 811.27 516.83&#xA;  Q 808.70 509.92 810.30 500.49&#xA;  C 812.13 489.72 818.44 479.64 828.46 474.63&#xA;  C 834.71 471.51 840.29 469.55 847.20 470.11&#xA;  Q 867.03 471.72 876.95 488.27&#xA;  Q 879.64 492.76 880.69 498.07&#xA;  C 883.26 511.15 879.62 525.07 869.15 533.41&#xA;  Q 862.16 538.98 853.55 541.33&#xA;  A 2.10 2.08 -5.4 0 0 852.02 543.17&#xA;  C 851.39 550.55 849.74 558.02 848.88 565.07&#xA;  C 846.34 585.86 843.29 604.38 840.40 624.65&#xA;  Q 826.85 719.48 818.12 778.98&#xA;  Q 815.31 798.17 815.00 801.16&#xA;  Q 814.35 807.58 812.73 810.26&#xA;  C 810.15 814.52 805.85 818.26 800.80 818.25&#xA;  Q 633.36 818.02 454.00 818.25&#xA;  C 444.15 818.26 439.09 811.49 438.00 802.50&#xA;  Q 437.25 796.30 434.93 780.12&#xA;  Q 425.73 716.20 418.10 663.50&#xA;  Q 416.38 651.61 415.68 645.97&#xA;  C 414.61 637.32 413.07 629.86 412.06 621.49&#xA;  Q 410.27 606.69 407.88 592.67&#xA;  C 405.72 580.07 404.87 567.13 402.34 554.63&#xA;  C 401.55 550.69 401.41 546.49 401.30 542.55&#xA;  A 1.77 1.77 0.0 0 0 399.91 540.86&#xA;  Q 396.33 540.08 393.65 539.16&#xA;  C 388.21 537.31 384.47 533.57 380.31 529.51&#xA;  C 374.49 523.81 372.05 514.76 371.47 506.55&#xA;  Q 371.41 505.64 373.03 497.06&#xA;  C 376.27 479.84 394.24 468.37 410.98 470.25&#xA;  Q 416.62 470.88 423.83 474.19&#xA;  Q 432.15 478.02 437.71 487.10&#xA;  Q 441.47 493.24 442.36 497.17&#xA;  Q 444.75 507.72 441.75 517.16&#xA;  A 1.84 1.84 0.0 0 0 442.37 519.17&#xA;  L 537.62 594.09&#xA;  A 1.03 1.02 32.9 0 0 539.16 593.76&#xA;  L 606.08 465.87&#xA;  A 1.60 1.60 0.0 0 0 605.57 463.82&#xA;  C 597.74 458.47 594.34 451.33 591.77 442.60&#xA;  C 588.93 432.94 592.24 421.29 598.08 413.44&#xA;  Q 604.49 404.81 614.52 401.50&#xA;  Q 624.56 398.18 634.99 399.99&#xA;  C 640.22 400.89 646.87 405.31 650.93 408.82&#xA;  Q 655.41 412.69 657.88 417.81&#xA;  C 661.86 426.06 664.02 432.97 661.57 441.56&#xA;  C 660.31 446.00 658.89 451.38 656.15 455.21&#xA;  Q 652.85 459.81 647.92 463.38&#xA;  A 2.22 2.21 -29.6 0 0 647.18 466.04&#xA;  Q 650.30 473.45 655.45 481.57&#xA;  A 5.83 5.76 18.1 0 1 655.97 482.58&#xA;  Q 658.47 488.88 661.76 494.47&#xA;  Q 664.29 498.77 668.08 506.08&#xA;  Q 683.75 536.25 685.77 539.77&#xA;  Q 691.72 550.17 694.39 555.92&#xA;  Q 699.02 565.89 702.72 572.28&#xA;  Q 708.15 581.68 713.66 593.86&#xA;  Z&#xA;  M 619.9414 423.6599&#xA;  A 13.08 12.69 -120.5 0 0 615.6459 441.3707&#xA;  A 13.08 12.69 -120.5 0 0 633.2186 446.2001&#xA;  A 13.08 12.69 -120.5 0 0 637.5141 428.4893&#xA;  A 13.08 12.69 -120.5 0 0 619.9414 423.6599&#xA;  Z&#xA;  M 626.28 477.46&#xA;  Q 626.19 477.48 626.04 477.76&#xA;  C 610.71 507.39 591.57 542.83 581.02 563.53&#xA;  C 577.50 570.44 574.03 575.98 571.09 582.18&#xA;  Q 568.38 587.90 559.27 604.85&#xA;  C 556.74 609.57 554.94 614.34 552.43 617.65&#xA;  C 547.94 623.59 540.16 625.04 533.99 620.45&#xA;  Q 529.09 616.81 513.04 604.44&#xA;  Q 512.29 603.86 477.47 576.53&#xA;  Q 458.01 561.25 456.71 560.07&#xA;  Q 452.83 556.55 445.98 551.52&#xA;  C 440.01 547.14 434.75 542.04 427.95 536.89&#xA;  A 1.23 1.21 -37.5 0 0 426.73 536.74&#xA;  Q 425.59 537.25 424.84 537.98&#xA;  A 1.70 1.67 -23.1 0 0 424.32 539.24&#xA;  Q 424.50 546.77 425.89 553.89&#xA;  Q 428.12 565.28 429.55 579.00&#xA;  Q 430.18 585.10 430.98 589.51&#xA;  C 433.03 600.82 434.10 611.53 436.03 624.10&#xA;  Q 437.77 635.37 439.59 648.17&#xA;  Q 443.39 674.82 451.90 734.48&#xA;  Q 453.29 744.22 454.36 751.75&#xA;  Q 456.60 767.50 460.53 793.54&#xA;  A 1.04 1.04 0.0 0 0 461.56 794.43&#xA;  L 791.26 794.43&#xA;  A 1.18 1.18 0.0 0 0 792.43 793.40&#xA;  Q 793.01 788.95 794.04 783.47&#xA;  Q 794.63 780.35 795.59 773.50&#xA;  Q 803.24 718.97 815.42 635.89&#xA;  C 816.00 631.97 816.32 626.92 816.90 623.43&#xA;  Q 820.29 602.87 822.82 583.65&#xA;  C 823.73 576.75 824.97 571.21 825.60 565.04&#xA;  C 826.48 556.57 827.37 552.71 829.05 543.01&#xA;  Q 829.08 542.84 829.23 538.81&#xA;  A 1.32 1.32 0.0 0 0 828.68 537.70&#xA;  Q 827.45 536.83 826.29 536.53&#xA;  A 1.32 1.29 -55.7 0 0 825.15 536.76&#xA;  C 820.28 540.49 815.08 545.88 810.11 549.14&#xA;  C 805.55 552.14 802.19 555.53 796.95 559.59&#xA;  Q 790.48 564.60 783.59 570.09&#xA;  Q 755.83 592.19 742.66 602.44&#xA;  Q 729.32 612.82 719.22 620.47&#xA;  Q 713.55 624.77 706.92 622.31&#xA;  Q 702.10 620.52 700.35 617.09&#xA;  Q 694.42 605.46 687.18 592.30&#xA;  Q 685.84 589.85 684.74 587.36&#xA;  C 682.43 582.13 680.09 578.41 675.38 570.15&#xA;  Q 673.17 566.27 668.98 557.63&#xA;  Q 666.74 553.01 659.63 540.13&#xA;  Q 653.83 529.64 645.66 513.46&#xA;  Q 639.92 502.07 636.39 495.81&#xA;  Q 632.74 489.32 627.42 478.02&#xA;  Q 627.08 477.29 626.28 477.46&#xA;  Z&#xA;  M 420.2303 507.2633&#xA;  A 11.51 11.51 0.0 0 0 411.1751 493.7368&#xA;  L 408.6835 493.2435&#xA;  A 11.51 11.51 0.0 0 0 395.1571 502.2986&#xA;  L 394.7297 504.4567&#xA;  A 11.51 11.51 0.0 0 0 403.7849 517.9832&#xA;  L 406.2765 518.4765&#xA;  A 11.51 11.51 0.0 0 0 419.8029 509.4214&#xA;  L 420.2303 507.2633&#xA;  Z&#xA;  M 858.1650 504.0062&#xA;  A 11.44 11.44 0.0 0 0 846.1042 493.2227&#xA;  L 843.7080 493.3566&#xA;  A 11.44 11.44 0.0 0 0 832.9244 505.4174&#xA;  L 833.0550 507.7538&#xA;  A 11.44 11.44 0.0 0 0 845.1158 518.5373&#xA;  L 847.5120 518.4034&#xA;  A 11.44 11.44 0.0 0 0 858.2956 506.3426&#xA;  L 858.1650 504.0062&#xA;  Z"></path>
<ellipse fill="#8267fc" cx="0.00" cy="0.00" transform="translate(626.58,434.93) rotate(-120.5)" rx="13.08" ry="12.69"></ellipse>
<path fill="#8267fc" d="&#xA;  M 626.28 477.46&#xA;  Q 627.08 477.29 627.42 478.02&#xA;  Q 632.74 489.32 636.39 495.81&#xA;  Q 639.92 502.07 645.66 513.46&#xA;  Q 653.83 529.64 659.63 540.13&#xA;  Q 666.74 553.01 668.98 557.63&#xA;  Q 673.17 566.27 675.38 570.15&#xA;  C 680.09 578.41 682.43 582.13 684.74 587.36&#xA;  Q 685.84 589.85 687.18 592.30&#xA;  Q 694.42 605.46 700.35 617.09&#xA;  Q 702.10 620.52 706.92 622.31&#xA;  Q 713.55 624.77 719.22 620.47&#xA;  Q 729.32 612.82 742.66 602.44&#xA;  Q 755.83 592.19 783.59 570.09&#xA;  Q 790.48 564.60 796.95 559.59&#xA;  C 802.19 555.53 805.55 552.14 810.11 549.14&#xA;  C 815.08 545.88 820.28 540.49 825.15 536.76&#xA;  A 1.32 1.29 -55.7 0 1 826.29 536.53&#xA;  Q 827.45 536.83 828.68 537.70&#xA;  A 1.32 1.32 0.0 0 1 829.23 538.81&#xA;  Q 829.08 542.84 829.05 543.01&#xA;  C 827.37 552.71 826.48 556.57 825.60 565.04&#xA;  C 824.97 571.21 823.73 576.75 822.82 583.65&#xA;  Q 820.29 602.87 816.90 623.43&#xA;  C 816.32 626.92 816.00 631.97 815.42 635.89&#xA;  Q 803.24 718.97 795.59 773.50&#xA;  Q 794.63 780.35 794.04 783.47&#xA;  Q 793.01 788.95 792.43 793.40&#xA;  A 1.18 1.18 0.0 0 1 791.26 794.43&#xA;  L 461.56 794.43&#xA;  A 1.04 1.04 0.0 0 1 460.53 793.54&#xA;  Q 456.60 767.50 454.36 751.75&#xA;  Q 453.29 744.22 451.90 734.48&#xA;  Q 443.39 674.82 439.59 648.17&#xA;  Q 437.77 635.37 436.03 624.10&#xA;  C 434.10 611.53 433.03 600.82 430.98 589.51&#xA;  Q 430.18 585.10 429.55 579.00&#xA;  Q 428.12 565.28 425.89 553.89&#xA;  Q 424.50 546.77 424.32 539.24&#xA;  A 1.70 1.67 -23.1 0 1 424.84 537.98&#xA;  Q 425.59 537.25 426.73 536.74&#xA;  A 1.23 1.21 -37.5 0 1 427.95 536.89&#xA;  C 434.75 542.04 440.01 547.14 445.98 551.52&#xA;  Q 452.83 556.55 456.71 560.07&#xA;  Q 458.01 561.25 477.47 576.53&#xA;  Q 512.29 603.86 513.04 604.44&#xA;  Q 529.09 616.81 533.99 620.45&#xA;  C 540.16 625.04 547.94 623.59 552.43 617.65&#xA;  C 554.94 614.34 556.74 609.57 559.27 604.85&#xA;  Q 568.38 587.90 571.09 582.18&#xA;  C 574.03 575.98 577.50 570.44 581.02 563.53&#xA;  C 591.57 542.83 610.71 507.39 626.04 477.76&#xA;  Q 626.19 477.48 626.28 477.46&#xA;  Z"></path>
<rect fill="#8267fc" x="-12.78" y="-12.61" transform="translate(407.48,505.86) rotate(11.2)" width="25.56" height="25.22" rx="11.51"></rect>
<rect fill="#8267fc" x="-12.64" y="-12.61" transform="translate(845.61,505.88) rotate(-3.2)" width="25.28" height="25.22" rx="11.44"></rect>
</svg>