<?xml version="1.0" encoding="UTF-8" standalone="no"?>

<svg xmlns="http://www.w3.org/2000/svg" version="1.1" viewBox="0.00 0.00 1254.00 1254.00">
<g stroke-width="2.00" fill="none" stroke-linecap="butt">
<path stroke="#888888" vector-effect="non-scaling-stroke" d="&#xA;  M 640.33 1018.83&#xA;  Q 641.93 1017.55 642.95 1015.93&#xA;  Q 655.59 995.66 673.07 967.59&#xA;  Q 701.09 922.59 756.85 830.18&#xA;  Q 792.21 771.59 800.09 758.71&#xA;  Q 826.72 715.16 843.06 687.09&#xA;  C 856.40 664.18 869.06 641.62 881.00 616.78&#xA;  C 892.29 593.28 901.99 567.01 909.24 539.41&#xA;  Q 914.81 518.19 917.01 498.95&#xA;  C 928.72 396.74 884.67 293.50 803.08 231.02&#xA;  C 743.80 185.63 669.32 164.85 595.01 173.15&#xA;  Q 540.90 179.20 493.32 203.87&#xA;  C 450.48 226.07 413.66 259.06 386.44 298.68&#xA;  Q 343.91 360.58 335.52 434.77&#xA;  C 332.18 464.26 333.75 494.28 339.46 522.52&#xA;  C 347.18 560.78 361.45 598.82 379.39 633.87&#xA;  C 393.46 661.37 409.93 689.11 426.46 716.06&#xA;  Q 469.17 785.69 478.55 800.61&#xA;  Q 485.51 811.68 530.03 885.45&#xA;  Q 563.89 941.56 609.09 1013.89&#xA;  Q 611.37 1017.53 613.13 1019.01&#xA;  C 621.19 1025.80 632.45 1025.13 640.33 1018.83"></path>
<path stroke="#888888" vector-effect="non-scaling-stroke" d="&#xA;  M 626.73 988.94&#xA;  A 0.17 0.17 0.0 0 0 627.02 988.94&#xA;  Q 684.47 895.96 735.73 810.86&#xA;  C 760.15 770.31 779.53 738.91 802.79 700.28&#xA;  Q 826.17 661.47 846.05 624.05&#xA;  Q 857.86 601.84 868.99 572.78&#xA;  C 885.33 530.15 893.92 485.45 889.33 440.70&#xA;  Q 883.13 380.30 852.61 328.93&#xA;  C 812.36 261.18 743.40 214.89 666.36 203.43&#xA;  Q 609.07 194.91 553.49 210.93&#xA;  Q 498.03 226.91 454.19 265.19&#xA;  Q 386.74 324.09 367.75 413.24&#xA;  C 360.27 448.36 360.46 485.81 368.21 521.44&#xA;  Q 372.35 540.48 378.11 557.67&#xA;  Q 389.84 592.63 407.11 625.91&#xA;  Q 409.23 629.98 415.41 641.28&#xA;  Q 422.35 653.96 423.91 656.52&#xA;  C 429.65 665.95 434.05 674.18 440.23 684.36&#xA;  C 462.70 721.34 495.27 773.35 516.27 808.01&#xA;  Q 555.61 872.95 584.61 920.41&#xA;  C 588.05 926.03 590.41 929.54 594.18 935.89&#xA;  Q 596.09 939.10 626.73 988.94"></path>
<path stroke="#888888" vector-effect="non-scaling-stroke" d="&#xA;  M 500.84 463.41&#xA;  C 499.39 532.80 554.57 591.65 624.39 593.12&#xA;  C 694.21 594.58 751.81 538.09 753.26 468.70&#xA;  C 754.72 399.30 699.53 340.45 629.71 338.99&#xA;  C 559.89 337.53 502.30 394.02 500.84 463.41"></path>
<path stroke="#888888" vector-effect="non-scaling-stroke" d="&#xA;  M 623.6487 367.7599&#xA;  A 98.32 98.14 -92.0 0 0 528.9998 469.4450&#xA;  A 98.32 98.14 -92.0 0 0 630.5113 564.2801&#xA;  A 98.32 98.14 -92.0 0 0 725.1602 462.5950&#xA;  A 98.32 98.14 -92.0 0 0 623.6487 367.7599"></path>
</g>
<path fill="#101010" d="&#xA;  M 640.33 1018.83&#xA;  C 632.45 1025.13 621.19 1025.80 613.13 1019.01&#xA;  Q 611.37 1017.53 609.09 1013.89&#xA;  Q 563.89 941.56 530.03 885.45&#xA;  Q 485.51 811.68 478.55 800.61&#xA;  Q 469.17 785.69 426.46 716.06&#xA;  C 409.93 689.11 393.46 661.37 379.39 633.87&#xA;  C 361.45 598.82 347.18 560.78 339.46 522.52&#xA;  C 333.75 494.28 332.18 464.26 335.52 434.77&#xA;  Q 343.91 360.58 386.44 298.68&#xA;  C 413.66 259.06 450.48 226.07 493.32 203.87&#xA;  Q 540.90 179.20 595.01 173.15&#xA;  C 669.32 164.85 743.80 185.63 803.08 231.02&#xA;  C 884.67 293.50 928.72 396.74 917.01 498.95&#xA;  Q 914.81 518.19 909.24 539.41&#xA;  C 901.99 567.01 892.29 593.28 881.00 616.78&#xA;  C 869.06 641.62 856.40 664.18 843.06 687.09&#xA;  Q 826.72 715.16 800.09 758.71&#xA;  Q 792.21 771.59 756.85 830.18&#xA;  Q 701.09 922.59 673.07 967.59&#xA;  Q 655.59 995.66 642.95 1015.93&#xA;  Q 641.93 1017.55 640.33 1018.83&#xA;  Z&#xA;  M 626.73 988.94&#xA;  A 0.17 0.17 0.0 0 0 627.02 988.94&#xA;  Q 684.47 895.96 735.73 810.86&#xA;  C 760.15 770.31 779.53 738.91 802.79 700.28&#xA;  Q 826.17 661.47 846.05 624.05&#xA;  Q 857.86 601.84 868.99 572.78&#xA;  C 885.33 530.15 893.92 485.45 889.33 440.70&#xA;  Q 883.13 380.30 852.61 328.93&#xA;  C 812.36 261.18 743.40 214.89 666.36 203.43&#xA;  Q 609.07 194.91 553.49 210.93&#xA;  Q 498.03 226.91 454.19 265.19&#xA;  Q 386.74 324.09 367.75 413.24&#xA;  C 360.27 448.36 360.46 485.81 368.21 521.44&#xA;  Q 372.35 540.48 378.11 557.67&#xA;  Q 389.84 592.63 407.11 625.91&#xA;  Q 409.23 629.98 415.41 641.28&#xA;  Q 422.35 653.96 423.91 656.52&#xA;  C 429.65 665.95 434.05 674.18 440.23 684.36&#xA;  C 462.70 721.34 495.27 773.35 516.27 808.01&#xA;  Q 555.61 872.95 584.61 920.41&#xA;  C 588.05 926.03 590.41 929.54 594.18 935.89&#xA;  Q 596.09 939.10 626.73 988.94&#xA;  Z"></path>
<path fill="#ffffff" d="&#xA;  M 626.73 988.94&#xA;  Q 596.09 939.10 594.18 935.89&#xA;  C 590.41 929.54 588.05 926.03 584.61 920.41&#xA;  Q 555.61 872.95 516.27 808.01&#xA;  C 495.27 773.35 462.70 721.34 440.23 684.36&#xA;  C 434.05 674.18 429.65 665.95 423.91 656.52&#xA;  Q 422.35 653.96 415.41 641.28&#xA;  Q 409.23 629.98 407.11 625.91&#xA;  Q 389.84 592.63 378.11 557.67&#xA;  Q 372.35 540.48 368.21 521.44&#xA;  C 360.46 485.81 360.27 448.36 367.75 413.24&#xA;  Q 386.74 324.09 454.19 265.19&#xA;  Q 498.03 226.91 553.49 210.93&#xA;  Q 609.07 194.91 666.36 203.43&#xA;  C 743.40 214.89 812.36 261.18 852.61 328.93&#xA;  Q 883.13 380.30 889.33 440.70&#xA;  C 893.92 485.45 885.33 530.15 868.99 572.78&#xA;  Q 857.86 601.84 846.05 624.05&#xA;  Q 826.17 661.47 802.79 700.28&#xA;  C 779.53 738.91 760.15 770.31 735.73 810.86&#xA;  Q 684.47 895.96 627.02 988.94&#xA;  A 0.17 0.17 0.0 0 1 626.73 988.94&#xA;  Z&#xA;  M 500.84 463.41&#xA;  C 499.39 532.80 554.57 591.65 624.39 593.12&#xA;  C 694.21 594.58 751.81 538.09 753.26 468.70&#xA;  C 754.72 399.30 699.53 340.45 629.71 338.99&#xA;  C 559.89 337.53 502.30 394.02 500.84 463.41&#xA;  Z"></path>
<path fill="#101010" d="&#xA;  M 629.71 338.99&#xA;  C 699.53 340.45 754.72 399.30 753.26 468.70&#xA;  C 751.81 538.09 694.21 594.58 624.39 593.12&#xA;  C 554.57 591.65 499.39 532.80 500.84 463.41&#xA;  C 502.30 394.02 559.89 337.53 629.71 338.99&#xA;  Z&#xA;  M 623.6487 367.7599&#xA;  A 98.32 98.14 -92.0 0 0 528.9998 469.4450&#xA;  A 98.32 98.14 -92.0 0 0 630.5113 564.2801&#xA;  A 98.32 98.14 -92.0 0 0 725.1602 462.5950&#xA;  A 98.32 98.14 -92.0 0 0 623.6487 367.7599&#xA;  Z"></path>
<ellipse fill="#ffffff" cx="0.00" cy="0.00" transform="translate(627.08,466.02) rotate(-92.0)" rx="98.32" ry="98.14"></ellipse>
</svg>