<?xml version="1.0" encoding="UTF-8" standalone="no"?>

<svg xmlns="http://www.w3.org/2000/svg" version="1.1" viewBox="0.00 0.00 2008.00 783.00">
<g stroke-width="2.00" fill="none" stroke-linecap="butt">
<path stroke="#81cd81" vector-effect="non-scaling-stroke" d="&#xA;  M 1005.20 580.93&#xA;  Q 1695.36 580.93 1711.79 580.92&#xA;  Q 1734.70 580.90 1744.65 579.48&#xA;  C 1820.87 568.64 1881.05 509.83 1901.07 436.81&#xA;  Q 1913.01 393.24 1904.65 346.77&#xA;  C 1891.33 272.78 1835.10 209.56 1761.19 191.79&#xA;  C 1750.17 189.14 1737.82 187.63 1727.00 187.63&#xA;  Q 1674.29 187.61 1005.20 187.61&#xA;  Q 336.11 187.60 283.40 187.62&#xA;  C 272.58 187.63 260.23 189.14 249.21 191.78&#xA;  C 175.30 209.55 119.07 272.77 105.75 346.76&#xA;  Q 97.39 393.23 109.33 436.80&#xA;  C 129.35 509.82 189.53 568.63 265.75 579.48&#xA;  Q 275.70 580.90 298.61 580.91&#xA;  Q 315.04 580.93 1005.20 580.93"></path>
<path stroke="#81cd81" vector-effect="non-scaling-stroke" d="&#xA;  M 352.50 502.29&#xA;  C 356.55 505.06 363.46 500.65 368.03 498.17&#xA;  Q 379.58 491.90 394.53 481.54&#xA;  Q 419.88 463.98 438.61 445.37&#xA;  C 461.21 422.92 475.61 394.34 471.76 362.07&#xA;  C 465.60 310.42 418.08 278.56 369.44 275.40&#xA;  C 332.02 272.97 291.05 288.12 267.89 319.13&#xA;  C 244.63 350.27 244.13 392.91 266.52 424.74&#xA;  C 280.17 444.15 300.81 457.95 323.29 464.96&#xA;  Q 330.84 467.32 342.32 469.42&#xA;  C 348.53 470.56 353.16 473.42 353.08 480.51&#xA;  Q 353.02 487.16 351.39 493.86&#xA;  C 350.88 495.97 350.42 500.87 352.50 502.29"></path>
<path stroke="#81cd81" vector-effect="non-scaling-stroke" d="&#xA;  M 1524.23 357.78&#xA;  L 1531.71 350.31&#xA;  A 0.47 0.46 44.6 0 0 1531.70 349.65&#xA;  Q 1521.65 339.92 1509.05 333.28&#xA;  A 0.78 0.78 0.0 0 0 1508.10 333.45&#xA;  L 1499.52 342.94&#xA;  A 0.79 0.79 0.0 0 0 1499.73 344.16&#xA;  Q 1509.64 349.53 1517.74 357.49&#xA;  A 0.44 0.44 0.0 0 1 1517.43 358.24&#xA;  L 1485.55 358.24&#xA;  A 0.61 0.61 0.0 0 0 1484.94 358.85&#xA;  L 1484.94 371.58&#xA;  A 0.72 0.72 0.0 0 0 1485.66 372.30&#xA;  L 1510.49 372.30&#xA;  A 0.62 0.62 0.0 0 1 1511.11 372.92&#xA;  L 1511.11 389.90&#xA;  A 0.63 0.62 -0.0 0 1 1510.48 390.52&#xA;  L 1489.84 390.52&#xA;  A 0.65 0.64 90.0 0 0 1489.20 391.17&#xA;  L 1489.20 404.15&#xA;  A 0.48 0.47 90.0 0 0 1489.67 404.63&#xA;  L 1510.44 404.63&#xA;  A 0.68 0.68 0.0 0 1 1511.12 405.31&#xA;  L 1511.12 425.12&#xA;  A 0.59 0.58 -90.0 0 1 1510.54 425.71&#xA;  L 1482.44 425.71&#xA;  A 0.68 0.67 -0.0 0 0 1481.76 426.38&#xA;  L 1481.76 439.31&#xA;  A 0.47 0.46 0.0 0 0 1482.23 439.77&#xA;  L 1553.52 439.77&#xA;  A 0.65 0.65 0.0 0 0 1554.17 439.12&#xA;  L 1554.17 426.25&#xA;  A 0.48 0.47 0.0 0 0 1553.69 425.78&#xA;  L 1526.06 425.78&#xA;  A 0.63 0.63 0.0 0 1 1525.43 425.15&#xA;  L 1525.43 405.40&#xA;  A 0.72 0.72 0.0 0 1 1526.15 404.68&#xA;  L 1547.47 404.68&#xA;  A 0.68 0.67 0.0 0 0 1548.15 404.01&#xA;  L 1548.15 391.24&#xA;  A 0.52 0.51 -90.0 0 0 1547.64 390.72&#xA;  L 1526.03 390.72&#xA;  A 0.53 0.53 0.0 0 1 1525.50 390.19&#xA;  L 1525.50 372.69&#xA;  A 0.39 0.39 0.0 0 1 1525.89 372.30&#xA;  L 1551.51 372.30&#xA;  A 0.78 0.78 0.0 0 0 1552.29 371.52&#xA;  L 1552.29 358.79&#xA;  A 0.49 0.49 0.0 0 0 1551.80 358.30&#xA;  L 1524.45 358.30&#xA;  A 0.31 0.30 22.3 0 1 1524.23 357.78"></path>
<path stroke="#81cd81" vector-effect="non-scaling-stroke" d="&#xA;  M 1178.66 390.54&#xA;  A 0.27 0.26 62.8 0 0 1178.99 390.65&#xA;  C 1188.95 386.51 1198.52 379.72 1203.17 369.84&#xA;  A 0.53 0.53 0.0 0 1 1204.05 369.72&#xA;  Q 1213.72 381.03 1226.80 389.81&#xA;  A 0.93 0.92 -55.0 0 0 1228.07 389.58&#xA;  L 1235.86 378.76&#xA;  A 0.64 0.64 0.0 0 0 1235.67 377.84&#xA;  C 1226.32 372.22 1216.40 366.09 1209.42 357.43&#xA;  A 1.45 1.44 -60.7 0 1 1209.11 356.31&#xA;  Q 1210.25 348.34 1209.81 340.12&#xA;  A 1.99 1.82 -42.5 0 1 1209.86 339.54&#xA;  L 1210.79 335.67&#xA;  A 0.97 0.97 0.0 0 0 1209.90 334.48&#xA;  L 1197.08 333.88&#xA;  A 0.63 0.62 -89.2 0 0 1196.42 334.53&#xA;  Q 1196.67 341.02 1196.02 348.96&#xA;  C 1194.78 364.04 1185.73 373.27 1171.98 377.71&#xA;  A 0.84 0.83 -24.9 0 0 1171.52 378.95&#xA;  L 1178.66 390.54"></path>
<path stroke="#81cd81" vector-effect="non-scaling-stroke" d="&#xA;  M 1035.82 395.78&#xA;  L 1042.71 406.96&#xA;  A 0.54 0.54 0.0 0 0 1043.61 406.99&#xA;  L 1050.74 397.09&#xA;  A 1.21 1.19 43.1 0 0 1050.68 395.62&#xA;  C 1045.31 389.22 1040.45 383.52 1036.15 376.92&#xA;  Q 1035.54 375.99 1035.57 371.74&#xA;  A 0.56 0.56 0.0 0 1 1036.13 371.18&#xA;  L 1048.15 371.18&#xA;  A 0.79 0.79 0.0 0 0 1048.94 370.39&#xA;  L 1048.94 358.08&#xA;  A 0.74 0.73 90.0 0 0 1048.21 357.34&#xA;  L 1036.01 357.34&#xA;  A 0.45 0.45 0.0 0 1 1035.56 356.89&#xA;  L 1035.56 339.85&#xA;  A 2.92 2.83 -38.3 0 1 1035.66 339.10&#xA;  Q 1036.16 337.35 1036.37 335.25&#xA;  A 0.88 0.88 0.0 0 0 1035.49 334.28&#xA;  L 1022.31 334.28&#xA;  A 0.48 0.48 0.0 0 0 1021.83 334.76&#xA;  L 1021.83 356.79&#xA;  A 0.69 0.68 -0.0 0 1 1021.14 357.47&#xA;  L 1006.73 357.47&#xA;  A 0.59 0.59 0.0 0 0 1006.14 358.06&#xA;  L 1006.14 370.92&#xA;  A 0.43 0.43 0.0 0 0 1006.57 371.35&#xA;  L 1019.85 371.35&#xA;  A 0.33 0.32 -82.4 0 1 1020.16 371.76&#xA;  Q 1016.02 386.31 1009.10 399.82&#xA;  C 1007.42 403.10 1004.79 406.34 1003.37 408.77&#xA;  A 1.17 1.17 0.0 0 0 1003.38 409.98&#xA;  L 1010.23 421.09&#xA;  A 0.27 0.27 0.0 0 0 1010.69 421.10&#xA;  Q 1018.04 410.56 1021.73 398.53&#xA;  A 0.20 0.19 53.7 0 1 1022.11 398.59&#xA;  L 1022.11 442.93&#xA;  A 0.56 0.56 0.0 0 0 1022.67 443.49&#xA;  L 1035.33 443.49&#xA;  A 0.40 0.40 0.0 0 0 1035.73 443.09&#xA;  L 1035.73 395.81&#xA;  A 0.05 0.05 0.0 0 1 1035.82 395.78"></path>
<path stroke="#81cd81" vector-effect="non-scaling-stroke" d="&#xA;  M 1382.82 341.43&#xA;  Q 1380.95 340.25 1379.54 338.34&#xA;  A 0.81 0.80 -17.9 0 0 1378.89 338.01&#xA;  L 1344.46 338.01&#xA;  A 0.65 0.64 0.0 0 0 1343.81 338.65&#xA;  L 1343.81 349.06&#xA;  A 1.18 1.16 21.2 0 0 1344.20 349.93&#xA;  L 1344.69 350.37&#xA;  A 0.47 0.47 0.0 0 1 1344.70 351.06&#xA;  L 1337.99 357.78&#xA;  A 0.45 0.45 0.0 0 0 1337.99 358.42&#xA;  L 1349.08 369.51&#xA;  A 0.78 0.77 -41.3 0 1 1349.00 370.67&#xA;  Q 1340.88 376.85 1332.10 380.66&#xA;  A 0.38 0.38 0.0 0 0 1331.93 381.21&#xA;  L 1338.88 392.51&#xA;  A 0.77 0.76 -28.8 0 0 1339.86 392.79&#xA;  Q 1347.85 388.87 1354.11 383.41&#xA;  A 0.65 0.64 -7.0 0 1 1355.11 384.19&#xA;  Q 1354.89 384.61 1354.83 385.84&#xA;  A 0.58 0.58 0.0 0 0 1355.41 386.45&#xA;  L 1362.53 386.45&#xA;  A 0.45 0.45 0.0 0 1 1362.98 386.90&#xA;  L 1362.98 397.34&#xA;  A 0.64 0.64 0.0 0 1 1362.34 397.98&#xA;  L 1338.33 397.98&#xA;  A 0.60 0.60 0.0 0 0 1337.73 398.58&#xA;  L 1337.73 410.88&#xA;  A 0.61 0.61 0.0 0 0 1338.34 411.49&#xA;  L 1360.49 411.49&#xA;  A 0.40 0.40 0.0 0 1 1360.87 412.01&#xA;  Q 1358.33 420.57 1350.55 425.01&#xA;  Q 1343.45 429.06 1335.69 430.72&#xA;  A 0.30 0.30 0.0 0 0 1335.50 431.17&#xA;  L 1342.93 443.23&#xA;  A 0.83 0.83 0.0 0 0 1343.86 443.59&#xA;  C 1359.68 438.96 1372.13 429.01 1375.14 412.27&#xA;  A 0.95 0.94 -84.9 0 1 1376.07 411.49&#xA;  L 1387.89 411.49&#xA;  A 0.45 0.45 0.0 0 1 1388.34 411.98&#xA;  Q 1388.26 413.10 1388.45 431.19&#xA;  Q 1388.55 440.39 1397.94 441.54&#xA;  Q 1403.86 442.26 1419.66 441.62&#xA;  C 1424.96 441.41 1428.55 438.59 1429.83 433.06&#xA;  Q 1431.43 426.19 1431.69 421.91&#xA;  A 0.83 0.83 0.0 0 0 1431.08 421.06&#xA;  Q 1425.13 419.35 1419.94 416.31&#xA;  A 0.41 0.41 0.0 0 0 1419.32 416.65&#xA;  Q 1419.07 421.89 1417.93 425.75&#xA;  Q 1417.12 428.51 1413.58 428.58&#xA;  Q 1408.10 428.69 1404.31 428.41&#xA;  A 2.36 2.35 -87.9 0 1 1402.13 426.06&#xA;  L 1402.13 412.12&#xA;  A 0.59 0.58 0.0 0 1 1402.72 411.54&#xA;  L 1427.32 411.54&#xA;  A 0.62 0.62 0.0 0 0 1427.94 410.92&#xA;  L 1427.94 398.38&#xA;  A 0.51 0.51 0.0 0 0 1427.43 397.87&#xA;  L 1402.63 397.87&#xA;  A 0.54 0.54 0.0 0 1 1402.09 397.33&#xA;  L 1402.09 387.03&#xA;  A 0.60 0.60 0.0 0 1 1402.69 386.43&#xA;  L 1410.90 386.43&#xA;  A 0.69 0.69 0.0 0 0 1411.57 385.56&#xA;  L 1411.11 383.82&#xA;  A 0.64 0.64 0.0 0 1 1412.11 383.14&#xA;  L 1425.06 392.46&#xA;  A 1.17 1.17 0.0 0 0 1426.80 392.01&#xA;  Q 1429.79 385.66 1434.47 380.54&#xA;  A 0.56 0.56 0.0 0 0 1434.29 379.66&#xA;  Q 1426.15 375.80 1418.49 370.18&#xA;  A 0.33 0.33 0.0 0 1 1418.44 369.69&#xA;  Q 1425.77 361.68 1431.70 357.19&#xA;  A 0.87 0.86 -45.9 0 0 1431.68 355.80&#xA;  L 1422.01 348.84&#xA;  A 0.59 0.58 38.8 0 0 1421.23 348.92&#xA;  L 1410.14 361.18&#xA;  A 0.56 0.56 0.0 0 1 1409.32 361.20&#xA;  L 1404.80 356.69&#xA;  A 0.72 0.70 47.6 0 1 1404.84 355.65&#xA;  Q 1410.32 351.02 1415.64 345.40&#xA;  Q 1416.44 344.56 1418.05 344.21&#xA;  A 0.68 0.67 58.5 0 0 1418.33 343.03&#xA;  L 1409.47 335.68&#xA;  A 0.80 0.79 40.8 0 0 1408.37 335.76&#xA;  L 1399.43 345.64&#xA;  A 0.60 0.59 55.5 0 1 1398.43 345.45&#xA;  L 1394.51 335.05&#xA;  A 0.88 0.87 72.2 0 0 1393.47 334.51&#xA;  L 1382.63 337.36&#xA;  A 0.97 0.97 0.0 0 0 1382.05 338.80&#xA;  L 1383.35 340.91&#xA;  A 0.38 0.38 0.0 0 1 1382.82 341.43"></path>
<path stroke="#81cd81" vector-effect="non-scaling-stroke" d="&#xA;  M 1475.95 359.58&#xA;  A 0.52 0.51 -50.2 0 0 1476.72 359.50&#xA;  L 1484.67 348.46&#xA;  A 0.63 0.62 36.1 0 0 1484.53 347.59&#xA;  L 1466.56 334.67&#xA;  A 1.03 1.02 -53.9 0 0 1465.12 334.90&#xA;  L 1458.22 344.49&#xA;  A 0.88 0.88 0.0 0 0 1458.46 345.74&#xA;  Q 1467.57 351.57 1475.95 359.58"></path>
<path stroke="#81cd81" vector-effect="non-scaling-stroke" d="&#xA;  M 556.13 438.89&#xA;  A 0.67 0.67 0.0 0 0 556.80 439.56&#xA;  L 619.24 439.56&#xA;  A 0.67 0.67 0.0 0 0 619.91 438.89&#xA;  L 619.91 421.79&#xA;  A 0.67 0.67 0.0 0 0 619.24 421.12&#xA;  L 576.76 421.12&#xA;  A 0.67 0.67 0.0 0 1 576.09 420.45&#xA;  L 576.09 337.04&#xA;  A 0.67 0.67 0.0 0 0 575.42 336.37&#xA;  L 556.80 336.37&#xA;  A 0.67 0.67 0.0 0 0 556.13 337.04&#xA;  L 556.13 438.89"></path>
<path stroke="#81cd81" vector-effect="non-scaling-stroke" d="&#xA;  M 1168.0124 337.7437&#xA;  A 0.86 0.86 0.0 0 0 1167.1494 336.8867&#xA;  L 1136.6096 336.9933&#xA;  A 0.86 0.86 0.0 0 0 1135.7526 337.8563&#xA;  L 1135.7876 347.8963&#xA;  A 0.86 0.86 0.0 0 0 1136.6506 348.7533&#xA;  L 1167.1904 348.6467&#xA;  A 0.86 0.86 0.0 0 0 1168.0474 347.7837&#xA;  L 1168.0124 337.7437"></path>
<path stroke="#81cd81" vector-effect="non-scaling-stroke" d="&#xA;  M 1620.32 415.18&#xA;  Q 1618.24 418.58 1614.45 421.21&#xA;  Q 1606.54 426.71 1596.65 428.83&#xA;  A 0.55 0.55 0.0 0 0 1596.33 429.70&#xA;  L 1605.61 441.99&#xA;  A 0.91 0.90 -29.7 0 0 1606.68 442.28&#xA;  C 1612.67 439.83 1618.11 437.39 1622.96 433.42&#xA;  Q 1640.65 418.94 1638.55 394.49&#xA;  Q 1638.28 391.42 1636.04 385.41&#xA;  A 0.61 0.51 40.3 0 1 1636.01 385.23&#xA;  L 1636.01 367.81&#xA;  A 0.60 0.60 0.0 0 1 1636.61 367.21&#xA;  L 1669.20 367.21&#xA;  A 0.46 0.46 0.0 0 0 1669.66 366.75&#xA;  L 1669.66 352.81&#xA;  A 0.45 0.45 0.0 0 0 1669.21 352.36&#xA;  L 1636.84 352.89&#xA;  A 0.93 0.93 0.0 0 1 1635.90 351.96&#xA;  L 1635.90 342.95&#xA;  A 2.27 2.17 -33.4 0 1 1636.12 341.99&#xA;  L 1637.38 339.42&#xA;  A 1.40 1.40 0.0 0 0 1636.19 337.40&#xA;  L 1621.07 336.68&#xA;  A 0.47 0.47 0.0 0 0 1620.58 337.15&#xA;  L 1620.83 352.65&#xA;  A 0.61 0.60 89.1 0 1 1620.24 353.27&#xA;  L 1574.87 354.00&#xA;  A 0.61 0.61 0.0 0 0 1574.27 354.62&#xA;  L 1574.50 368.89&#xA;  A 0.83 0.83 0.0 0 0 1575.40 369.70&#xA;  Q 1598.52 367.80 1621.31 367.56&#xA;  A 0.22 0.22 0.0 0 1 1621.54 367.78&#xA;  L 1621.54 374.83&#xA;  A 0.14 0.14 0.0 0 1 1621.36 374.97&#xA;  C 1609.06 371.77 1597.62 379.09 1596.50 391.74&#xA;  C 1595.79 399.74 1597.02 407.42 1603.61 412.59&#xA;  Q 1611.13 418.49 1619.96 414.76&#xA;  A 0.29 0.29 0.0 0 1 1620.32 415.18"></path>
<path stroke="#81cd81" vector-effect="non-scaling-stroke" d="&#xA;  M 658.44 339.94&#xA;  A 1.03 1.03 0.0 0 0 657.41 338.91&#xA;  L 639.73 338.91&#xA;  A 1.03 1.03 0.0 0 0 638.70 339.94&#xA;  L 638.70 438.52&#xA;  A 1.03 1.03 0.0 0 0 639.73 439.55&#xA;  L 657.41 439.55&#xA;  A 1.03 1.03 0.0 0 0 658.44 438.52&#xA;  L 658.44 339.94"></path>
<path stroke="#81cd81" vector-effect="non-scaling-stroke" d="&#xA;  M 763.69 339.20&#xA;  A 0.32 0.32 0.0 0 0 763.37 338.88&#xA;  L 745.49 338.88&#xA;  A 0.32 0.32 0.0 0 0 745.17 339.20&#xA;  L 745.17 406.23&#xA;  A 0.32 0.32 0.0 0 1 744.58 406.40&#xA;  L 703.10 339.06&#xA;  A 0.32 0.32 0.0 0 0 702.83 338.91&#xA;  L 683.93 338.91&#xA;  A 0.32 0.32 0.0 0 0 683.61 339.23&#xA;  L 683.61 439.22&#xA;  A 0.32 0.32 0.0 0 0 683.93 439.54&#xA;  L 701.84 439.54&#xA;  A 0.32 0.32 0.0 0 0 702.16 439.22&#xA;  L 702.16 370.83&#xA;  A 0.32 0.32 0.0 0 1 702.75 370.66&#xA;  L 745.17 439.52&#xA;  A 0.32 0.32 0.0 0 0 745.45 439.68&#xA;  L 763.38 439.39&#xA;  A 0.32 0.32 0.0 0 0 763.69 439.07&#xA;  L 763.69 339.20"></path>
<path stroke="#81cd81" vector-effect="non-scaling-stroke" d="&#xA;  M 809.16 421.59&#xA;  A 0.69 0.69 0.0 0 1 808.47 420.90&#xA;  L 808.47 397.13&#xA;  A 0.69 0.69 0.0 0 1 809.16 396.44&#xA;  L 848.99 396.44&#xA;  A 0.69 0.69 0.0 0 0 849.68 395.75&#xA;  L 849.68 379.44&#xA;  A 0.69 0.69 0.0 0 0 848.99 378.75&#xA;  L 809.19 378.75&#xA;  A 0.69 0.69 0.0 0 1 808.50 378.06&#xA;  L 808.50 357.57&#xA;  A 0.69 0.69 0.0 0 1 809.19 356.88&#xA;  L 853.76 356.88&#xA;  A 0.69 0.69 0.0 0 0 854.45 356.19&#xA;  L 854.45 339.62&#xA;  A 0.69 0.69 0.0 0 0 853.76 338.93&#xA;  L 789.79 338.93&#xA;  A 0.69 0.69 0.0 0 0 789.10 339.62&#xA;  L 789.10 438.90&#xA;  A 0.69 0.69 0.0 0 0 789.79 439.59&#xA;  L 854.19 439.59&#xA;  A 0.69 0.69 0.0 0 0 854.88 438.90&#xA;  L 854.88 422.28&#xA;  A 0.69 0.69 0.0 0 0 854.19 421.59&#xA;  L 809.16 421.59"></path>
<path stroke="#81cd81" vector-effect="non-scaling-stroke" d="&#xA;  M 1078.57 435.56&#xA;  Q 1082.47 435.56 1091.05 435.56&#xA;  A 0.40 0.39 0.1 0 1 1091.45 435.95&#xA;  L 1091.45 441.77&#xA;  A 0.71 0.71 0.0 0 0 1092.16 442.48&#xA;  L 1104.57 442.48&#xA;  A 0.80 0.80 0.0 0 0 1105.37 441.68&#xA;  L 1105.37 339.45&#xA;  A 0.61 0.61 0.0 0 0 1104.75 338.84&#xA;  Q 1094.41 339.00 1078.55 339.01&#xA;  Q 1062.68 339.01 1052.34 338.86&#xA;  A 0.61 0.61 0.0 0 0 1051.72 339.47&#xA;  L 1051.78 441.70&#xA;  A 0.80 0.80 0.0 0 0 1052.58 442.49&#xA;  L 1064.99 442.49&#xA;  A 0.71 0.71 0.0 0 0 1065.70 441.78&#xA;  L 1065.70 435.96&#xA;  A 0.40 0.39 -0.1 0 1 1066.09 435.57&#xA;  Q 1074.68 435.56 1078.57 435.56"></path>
<path stroke="#81cd81" vector-effect="non-scaling-stroke" d="&#xA;  M 1222.84 363.66&#xA;  Q 1228.37 356.65 1231.68 348.85&#xA;  A 1.66 1.61 83.6 0 1 1232.19 348.19&#xA;  L 1234.15 346.71&#xA;  A 1.28 1.28 0.0 0 0 1233.89 344.52&#xA;  L 1222.53 339.60&#xA;  A 0.78 0.78 0.0 0 0 1221.47 340.09&#xA;  Q 1218.24 350.52 1212.23 357.58&#xA;  A 0.93 0.93 0.0 0 0 1212.53 359.02&#xA;  L 1222.25 363.79&#xA;  A 0.49 0.48 32.2 0 0 1222.84 363.66"></path>
<path stroke="#81cd81" vector-effect="non-scaling-stroke" d="&#xA;  M 1191.71 343.17&#xA;  L 1180.80 340.22&#xA;  A 0.83 0.83 0.0 0 0 1179.77 340.85&#xA;  Q 1177.64 350.92 1172.56 359.17&#xA;  A 0.86 0.86 0.0 0 0 1172.95 360.41&#xA;  L 1183.18 364.84&#xA;  A 0.61 0.60 -64.8 0 0 1183.96 364.55&#xA;  C 1185.23 361.96 1186.84 359.05 1187.76 355.97&#xA;  Q 1189.08 351.49 1190.38 347.35&#xA;  A 1.10 1.01 -20.8 0 1 1190.53 347.05&#xA;  L 1192.24 344.67&#xA;  A 0.97 0.96 -64.6 0 0 1191.71 343.17"></path>
<path stroke="#81cd81" vector-effect="non-scaling-stroke" d="&#xA;  M 1731.72 358.35&#xA;  Q 1709.76 382.26 1686.92 403.10&#xA;  A 0.45 0.45 0.0 0 0 1686.91 403.75&#xA;  L 1697.40 414.24&#xA;  A 0.50 0.48 42.7 0 0 1698.12 414.22&#xA;  C 1708.44 402.15 1720.09 391.01 1736.95 390.55&#xA;  C 1746.78 390.28 1754.86 395.31 1755.54 405.60&#xA;  Q 1756.21 415.90 1747.71 421.78&#xA;  A 0.44 0.44 0.0 0 1 1747.04 421.54&#xA;  Q 1745.71 416.70 1742.67 412.51&#xA;  C 1735.76 402.98 1718.00 402.09 1709.89 410.69&#xA;  C 1705.69 415.15 1704.50 422.04 1707.23 427.80&#xA;  C 1712.47 438.86 1725.84 440.87 1736.81 439.89&#xA;  C 1749.07 438.80 1760.68 432.70 1766.68 422.11&#xA;  C 1772.47 411.89 1772.37 398.96 1765.70 389.30&#xA;  Q 1759.03 379.65 1746.51 377.81&#xA;  C 1740.37 376.91 1735.42 377.79 1730.43 379.23&#xA;  A 0.26 0.26 0.0 0 1 1730.18 378.80&#xA;  Q 1735.83 373.33 1742.76 366.26&#xA;  C 1748.84 360.06 1752.57 356.14 1757.19 353.07&#xA;  A 0.81 0.80 -35.5 0 0 1757.39 351.91&#xA;  L 1749.62 341.62&#xA;  A 1.01 1.00 66.2 0 0 1748.66 341.24&#xA;  Q 1724.91 345.57 1698.98 345.00&#xA;  A 0.30 0.30 0.0 0 0 1698.67 345.33&#xA;  L 1700.15 360.36&#xA;  A 0.73 0.73 0.0 0 0 1700.95 361.02&#xA;  L 1731.56 358.01&#xA;  A 0.20 0.20 0.0 0 1 1731.72 358.35"></path>
<path stroke="#81cd81" vector-effect="non-scaling-stroke" d="&#xA;  M 930.34 364.07&#xA;  A 0.33 0.33 0.0 0 1 930.61 364.64&#xA;  C 917.88 376.58 912.08 392.16 916.63 409.38&#xA;  C 921.80 428.94 941.10 438.93 960.44 439.54&#xA;  A 0.56 0.55 -80.1 0 0 960.98 439.16&#xA;  L 965.96 424.07&#xA;  A 0.88 0.87 -81.5 0 0 965.11 422.92&#xA;  Q 958.79 423.06 952.37 421.64&#xA;  C 942.18 419.38 932.04 411.68 930.72 400.76&#xA;  C 929.58 391.38 933.14 381.86 939.58 374.90&#xA;  C 946.75 367.16 954.49 362.30 965.19 361.40&#xA;  Q 969.62 361.03 974.83 360.99&#xA;  A 0.64 0.63 87.1 0 0 975.46 360.29&#xA;  L 974.00 345.39&#xA;  A 0.48 0.48 0.0 0 0 973.48 344.96&#xA;  L 885.19 353.63&#xA;  A 0.41 0.40 -7.5 0 0 884.83 354.09&#xA;  L 886.98 369.22&#xA;  A 0.99 0.99 0.0 0 0 888.10 370.06&#xA;  L 930.34 364.07"></path>
<path stroke="#81cd81" vector-effect="non-scaling-stroke" d="&#xA;  M 1171.8198 353.4259&#xA;  A 0.55 0.55 0.0 0 0 1171.2708 352.8750&#xA;  L 1131.2309 352.8051&#xA;  A 0.55 0.55 0.0 0 0 1130.6799 353.3541&#xA;  L 1130.6602 364.6541&#xA;  A 0.55 0.55 0.0 0 0 1131.2092 365.2050&#xA;  L 1171.2491 365.2749&#xA;  A 0.55 0.55 0.0 0 0 1171.8001 364.7259&#xA;  L 1171.8198 353.4259"></path>
<path stroke="#81cd81" vector-effect="non-scaling-stroke" d="&#xA;  M 1470.66 389.06&#xA;  L 1478.26 378.51&#xA;  A 1.21 1.20 -51.5 0 0 1478.08 376.90&#xA;  Q 1469.57 369.45 1459.01 364.79&#xA;  A 0.50 0.50 0.0 0 0 1458.40 364.95&#xA;  L 1451.46 374.60&#xA;  A 0.96 0.96 0.0 0 0 1451.77 376.00&#xA;  Q 1461.87 381.66 1470.32 389.10&#xA;  A 0.23 0.23 0.0 0 0 1470.66 389.06"></path>
<path stroke="#81cd81" vector-effect="non-scaling-stroke" d="&#xA;  M 975.46 387.52&#xA;  L 982.36 383.27&#xA;  A 1.09 1.09 0.0 0 0 982.71 381.76&#xA;  Q 978.03 374.35 972.03 367.52&#xA;  A 1.28 1.28 0.0 0 0 970.40 367.27&#xA;  L 963.96 371.24&#xA;  A 0.94 0.93 -38.2 0 0 963.78 372.69&#xA;  Q 970.19 379.20 974.28 387.19&#xA;  A 0.84 0.83 -29.3 0 0 975.46 387.52"></path>
<path stroke="#81cd81" vector-effect="non-scaling-stroke" d="&#xA;  M 1168.1831 370.1949&#xA;  A 0.77 0.77 0.0 0 0 1167.4091 369.4290&#xA;  L 1136.4295 369.5912&#xA;  A 0.77 0.77 0.0 0 0 1135.6635 370.3652&#xA;  L 1135.7169 380.5651&#xA;  A 0.77 0.77 0.0 0 0 1136.4909 381.3310&#xA;  L 1167.4705 381.1688&#xA;  A 0.77 0.77 0.0 0 0 1168.2365 380.3948&#xA;  L 1168.1831 370.1949"></path>
<path stroke="#81cd81" vector-effect="non-scaling-stroke" d="&#xA;  M 963.24 395.09&#xA;  L 970.06 390.44&#xA;  A 0.82 0.82 0.0 0 0 970.28 389.30&#xA;  L 961.14 375.91&#xA;  A 3.27 1.15 55.7 0 0 958.35 373.85&#xA;  L 952.07 378.14&#xA;  A 3.27 1.15 55.7 0 0 952.96 381.49&#xA;  L 962.10 394.88&#xA;  A 0.82 0.82 0.0 0 0 963.24 395.09"></path>
<path stroke="#81cd81" vector-effect="non-scaling-stroke" d="&#xA;  M 1285.4162 374.3902&#xA;  A 14.55 13.63 -89.7 0 0 1271.7102 388.8686&#xA;  A 14.55 13.63 -89.7 0 0 1285.2638 403.4898&#xA;  A 14.55 13.63 -89.7 0 0 1298.9698 389.0114&#xA;  A 14.55 13.63 -89.7 0 0 1285.4162 374.3902"></path>
<path stroke="#81cd81" vector-effect="non-scaling-stroke" d="&#xA;  M 1213.39 411.24&#xA;  A 0.13 0.13 0.0 0 1 1213.56 411.06&#xA;  L 1223.08 415.73&#xA;  A 0.67 0.66 -59.4 0 0 1223.92 415.51&#xA;  Q 1228.46 408.83 1231.27 402.51&#xA;  C 1232.10 400.63 1233.12 399.71 1234.64 398.59&#xA;  A 1.30 1.30 0.0 0 0 1234.54 396.43&#xA;  Q 1229.09 393.14 1222.71 391.30&#xA;  A 0.72 0.71 -72.5 0 0 1221.84 391.76&#xA;  C 1219.63 398.19 1217.30 404.11 1213.24 409.33&#xA;  A 0.53 0.53 0.0 0 1 1212.34 409.22&#xA;  C 1209.58 403.19 1209.86 398.58 1209.62 389.87&#xA;  A 2.44 2.38 60.9 0 1 1209.97 388.58&#xA;  Q 1210.80 387.24 1211.06 385.59&#xA;  A 1.49 1.49 0.0 0 0 1209.66 383.88&#xA;  L 1196.75 383.27&#xA;  A 0.61 0.61 0.0 0 0 1196.11 383.89&#xA;  Q 1196.23 389.63 1196.02 396.06&#xA;  Q 1195.79 403.02 1194.25 407.98&#xA;  Q 1188.79 425.58 1169.80 430.77&#xA;  A 0.52 0.51 82.3 0 1 1169.15 430.27&#xA;  L 1169.15 402.56&#xA;  A 0.42 0.41 -0.0 0 0 1168.73 402.15&#xA;  L 1135.07 402.15&#xA;  A 0.72 0.72 0.0 0 0 1134.35 402.87&#xA;  L 1134.35 441.49&#xA;  A 1.15 1.15 0.0 0 0 1135.50 442.64&#xA;  L 1145.64 442.64&#xA;  A 0.81 0.81 0.0 0 0 1146.45 441.83&#xA;  L 1146.45 437.66&#xA;  A 0.61 0.60 0.0 0 1 1147.06 437.06&#xA;  L 1157.05 437.06&#xA;  A 0.62 0.61 1.3 0 1 1157.67 437.70&#xA;  L 1157.55 440.20&#xA;  A 0.71 0.71 0.0 0 0 1158.26 440.94&#xA;  L 1168.51 440.94&#xA;  A 0.68 0.68 0.0 0 0 1169.19 440.25&#xA;  L 1169.06 432.69&#xA;  A 0.43 0.43 0.0 0 1 1169.77 432.36&#xA;  C 1172.50 434.74 1174.67 439.60 1176.63 443.35&#xA;  A 0.50 0.49 -23.9 0 0 1177.25 443.58&#xA;  Q 1192.74 437.50 1201.56 423.30&#xA;  Q 1202.65 421.55 1203.27 419.52&#xA;  A 0.56 0.56 0.0 0 1 1204.31 419.44&#xA;  Q 1206.80 424.77 1210.04 428.97&#xA;  Q 1217.11 438.12 1228.13 443.29&#xA;  A 1.20 1.19 -65.2 0 0 1229.72 442.70&#xA;  Q 1232.69 436.23 1236.50 431.51&#xA;  A 0.64 0.63 -58.8 0 0 1236.26 430.52&#xA;  C 1226.40 426.35 1218.43 420.95 1213.39 411.24"></path>
<path stroke="#81cd81" vector-effect="non-scaling-stroke" d="&#xA;  M 1168.28 386.35&#xA;  A 0.76 0.76 0.0 0 0 1167.52 385.59&#xA;  L 1136.38 385.59&#xA;  A 0.76 0.76 0.0 0 0 1135.62 386.35&#xA;  L 1135.62 396.73&#xA;  A 0.76 0.76 0.0 0 0 1136.38 397.49&#xA;  L 1167.52 397.49&#xA;  A 0.76 0.76 0.0 0 0 1168.28 396.73&#xA;  L 1168.28 386.35"></path>
<path stroke="#81cd81" vector-effect="non-scaling-stroke" d="&#xA;  M 1179.34 392.66&#xA;  Q 1176.87 402.50 1171.35 411.11&#xA;  A 1.45 1.44 -60.7 0 0 1171.93 413.19&#xA;  L 1181.22 417.76&#xA;  A 0.69 0.69 0.0 0 0 1182.09 417.53&#xA;  Q 1187.19 410.01 1189.14 401.86&#xA;  C 1189.58 400.00 1190.17 399.29 1191.46 397.98&#xA;  A 1.87 1.87 0.0 0 0 1190.62 394.86&#xA;  L 1180.33 392.08&#xA;  A 0.80 0.80 0.0 0 0 1179.34 392.66"></path>
<path stroke="#81cd81" vector-effect="non-scaling-stroke" d="&#xA;  M 1466.14 442.37&#xA;  L 1484.17 405.62&#xA;  A 0.63 0.62 34.6 0 0 1484.03 404.88&#xA;  L 1474.20 395.99&#xA;  A 0.77 0.77 0.0 0 0 1472.98 396.25&#xA;  Q 1464.39 415.63 1453.78 432.52&#xA;  A 0.62 0.62 0.0 0 0 1453.91 433.33&#xA;  L 1465.08 442.59&#xA;  A 0.69 0.69 0.0 0 0 1466.14 442.37"></path>
<path stroke="#81cd81" vector-effect="non-scaling-stroke" d="&#xA;  M 288.89 403.11&#xA;  A 1.34 1.34 0.0 0 0 290.23 404.45&#xA;  L 320.01 404.45&#xA;  A 1.34 1.34 0.0 0 0 321.35 403.11&#xA;  L 321.35 393.95&#xA;  A 1.34 1.34 0.0 0 0 320.01 392.61&#xA;  L 300.77 392.61&#xA;  A 1.34 1.34 0.0 0 1 299.43 391.27&#xA;  L 299.43 346.63&#xA;  A 1.34 1.34 0.0 0 0 298.09 345.29&#xA;  L 290.23 345.29&#xA;  A 1.34 1.34 0.0 0 0 288.89 346.63&#xA;  L 288.89 403.11"></path>
<path stroke="#81cd81" vector-effect="non-scaling-stroke" d="&#xA;  M 340.72 346.77&#xA;  A 1.40 1.40 0.0 0 0 339.32 345.37&#xA;  L 331.54 345.37&#xA;  A 1.40 1.40 0.0 0 0 330.14 346.77&#xA;  L 330.14 403.05&#xA;  A 1.40 1.40 0.0 0 0 331.54 404.45&#xA;  L 339.32 404.45&#xA;  A 1.40 1.40 0.0 0 0 340.72 403.05&#xA;  L 340.72 346.77"></path>
<path stroke="#81cd81" vector-effect="non-scaling-stroke" d="&#xA;  M 366.73 377.54&#xA;  Q 369.60 382.59 372.60 387.84&#xA;  Q 376.44 394.56 381.71 403.55&#xA;  A 1.76 1.74 74.7 0 0 383.22 404.42&#xA;  L 390.79 404.42&#xA;  A 1.40 1.40 0.0 0 0 392.19 403.02&#xA;  L 392.19 346.46&#xA;  A 1.15 1.15 0.0 0 0 391.04 345.31&#xA;  L 383.01 345.31&#xA;  A 1.42 1.41 -0.0 0 0 381.59 346.72&#xA;  L 381.59 381.36&#xA;  A 0.16 0.15 0.0 0 1 381.43 381.51&#xA;  Q 381.06 381.51 380.88 381.19&#xA;  Q 377.49 375.22 375.79 372.23&#xA;  Q 372.93 367.18 369.93 361.92&#xA;  Q 366.09 355.20 360.82 346.21&#xA;  A 1.76 1.74 74.7 0 0 359.31 345.34&#xA;  L 351.74 345.34&#xA;  A 1.40 1.40 0.0 0 0 350.34 346.74&#xA;  L 350.34 403.30&#xA;  A 1.15 1.15 0.0 0 0 351.49 404.45&#xA;  L 359.52 404.45&#xA;  A 1.42 1.41 0.0 0 0 360.94 403.04&#xA;  L 360.94 368.40&#xA;  A 0.16 0.15 0.0 0 1 361.10 368.25&#xA;  Q 361.47 368.25 361.65 368.58&#xA;  Q 365.04 374.54 366.73 377.54"></path>
<path stroke="#81cd81" vector-effect="non-scaling-stroke" d="&#xA;  M 401.60 374.85&#xA;  Q 401.60 388.58 401.69 403.05&#xA;  A 1.36 1.36 0.0 0 0 403.05 404.40&#xA;  L 432.77 404.40&#xA;  A 1.49 1.48 89.6 0 0 434.25 402.89&#xA;  Q 434.18 398.29 434.21 394.94&#xA;  Q 434.23 392.80 431.79 392.75&#xA;  Q 420.95 392.51 413.02 392.59&#xA;  A 0.62 0.62 0.0 0 1 412.39 391.97&#xA;  L 412.39 381.16&#xA;  A 0.60 0.59 -90.0 0 1 412.98 380.56&#xA;  L 432.33 380.56&#xA;  A 1.19 1.19 0.0 0 0 433.52 379.39&#xA;  Q 433.54 378.32 433.54 374.84&#xA;  Q 433.53 371.37 433.52 370.29&#xA;  A 1.19 1.19 0.0 0 0 432.33 369.13&#xA;  L 412.98 369.13&#xA;  A 0.60 0.59 90.0 0 1 412.39 368.53&#xA;  L 412.38 357.72&#xA;  A 0.62 0.62 0.0 0 1 413.01 357.10&#xA;  Q 420.94 357.18 431.78 356.94&#xA;  Q 434.22 356.89 434.20 354.75&#xA;  Q 434.17 351.40 434.24 346.80&#xA;  A 1.49 1.48 -89.6 0 0 432.76 345.29&#xA;  L 403.04 345.30&#xA;  A 1.36 1.36 0.0 0 0 401.68 346.65&#xA;  Q 401.59 361.11 401.60 374.85"></path>
<path stroke="#81cd81" vector-effect="non-scaling-stroke" d="&#xA;  M 1400.56 373.37&#xA;  A 0.44 0.44 0.0 0 0 1400.89 372.64&#xA;  Q 1390.23 360.30 1384.78 345.45&#xA;  A 0.65 0.65 0.0 0 0 1383.57 345.42&#xA;  Q 1377.15 360.52 1366.07 372.66&#xA;  A 0.42 0.42 0.0 0 0 1366.38 373.37&#xA;  L 1400.56 373.37"></path>
<path stroke="#81cd81" vector-effect="non-scaling-stroke" d="&#xA;  M 1347.26 350.81&#xA;  Q 1353.37 355.59 1358.23 361.26&#xA;  A 0.54 0.54 0.0 0 0 1359.08 361.22&#xA;  L 1366.24 351.27&#xA;  A 0.53 0.53 0.0 0 0 1365.81 350.44&#xA;  L 1347.39 350.44&#xA;  A 0.21 0.21 0.0 0 0 1347.26 350.81"></path>
<path stroke="#81cd81" vector-effect="non-scaling-stroke" d="&#xA;  M 1388.19 386.91&#xA;  A 0.55 0.55 0.0 0 0 1387.64 386.36&#xA;  L 1377.06 386.36&#xA;  A 0.55 0.55 0.0 0 0 1376.51 386.91&#xA;  L 1376.51 397.49&#xA;  A 0.55 0.55 0.0 0 0 1377.06 398.04&#xA;  L 1387.64 398.04&#xA;  A 0.55 0.55 0.0 0 0 1388.19 397.49&#xA;  L 1388.19 386.91"></path>
<path stroke="#81cd81" vector-effect="non-scaling-stroke" d="&#xA;  M 1616.6396 386.0057&#xA;  A 8.45 6.93 -87.9 0 0 1609.4047 394.1961&#xA;  A 8.45 6.93 -87.9 0 0 1616.0204 402.8943&#xA;  A 8.45 6.93 -87.9 0 0 1623.2553 394.7039&#xA;  A 8.45 6.93 -87.9 0 0 1616.6396 386.0057"></path>
<path stroke="#81cd81" vector-effect="non-scaling-stroke" d="&#xA;  M 1091.3408 353.3325&#xA;  A 0.59 0.59 0.0 0 0 1090.7518 352.7415&#xA;  L 1066.1719 352.6986&#xA;  A 0.59 0.59 0.0 0 0 1065.5808 353.2875&#xA;  L 1065.5592 365.6875&#xA;  A 0.59 0.59 0.0 0 0 1066.1482 366.2785&#xA;  L 1090.7281 366.3214&#xA;  A 0.59 0.59 0.0 0 0 1091.3192 365.7325&#xA;  L 1091.3408 353.3325"></path>
<path stroke="#81cd81" vector-effect="non-scaling-stroke" d="&#xA;  M 1091.3322 380.4450&#xA;  A 0.58 0.58 0.0 0 0 1090.7542 379.8630&#xA;  L 1066.1543 379.7771&#xA;  A 0.58 0.58 0.0 0 0 1065.5723 380.3551&#xA;  L 1065.5278 393.0950&#xA;  A 0.58 0.58 0.0 0 0 1066.1058 393.6770&#xA;  L 1090.7057 393.7629&#xA;  A 0.58 0.58 0.0 0 0 1091.2877 393.1849&#xA;  L 1091.3322 380.4450"></path>
<path stroke="#81cd81" vector-effect="non-scaling-stroke" d="&#xA;  M 1091.3537 408.0351&#xA;  A 0.60 0.60 0.0 0 0 1090.7558 407.4330&#xA;  L 1066.1560 407.3471&#xA;  A 0.60 0.60 0.0 0 0 1065.5539 407.9450&#xA;  L 1065.5063 421.5849&#xA;  A 0.60 0.60 0.0 0 0 1066.1042 422.1870&#xA;  L 1090.7040 422.2729&#xA;  A 0.60 0.60 0.0 0 0 1091.3061 421.6750&#xA;  L 1091.3537 408.0351"></path>
<path stroke="#81cd81" vector-effect="non-scaling-stroke" d="&#xA;  M 1734.50 425.42&#xA;  C 1732.45 419.73 1728.56 415.54 1722.37 417.15&#xA;  C 1719.70 417.85 1718.03 421.17 1719.86 423.59&#xA;  C 1722.42 426.97 1729.47 426.99 1733.80 426.54&#xA;  A 0.84 0.84 0.0 0 0 1734.50 425.42"></path>
<path stroke="#81cd81" vector-effect="non-scaling-stroke" d="&#xA;  M 1157.1788 414.7793&#xA;  A 0.68 0.68 0.0 0 0 1156.5000 414.0981&#xA;  L 1147.1800 414.0819&#xA;  A 0.68 0.68 0.0 0 0 1146.4989 414.7607&#xA;  L 1146.4812 424.9007&#xA;  A 0.68 0.68 0.0 0 0 1147.1600 425.5819&#xA;  L 1156.4800 425.5981&#xA;  A 0.68 0.68 0.0 0 0 1157.1611 424.9193&#xA;  L 1157.1788 414.7793"></path>
</g>
<path fill="#029a02" d="&#xA;  M 1005.20 187.61&#xA;  Q 1674.29 187.61 1727.00 187.63&#xA;  C 1737.82 187.63 1750.17 189.14 1761.19 191.79&#xA;  C 1835.10 209.56 1891.33 272.78 1904.65 346.77&#xA;  Q 1913.01 393.24 1901.07 436.81&#xA;  C 1881.05 509.83 1820.87 568.64 1744.65 579.48&#xA;  Q 1734.70 580.90 1711.79 580.92&#xA;  Q 1695.36 580.93 1005.20 580.93&#xA;  Q 315.04 580.93 298.61 580.91&#xA;  Q 275.70 580.90 265.75 579.48&#xA;  C 189.53 568.63 129.35 509.82 109.33 436.80&#xA;  Q 97.39 393.23 105.75 346.76&#xA;  C 119.07 272.77 175.30 209.55 249.21 191.78&#xA;  C 260.23 189.14 272.58 187.63 283.40 187.62&#xA;  Q 336.11 187.60 1005.20 187.61&#xA;  Z&#xA;  M 352.50 502.29&#xA;  C 356.55 505.06 363.46 500.65 368.03 498.17&#xA;  Q 379.58 491.90 394.53 481.54&#xA;  Q 419.88 463.98 438.61 445.37&#xA;  C 461.21 422.92 475.61 394.34 471.76 362.07&#xA;  C 465.60 310.42 418.08 278.56 369.44 275.40&#xA;  C 332.02 272.97 291.05 288.12 267.89 319.13&#xA;  C 244.63 350.27 244.13 392.91 266.52 424.74&#xA;  C 280.17 444.15 300.81 457.95 323.29 464.96&#xA;  Q 330.84 467.32 342.32 469.42&#xA;  C 348.53 470.56 353.16 473.42 353.08 480.51&#xA;  Q 353.02 487.16 351.39 493.86&#xA;  C 350.88 495.97 350.42 500.87 352.50 502.29&#xA;  Z&#xA;  M 1524.23 357.78&#xA;  L 1531.71 350.31&#xA;  A 0.47 0.46 44.6 0 0 1531.70 349.65&#xA;  Q 1521.65 339.92 1509.05 333.28&#xA;  A 0.78 0.78 0.0 0 0 1508.10 333.45&#xA;  L 1499.52 342.94&#xA;  A 0.79 0.79 0.0 0 0 1499.73 344.16&#xA;  Q 1509.64 349.53 1517.74 357.49&#xA;  A 0.44 0.44 0.0 0 1 1517.43 358.24&#xA;  L 1485.55 358.24&#xA;  A 0.61 0.61 0.0 0 0 1484.94 358.85&#xA;  L 1484.94 371.58&#xA;  A 0.72 0.72 0.0 0 0 1485.66 372.30&#xA;  L 1510.49 372.30&#xA;  A 0.62 0.62 0.0 0 1 1511.11 372.92&#xA;  L 1511.11 389.90&#xA;  A 0.63 0.62 -0.0 0 1 1510.48 390.52&#xA;  L 1489.84 390.52&#xA;  A 0.65 0.64 90.0 0 0 1489.20 391.17&#xA;  L 1489.20 404.15&#xA;  A 0.48 0.47 90.0 0 0 1489.67 404.63&#xA;  L 1510.44 404.63&#xA;  A 0.68 0.68 0.0 0 1 1511.12 405.31&#xA;  L 1511.12 425.12&#xA;  A 0.59 0.58 -90.0 0 1 1510.54 425.71&#xA;  L 1482.44 425.71&#xA;  A 0.68 0.67 -0.0 0 0 1481.76 426.38&#xA;  L 1481.76 439.31&#xA;  A 0.47 0.46 0.0 0 0 1482.23 439.77&#xA;  L 1553.52 439.77&#xA;  A 0.65 0.65 0.0 0 0 1554.17 439.12&#xA;  L 1554.17 426.25&#xA;  A 0.48 0.47 0.0 0 0 1553.69 425.78&#xA;  L 1526.06 425.78&#xA;  A 0.63 0.63 0.0 0 1 1525.43 425.15&#xA;  L 1525.43 405.40&#xA;  A 0.72 0.72 0.0 0 1 1526.15 404.68&#xA;  L 1547.47 404.68&#xA;  A 0.68 0.67 0.0 0 0 1548.15 404.01&#xA;  L 1548.15 391.24&#xA;  A 0.52 0.51 -90.0 0 0 1547.64 390.72&#xA;  L 1526.03 390.72&#xA;  A 0.53 0.53 0.0 0 1 1525.50 390.19&#xA;  L 1525.50 372.69&#xA;  A 0.39 0.39 0.0 0 1 1525.89 372.30&#xA;  L 1551.51 372.30&#xA;  A 0.78 0.78 0.0 0 0 1552.29 371.52&#xA;  L 1552.29 358.79&#xA;  A 0.49 0.49 0.0 0 0 1551.80 358.30&#xA;  L 1524.45 358.30&#xA;  A 0.31 0.30 22.3 0 1 1524.23 357.78&#xA;  Z&#xA;  M 1178.66 390.54&#xA;  A 0.27 0.26 62.8 0 0 1178.99 390.65&#xA;  C 1188.95 386.51 1198.52 379.72 1203.17 369.84&#xA;  A 0.53 0.53 0.0 0 1 1204.05 369.72&#xA;  Q 1213.72 381.03 1226.80 389.81&#xA;  A 0.93 0.92 -55.0 0 0 1228.07 389.58&#xA;  L 1235.86 378.76&#xA;  A 0.64 0.64 0.0 0 0 1235.67 377.84&#xA;  C 1226.32 372.22 1216.40 366.09 1209.42 357.43&#xA;  A 1.45 1.44 -60.7 0 1 1209.11 356.31&#xA;  Q 1210.25 348.34 1209.81 340.12&#xA;  A 1.99 1.82 -42.5 0 1 1209.86 339.54&#xA;  L 1210.79 335.67&#xA;  A 0.97 0.97 0.0 0 0 1209.90 334.48&#xA;  L 1197.08 333.88&#xA;  A 0.63 0.62 -89.2 0 0 1196.42 334.53&#xA;  Q 1196.67 341.02 1196.02 348.96&#xA;  C 1194.78 364.04 1185.73 373.27 1171.98 377.71&#xA;  A 0.84 0.83 -24.9 0 0 1171.52 378.95&#xA;  L 1178.66 390.54&#xA;  Z&#xA;  M 1035.82 395.78&#xA;  L 1042.71 406.96&#xA;  A 0.54 0.54 0.0 0 0 1043.61 406.99&#xA;  L 1050.74 397.09&#xA;  A 1.21 1.19 43.1 0 0 1050.68 395.62&#xA;  C 1045.31 389.22 1040.45 383.52 1036.15 376.92&#xA;  Q 1035.54 375.99 1035.57 371.74&#xA;  A 0.56 0.56 0.0 0 1 1036.13 371.18&#xA;  L 1048.15 371.18&#xA;  A 0.79 0.79 0.0 0 0 1048.94 370.39&#xA;  L 1048.94 358.08&#xA;  A 0.74 0.73 90.0 0 0 1048.21 357.34&#xA;  L 1036.01 357.34&#xA;  A 0.45 0.45 0.0 0 1 1035.56 356.89&#xA;  L 1035.56 339.85&#xA;  A 2.92 2.83 -38.3 0 1 1035.66 339.10&#xA;  Q 1036.16 337.35 1036.37 335.25&#xA;  A 0.88 0.88 0.0 0 0 1035.49 334.28&#xA;  L 1022.31 334.28&#xA;  A 0.48 0.48 0.0 0 0 1021.83 334.76&#xA;  L 1021.83 356.79&#xA;  A 0.69 0.68 -0.0 0 1 1021.14 357.47&#xA;  L 1006.73 357.47&#xA;  A 0.59 0.59 0.0 0 0 1006.14 358.06&#xA;  L 1006.14 370.92&#xA;  A 0.43 0.43 0.0 0 0 1006.57 371.35&#xA;  L 1019.85 371.35&#xA;  A 0.33 0.32 -82.4 0 1 1020.16 371.76&#xA;  Q 1016.02 386.31 1009.10 399.82&#xA;  C 1007.42 403.10 1004.79 406.34 1003.37 408.77&#xA;  A 1.17 1.17 0.0 0 0 1003.38 409.98&#xA;  L 1010.23 421.09&#xA;  A 0.27 0.27 0.0 0 0 1010.69 421.10&#xA;  Q 1018.04 410.56 1021.73 398.53&#xA;  A 0.20 0.19 53.7 0 1 1022.11 398.59&#xA;  L 1022.11 442.93&#xA;  A 0.56 0.56 0.0 0 0 1022.67 443.49&#xA;  L 1035.33 443.49&#xA;  A 0.40 0.40 0.0 0 0 1035.73 443.09&#xA;  L 1035.73 395.81&#xA;  A 0.05 0.05 0.0 0 1 1035.82 395.78&#xA;  Z&#xA;  M 1382.82 341.43&#xA;  Q 1380.95 340.25 1379.54 338.34&#xA;  A 0.81 0.80 -17.9 0 0 1378.89 338.01&#xA;  L 1344.46 338.01&#xA;  A 0.65 0.64 0.0 0 0 1343.81 338.65&#xA;  L 1343.81 349.06&#xA;  A 1.18 1.16 21.2 0 0 1344.20 349.93&#xA;  L 1344.69 350.37&#xA;  A 0.47 0.47 0.0 0 1 1344.70 351.06&#xA;  L 1337.99 357.78&#xA;  A 0.45 0.45 0.0 0 0 1337.99 358.42&#xA;  L 1349.08 369.51&#xA;  A 0.78 0.77 -41.3 0 1 1349.00 370.67&#xA;  Q 1340.88 376.85 1332.10 380.66&#xA;  A 0.38 0.38 0.0 0 0 1331.93 381.21&#xA;  L 1338.88 392.51&#xA;  A 0.77 0.76 -28.8 0 0 1339.86 392.79&#xA;  Q 1347.85 388.87 1354.11 383.41&#xA;  A 0.65 0.64 -7.0 0 1 1355.11 384.19&#xA;  Q 1354.89 384.61 1354.83 385.84&#xA;  A 0.58 0.58 0.0 0 0 1355.41 386.45&#xA;  L 1362.53 386.45&#xA;  A 0.45 0.45 0.0 0 1 1362.98 386.90&#xA;  L 1362.98 397.34&#xA;  A 0.64 0.64 0.0 0 1 1362.34 397.98&#xA;  L 1338.33 397.98&#xA;  A 0.60 0.60 0.0 0 0 1337.73 398.58&#xA;  L 1337.73 410.88&#xA;  A 0.61 0.61 0.0 0 0 1338.34 411.49&#xA;  L 1360.49 411.49&#xA;  A 0.40 0.40 0.0 0 1 1360.87 412.01&#xA;  Q 1358.33 420.57 1350.55 425.01&#xA;  Q 1343.45 429.06 1335.69 430.72&#xA;  A 0.30 0.30 0.0 0 0 1335.50 431.17&#xA;  L 1342.93 443.23&#xA;  A 0.83 0.83 0.0 0 0 1343.86 443.59&#xA;  C 1359.68 438.96 1372.13 429.01 1375.14 412.27&#xA;  A 0.95 0.94 -84.9 0 1 1376.07 411.49&#xA;  L 1387.89 411.49&#xA;  A 0.45 0.45 0.0 0 1 1388.34 411.98&#xA;  Q 1388.26 413.10 1388.45 431.19&#xA;  Q 1388.55 440.39 1397.94 441.54&#xA;  Q 1403.86 442.26 1419.66 441.62&#xA;  C 1424.96 441.41 1428.55 438.59 1429.83 433.06&#xA;  Q 1431.43 426.19 1431.69 421.91&#xA;  A 0.83 0.83 0.0 0 0 1431.08 421.06&#xA;  Q 1425.13 419.35 1419.94 416.31&#xA;  A 0.41 0.41 0.0 0 0 1419.32 416.65&#xA;  Q 1419.07 421.89 1417.93 425.75&#xA;  Q 1417.12 428.51 1413.58 428.58&#xA;  Q 1408.10 428.69 1404.31 428.41&#xA;  A 2.36 2.35 -87.9 0 1 1402.13 426.06&#xA;  L 1402.13 412.12&#xA;  A 0.59 0.58 0.0 0 1 1402.72 411.54&#xA;  L 1427.32 411.54&#xA;  A 0.62 0.62 0.0 0 0 1427.94 410.92&#xA;  L 1427.94 398.38&#xA;  A 0.51 0.51 0.0 0 0 1427.43 397.87&#xA;  L 1402.63 397.87&#xA;  A 0.54 0.54 0.0 0 1 1402.09 397.33&#xA;  L 1402.09 387.03&#xA;  A 0.60 0.60 0.0 0 1 1402.69 386.43&#xA;  L 1410.90 386.43&#xA;  A 0.69 0.69 0.0 0 0 1411.57 385.56&#xA;  L 1411.11 383.82&#xA;  A 0.64 0.64 0.0 0 1 1412.11 383.14&#xA;  L 1425.06 392.46&#xA;  A 1.17 1.17 0.0 0 0 1426.80 392.01&#xA;  Q 1429.79 385.66 1434.47 380.54&#xA;  A 0.56 0.56 0.0 0 0 1434.29 379.66&#xA;  Q 1426.15 375.80 1418.49 370.18&#xA;  A 0.33 0.33 0.0 0 1 1418.44 369.69&#xA;  Q 1425.77 361.68 1431.70 357.19&#xA;  A 0.87 0.86 -45.9 0 0 1431.68 355.80&#xA;  L 1422.01 348.84&#xA;  A 0.59 0.58 38.8 0 0 1421.23 348.92&#xA;  L 1410.14 361.18&#xA;  A 0.56 0.56 0.0 0 1 1409.32 361.20&#xA;  L 1404.80 356.69&#xA;  A 0.72 0.70 47.6 0 1 1404.84 355.65&#xA;  Q 1410.32 351.02 1415.64 345.40&#xA;  Q 1416.44 344.56 1418.05 344.21&#xA;  A 0.68 0.67 58.5 0 0 1418.33 343.03&#xA;  L 1409.47 335.68&#xA;  A 0.80 0.79 40.8 0 0 1408.37 335.76&#xA;  L 1399.43 345.64&#xA;  A 0.60 0.59 55.5 0 1 1398.43 345.45&#xA;  L 1394.51 335.05&#xA;  A 0.88 0.87 72.2 0 0 1393.47 334.51&#xA;  L 1382.63 337.36&#xA;  A 0.97 0.97 0.0 0 0 1382.05 338.80&#xA;  L 1383.35 340.91&#xA;  A 0.38 0.38 0.0 0 1 1382.82 341.43&#xA;  Z&#xA;  M 1475.95 359.58&#xA;  A 0.52 0.51 -50.2 0 0 1476.72 359.50&#xA;  L 1484.67 348.46&#xA;  A 0.63 0.62 36.1 0 0 1484.53 347.59&#xA;  L 1466.56 334.67&#xA;  A 1.03 1.02 -53.9 0 0 1465.12 334.90&#xA;  L 1458.22 344.49&#xA;  A 0.88 0.88 0.0 0 0 1458.46 345.74&#xA;  Q 1467.57 351.57 1475.95 359.58&#xA;  Z&#xA;  M 556.13 438.89&#xA;  A 0.67 0.67 0.0 0 0 556.80 439.56&#xA;  L 619.24 439.56&#xA;  A 0.67 0.67 0.0 0 0 619.91 438.89&#xA;  L 619.91 421.79&#xA;  A 0.67 0.67 0.0 0 0 619.24 421.12&#xA;  L 576.76 421.12&#xA;  A 0.67 0.67 0.0 0 1 576.09 420.45&#xA;  L 576.09 337.04&#xA;  A 0.67 0.67 0.0 0 0 575.42 336.37&#xA;  L 556.80 336.37&#xA;  A 0.67 0.67 0.0 0 0 556.13 337.04&#xA;  L 556.13 438.89&#xA;  Z&#xA;  M 1168.0124 337.7437&#xA;  A 0.86 0.86 0.0 0 0 1167.1494 336.8867&#xA;  L 1136.6096 336.9933&#xA;  A 0.86 0.86 0.0 0 0 1135.7526 337.8563&#xA;  L 1135.7876 347.8963&#xA;  A 0.86 0.86 0.0 0 0 1136.6506 348.7533&#xA;  L 1167.1904 348.6467&#xA;  A 0.86 0.86 0.0 0 0 1168.0474 347.7837&#xA;  L 1168.0124 337.7437&#xA;  Z&#xA;  M 1620.32 415.18&#xA;  Q 1618.24 418.58 1614.45 421.21&#xA;  Q 1606.54 426.71 1596.65 428.83&#xA;  A 0.55 0.55 0.0 0 0 1596.33 429.70&#xA;  L 1605.61 441.99&#xA;  A 0.91 0.90 -29.7 0 0 1606.68 442.28&#xA;  C 1612.67 439.83 1618.11 437.39 1622.96 433.42&#xA;  Q 1640.65 418.94 1638.55 394.49&#xA;  Q 1638.28 391.42 1636.04 385.41&#xA;  A 0.61 0.51 40.3 0 1 1636.01 385.23&#xA;  L 1636.01 367.81&#xA;  A 0.60 0.60 0.0 0 1 1636.61 367.21&#xA;  L 1669.20 367.21&#xA;  A 0.46 0.46 0.0 0 0 1669.66 366.75&#xA;  L 1669.66 352.81&#xA;  A 0.45 0.45 0.0 0 0 1669.21 352.36&#xA;  L 1636.84 352.89&#xA;  A 0.93 0.93 0.0 0 1 1635.90 351.96&#xA;  L 1635.90 342.95&#xA;  A 2.27 2.17 -33.4 0 1 1636.12 341.99&#xA;  L 1637.38 339.42&#xA;  A 1.40 1.40 0.0 0 0 1636.19 337.40&#xA;  L 1621.07 336.68&#xA;  A 0.47 0.47 0.0 0 0 1620.58 337.15&#xA;  L 1620.83 352.65&#xA;  A 0.61 0.60 89.1 0 1 1620.24 353.27&#xA;  L 1574.87 354.00&#xA;  A 0.61 0.61 0.0 0 0 1574.27 354.62&#xA;  L 1574.50 368.89&#xA;  A 0.83 0.83 0.0 0 0 1575.40 369.70&#xA;  Q 1598.52 367.80 1621.31 367.56&#xA;  A 0.22 0.22 0.0 0 1 1621.54 367.78&#xA;  L 1621.54 374.83&#xA;  A 0.14 0.14 0.0 0 1 1621.36 374.97&#xA;  C 1609.06 371.77 1597.62 379.09 1596.50 391.74&#xA;  C 1595.79 399.74 1597.02 407.42 1603.61 412.59&#xA;  Q 1611.13 418.49 1619.96 414.76&#xA;  A 0.29 0.29 0.0 0 1 1620.32 415.18&#xA;  Z&#xA;  M 658.44 339.94&#xA;  A 1.03 1.03 0.0 0 0 657.41 338.91&#xA;  L 639.73 338.91&#xA;  A 1.03 1.03 0.0 0 0 638.70 339.94&#xA;  L 638.70 438.52&#xA;  A 1.03 1.03 0.0 0 0 639.73 439.55&#xA;  L 657.41 439.55&#xA;  A 1.03 1.03 0.0 0 0 658.44 438.52&#xA;  L 658.44 339.94&#xA;  Z&#xA;  M 763.69 339.20&#xA;  A 0.32 0.32 0.0 0 0 763.37 338.88&#xA;  L 745.49 338.88&#xA;  A 0.32 0.32 0.0 0 0 745.17 339.20&#xA;  L 745.17 406.23&#xA;  A 0.32 0.32 0.0 0 1 744.58 406.40&#xA;  L 703.10 339.06&#xA;  A 0.32 0.32 0.0 0 0 702.83 338.91&#xA;  L 683.93 338.91&#xA;  A 0.32 0.32 0.0 0 0 683.61 339.23&#xA;  L 683.61 439.22&#xA;  A 0.32 0.32 0.0 0 0 683.93 439.54&#xA;  L 701.84 439.54&#xA;  A 0.32 0.32 0.0 0 0 702.16 439.22&#xA;  L 702.16 370.83&#xA;  A 0.32 0.32 0.0 0 1 702.75 370.66&#xA;  L 745.17 439.52&#xA;  A 0.32 0.32 0.0 0 0 745.45 439.68&#xA;  L 763.38 439.39&#xA;  A 0.32 0.32 0.0 0 0 763.69 439.07&#xA;  L 763.69 339.20&#xA;  Z&#xA;  M 809.16 421.59&#xA;  A 0.69 0.69 0.0 0 1 808.47 420.90&#xA;  L 808.47 397.13&#xA;  A 0.69 0.69 0.0 0 1 809.16 396.44&#xA;  L 848.99 396.44&#xA;  A 0.69 0.69 0.0 0 0 849.68 395.75&#xA;  L 849.68 379.44&#xA;  A 0.69 0.69 0.0 0 0 848.99 378.75&#xA;  L 809.19 378.75&#xA;  A 0.69 0.69 0.0 0 1 808.50 378.06&#xA;  L 808.50 357.57&#xA;  A 0.69 0.69 0.0 0 1 809.19 356.88&#xA;  L 853.76 356.88&#xA;  A 0.69 0.69 0.0 0 0 854.45 356.19&#xA;  L 854.45 339.62&#xA;  A 0.69 0.69 0.0 0 0 853.76 338.93&#xA;  L 789.79 338.93&#xA;  A 0.69 0.69 0.0 0 0 789.10 339.62&#xA;  L 789.10 438.90&#xA;  A 0.69 0.69 0.0 0 0 789.79 439.59&#xA;  L 854.19 439.59&#xA;  A 0.69 0.69 0.0 0 0 854.88 438.90&#xA;  L 854.88 422.28&#xA;  A 0.69 0.69 0.0 0 0 854.19 421.59&#xA;  L 809.16 421.59&#xA;  Z&#xA;  M 1078.57 435.56&#xA;  Q 1082.47 435.56 1091.05 435.56&#xA;  A 0.40 0.39 0.1 0 1 1091.45 435.95&#xA;  L 1091.45 441.77&#xA;  A 0.71 0.71 0.0 0 0 1092.16 442.48&#xA;  L 1104.57 442.48&#xA;  A 0.80 0.80 0.0 0 0 1105.37 441.68&#xA;  L 1105.37 339.45&#xA;  A 0.61 0.61 0.0 0 0 1104.75 338.84&#xA;  Q 1094.41 339.00 1078.55 339.01&#xA;  Q 1062.68 339.01 1052.34 338.86&#xA;  A 0.61 0.61 0.0 0 0 1051.72 339.47&#xA;  L 1051.78 441.70&#xA;  A 0.80 0.80 0.0 0 0 1052.58 442.49&#xA;  L 1064.99 442.49&#xA;  A 0.71 0.71 0.0 0 0 1065.70 441.78&#xA;  L 1065.70 435.96&#xA;  A 0.40 0.39 -0.1 0 1 1066.09 435.57&#xA;  Q 1074.68 435.56 1078.57 435.56&#xA;  Z&#xA;  M 1222.84 363.66&#xA;  Q 1228.37 356.65 1231.68 348.85&#xA;  A 1.66 1.61 83.6 0 1 1232.19 348.19&#xA;  L 1234.15 346.71&#xA;  A 1.28 1.28 0.0 0 0 1233.89 344.52&#xA;  L 1222.53 339.60&#xA;  A 0.78 0.78 0.0 0 0 1221.47 340.09&#xA;  Q 1218.24 350.52 1212.23 357.58&#xA;  A 0.93 0.93 0.0 0 0 1212.53 359.02&#xA;  L 1222.25 363.79&#xA;  A 0.49 0.48 32.2 0 0 1222.84 363.66&#xA;  Z&#xA;  M 1191.71 343.17&#xA;  L 1180.80 340.22&#xA;  A 0.83 0.83 0.0 0 0 1179.77 340.85&#xA;  Q 1177.64 350.92 1172.56 359.17&#xA;  A 0.86 0.86 0.0 0 0 1172.95 360.41&#xA;  L 1183.18 364.84&#xA;  A 0.61 0.60 -64.8 0 0 1183.96 364.55&#xA;  C 1185.23 361.96 1186.84 359.05 1187.76 355.97&#xA;  Q 1189.08 351.49 1190.38 347.35&#xA;  A 1.10 1.01 -20.8 0 1 1190.53 347.05&#xA;  L 1192.24 344.67&#xA;  A 0.97 0.96 -64.6 0 0 1191.71 343.17&#xA;  Z&#xA;  M 1731.72 358.35&#xA;  Q 1709.76 382.26 1686.92 403.10&#xA;  A 0.45 0.45 0.0 0 0 1686.91 403.75&#xA;  L 1697.40 414.24&#xA;  A 0.50 0.48 42.7 0 0 1698.12 414.22&#xA;  C 1708.44 402.15 1720.09 391.01 1736.95 390.55&#xA;  C 1746.78 390.28 1754.86 395.31 1755.54 405.60&#xA;  Q 1756.21 415.90 1747.71 421.78&#xA;  A 0.44 0.44 0.0 0 1 1747.04 421.54&#xA;  Q 1745.71 416.70 1742.67 412.51&#xA;  C 1735.76 402.98 1718.00 402.09 1709.89 410.69&#xA;  C 1705.69 415.15 1704.50 422.04 1707.23 427.80&#xA;  C 1712.47 438.86 1725.84 440.87 1736.81 439.89&#xA;  C 1749.07 438.80 1760.68 432.70 1766.68 422.11&#xA;  C 1772.47 411.89 1772.37 398.96 1765.70 389.30&#xA;  Q 1759.03 379.65 1746.51 377.81&#xA;  C 1740.37 376.91 1735.42 377.79 1730.43 379.23&#xA;  A 0.26 0.26 0.0 0 1 1730.18 378.80&#xA;  Q 1735.83 373.33 1742.76 366.26&#xA;  C 1748.84 360.06 1752.57 356.14 1757.19 353.07&#xA;  A 0.81 0.80 -35.5 0 0 1757.39 351.91&#xA;  L 1749.62 341.62&#xA;  A 1.01 1.00 66.2 0 0 1748.66 341.24&#xA;  Q 1724.91 345.57 1698.98 345.00&#xA;  A 0.30 0.30 0.0 0 0 1698.67 345.33&#xA;  L 1700.15 360.36&#xA;  A 0.73 0.73 0.0 0 0 1700.95 361.02&#xA;  L 1731.56 358.01&#xA;  A 0.20 0.20 0.0 0 1 1731.72 358.35&#xA;  Z&#xA;  M 930.34 364.07&#xA;  A 0.33 0.33 0.0 0 1 930.61 364.64&#xA;  C 917.88 376.58 912.08 392.16 916.63 409.38&#xA;  C 921.80 428.94 941.10 438.93 960.44 439.54&#xA;  A 0.56 0.55 -80.1 0 0 960.98 439.16&#xA;  L 965.96 424.07&#xA;  A 0.88 0.87 -81.5 0 0 965.11 422.92&#xA;  Q 958.79 423.06 952.37 421.64&#xA;  C 942.18 419.38 932.04 411.68 930.72 400.76&#xA;  C 929.58 391.38 933.14 381.86 939.58 374.90&#xA;  C 946.75 367.16 954.49 362.30 965.19 361.40&#xA;  Q 969.62 361.03 974.83 360.99&#xA;  A 0.64 0.63 87.1 0 0 975.46 360.29&#xA;  L 974.00 345.39&#xA;  A 0.48 0.48 0.0 0 0 973.48 344.96&#xA;  L 885.19 353.63&#xA;  A 0.41 0.40 -7.5 0 0 884.83 354.09&#xA;  L 886.98 369.22&#xA;  A 0.99 0.99 0.0 0 0 888.10 370.06&#xA;  L 930.34 364.07&#xA;  Z&#xA;  M 1171.8198 353.4259&#xA;  A 0.55 0.55 0.0 0 0 1171.2708 352.8750&#xA;  L 1131.2309 352.8051&#xA;  A 0.55 0.55 0.0 0 0 1130.6799 353.3541&#xA;  L 1130.6602 364.6541&#xA;  A 0.55 0.55 0.0 0 0 1131.2092 365.2050&#xA;  L 1171.2491 365.2749&#xA;  A 0.55 0.55 0.0 0 0 1171.8001 364.7259&#xA;  L 1171.8198 353.4259&#xA;  Z&#xA;  M 1470.66 389.06&#xA;  L 1478.26 378.51&#xA;  A 1.21 1.20 -51.5 0 0 1478.08 376.90&#xA;  Q 1469.57 369.45 1459.01 364.79&#xA;  A 0.50 0.50 0.0 0 0 1458.40 364.95&#xA;  L 1451.46 374.60&#xA;  A 0.96 0.96 0.0 0 0 1451.77 376.00&#xA;  Q 1461.87 381.66 1470.32 389.10&#xA;  A 0.23 0.23 0.0 0 0 1470.66 389.06&#xA;  Z&#xA;  M 975.46 387.52&#xA;  L 982.36 383.27&#xA;  A 1.09 1.09 0.0 0 0 982.71 381.76&#xA;  Q 978.03 374.35 972.03 367.52&#xA;  A 1.28 1.28 0.0 0 0 970.40 367.27&#xA;  L 963.96 371.24&#xA;  A 0.94 0.93 -38.2 0 0 963.78 372.69&#xA;  Q 970.19 379.20 974.28 387.19&#xA;  A 0.84 0.83 -29.3 0 0 975.46 387.52&#xA;  Z&#xA;  M 1168.1831 370.1949&#xA;  A 0.77 0.77 0.0 0 0 1167.4091 369.4290&#xA;  L 1136.4295 369.5912&#xA;  A 0.77 0.77 0.0 0 0 1135.6635 370.3652&#xA;  L 1135.7169 380.5651&#xA;  A 0.77 0.77 0.0 0 0 1136.4909 381.3310&#xA;  L 1167.4705 381.1688&#xA;  A 0.77 0.77 0.0 0 0 1168.2365 380.3948&#xA;  L 1168.1831 370.1949&#xA;  Z&#xA;  M 963.24 395.09&#xA;  L 970.06 390.44&#xA;  A 0.82 0.82 0.0 0 0 970.28 389.30&#xA;  L 961.14 375.91&#xA;  A 3.27 1.15 55.7 0 0 958.35 373.85&#xA;  L 952.07 378.14&#xA;  A 3.27 1.15 55.7 0 0 952.96 381.49&#xA;  L 962.10 394.88&#xA;  A 0.82 0.82 0.0 0 0 963.24 395.09&#xA;  Z&#xA;  M 1285.4162 374.3902&#xA;  A 14.55 13.63 -89.7 0 0 1271.7102 388.8686&#xA;  A 14.55 13.63 -89.7 0 0 1285.2638 403.4898&#xA;  A 14.55 13.63 -89.7 0 0 1298.9698 389.0114&#xA;  A 14.55 13.63 -89.7 0 0 1285.4162 374.3902&#xA;  Z&#xA;  M 1213.39 411.24&#xA;  A 0.13 0.13 0.0 0 1 1213.56 411.06&#xA;  L 1223.08 415.73&#xA;  A 0.67 0.66 -59.4 0 0 1223.92 415.51&#xA;  Q 1228.46 408.83 1231.27 402.51&#xA;  C 1232.10 400.63 1233.12 399.71 1234.64 398.59&#xA;  A 1.30 1.30 0.0 0 0 1234.54 396.43&#xA;  Q 1229.09 393.14 1222.71 391.30&#xA;  A 0.72 0.71 -72.5 0 0 1221.84 391.76&#xA;  C 1219.63 398.19 1217.30 404.11 1213.24 409.33&#xA;  A 0.53 0.53 0.0 0 1 1212.34 409.22&#xA;  C 1209.58 403.19 1209.86 398.58 1209.62 389.87&#xA;  A 2.44 2.38 60.9 0 1 1209.97 388.58&#xA;  Q 1210.80 387.24 1211.06 385.59&#xA;  A 1.49 1.49 0.0 0 0 1209.66 383.88&#xA;  L 1196.75 383.27&#xA;  A 0.61 0.61 0.0 0 0 1196.11 383.89&#xA;  Q 1196.23 389.63 1196.02 396.06&#xA;  Q 1195.79 403.02 1194.25 407.98&#xA;  Q 1188.79 425.58 1169.80 430.77&#xA;  A 0.52 0.51 82.3 0 1 1169.15 430.27&#xA;  L 1169.15 402.56&#xA;  A 0.42 0.41 -0.0 0 0 1168.73 402.15&#xA;  L 1135.07 402.15&#xA;  A 0.72 0.72 0.0 0 0 1134.35 402.87&#xA;  L 1134.35 441.49&#xA;  A 1.15 1.15 0.0 0 0 1135.50 442.64&#xA;  L 1145.64 442.64&#xA;  A 0.81 0.81 0.0 0 0 1146.45 441.83&#xA;  L 1146.45 437.66&#xA;  A 0.61 0.60 0.0 0 1 1147.06 437.06&#xA;  L 1157.05 437.06&#xA;  A 0.62 0.61 1.3 0 1 1157.67 437.70&#xA;  L 1157.55 440.20&#xA;  A 0.71 0.71 0.0 0 0 1158.26 440.94&#xA;  L 1168.51 440.94&#xA;  A 0.68 0.68 0.0 0 0 1169.19 440.25&#xA;  L 1169.06 432.69&#xA;  A 0.43 0.43 0.0 0 1 1169.77 432.36&#xA;  C 1172.50 434.74 1174.67 439.60 1176.63 443.35&#xA;  A 0.50 0.49 -23.9 0 0 1177.25 443.58&#xA;  Q 1192.74 437.50 1201.56 423.30&#xA;  Q 1202.65 421.55 1203.27 419.52&#xA;  A 0.56 0.56 0.0 0 1 1204.31 419.44&#xA;  Q 1206.80 424.77 1210.04 428.97&#xA;  Q 1217.11 438.12 1228.13 443.29&#xA;  A 1.20 1.19 -65.2 0 0 1229.72 442.70&#xA;  Q 1232.69 436.23 1236.50 431.51&#xA;  A 0.64 0.63 -58.8 0 0 1236.26 430.52&#xA;  C 1226.40 426.35 1218.43 420.95 1213.39 411.24&#xA;  Z&#xA;  M 1168.28 386.35&#xA;  A 0.76 0.76 0.0 0 0 1167.52 385.59&#xA;  L 1136.38 385.59&#xA;  A 0.76 0.76 0.0 0 0 1135.62 386.35&#xA;  L 1135.62 396.73&#xA;  A 0.76 0.76 0.0 0 0 1136.38 397.49&#xA;  L 1167.52 397.49&#xA;  A 0.76 0.76 0.0 0 0 1168.28 396.73&#xA;  L 1168.28 386.35&#xA;  Z&#xA;  M 1179.34 392.66&#xA;  Q 1176.87 402.50 1171.35 411.11&#xA;  A 1.45 1.44 -60.7 0 0 1171.93 413.19&#xA;  L 1181.22 417.76&#xA;  A 0.69 0.69 0.0 0 0 1182.09 417.53&#xA;  Q 1187.19 410.01 1189.14 401.86&#xA;  C 1189.58 400.00 1190.17 399.29 1191.46 397.98&#xA;  A 1.87 1.87 0.0 0 0 1190.62 394.86&#xA;  L 1180.33 392.08&#xA;  A 0.80 0.80 0.0 0 0 1179.34 392.66&#xA;  Z&#xA;  M 1466.14 442.37&#xA;  L 1484.17 405.62&#xA;  A 0.63 0.62 34.6 0 0 1484.03 404.88&#xA;  L 1474.20 395.99&#xA;  A 0.77 0.77 0.0 0 0 1472.98 396.25&#xA;  Q 1464.39 415.63 1453.78 432.52&#xA;  A 0.62 0.62 0.0 0 0 1453.91 433.33&#xA;  L 1465.08 442.59&#xA;  A 0.69 0.69 0.0 0 0 1466.14 442.37&#xA;  Z"></path>
<path fill="#ffffff" d="&#xA;  M 352.50 502.29&#xA;  C 350.42 500.87 350.88 495.97 351.39 493.86&#xA;  Q 353.02 487.16 353.08 480.51&#xA;  C 353.16 473.42 348.53 470.56 342.32 469.42&#xA;  Q 330.84 467.32 323.29 464.96&#xA;  C 300.81 457.95 280.17 444.15 266.52 424.74&#xA;  C 244.13 392.91 244.63 350.27 267.89 319.13&#xA;  C 291.05 288.12 332.02 272.97 369.44 275.40&#xA;  C 418.08 278.56 465.60 310.42 471.76 362.07&#xA;  C 475.61 394.34 461.21 422.92 438.61 445.37&#xA;  Q 419.88 463.98 394.53 481.54&#xA;  Q 379.58 491.90 368.03 498.17&#xA;  C 363.46 500.65 356.55 505.06 352.50 502.29&#xA;  Z&#xA;  M 288.89 403.11&#xA;  A 1.34 1.34 0.0 0 0 290.23 404.45&#xA;  L 320.01 404.45&#xA;  A 1.34 1.34 0.0 0 0 321.35 403.11&#xA;  L 321.35 393.95&#xA;  A 1.34 1.34 0.0 0 0 320.01 392.61&#xA;  L 300.77 392.61&#xA;  A 1.34 1.34 0.0 0 1 299.43 391.27&#xA;  L 299.43 346.63&#xA;  A 1.34 1.34 0.0 0 0 298.09 345.29&#xA;  L 290.23 345.29&#xA;  A 1.34 1.34 0.0 0 0 288.89 346.63&#xA;  L 288.89 403.11&#xA;  Z&#xA;  M 340.72 346.77&#xA;  A 1.40 1.40 0.0 0 0 339.32 345.37&#xA;  L 331.54 345.37&#xA;  A 1.40 1.40 0.0 0 0 330.14 346.77&#xA;  L 330.14 403.05&#xA;  A 1.40 1.40 0.0 0 0 331.54 404.45&#xA;  L 339.32 404.45&#xA;  A 1.40 1.40 0.0 0 0 340.72 403.05&#xA;  L 340.72 346.77&#xA;  Z&#xA;  M 366.73 377.54&#xA;  Q 369.60 382.59 372.60 387.84&#xA;  Q 376.44 394.56 381.71 403.55&#xA;  A 1.76 1.74 74.7 0 0 383.22 404.42&#xA;  L 390.79 404.42&#xA;  A 1.40 1.40 0.0 0 0 392.19 403.02&#xA;  L 392.19 346.46&#xA;  A 1.15 1.15 0.0 0 0 391.04 345.31&#xA;  L 383.01 345.31&#xA;  A 1.42 1.41 -0.0 0 0 381.59 346.72&#xA;  L 381.59 381.36&#xA;  A 0.16 0.15 0.0 0 1 381.43 381.51&#xA;  Q 381.06 381.51 380.88 381.19&#xA;  Q 377.49 375.22 375.79 372.23&#xA;  Q 372.93 367.18 369.93 361.92&#xA;  Q 366.09 355.20 360.82 346.21&#xA;  A 1.76 1.74 74.7 0 0 359.31 345.34&#xA;  L 351.74 345.34&#xA;  A 1.40 1.40 0.0 0 0 350.34 346.74&#xA;  L 350.34 403.30&#xA;  A 1.15 1.15 0.0 0 0 351.49 404.45&#xA;  L 359.52 404.45&#xA;  A 1.42 1.41 0.0 0 0 360.94 403.04&#xA;  L 360.94 368.40&#xA;  A 0.16 0.15 0.0 0 1 361.10 368.25&#xA;  Q 361.47 368.25 361.65 368.58&#xA;  Q 365.04 374.54 366.73 377.54&#xA;  Z&#xA;  M 401.60 374.85&#xA;  Q 401.60 388.58 401.69 403.05&#xA;  A 1.36 1.36 0.0 0 0 403.05 404.40&#xA;  L 432.77 404.40&#xA;  A 1.49 1.48 89.6 0 0 434.25 402.89&#xA;  Q 434.18 398.29 434.21 394.94&#xA;  Q 434.23 392.80 431.79 392.75&#xA;  Q 420.95 392.51 413.02 392.59&#xA;  A 0.62 0.62 0.0 0 1 412.39 391.97&#xA;  L 412.39 381.16&#xA;  A 0.60 0.59 -90.0 0 1 412.98 380.56&#xA;  L 432.33 380.56&#xA;  A 1.19 1.19 0.0 0 0 433.52 379.39&#xA;  Q 433.54 378.32 433.54 374.84&#xA;  Q 433.53 371.37 433.52 370.29&#xA;  A 1.19 1.19 0.0 0 0 432.33 369.13&#xA;  L 412.98 369.13&#xA;  A 0.60 0.59 90.0 0 1 412.39 368.53&#xA;  L 412.38 357.72&#xA;  A 0.62 0.62 0.0 0 1 413.01 357.10&#xA;  Q 420.94 357.18 431.78 356.94&#xA;  Q 434.22 356.89 434.20 354.75&#xA;  Q 434.17 351.40 434.24 346.80&#xA;  A 1.49 1.48 -89.6 0 0 432.76 345.29&#xA;  L 403.04 345.30&#xA;  A 1.36 1.36 0.0 0 0 401.68 346.65&#xA;  Q 401.59 361.11 401.60 374.85&#xA;  Z"></path>
<path fill="#ffffff" d="&#xA;  M 1524.23 357.78&#xA;  A 0.31 0.30 22.3 0 0 1524.45 358.30&#xA;  L 1551.80 358.30&#xA;  A 0.49 0.49 0.0 0 1 1552.29 358.79&#xA;  L 1552.29 371.52&#xA;  A 0.78 0.78 0.0 0 1 1551.51 372.30&#xA;  L 1525.89 372.30&#xA;  A 0.39 0.39 0.0 0 0 1525.50 372.69&#xA;  L 1525.50 390.19&#xA;  A 0.53 0.53 0.0 0 0 1526.03 390.72&#xA;  L 1547.64 390.72&#xA;  A 0.52 0.51 90.0 0 1 1548.15 391.24&#xA;  L 1548.15 404.01&#xA;  A 0.68 0.67 0.0 0 1 1547.47 404.68&#xA;  L 1526.15 404.68&#xA;  A 0.72 0.72 0.0 0 0 1525.43 405.40&#xA;  L 1525.43 425.15&#xA;  A 0.63 0.63 0.0 0 0 1526.06 425.78&#xA;  L 1553.69 425.78&#xA;  A 0.48 0.47 -0.0 0 1 1554.17 426.25&#xA;  L 1554.17 439.12&#xA;  A 0.65 0.65 0.0 0 1 1553.52 439.77&#xA;  L 1482.23 439.77&#xA;  A 0.47 0.46 -0.0 0 1 1481.76 439.31&#xA;  L 1481.76 426.38&#xA;  A 0.68 0.67 -0.0 0 1 1482.44 425.71&#xA;  L 1510.54 425.71&#xA;  A 0.59 0.58 90.0 0 0 1511.12 425.12&#xA;  L 1511.12 405.31&#xA;  A 0.68 0.68 0.0 0 0 1510.44 404.63&#xA;  L 1489.67 404.63&#xA;  A 0.48 0.47 -90.0 0 1 1489.20 404.15&#xA;  L 1489.20 391.17&#xA;  A 0.65 0.64 -90.0 0 1 1489.84 390.52&#xA;  L 1510.48 390.52&#xA;  A 0.63 0.62 -0.0 0 0 1511.11 389.90&#xA;  L 1511.11 372.92&#xA;  A 0.62 0.62 0.0 0 0 1510.49 372.30&#xA;  L 1485.66 372.30&#xA;  A 0.72 0.72 0.0 0 1 1484.94 371.58&#xA;  L 1484.94 358.85&#xA;  A 0.61 0.61 0.0 0 1 1485.55 358.24&#xA;  L 1517.43 358.24&#xA;  A 0.44 0.44 0.0 0 0 1517.74 357.49&#xA;  Q 1509.64 349.53 1499.73 344.16&#xA;  A 0.79 0.79 0.0 0 1 1499.52 342.94&#xA;  L 1508.10 333.45&#xA;  A 0.78 0.78 0.0 0 1 1509.05 333.28&#xA;  Q 1521.65 339.92 1531.70 349.65&#xA;  A 0.47 0.46 44.6 0 1 1531.71 350.31&#xA;  L 1524.23 357.78&#xA;  Z"></path>
<path fill="#ffffff" d="&#xA;  M 1178.66 390.54&#xA;  L 1171.52 378.95&#xA;  A 0.84 0.83 -24.9 0 1 1171.98 377.71&#xA;  C 1185.73 373.27 1194.78 364.04 1196.02 348.96&#xA;  Q 1196.67 341.02 1196.42 334.53&#xA;  A 0.63 0.62 -89.2 0 1 1197.08 333.88&#xA;  L 1209.90 334.48&#xA;  A 0.97 0.97 0.0 0 1 1210.79 335.67&#xA;  L 1209.86 339.54&#xA;  A 1.99 1.82 -42.5 0 0 1209.81 340.12&#xA;  Q 1210.25 348.34 1209.11 356.31&#xA;  A 1.45 1.44 -60.7 0 0 1209.42 357.43&#xA;  C 1216.40 366.09 1226.32 372.22 1235.67 377.84&#xA;  A 0.64 0.64 0.0 0 1 1235.86 378.76&#xA;  L 1228.07 389.58&#xA;  A 0.93 0.92 -55.0 0 1 1226.80 389.81&#xA;  Q 1213.72 381.03 1204.05 369.72&#xA;  A 0.53 0.53 0.0 0 0 1203.17 369.84&#xA;  C 1198.52 379.72 1188.95 386.51 1178.99 390.65&#xA;  A 0.27 0.26 62.8 0 1 1178.66 390.54&#xA;  Z"></path>
<path fill="#ffffff" d="&#xA;  M 1035.73 395.81&#xA;  L 1035.73 443.09&#xA;  A 0.40 0.40 0.0 0 1 1035.33 443.49&#xA;  L 1022.67 443.49&#xA;  A 0.56 0.56 0.0 0 1 1022.11 442.93&#xA;  L 1022.11 398.59&#xA;  A 0.20 0.19 53.7 0 0 1021.73 398.53&#xA;  Q 1018.04 410.56 1010.69 421.10&#xA;  A 0.27 0.27 0.0 0 1 1010.23 421.09&#xA;  L 1003.38 409.98&#xA;  A 1.17 1.17 0.0 0 1 1003.37 408.77&#xA;  C 1004.79 406.34 1007.42 403.10 1009.10 399.82&#xA;  Q 1016.02 386.31 1020.16 371.76&#xA;  A 0.33 0.32 -82.4 0 0 1019.85 371.35&#xA;  L 1006.57 371.35&#xA;  A 0.43 0.43 0.0 0 1 1006.14 370.92&#xA;  L 1006.14 358.06&#xA;  A 0.59 0.59 0.0 0 1 1006.73 357.47&#xA;  L 1021.14 357.47&#xA;  A 0.69 0.68 0.0 0 0 1021.83 356.79&#xA;  L 1021.83 334.76&#xA;  A 0.48 0.48 0.0 0 1 1022.31 334.28&#xA;  L 1035.49 334.28&#xA;  A 0.88 0.88 0.0 0 1 1036.37 335.25&#xA;  Q 1036.16 337.35 1035.66 339.10&#xA;  A 2.92 2.83 -38.3 0 0 1035.56 339.85&#xA;  L 1035.56 356.89&#xA;  A 0.45 0.45 0.0 0 0 1036.01 357.34&#xA;  L 1048.21 357.34&#xA;  A 0.74 0.73 -90.0 0 1 1048.94 358.08&#xA;  L 1048.94 370.39&#xA;  A 0.79 0.79 0.0 0 1 1048.15 371.18&#xA;  L 1036.13 371.18&#xA;  A 0.56 0.56 0.0 0 0 1035.57 371.74&#xA;  Q 1035.54 375.99 1036.15 376.92&#xA;  C 1040.45 383.52 1045.31 389.22 1050.68 395.62&#xA;  A 1.21 1.19 43.1 0 1 1050.74 397.09&#xA;  L 1043.61 406.99&#xA;  A 0.54 0.54 0.0 0 1 1042.71 406.96&#xA;  L 1035.82 395.78&#xA;  A 0.05 0.05 0.0 0 0 1035.73 395.81&#xA;  Z"></path>
<path fill="#ffffff" d="&#xA;  M 1383.35 340.91&#xA;  L 1382.05 338.80&#xA;  A 0.97 0.97 0.0 0 1 1382.63 337.36&#xA;  L 1393.47 334.51&#xA;  A 0.88 0.87 72.2 0 1 1394.51 335.05&#xA;  L 1398.43 345.45&#xA;  A 0.60 0.59 55.5 0 0 1399.43 345.64&#xA;  L 1408.37 335.76&#xA;  A 0.80 0.79 40.8 0 1 1409.47 335.68&#xA;  L 1418.33 343.03&#xA;  A 0.68 0.67 58.5 0 1 1418.05 344.21&#xA;  Q 1416.44 344.56 1415.64 345.40&#xA;  Q 1410.32 351.02 1404.84 355.65&#xA;  A 0.72 0.70 47.6 0 0 1404.80 356.69&#xA;  L 1409.32 361.20&#xA;  A 0.56 0.56 0.0 0 0 1410.14 361.18&#xA;  L 1421.23 348.92&#xA;  A 0.59 0.58 38.8 0 1 1422.01 348.84&#xA;  L 1431.68 355.80&#xA;  A 0.87 0.86 -45.9 0 1 1431.70 357.19&#xA;  Q 1425.77 361.68 1418.44 369.69&#xA;  A 0.33 0.33 0.0 0 0 1418.49 370.18&#xA;  Q 1426.15 375.80 1434.29 379.66&#xA;  A 0.56 0.56 0.0 0 1 1434.47 380.54&#xA;  Q 1429.79 385.66 1426.80 392.01&#xA;  A 1.17 1.17 0.0 0 1 1425.06 392.46&#xA;  L 1412.11 383.14&#xA;  A 0.64 0.64 0.0 0 0 1411.11 383.82&#xA;  L 1411.57 385.56&#xA;  A 0.69 0.69 0.0 0 1 1410.90 386.43&#xA;  L 1402.69 386.43&#xA;  A 0.60 0.60 0.0 0 0 1402.09 387.03&#xA;  L 1402.09 397.33&#xA;  A 0.54 0.54 0.0 0 0 1402.63 397.87&#xA;  L 1427.43 397.87&#xA;  A 0.51 0.51 0.0 0 1 1427.94 398.38&#xA;  L 1427.94 410.92&#xA;  A 0.62 0.62 0.0 0 1 1427.32 411.54&#xA;  L 1402.72 411.54&#xA;  A 0.59 0.58 0.0 0 0 1402.13 412.12&#xA;  L 1402.13 426.06&#xA;  A 2.36 2.35 -87.9 0 0 1404.31 428.41&#xA;  Q 1408.10 428.69 1413.58 428.58&#xA;  Q 1417.12 428.51 1417.93 425.75&#xA;  Q 1419.07 421.89 1419.32 416.65&#xA;  A 0.41 0.41 0.0 0 1 1419.94 416.31&#xA;  Q 1425.13 419.35 1431.08 421.06&#xA;  A 0.83 0.83 0.0 0 1 1431.69 421.91&#xA;  Q 1431.43 426.19 1429.83 433.06&#xA;  C 1428.55 438.59 1424.96 441.41 1419.66 441.62&#xA;  Q 1403.86 442.26 1397.94 441.54&#xA;  Q 1388.55 440.39 1388.45 431.19&#xA;  Q 1388.26 413.10 1388.34 411.98&#xA;  A 0.45 0.45 0.0 0 0 1387.89 411.49&#xA;  L 1376.07 411.49&#xA;  A 0.95 0.94 -84.9 0 0 1375.14 412.27&#xA;  C 1372.13 429.01 1359.68 438.96 1343.86 443.59&#xA;  A 0.83 0.83 0.0 0 1 1342.93 443.23&#xA;  L 1335.50 431.17&#xA;  A 0.30 0.30 0.0 0 1 1335.69 430.72&#xA;  Q 1343.45 429.06 1350.55 425.01&#xA;  Q 1358.33 420.57 1360.87 412.01&#xA;  A 0.40 0.40 0.0 0 0 1360.49 411.49&#xA;  L 1338.34 411.49&#xA;  A 0.61 0.61 0.0 0 1 1337.73 410.88&#xA;  L 1337.73 398.58&#xA;  A 0.60 0.60 0.0 0 1 1338.33 397.98&#xA;  L 1362.34 397.98&#xA;  A 0.64 0.64 0.0 0 0 1362.98 397.34&#xA;  L 1362.98 386.90&#xA;  A 0.45 0.45 0.0 0 0 1362.53 386.45&#xA;  L 1355.41 386.45&#xA;  A 0.58 0.58 0.0 0 1 1354.83 385.84&#xA;  Q 1354.89 384.61 1355.11 384.19&#xA;  A 0.65 0.64 -7.0 0 0 1354.11 383.41&#xA;  Q 1347.85 388.87 1339.86 392.79&#xA;  A 0.77 0.76 -28.8 0 1 1338.88 392.51&#xA;  L 1331.93 381.21&#xA;  A 0.38 0.38 0.0 0 1 1332.10 380.66&#xA;  Q 1340.88 376.85 1349.00 370.67&#xA;  A 0.78 0.77 -41.3 0 0 1349.08 369.51&#xA;  L 1337.99 358.42&#xA;  A 0.45 0.45 0.0 0 1 1337.99 357.78&#xA;  L 1344.70 351.06&#xA;  A 0.47 0.47 0.0 0 0 1344.69 350.37&#xA;  L 1344.20 349.93&#xA;  A 1.18 1.16 21.2 0 1 1343.81 349.06&#xA;  L 1343.81 338.65&#xA;  A 0.65 0.64 0.0 0 1 1344.46 338.01&#xA;  L 1378.89 338.01&#xA;  A 0.81 0.80 -17.9 0 1 1379.54 338.34&#xA;  Q 1380.95 340.25 1382.82 341.43&#xA;  A 0.38 0.38 0.0 0 0 1383.35 340.91&#xA;  Z&#xA;  M 1400.56 373.37&#xA;  A 0.44 0.44 0.0 0 0 1400.89 372.64&#xA;  Q 1390.23 360.30 1384.78 345.45&#xA;  A 0.65 0.65 0.0 0 0 1383.57 345.42&#xA;  Q 1377.15 360.52 1366.07 372.66&#xA;  A 0.42 0.42 0.0 0 0 1366.38 373.37&#xA;  L 1400.56 373.37&#xA;  Z&#xA;  M 1347.26 350.81&#xA;  Q 1353.37 355.59 1358.23 361.26&#xA;  A 0.54 0.54 0.0 0 0 1359.08 361.22&#xA;  L 1366.24 351.27&#xA;  A 0.53 0.53 0.0 0 0 1365.81 350.44&#xA;  L 1347.39 350.44&#xA;  A 0.21 0.21 0.0 0 0 1347.26 350.81&#xA;  Z&#xA;  M 1388.19 386.91&#xA;  A 0.55 0.55 0.0 0 0 1387.64 386.36&#xA;  L 1377.06 386.36&#xA;  A 0.55 0.55 0.0 0 0 1376.51 386.91&#xA;  L 1376.51 397.49&#xA;  A 0.55 0.55 0.0 0 0 1377.06 398.04&#xA;  L 1387.64 398.04&#xA;  A 0.55 0.55 0.0 0 0 1388.19 397.49&#xA;  L 1388.19 386.91&#xA;  Z"></path>
<path fill="#ffffff" d="&#xA;  M 1475.95 359.58&#xA;  Q 1467.57 351.57 1458.46 345.74&#xA;  A 0.88 0.88 0.0 0 1 1458.22 344.49&#xA;  L 1465.12 334.90&#xA;  A 1.03 1.02 -53.9 0 1 1466.56 334.67&#xA;  L 1484.53 347.59&#xA;  A 0.63 0.62 36.1 0 1 1484.67 348.46&#xA;  L 1476.72 359.50&#xA;  A 0.52 0.51 -50.2 0 1 1475.95 359.58&#xA;  Z"></path>
<path fill="#ffffff" d="&#xA;  M 556.13 438.89&#xA;  L 556.13 337.04&#xA;  A 0.67 0.67 0.0 0 1 556.80 336.37&#xA;  L 575.42 336.37&#xA;  A 0.67 0.67 0.0 0 1 576.09 337.04&#xA;  L 576.09 420.45&#xA;  A 0.67 0.67 0.0 0 0 576.76 421.12&#xA;  L 619.24 421.12&#xA;  A 0.67 0.67 0.0 0 1 619.91 421.79&#xA;  L 619.91 438.89&#xA;  A 0.67 0.67 0.0 0 1 619.24 439.56&#xA;  L 556.80 439.56&#xA;  A 0.67 0.67 0.0 0 1 556.13 438.89&#xA;  Z"></path>
<rect fill="#ffffff" x="-16.13" y="-5.88" transform="translate(1151.90,342.82) rotate(-0.2)" width="32.26" height="11.76" rx="0.86"></rect>
<path fill="#ffffff" d="&#xA;  M 1620.32 415.18&#xA;  A 0.29 0.29 0.0 0 0 1619.96 414.76&#xA;  Q 1611.13 418.49 1603.61 412.59&#xA;  C 1597.02 407.42 1595.79 399.74 1596.50 391.74&#xA;  C 1597.62 379.09 1609.06 371.77 1621.36 374.97&#xA;  A 0.14 0.14 0.0 0 0 1621.54 374.83&#xA;  L 1621.54 367.78&#xA;  A 0.22 0.22 0.0 0 0 1621.31 367.56&#xA;  Q 1598.52 367.80 1575.40 369.70&#xA;  A 0.83 0.83 0.0 0 1 1574.50 368.89&#xA;  L 1574.27 354.62&#xA;  A 0.61 0.61 0.0 0 1 1574.87 354.00&#xA;  L 1620.24 353.27&#xA;  A 0.61 0.60 89.1 0 0 1620.83 352.65&#xA;  L 1620.58 337.15&#xA;  A 0.47 0.47 0.0 0 1 1621.07 336.68&#xA;  L 1636.19 337.40&#xA;  A 1.40 1.40 0.0 0 1 1637.38 339.42&#xA;  L 1636.12 341.99&#xA;  A 2.27 2.17 -33.4 0 0 1635.90 342.95&#xA;  L 1635.90 351.96&#xA;  A 0.93 0.93 0.0 0 0 1636.84 352.89&#xA;  L 1669.21 352.36&#xA;  A 0.45 0.45 0.0 0 1 1669.66 352.81&#xA;  L 1669.66 366.75&#xA;  A 0.46 0.46 0.0 0 1 1669.20 367.21&#xA;  L 1636.61 367.21&#xA;  A 0.60 0.60 0.0 0 0 1636.01 367.81&#xA;  L 1636.01 385.23&#xA;  A 0.61 0.51 40.3 0 0 1636.04 385.41&#xA;  Q 1638.28 391.42 1638.55 394.49&#xA;  Q 1640.65 418.94 1622.96 433.42&#xA;  C 1618.11 437.39 1612.67 439.83 1606.68 442.28&#xA;  A 0.91 0.90 -29.7 0 1 1605.61 441.99&#xA;  L 1596.33 429.70&#xA;  A 0.55 0.55 0.0 0 1 1596.65 428.83&#xA;  Q 1606.54 426.71 1614.45 421.21&#xA;  Q 1618.24 418.58 1620.32 415.18&#xA;  Z&#xA;  M 1616.6396 386.0057&#xA;  A 8.45 6.93 -87.9 0 0 1609.4047 394.1961&#xA;  A 8.45 6.93 -87.9 0 0 1616.0204 402.8943&#xA;  A 8.45 6.93 -87.9 0 0 1623.2553 394.7039&#xA;  A 8.45 6.93 -87.9 0 0 1616.6396 386.0057&#xA;  Z"></path>
<rect fill="#ffffff" x="638.70" y="338.91" width="19.74" height="100.64" rx="1.03"></rect>
<path fill="#ffffff" d="&#xA;  M 763.69 339.20&#xA;  L 763.69 439.07&#xA;  A 0.32 0.32 0.0 0 1 763.38 439.39&#xA;  L 745.45 439.68&#xA;  A 0.32 0.32 0.0 0 1 745.17 439.52&#xA;  L 702.75 370.66&#xA;  A 0.32 0.32 0.0 0 0 702.16 370.83&#xA;  L 702.16 439.22&#xA;  A 0.32 0.32 0.0 0 1 701.84 439.54&#xA;  L 683.93 439.54&#xA;  A 0.32 0.32 0.0 0 1 683.61 439.22&#xA;  L 683.61 339.23&#xA;  A 0.32 0.32 0.0 0 1 683.93 338.91&#xA;  L 702.83 338.91&#xA;  A 0.32 0.32 0.0 0 1 703.10 339.06&#xA;  L 744.58 406.40&#xA;  A 0.32 0.32 0.0 0 0 745.17 406.23&#xA;  L 745.17 339.20&#xA;  A 0.32 0.32 0.0 0 1 745.49 338.88&#xA;  L 763.37 338.88&#xA;  A 0.32 0.32 0.0 0 1 763.69 339.20&#xA;  Z"></path>
<path fill="#ffffff" d="&#xA;  M 809.16 421.59&#xA;  L 854.19 421.59&#xA;  A 0.69 0.69 0.0 0 1 854.88 422.28&#xA;  L 854.88 438.90&#xA;  A 0.69 0.69 0.0 0 1 854.19 439.59&#xA;  L 789.79 439.59&#xA;  A 0.69 0.69 0.0 0 1 789.10 438.90&#xA;  L 789.10 339.62&#xA;  A 0.69 0.69 0.0 0 1 789.79 338.93&#xA;  L 853.76 338.93&#xA;  A 0.69 0.69 0.0 0 1 854.45 339.62&#xA;  L 854.45 356.19&#xA;  A 0.69 0.69 0.0 0 1 853.76 356.88&#xA;  L 809.19 356.88&#xA;  A 0.69 0.69 0.0 0 0 808.50 357.57&#xA;  L 808.50 378.06&#xA;  A 0.69 0.69 0.0 0 0 809.19 378.75&#xA;  L 848.99 378.75&#xA;  A 0.69 0.69 0.0 0 1 849.68 379.44&#xA;  L 849.68 395.75&#xA;  A 0.69 0.69 0.0 0 1 848.99 396.44&#xA;  L 809.16 396.44&#xA;  A 0.69 0.69 0.0 0 0 808.47 397.13&#xA;  L 808.47 420.90&#xA;  A 0.69 0.69 0.0 0 0 809.16 421.59&#xA;  Z"></path>
<path fill="#ffffff" d="&#xA;  M 1078.55 339.01&#xA;  Q 1094.41 339.00 1104.75 338.84&#xA;  A 0.61 0.61 0.0 0 1 1105.37 339.45&#xA;  L 1105.37 441.68&#xA;  A 0.80 0.80 0.0 0 1 1104.57 442.48&#xA;  L 1092.16 442.48&#xA;  A 0.71 0.71 0.0 0 1 1091.45 441.77&#xA;  L 1091.45 435.95&#xA;  A 0.40 0.39 0.1 0 0 1091.05 435.56&#xA;  Q 1082.47 435.56 1078.57 435.56&#xA;  Q 1074.68 435.56 1066.09 435.57&#xA;  A 0.40 0.39 -0.1 0 0 1065.70 435.96&#xA;  L 1065.70 441.78&#xA;  A 0.71 0.71 0.0 0 1 1064.99 442.49&#xA;  L 1052.58 442.49&#xA;  A 0.80 0.80 0.0 0 1 1051.78 441.70&#xA;  L 1051.72 339.47&#xA;  A 0.61 0.61 0.0 0 1 1052.34 338.86&#xA;  Q 1062.68 339.01 1078.55 339.01&#xA;  Z&#xA;  M 1091.3408 353.3325&#xA;  A 0.59 0.59 0.0 0 0 1090.7518 352.7415&#xA;  L 1066.1719 352.6986&#xA;  A 0.59 0.59 0.0 0 0 1065.5808 353.2875&#xA;  L 1065.5592 365.6875&#xA;  A 0.59 0.59 0.0 0 0 1066.1482 366.2785&#xA;  L 1090.7281 366.3214&#xA;  A 0.59 0.59 0.0 0 0 1091.3192 365.7325&#xA;  L 1091.3408 353.3325&#xA;  Z&#xA;  M 1091.3322 380.4450&#xA;  A 0.58 0.58 0.0 0 0 1090.7542 379.8630&#xA;  L 1066.1543 379.7771&#xA;  A 0.58 0.58 0.0 0 0 1065.5723 380.3551&#xA;  L 1065.5278 393.0950&#xA;  A 0.58 0.58 0.0 0 0 1066.1058 393.6770&#xA;  L 1090.7057 393.7629&#xA;  A 0.58 0.58 0.0 0 0 1091.2877 393.1849&#xA;  L 1091.3322 380.4450&#xA;  Z&#xA;  M 1091.3537 408.0351&#xA;  A 0.60 0.60 0.0 0 0 1090.7558 407.4330&#xA;  L 1066.1560 407.3471&#xA;  A 0.60 0.60 0.0 0 0 1065.5539 407.9450&#xA;  L 1065.5063 421.5849&#xA;  A 0.60 0.60 0.0 0 0 1066.1042 422.1870&#xA;  L 1090.7040 422.2729&#xA;  A 0.60 0.60 0.0 0 0 1091.3061 421.6750&#xA;  L 1091.3537 408.0351&#xA;  Z"></path>
<path fill="#ffffff" d="&#xA;  M 1222.84 363.66&#xA;  A 0.49 0.48 32.2 0 1 1222.25 363.79&#xA;  L 1212.53 359.02&#xA;  A 0.93 0.93 0.0 0 1 1212.23 357.58&#xA;  Q 1218.24 350.52 1221.47 340.09&#xA;  A 0.78 0.78 0.0 0 1 1222.53 339.60&#xA;  L 1233.89 344.52&#xA;  A 1.28 1.28 0.0 0 1 1234.15 346.71&#xA;  L 1232.19 348.19&#xA;  A 1.66 1.61 83.6 0 0 1231.68 348.85&#xA;  Q 1228.37 356.65 1222.84 363.66&#xA;  Z"></path>
<path fill="#ffffff" d="&#xA;  M 1191.71 343.17&#xA;  A 0.97 0.96 -64.6 0 1 1192.24 344.67&#xA;  L 1190.53 347.05&#xA;  A 1.10 1.01 -20.8 0 0 1190.38 347.35&#xA;  Q 1189.08 351.49 1187.76 355.97&#xA;  C 1186.84 359.05 1185.23 361.96 1183.96 364.55&#xA;  A 0.61 0.60 -64.8 0 1 1183.18 364.84&#xA;  L 1172.95 360.41&#xA;  A 0.86 0.86 0.0 0 1 1172.56 359.17&#xA;  Q 1177.64 350.92 1179.77 340.85&#xA;  A 0.83 0.83 0.0 0 1 1180.80 340.22&#xA;  L 1191.71 343.17&#xA;  Z"></path>
<path fill="#ffffff" d="&#xA;  M 1731.72 358.35&#xA;  A 0.20 0.20 0.0 0 0 1731.56 358.01&#xA;  L 1700.95 361.02&#xA;  A 0.73 0.73 0.0 0 1 1700.15 360.36&#xA;  L 1698.67 345.33&#xA;  A 0.30 0.30 0.0 0 1 1698.98 345.00&#xA;  Q 1724.91 345.57 1748.66 341.24&#xA;  A 1.01 1.00 66.2 0 1 1749.62 341.62&#xA;  L 1757.39 351.91&#xA;  A 0.81 0.80 -35.5 0 1 1757.19 353.07&#xA;  C 1752.57 356.14 1748.84 360.06 1742.76 366.26&#xA;  Q 1735.83 373.33 1730.18 378.80&#xA;  A 0.26 0.26 0.0 0 0 1730.43 379.23&#xA;  C 1735.42 377.79 1740.37 376.91 1746.51 377.81&#xA;  Q 1759.03 379.65 1765.70 389.30&#xA;  C 1772.37 398.96 1772.47 411.89 1766.68 422.11&#xA;  C 1760.68 432.70 1749.07 438.80 1736.81 439.89&#xA;  C 1725.84 440.87 1712.47 438.86 1707.23 427.80&#xA;  C 1704.50 422.04 1705.69 415.15 1709.89 410.69&#xA;  C 1718.00 402.09 1735.76 402.98 1742.67 412.51&#xA;  Q 1745.71 416.70 1747.04 421.54&#xA;  A 0.44 0.44 0.0 0 0 1747.71 421.78&#xA;  Q 1756.21 415.90 1755.54 405.60&#xA;  C 1754.86 395.31 1746.78 390.28 1736.95 390.55&#xA;  C 1720.09 391.01 1708.44 402.15 1698.12 414.22&#xA;  A 0.50 0.48 42.7 0 1 1697.40 414.24&#xA;  L 1686.91 403.75&#xA;  A 0.45 0.45 0.0 0 1 1686.92 403.10&#xA;  Q 1709.76 382.26 1731.72 358.35&#xA;  Z&#xA;  M 1734.50 425.42&#xA;  C 1732.45 419.73 1728.56 415.54 1722.37 417.15&#xA;  C 1719.70 417.85 1718.03 421.17 1719.86 423.59&#xA;  C 1722.42 426.97 1729.47 426.99 1733.80 426.54&#xA;  A 0.84 0.84 0.0 0 0 1734.50 425.42&#xA;  Z"></path>
<path fill="#ffffff" d="&#xA;  M 930.34 364.07&#xA;  L 888.10 370.06&#xA;  A 0.99 0.99 0.0 0 1 886.98 369.22&#xA;  L 884.83 354.09&#xA;  A 0.41 0.40 -7.5 0 1 885.19 353.63&#xA;  L 973.48 344.96&#xA;  A 0.48 0.48 0.0 0 1 974.00 345.39&#xA;  L 975.46 360.29&#xA;  A 0.64 0.63 87.1 0 1 974.83 360.99&#xA;  Q 969.62 361.03 965.19 361.40&#xA;  C 954.49 362.30 946.75 367.16 939.58 374.90&#xA;  C 933.14 381.86 929.58 391.38 930.72 400.76&#xA;  C 932.04 411.68 942.18 419.38 952.37 421.64&#xA;  Q 958.79 423.06 965.11 422.92&#xA;  A 0.88 0.87 -81.5 0 1 965.96 424.07&#xA;  L 960.98 439.16&#xA;  A 0.56 0.55 -80.1 0 1 960.44 439.54&#xA;  C 941.10 438.93 921.80 428.94 916.63 409.38&#xA;  C 912.08 392.16 917.88 376.58 930.61 364.64&#xA;  A 0.33 0.33 0.0 0 0 930.34 364.07&#xA;  Z"></path>
<path fill="#029a02" d="&#xA;  M 1400.56 373.37&#xA;  L 1366.38 373.37&#xA;  A 0.42 0.42 0.0 0 1 1366.07 372.66&#xA;  Q 1377.15 360.52 1383.57 345.42&#xA;  A 0.65 0.65 0.0 0 1 1384.78 345.45&#xA;  Q 1390.23 360.30 1400.89 372.64&#xA;  A 0.44 0.44 0.0 0 1 1400.56 373.37&#xA;  Z"></path>
<path fill="#029a02" d="&#xA;  M 288.89 403.11&#xA;  L 288.89 346.63&#xA;  A 1.34 1.34 0.0 0 1 290.23 345.29&#xA;  L 298.09 345.29&#xA;  A 1.34 1.34 0.0 0 1 299.43 346.63&#xA;  L 299.43 391.27&#xA;  A 1.34 1.34 0.0 0 0 300.77 392.61&#xA;  L 320.01 392.61&#xA;  A 1.34 1.34 0.0 0 1 321.35 393.95&#xA;  L 321.35 403.11&#xA;  A 1.34 1.34 0.0 0 1 320.01 404.45&#xA;  L 290.23 404.45&#xA;  A 1.34 1.34 0.0 0 1 288.89 403.11&#xA;  Z"></path>
<rect fill="#029a02" x="330.14" y="345.37" width="10.58" height="59.08" rx="1.40"></rect>
<path fill="#029a02" d="&#xA;  M 375.79 372.23&#xA;  Q 377.49 375.22 380.88 381.19&#xA;  Q 381.06 381.51 381.43 381.51&#xA;  A 0.16 0.15 0.0 0 0 381.59 381.36&#xA;  L 381.59 346.72&#xA;  A 1.42 1.41 -0.0 0 1 383.01 345.31&#xA;  L 391.04 345.31&#xA;  A 1.15 1.15 0.0 0 1 392.19 346.46&#xA;  L 392.19 403.02&#xA;  A 1.40 1.40 0.0 0 1 390.79 404.42&#xA;  L 383.22 404.42&#xA;  A 1.76 1.74 74.7 0 1 381.71 403.55&#xA;  Q 376.44 394.56 372.60 387.84&#xA;  Q 369.60 382.59 366.73 377.54&#xA;  Q 365.04 374.54 361.65 368.58&#xA;  Q 361.47 368.25 361.10 368.25&#xA;  A 0.16 0.15 0.0 0 0 360.94 368.40&#xA;  L 360.94 403.04&#xA;  A 1.42 1.41 0.0 0 1 359.52 404.45&#xA;  L 351.49 404.45&#xA;  A 1.15 1.15 0.0 0 1 350.34 403.30&#xA;  L 350.34 346.74&#xA;  A 1.40 1.40 0.0 0 1 351.74 345.34&#xA;  L 359.31 345.34&#xA;  A 1.76 1.74 74.7 0 1 360.82 346.21&#xA;  Q 366.09 355.20 369.93 361.92&#xA;  Q 372.93 367.18 375.79 372.23&#xA;  Z"></path>
<path fill="#029a02" d="&#xA;  M 433.54 374.84&#xA;  Q 433.54 378.32 433.52 379.39&#xA;  A 1.19 1.19 0.0 0 1 432.33 380.56&#xA;  L 412.98 380.56&#xA;  A 0.60 0.59 90.0 0 0 412.39 381.16&#xA;  L 412.39 391.97&#xA;  A 0.62 0.62 0.0 0 0 413.02 392.59&#xA;  Q 420.95 392.51 431.79 392.75&#xA;  Q 434.23 392.80 434.21 394.94&#xA;  Q 434.18 398.29 434.25 402.89&#xA;  A 1.49 1.48 89.6 0 1 432.77 404.40&#xA;  L 403.05 404.40&#xA;  A 1.36 1.36 0.0 0 1 401.69 403.05&#xA;  Q 401.60 388.58 401.60 374.85&#xA;  Q 401.59 361.11 401.68 346.65&#xA;  A 1.36 1.36 0.0 0 1 403.04 345.30&#xA;  L 432.76 345.29&#xA;  A 1.49 1.48 -89.6 0 1 434.24 346.80&#xA;  Q 434.17 351.40 434.20 354.75&#xA;  Q 434.22 356.89 431.78 356.94&#xA;  Q 420.94 357.18 413.01 357.10&#xA;  A 0.62 0.62 0.0 0 0 412.38 357.72&#xA;  L 412.39 368.53&#xA;  A 0.60 0.59 90.0 0 0 412.98 369.13&#xA;  L 432.33 369.13&#xA;  A 1.19 1.19 0.0 0 1 433.52 370.29&#xA;  Q 433.53 371.37 433.54 374.84&#xA;  Z"></path>
<path fill="#029a02" d="&#xA;  M 1347.26 350.81&#xA;  A 0.21 0.21 0.0 0 1 1347.39 350.44&#xA;  L 1365.81 350.44&#xA;  A 0.53 0.53 0.0 0 1 1366.24 351.27&#xA;  L 1359.08 361.22&#xA;  A 0.54 0.54 0.0 0 1 1358.23 361.26&#xA;  Q 1353.37 355.59 1347.26 350.81&#xA;  Z"></path>
<rect fill="#029a02" x="-12.88" y="-6.79" transform="translate(1078.45,359.51) rotate(0.1)" width="25.76" height="13.58" rx="0.59"></rect>
<rect fill="#ffffff" x="-20.57" y="-6.20" transform="translate(1151.24,359.04) rotate(0.1)" width="41.14" height="12.40" rx="0.55"></rect>
<path fill="#ffffff" d="&#xA;  M 1470.66 389.06&#xA;  A 0.23 0.23 0.0 0 1 1470.32 389.10&#xA;  Q 1461.87 381.66 1451.77 376.00&#xA;  A 0.96 0.96 0.0 0 1 1451.46 374.60&#xA;  L 1458.40 364.95&#xA;  A 0.50 0.50 0.0 0 1 1459.01 364.79&#xA;  Q 1469.57 369.45 1478.08 376.90&#xA;  A 1.21 1.20 -51.5 0 1 1478.26 378.51&#xA;  L 1470.66 389.06&#xA;  Z"></path>
<path fill="#ffffff" d="&#xA;  M 975.46 387.52&#xA;  A 0.84 0.83 -29.3 0 1 974.28 387.19&#xA;  Q 970.19 379.20 963.78 372.69&#xA;  A 0.94 0.93 -38.2 0 1 963.96 371.24&#xA;  L 970.40 367.27&#xA;  A 1.28 1.28 0.0 0 1 972.03 367.52&#xA;  Q 978.03 374.35 982.71 381.76&#xA;  A 1.09 1.09 0.0 0 1 982.36 383.27&#xA;  L 975.46 387.52&#xA;  Z"></path>
<rect fill="#ffffff" x="-16.26" y="-5.87" transform="translate(1151.95,375.38) rotate(-0.3)" width="32.52" height="11.74" rx="0.77"></rect>
<path fill="#ffffff" d="&#xA;  M 963.24 395.09&#xA;  A 0.82 0.82 0.0 0 1 962.10 394.88&#xA;  L 952.96 381.49&#xA;  A 3.27 1.15 55.7 0 1 952.07 378.14&#xA;  L 958.35 373.85&#xA;  A 3.27 1.15 55.7 0 1 961.14 375.91&#xA;  L 970.28 389.30&#xA;  A 0.82 0.82 0.0 0 1 970.06 390.44&#xA;  L 963.24 395.09&#xA;  Z"></path>
<ellipse fill="#ffffff" cx="0.00" cy="0.00" transform="translate(1285.34,388.94) rotate(-89.7)" rx="14.55" ry="13.63"></ellipse>
<rect fill="#029a02" x="-12.88" y="-6.95" transform="translate(1078.43,386.77) rotate(0.2)" width="25.76" height="13.90" rx="0.58"></rect>
<path fill="#ffffff" d="&#xA;  M 1213.39 411.24&#xA;  C 1218.43 420.95 1226.40 426.35 1236.26 430.52&#xA;  A 0.64 0.63 -58.8 0 1 1236.50 431.51&#xA;  Q 1232.69 436.23 1229.72 442.70&#xA;  A 1.20 1.19 -65.2 0 1 1228.13 443.29&#xA;  Q 1217.11 438.12 1210.04 428.97&#xA;  Q 1206.80 424.77 1204.31 419.44&#xA;  A 0.56 0.56 0.0 0 0 1203.27 419.52&#xA;  Q 1202.65 421.55 1201.56 423.30&#xA;  Q 1192.74 437.50 1177.25 443.58&#xA;  A 0.50 0.49 -23.9 0 1 1176.63 443.35&#xA;  C 1174.67 439.60 1172.50 434.74 1169.77 432.36&#xA;  A 0.43 0.43 0.0 0 0 1169.06 432.69&#xA;  L 1169.19 440.25&#xA;  A 0.68 0.68 0.0 0 1 1168.51 440.94&#xA;  L 1158.26 440.94&#xA;  A 0.71 0.71 0.0 0 1 1157.55 440.20&#xA;  L 1157.67 437.70&#xA;  A 0.62 0.61 1.3 0 0 1157.05 437.06&#xA;  L 1147.06 437.06&#xA;  A 0.61 0.60 0.0 0 0 1146.45 437.66&#xA;  L 1146.45 441.83&#xA;  A 0.81 0.81 0.0 0 1 1145.64 442.64&#xA;  L 1135.50 442.64&#xA;  A 1.15 1.15 0.0 0 1 1134.35 441.49&#xA;  L 1134.35 402.87&#xA;  A 0.72 0.72 0.0 0 1 1135.07 402.15&#xA;  L 1168.73 402.15&#xA;  A 0.42 0.41 -0.0 0 1 1169.15 402.56&#xA;  L 1169.15 430.27&#xA;  A 0.52 0.51 82.3 0 0 1169.80 430.77&#xA;  Q 1188.79 425.58 1194.25 407.98&#xA;  Q 1195.79 403.02 1196.02 396.06&#xA;  Q 1196.23 389.63 1196.11 383.89&#xA;  A 0.61 0.61 0.0 0 1 1196.75 383.27&#xA;  L 1209.66 383.88&#xA;  A 1.49 1.49 0.0 0 1 1211.06 385.59&#xA;  Q 1210.80 387.24 1209.97 388.58&#xA;  A 2.44 2.38 60.9 0 0 1209.62 389.87&#xA;  C 1209.86 398.58 1209.58 403.19 1212.34 409.22&#xA;  A 0.53 0.53 0.0 0 0 1213.24 409.33&#xA;  C 1217.30 404.11 1219.63 398.19 1221.84 391.76&#xA;  A 0.72 0.71 -72.5 0 1 1222.71 391.30&#xA;  Q 1229.09 393.14 1234.54 396.43&#xA;  A 1.30 1.30 0.0 0 1 1234.64 398.59&#xA;  C 1233.12 399.71 1232.10 400.63 1231.27 402.51&#xA;  Q 1228.46 408.83 1223.92 415.51&#xA;  A 0.67 0.66 -59.4 0 1 1223.08 415.73&#xA;  L 1213.56 411.06&#xA;  A 0.13 0.13 0.0 0 0 1213.39 411.24&#xA;  Z&#xA;  M 1157.1788 414.7793&#xA;  A 0.68 0.68 0.0 0 0 1156.5000 414.0981&#xA;  L 1147.1800 414.0819&#xA;  A 0.68 0.68 0.0 0 0 1146.4989 414.7607&#xA;  L 1146.4812 424.9007&#xA;  A 0.68 0.68 0.0 0 0 1147.1600 425.5819&#xA;  L 1156.4800 425.5981&#xA;  A 0.68 0.68 0.0 0 0 1157.1611 424.9193&#xA;  L 1157.1788 414.7793&#xA;  Z"></path>
<rect fill="#ffffff" x="1135.62" y="385.59" width="32.66" height="11.90" rx="0.76"></rect>
<rect fill="#029a02" x="1376.51" y="386.36" width="11.68" height="11.68" rx="0.55"></rect>
<ellipse fill="#029a02" cx="0.00" cy="0.00" transform="translate(1616.33,394.45) rotate(-87.9)" rx="8.45" ry="6.93"></ellipse>
<path fill="#ffffff" d="&#xA;  M 1179.34 392.66&#xA;  A 0.80 0.80 0.0 0 1 1180.33 392.08&#xA;  L 1190.62 394.86&#xA;  A 1.87 1.87 0.0 0 1 1191.46 397.98&#xA;  C 1190.17 399.29 1189.58 400.00 1189.14 401.86&#xA;  Q 1187.19 410.01 1182.09 417.53&#xA;  A 0.69 0.69 0.0 0 1 1181.22 417.76&#xA;  L 1171.93 413.19&#xA;  A 1.45 1.44 -60.7 0 1 1171.35 411.11&#xA;  Q 1176.87 402.50 1179.34 392.66&#xA;  Z"></path>
<path fill="#ffffff" d="&#xA;  M 1466.14 442.37&#xA;  A 0.69 0.69 0.0 0 1 1465.08 442.59&#xA;  L 1453.91 433.33&#xA;  A 0.62 0.62 0.0 0 1 1453.78 432.52&#xA;  Q 1464.39 415.63 1472.98 396.25&#xA;  A 0.77 0.77 0.0 0 1 1474.20 395.99&#xA;  L 1484.03 404.88&#xA;  A 0.63 0.62 34.6 0 1 1484.17 405.62&#xA;  L 1466.14 442.37&#xA;  Z"></path>
<rect fill="#029a02" x="-12.90" y="-7.42" transform="translate(1078.43,414.81) rotate(0.2)" width="25.80" height="14.84" rx="0.60"></rect>
<rect fill="#029a02" x="-5.34" y="-5.75" transform="translate(1151.83,419.84) rotate(0.1)" width="10.68" height="11.50" rx="0.68"></rect>
<path fill="#029a02" d="&#xA;  M 1733.80 426.54&#xA;  C 1729.47 426.99 1722.42 426.97 1719.86 423.59&#xA;  C 1718.03 421.17 1719.70 417.85 1722.37 417.15&#xA;  C 1728.56 415.54 1732.45 419.73 1734.50 425.42&#xA;  A 0.84 0.84 0.0 0 1 1733.80 426.54&#xA;  Z"></path>
</svg>