<?xml version="1.0" encoding="UTF-8" standalone="no"?>

<svg xmlns="http://www.w3.org/2000/svg" version="1.1" viewBox="0.00 0.00 1147.00 1372.00">
<path stroke="#b998fe" stroke-width="2.00" fill="none" stroke-linecap="butt" vector-effect="non-scaling-stroke" d="&#xA;  M 311.67 164.94&#xA;  C 307.55 167.68 301.23 172.41 298.28 174.35&#xA;  C 292.71 178.03 285.48 184.42 281.06 187.72&#xA;  C 275.77 191.66 272.35 195.11 266.90 200.00&#xA;  C 220.44 241.70 187.41 294.35 169.38 354.35&#xA;  Q 159.02 388.83 155.92 423.51&#xA;  Q 153.04 455.60 154.85 485.00&#xA;  Q 156.78 516.48 164.66 547.07&#xA;  Q 174.92 586.86 192.61 622.18&#xA;  C 197.74 632.42 202.98 642.31 207.64 649.91&#xA;  C 213.23 659.05 216.44 664.93 221.33 672.24&#xA;  C 253.34 720.15 291.03 761.80 333.07 802.97&#xA;  C 360.18 829.53 387.03 854.79 411.06 879.49&#xA;  C 437.63 906.79 462.74 935.27 484.44 966.27&#xA;  Q 500.81 989.64 506.97 999.77&#xA;  Q 528.80 1035.67 542.23 1057.55&#xA;  C 554.20 1077.07 566.57 1094.86 580.66 1110.85&#xA;  Q 602.38 1135.49 629.97 1154.02&#xA;  C 672.08 1182.30 720.97 1194.89 771.44 1186.86&#xA;  Q 816.11 1179.76 852.33 1152.17&#xA;  Q 872.85 1136.54 888.88 1115.08&#xA;  C 921.00 1072.09 936.17 1017.65 938.73 964.16&#xA;  Q 942.06 894.65 922.27 827.66&#xA;  C 912.31 793.94 898.45 762.85 880.07 734.12&#xA;  Q 872.49 722.27 868.11 716.63&#xA;  C 860.06 706.25 854.61 698.81 846.80 690.22&#xA;  Q 842.60 685.59 828.06 668.95&#xA;  Q 817.31 656.64 808.76 644.26&#xA;  C 786.72 612.30 773.64 574.65 772.30 535.84&#xA;  Q 771.76 520.14 772.84 507.00&#xA;  Q 774.82 482.86 781.47 456.69&#xA;  C 787.89 431.41 795.33 406.95 800.60 381.93&#xA;  C 813.55 320.49 805.87 252.56 772.13 199.15&#xA;  Q 751.76 166.91 720.82 144.69&#xA;  C 697.09 127.65 669.06 115.44 640.81 107.96&#xA;  Q 608.54 99.41 576.00 96.99&#xA;  Q 558.62 95.69 549.00 95.59&#xA;  Q 468.47 94.73 393.18 123.19&#xA;  Q 349.81 139.59 311.67 164.94"></path>
<path fill="#7231fc" d="&#xA;  M 298.28 174.35&#xA;  C 301.23 172.41 307.55 167.68 311.67 164.94&#xA;  Q 349.81 139.59 393.18 123.19&#xA;  Q 468.47 94.73 549.00 95.59&#xA;  Q 558.62 95.69 576.00 96.99&#xA;  Q 608.54 99.41 640.81 107.96&#xA;  C 669.06 115.44 697.09 127.65 720.82 144.69&#xA;  Q 751.76 166.91 772.13 199.15&#xA;  C 805.87 252.56 813.55 320.49 800.60 381.93&#xA;  C 795.33 406.95 787.89 431.41 781.47 456.69&#xA;  Q 774.82 482.86 772.84 507.00&#xA;  Q 771.76 520.14 772.30 535.84&#xA;  C 773.64 574.65 786.72 612.30 808.76 644.26&#xA;  Q 817.31 656.64 828.06 668.95&#xA;  Q 842.60 685.59 846.80 690.22&#xA;  C 854.61 698.81 860.06 706.25 868.11 716.63&#xA;  Q 872.49 722.27 880.07 734.12&#xA;  C 898.45 762.85 912.31 793.94 922.27 827.66&#xA;  Q 942.06 894.65 938.73 964.16&#xA;  C 936.17 1017.65 921.00 1072.09 888.88 1115.08&#xA;  Q 872.85 1136.54 852.33 1152.17&#xA;  Q 816.11 1179.76 771.44 1186.86&#xA;  C 720.97 1194.89 672.08 1182.30 629.97 1154.02&#xA;  Q 602.38 1135.49 580.66 1110.85&#xA;  C 566.57 1094.86 554.20 1077.07 542.23 1057.55&#xA;  Q 528.80 1035.67 506.97 999.77&#xA;  Q 500.81 989.64 484.44 966.27&#xA;  C 462.74 935.27 437.63 906.79 411.06 879.49&#xA;  C 387.03 854.79 360.18 829.53 333.07 802.97&#xA;  C 291.03 761.80 253.34 720.15 221.33 672.24&#xA;  C 216.44 664.93 213.23 659.05 207.64 649.91&#xA;  C 202.98 642.31 197.74 632.42 192.61 622.18&#xA;  Q 174.92 586.86 164.66 547.07&#xA;  Q 156.78 516.48 154.85 485.00&#xA;  Q 153.04 455.60 155.92 423.51&#xA;  Q 159.02 388.83 169.38 354.35&#xA;  C 187.41 294.35 220.44 241.70 266.90 200.00&#xA;  C 272.35 195.11 275.77 191.66 281.06 187.72&#xA;  C 285.48 184.42 292.71 178.03 298.28 174.35&#xA;  Z"></path>
</svg>