<?xml version="1.0" encoding="UTF-8" standalone="no"?>

<svg xmlns="http://www.w3.org/2000/svg" version="1.1" viewBox="0.00 0.00 1889.00 832.00">
<g stroke-width="2.00" fill="none" stroke-linecap="butt">
<path stroke="#e8f581" vector-effect="non-scaling-stroke" d="&#xA;  M 944.29 605.89&#xA;  Q 1398.21 605.88 1403.73 605.88&#xA;  Q 1434.87 605.85 1446.72 604.48&#xA;  C 1534.29 594.34 1605.97 528.39 1620.46 441.16&#xA;  Q 1627.39 399.45 1619.28 357.49&#xA;  Q 1605.87 288.08 1552.01 243.21&#xA;  C 1522.07 218.27 1485.71 203.18 1447.20 198.28&#xA;  Q 1434.95 196.72 1402.75 196.77&#xA;  Q 1399.61 196.78 944.28 196.79&#xA;  Q 488.95 196.80 485.81 196.80&#xA;  Q 453.61 196.75 441.36 198.31&#xA;  C 402.85 203.21 366.49 218.30 336.55 243.24&#xA;  Q 282.69 288.11 269.28 357.52&#xA;  Q 261.18 399.49 268.11 441.19&#xA;  C 282.60 528.42 354.29 594.37 441.86 604.51&#xA;  Q 453.71 605.88 484.84 605.90&#xA;  Q 490.36 605.90 944.29 605.89"></path>
<path stroke="#687602" vector-effect="non-scaling-stroke" d="&#xA;  M 515.36 493.99&#xA;  C 514.27 498.29 518.61 500.19 522.27 499.20&#xA;  Q 526.63 498.02 535.05 493.79&#xA;  Q 564.72 478.88 589.27 456.33&#xA;  C 602.79 443.91 615.18 427.66 620.53 409.65&#xA;  Q 626.96 388.06 621.63 366.71&#xA;  C 615.21 341.02 595.69 319.42 572.01 307.99&#xA;  C 549.37 297.07 522.91 294.48 497.87 301.23&#xA;  Q 488.60 303.73 483.97 305.73&#xA;  C 463.97 314.34 445.25 329.52 435.22 348.88&#xA;  Q 429.98 358.99 427.88 367.37&#xA;  C 422.97 386.89 425.65 408.60 436.52 426.04&#xA;  Q 442.43 435.54 447.79 440.72&#xA;  C 454.04 446.76 463.72 454.33 472.65 458.22&#xA;  C 482.88 462.68 493.73 466.44 504.44 467.61&#xA;  C 510.55 468.27 519.78 467.60 518.77 476.81&#xA;  Q 518.05 483.45 515.36 493.99"></path>
<path stroke="#687602" vector-effect="non-scaling-stroke" d="&#xA;  M 1107.92 412.63&#xA;  A 0.36 0.35 -31.5 0 1 1108.59 412.79&#xA;  L 1108.59 452.01&#xA;  A 0.92 0.91 -90.0 0 0 1109.50 452.93&#xA;  L 1119.54 452.93&#xA;  A 0.74 0.74 0.0 0 0 1120.28 452.19&#xA;  L 1120.28 409.07&#xA;  A 0.25 0.25 0.0 0 1 1120.75 408.96&#xA;  L 1126.96 420.73&#xA;  A 0.75 0.75 0.0 0 0 1128.22 420.83&#xA;  L 1134.31 412.76&#xA;  A 1.23 1.22 -45.9 0 0 1134.29 411.26&#xA;  L 1120.69 394.05&#xA;  A 1.64 1.60 -64.7 0 1 1120.34 393.04&#xA;  L 1120.34 388.40&#xA;  A 0.60 0.60 0.0 0 1 1120.94 387.80&#xA;  L 1132.66 387.80&#xA;  A 0.81 0.81 0.0 0 0 1133.47 386.99&#xA;  L 1133.47 377.06&#xA;  A 0.89 0.89 0.0 0 0 1132.58 376.17&#xA;  L 1120.82 376.17&#xA;  A 0.58 0.58 0.0 0 1 1120.24 375.59&#xA;  L 1120.24 356.67&#xA;  A 0.82 0.81 90.0 0 0 1119.43 355.85&#xA;  L 1109.01 355.85&#xA;  A 0.47 0.47 0.0 0 0 1108.54 356.32&#xA;  L 1108.54 375.40&#xA;  A 0.97 0.97 0.0 0 1 1107.57 376.37&#xA;  L 1094.39 376.37&#xA;  A 0.58 0.58 0.0 0 0 1093.81 376.95&#xA;  L 1093.81 386.99&#xA;  A 0.70 0.69 90.0 0 0 1094.50 387.69&#xA;  L 1106.70 387.69&#xA;  A 0.38 0.38 0.0 0 1 1107.07 388.16&#xA;  Q 1102.01 407.24 1091.37 423.00&#xA;  A 0.82 0.80 48.9 0 0 1091.32 423.84&#xA;  L 1096.28 433.25&#xA;  A 0.57 0.57 0.0 0 0 1097.26 433.30&#xA;  Q 1099.28 430.28 1102.45 424.62&#xA;  C 1104.69 420.63 1106.16 416.02 1107.92 412.63"></path>
<path stroke="#687602" vector-effect="non-scaling-stroke" d="&#xA;  M 1292.00 394.82&#xA;  A 0.36 0.35 -55.7 0 0 1291.91 394.31&#xA;  Q 1284.23 389.41 1274.95 383.02&#xA;  C 1272.39 381.25 1269.29 379.83 1266.76 378.63&#xA;  A 0.65 0.64 19.9 0 1 1266.41 377.90&#xA;  Q 1267.80 372.03 1268.35 363.50&#xA;  Q 1268.74 357.54 1269.05 356.50&#xA;  A 0.54 0.54 0.0 0 0 1268.54 355.80&#xA;  L 1257.96 355.80&#xA;  A 0.57 0.56 -89.5 0 0 1257.40 356.36&#xA;  Q 1257.32 364.41 1255.33 373.82&#xA;  C 1253.04 384.64 1244.00 391.56 1233.89 394.81&#xA;  A 0.55 0.55 0.0 0 0 1233.63 395.67&#xA;  L 1240.43 404.26&#xA;  A 0.70 0.70 0.0 0 0 1241.29 404.46&#xA;  C 1250.52 400.07 1256.61 396.14 1262.03 388.13&#xA;  A 0.55 0.54 35.8 0 1 1262.81 388.01&#xA;  L 1284.11 404.08&#xA;  A 0.73 0.72 -52.6 0 0 1285.12 403.94&#xA;  L 1292.00 394.82"></path>
<path stroke="#687602" vector-effect="non-scaling-stroke" d="&#xA;  M 1229.6774 359.4706&#xA;  A 0.71 0.71 0.0 0 0 1228.9724 358.7557&#xA;  L 1201.5931 358.5645&#xA;  A 0.71 0.71 0.0 0 0 1200.8781 359.2696&#xA;  L 1200.8226 367.2294&#xA;  A 0.71 0.71 0.0 0 0 1201.5276 367.9443&#xA;  L 1228.9069 368.1355&#xA;  A 0.71 0.71 0.0 0 0 1229.6219 367.4304&#xA;  L 1229.6774 359.4706"></path>
<path stroke="#687602" vector-effect="non-scaling-stroke" d="&#xA;  M 1304.28 385.34&#xA;  Q 1304.31 385.33 1312.60 384.67&#xA;  C 1320.17 384.07 1328.22 384.40 1335.23 383.66&#xA;  Q 1336.40 383.54 1348.11 383.59&#xA;  A 0.72 0.71 -90.0 0 1 1348.82 384.31&#xA;  L 1348.82 390.02&#xA;  A 0.58 0.58 0.0 0 1 1348.17 390.60&#xA;  Q 1337.82 389.30 1330.09 395.54&#xA;  Q 1326.93 398.10 1325.87 400.40&#xA;  C 1322.07 408.68 1322.85 418.45 1330.18 424.59&#xA;  Q 1337.33 430.59 1346.23 428.66&#xA;  A 0.33 0.33 0.0 0 1 1346.53 429.21&#xA;  Q 1336.82 438.73 1322.74 440.81&#xA;  A 0.54 0.54 0.0 0 0 1322.43 441.72&#xA;  L 1332.17 451.46&#xA;  A 1.25 1.23 58.9 0 0 1333.38 451.77&#xA;  C 1345.01 448.39 1356.46 441.17 1361.62 429.88&#xA;  Q 1368.48 414.88 1361.58 399.01&#xA;  A 1.40 1.37 -56.6 0 1 1361.46 398.40&#xA;  L 1361.61 384.13&#xA;  A 0.63 0.63 0.0 0 1 1362.21 383.50&#xA;  C 1371.25 382.92 1378.22 383.66 1390.16 384.37&#xA;  A 1.03 1.03 0.0 0 0 1391.26 383.34&#xA;  L 1391.26 372.38&#xA;  A 0.51 0.50 0.0 0 0 1390.75 371.88&#xA;  L 1362.31 371.88&#xA;  A 0.69 0.69 0.0 0 1 1361.62 371.24&#xA;  Q 1361.13 365.01 1362.14 360.54&#xA;  A 0.85 0.84 -83.7 0 0 1361.32 359.51&#xA;  L 1347.17 359.51&#xA;  A 0.34 0.34 0.0 0 0 1346.85 359.95&#xA;  Q 1348.38 365.14 1347.97 371.70&#xA;  A 0.47 0.47 0.0 0 1 1347.50 372.14&#xA;  L 1304.48 372.14&#xA;  A 0.80 0.80 0.0 0 0 1303.68 372.94&#xA;  L 1303.66 384.89&#xA;  A 0.47 0.47 0.0 0 0 1304.28 385.34"></path>
<path stroke="#687602" vector-effect="non-scaling-stroke" d="&#xA;  M 1172.58 446.24&#xA;  A 0.62 0.62 0.0 0 1 1173.20 446.86&#xA;  L 1173.20 451.00&#xA;  A 0.62 0.62 0.0 0 0 1173.82 451.62&#xA;  L 1184.69 451.62&#xA;  A 0.62 0.62 0.0 0 0 1185.31 451.00&#xA;  L 1185.31 361.23&#xA;  A 0.62 0.62 0.0 0 0 1184.69 360.61&#xA;  L 1137.48 360.61&#xA;  A 0.62 0.62 0.0 0 0 1136.86 361.23&#xA;  L 1136.86 451.73&#xA;  A 0.62 0.62 0.0 0 0 1137.48 452.35&#xA;  L 1147.80 452.35&#xA;  A 0.62 0.62 0.0 0 0 1148.42 451.73&#xA;  L 1148.42 446.86&#xA;  A 0.62 0.62 0.0 0 1 1149.04 446.24&#xA;  L 1172.58 446.24"></path>
<path stroke="#687602" vector-effect="non-scaling-stroke" d="&#xA;  M 1290.88 363.44&#xA;  L 1280.34 360.70&#xA;  A 0.55 0.54 -71.5 0 0 1279.69 361.03&#xA;  C 1276.85 368.42 1275.64 371.84 1272.09 377.52&#xA;  A 0.85 0.85 0.0 0 0 1272.46 378.74&#xA;  L 1280.01 382.12&#xA;  A 1.08 1.07 -62.6 0 0 1281.38 381.68&#xA;  L 1291.31 364.47&#xA;  A 0.70 0.70 0.0 0 0 1290.88 363.44"></path>
<path stroke="#687602" vector-effect="non-scaling-stroke" d="&#xA;  M 739.75 433.89&#xA;  A 0.46 0.46 0.0 0 1 739.29 433.43&#xA;  L 739.29 361.31&#xA;  A 0.46 0.46 0.0 0 0 738.83 360.85&#xA;  L 723.34 360.85&#xA;  A 0.46 0.46 0.0 0 0 722.88 361.31&#xA;  L 722.88 447.79&#xA;  A 0.46 0.46 0.0 0 0 723.34 448.25&#xA;  L 777.88 448.25&#xA;  A 0.46 0.46 0.0 0 0 778.34 447.79&#xA;  L 778.34 434.35&#xA;  A 0.46 0.46 0.0 0 0 777.88 433.89&#xA;  L 739.75 433.89"></path>
<path stroke="#687602" vector-effect="non-scaling-stroke" d="&#xA;  M 809.06 361.60&#xA;  A 0.89 0.89 0.0 0 0 808.17 360.71&#xA;  L 793.17 360.71&#xA;  A 0.89 0.89 0.0 0 0 792.28 361.60&#xA;  L 792.28 447.30&#xA;  A 0.89 0.89 0.0 0 0 793.17 448.19&#xA;  L 808.17 448.19&#xA;  A 0.89 0.89 0.0 0 0 809.06 447.30&#xA;  L 809.06 361.60"></path>
<path stroke="#687602" vector-effect="non-scaling-stroke" d="&#xA;  M 844.08 389.25&#xA;  Q 844.44 388.46 845.18 389.57&#xA;  Q 853.75 402.34 859.85 411.73&#xA;  Q 861.28 413.93 863.11 416.32&#xA;  C 866.60 420.86 869.53 426.33 872.62 430.44&#xA;  C 877.70 437.22 879.14 439.87 884.00 447.53&#xA;  A 1.33 1.32 -16.1 0 0 885.12 448.14&#xA;  L 898.61 448.14&#xA;  A 0.70 0.70 0.0 0 0 899.31 447.44&#xA;  L 899.31 361.40&#xA;  A 0.59 0.59 0.0 0 0 898.72 360.81&#xA;  L 883.63 360.81&#xA;  A 0.52 0.51 90.0 0 0 883.12 361.33&#xA;  L 883.12 418.34&#xA;  A 0.61 0.61 0.0 0 1 882.00 418.68&#xA;  Q 871.37 402.83 866.99 396.94&#xA;  Q 863.86 392.72 860.34 386.96&#xA;  C 856.72 381.04 852.06 375.33 848.39 369.09&#xA;  Q 847.39 367.40 843.16 361.06&#xA;  A 0.79 0.77 -17.1 0 0 842.52 360.73&#xA;  L 828.49 360.73&#xA;  A 0.67 0.66 -0.0 0 0 827.82 361.39&#xA;  L 827.82 447.58&#xA;  A 0.61 0.60 0.0 0 0 828.43 448.18&#xA;  L 843.20 448.18&#xA;  A 0.59 0.59 0.0 0 0 843.79 447.59&#xA;  L 844.06 389.36&#xA;  A 0.32 0.24 63.4 0 1 844.08 389.25"></path>
<path stroke="#687602" vector-effect="non-scaling-stroke" d="&#xA;  M 973.44 374.89&#xA;  A 0.75 0.75 0.0 0 0 974.19 374.14&#xA;  L 974.19 361.50&#xA;  A 0.75 0.75 0.0 0 0 973.44 360.75&#xA;  L 918.57 360.75&#xA;  A 0.75 0.75 0.0 0 0 917.82 361.50&#xA;  L 917.82 447.50&#xA;  A 0.75 0.75 0.0 0 0 918.57 448.25&#xA;  L 973.83 448.25&#xA;  A 0.75 0.75 0.0 0 0 974.58 447.50&#xA;  L 974.58 434.70&#xA;  A 0.75 0.75 0.0 0 0 973.83 433.95&#xA;  L 934.86 433.95&#xA;  A 0.75 0.75 0.0 0 1 934.11 433.20&#xA;  L 934.11 411.31&#xA;  A 0.75 0.75 0.0 0 1 934.86 410.56&#xA;  L 970.48 410.56&#xA;  A 0.75 0.75 0.0 0 0 971.23 409.81&#xA;  L 971.23 397.34&#xA;  A 0.75 0.75 0.0 0 0 970.48 396.59&#xA;  L 934.77 396.59&#xA;  A 0.75 0.75 0.0 0 1 934.02 395.84&#xA;  L 934.02 375.64&#xA;  A 0.75 0.75 0.0 0 1 934.77 374.89&#xA;  L 973.44 374.89"></path>
<path stroke="#687602" vector-effect="non-scaling-stroke" d="&#xA;  M 1233.52 376.96&#xA;  L 1233.52 373.38&#xA;  A 0.86 0.85 0.0 0 0 1232.66 372.53&#xA;  L 1195.80 372.53&#xA;  A 0.29 0.28 -0.0 0 0 1195.51 372.81&#xA;  L 1195.51 382.20&#xA;  A 0.34 0.34 0.0 0 0 1195.84 382.54&#xA;  Q 1213.95 383.37 1232.64 382.43&#xA;  A 0.91 0.90 6.0 0 0 1233.48 381.76&#xA;  Q 1233.62 381.25 1233.41 380.21&#xA;  A 0.64 0.63 4.5 0 1 1234.26 379.49&#xA;  L 1242.99 382.78&#xA;  A 1.01 1.00 24.1 0 0 1244.24 382.31&#xA;  Q 1247.78 375.56 1249.44 370.23&#xA;  Q 1251.13 364.81 1251.60 363.67&#xA;  A 0.37 0.37 0.0 0 0 1251.35 363.17&#xA;  L 1242.45 360.85&#xA;  A 1.00 1.00 0.0 0 0 1241.22 361.60&#xA;  Q 1239.34 370.13 1234.50 377.26&#xA;  A 0.54 0.54 0.0 0 1 1233.52 376.96"></path>
<path stroke="#687602" vector-effect="non-scaling-stroke" d="&#xA;  M 1439.61 394.48&#xA;  A 0.21 0.21 0.0 0 1 1439.46 394.11&#xA;  C 1446.24 388.07 1451.56 384.10 1458.03 378.47&#xA;  Q 1461.54 375.41 1467.09 372.00&#xA;  A 0.72 0.72 0.0 0 0 1467.32 370.99&#xA;  L 1462.10 363.17&#xA;  A 1.23 1.23 0.0 0 0 1460.97 362.62&#xA;  Q 1441.27 364.39 1418.50 364.45&#xA;  Q 1414.75 364.46 1411.60 363.67&#xA;  A 0.52 0.52 0.0 0 0 1410.96 364.21&#xA;  L 1411.86 376.44&#xA;  A 0.66 0.66 0.0 0 0 1412.67 377.03&#xA;  Q 1417.37 375.93 1422.29 376.00&#xA;  C 1429.40 376.10 1436.66 375.67 1443.42 375.22&#xA;  A 0.22 0.22 0.0 0 1 1443.59 375.60&#xA;  Q 1433.57 385.28 1427.02 390.66&#xA;  Q 1424.25 392.93 1421.65 395.54&#xA;  C 1417.80 399.41 1413.26 402.67 1409.28 406.15&#xA;  Q 1408.69 406.66 1398.60 415.50&#xA;  A 0.43 0.43 0.0 0 0 1398.58 416.14&#xA;  L 1407.15 424.72&#xA;  A 0.55 0.54 42.6 0 0 1407.95 424.69&#xA;  Q 1411.04 421.05 1417.15 415.61&#xA;  Q 1423.02 410.37 1427.47 408.30&#xA;  C 1435.51 404.54 1443.08 402.78 1451.94 404.85&#xA;  C 1461.93 407.19 1468.60 415.18 1465.49 425.82&#xA;  C 1464.32 429.79 1461.81 432.29 1458.30 434.13&#xA;  A 0.93 0.93 0.0 0 1 1456.96 433.51&#xA;  Q 1454.20 421.15 1442.65 417.94&#xA;  C 1434.20 415.58 1423.94 417.19 1419.32 425.29&#xA;  Q 1413.89 434.82 1421.16 442.86&#xA;  Q 1425.69 447.87 1432.35 449.13&#xA;  Q 1444.35 451.40 1455.25 448.94&#xA;  Q 1458.19 448.27 1463.20 445.93&#xA;  C 1477.18 439.40 1482.48 423.28 1476.43 409.24&#xA;  C 1471.11 396.87 1454.57 392.59 1442.43 394.19&#xA;  Q 1440.67 394.42 1439.61 394.48"></path>
<path stroke="#687602" vector-effect="non-scaling-stroke" d="&#xA;  M 1037.22 381.04&#xA;  A 0.25 0.25 0.0 0 1 1037.42 381.46&#xA;  C 1027.23 391.64 1021.62 406.37 1024.82 420.74&#xA;  Q 1026.12 426.59 1028.61 430.45&#xA;  C 1033.59 438.16 1042.40 444.41 1051.25 446.74&#xA;  Q 1057.85 448.49 1064.98 449.26&#xA;  A 0.72 0.71 13.0 0 0 1065.73 448.80&#xA;  L 1070.73 435.54&#xA;  A 0.69 0.69 0.0 0 0 1070.11 434.60&#xA;  C 1059.47 434.34 1045.91 431.86 1040.30 421.38&#xA;  Q 1036.73 414.71 1037.54 408.07&#xA;  Q 1039.79 389.45 1057.35 380.83&#xA;  A 10.27 10.13 -62.2 0 1 1060.22 379.92&#xA;  Q 1069.05 378.53 1077.99 379.44&#xA;  A 0.75 0.75 0.0 0 0 1078.82 378.69&#xA;  L 1078.82 366.32&#xA;  A 0.52 0.52 0.0 0 0 1078.27 365.80&#xA;  C 1066.65 366.30 1057.40 366.75 1046.09 367.94&#xA;  Q 1028.53 369.78 1004.89 372.12&#xA;  C 1001.81 372.43 998.58 372.43 995.36 372.40&#xA;  A 0.52 0.52 0.0 0 0 994.84 372.96&#xA;  L 995.81 386.30&#xA;  A 0.55 0.55 0.0 0 0 996.49 386.79&#xA;  Q 1001.19 385.62 1008.59 384.67&#xA;  Q 1033.96 381.40 1037.22 381.04"></path>
<path stroke="#687602" vector-effect="non-scaling-stroke" d="&#xA;  M 1068.79 388.27&#xA;  A 0.32 0.31 -30.3 0 0 1068.66 388.75&#xA;  Q 1073.17 394.59 1076.24 401.82&#xA;  A 0.93 0.93 0.0 0 0 1077.52 402.28&#xA;  L 1084.22 398.75&#xA;  A 0.68 0.68 0.0 0 0 1084.46 397.77&#xA;  L 1076.34 385.57&#xA;  A 0.58 0.58 0.0 0 0 1075.63 385.36&#xA;  L 1068.79 388.27"></path>
<path stroke="#687602" vector-effect="non-scaling-stroke" d="&#xA;  M 1230.1498 388.0784&#xA;  A 1.01 1.01 0.0 0 0 1229.1451 387.0631&#xA;  L 1201.2455 386.9170&#xA;  A 1.01 1.01 0.0 0 0 1200.2302 387.9217&#xA;  L 1200.1902 395.5616&#xA;  A 1.01 1.01 0.0 0 0 1201.1949 396.5769&#xA;  L 1229.0945 396.7230&#xA;  A 1.01 1.01 0.0 0 0 1230.1098 395.7183&#xA;  L 1230.1498 388.0784"></path>
<path stroke="#687602" vector-effect="non-scaling-stroke" d="&#xA;  M 1065.75 407.38&#xA;  L 1071.38 404.22&#xA;  A 1.02 1.02 0.0 0 0 1071.77 402.83&#xA;  L 1064.98 390.73&#xA;  A 1.50 0.67 60.7 0 0 1063.66 389.75&#xA;  L 1057.42 393.25&#xA;  A 1.50 0.67 60.7 0 0 1057.56 394.89&#xA;  L 1064.36 406.99&#xA;  A 1.02 1.02 0.0 0 0 1065.75 407.38"></path>
<path stroke="#687602" vector-effect="non-scaling-stroke" d="&#xA;  M 1262.94 431.50&#xA;  A 0.47 0.47 0.0 0 1 1263.82 431.48&#xA;  Q 1270.17 447.11 1285.69 453.20&#xA;  A 0.91 0.90 -64.3 0 0 1286.79 452.81&#xA;  L 1292.65 442.66&#xA;  A 0.22 0.22 0.0 0 0 1292.52 442.34&#xA;  Q 1278.96 438.20 1272.48 425.48&#xA;  A 0.56 0.56 0.0 0 1 1273.21 424.72&#xA;  L 1280.53 428.00&#xA;  A 1.16 1.16 0.0 0 0 1282.00 427.52&#xA;  L 1291.76 410.62&#xA;  A 0.19 0.19 0.0 0 0 1291.66 410.35&#xA;  L 1281.68 406.59&#xA;  A 1.20 1.20 0.0 0 0 1280.16 407.22&#xA;  L 1272.97 423.25&#xA;  A 0.89 0.89 0.0 0 1 1271.35 423.24&#xA;  Q 1270.37 421.00 1269.97 418.27&#xA;  Q 1268.74 409.71 1268.68 399.63&#xA;  A 0.54 0.53 89.4 0 0 1268.15 399.10&#xA;  L 1257.21 399.10&#xA;  A 0.56 0.55 89.5 0 0 1256.66 399.67&#xA;  Q 1256.83 410.94 1256.39 415.73&#xA;  C 1255.08 429.89 1245.48 438.70 1232.38 442.94&#xA;  A 0.69 0.69 0.0 0 0 1232.02 443.98&#xA;  L 1238.02 453.00&#xA;  A 0.65 0.64 62.9 0 0 1238.76 453.24&#xA;  C 1248.38 449.81 1259.36 441.32 1262.94 431.50"></path>
<path stroke="#687602" vector-effect="non-scaling-stroke" d="&#xA;  M 1229.9770 402.2479&#xA;  A 0.91 0.91 0.0 0 0 1229.0638 401.3411&#xA;  L 1201.0040 401.4390&#xA;  A 0.91 0.91 0.0 0 0 1200.0972 402.3522&#xA;  L 1200.1230 409.7521&#xA;  A 0.91 0.91 0.0 0 0 1201.0362 410.6589&#xA;  L 1229.0960 410.5610&#xA;  A 0.91 0.91 0.0 0 0 1230.0028 409.6478&#xA;  L 1229.9770 402.2479"></path>
<path stroke="#687602" vector-effect="non-scaling-stroke" d="&#xA;  M 1251.28 410.37&#xA;  A 0.25 0.25 0.0 0 0 1251.12 410.01&#xA;  L 1241.47 407.50&#xA;  A 1.20 1.20 0.0 0 0 1239.98 408.43&#xA;  Q 1238.04 418.22 1232.54 425.32&#xA;  A 0.86 0.85 29.1 0 0 1232.92 426.64&#xA;  L 1241.85 430.00&#xA;  A 0.79 0.79 0.0 0 0 1242.83 429.62&#xA;  L 1248.62 417.89&#xA;  A 4.42 4.11 66.9 0 0 1248.93 417.03&#xA;  Q 1249.82 413.12 1251.28 410.37"></path>
<path stroke="#687602" vector-effect="non-scaling-stroke" d="&#xA;  M 1230.03 447.47&#xA;  A 0.53 0.53 0.0 0 0 1230.56 446.94&#xA;  L 1230.56 416.19&#xA;  A 0.53 0.53 0.0 0 0 1230.03 415.66&#xA;  L 1200.04 415.66&#xA;  A 0.53 0.53 0.0 0 0 1199.51 416.19&#xA;  L 1199.51 451.05&#xA;  A 0.53 0.53 0.0 0 0 1200.04 451.58&#xA;  L 1209.07 451.58&#xA;  A 0.53 0.53 0.0 0 0 1209.60 451.05&#xA;  L 1209.60 448.00&#xA;  A 0.53 0.53 0.0 0 1 1210.13 447.47&#xA;  L 1230.03 447.47"></path>
<path stroke="#687602" vector-effect="non-scaling-stroke" d="&#xA;  M 528.48 388.94&#xA;  Q 529.96 391.91 531.50 394.93&#xA;  Q 537.17 406.10 539.99 412.67&#xA;  A 2.13 2.11 -11.6 0 0 541.94 413.95&#xA;  L 548.46 413.95&#xA;  A 1.94 1.93 -0.0 0 0 550.40 412.02&#xA;  L 550.40 361.64&#xA;  A 1.71 1.71 0.0 0 0 548.69 359.93&#xA;  L 543.46 359.93&#xA;  A 1.99 1.99 0.0 0 0 541.47 361.92&#xA;  L 541.47 394.68&#xA;  A 0.39 0.39 0.0 0 1 540.71 394.83&#xA;  C 538.82 390.40 537.62 387.34 536.36 384.82&#xA;  Q 534.88 381.85 533.35 378.83&#xA;  Q 527.68 367.66 524.86 361.09&#xA;  A 2.13 2.11 -11.6 0 0 522.91 359.81&#xA;  L 516.39 359.81&#xA;  A 1.94 1.93 -0.0 0 0 514.45 361.74&#xA;  L 514.45 412.12&#xA;  A 1.71 1.71 0.0 0 0 516.16 413.83&#xA;  L 521.39 413.83&#xA;  A 1.99 1.99 0.0 0 0 523.38 411.84&#xA;  L 523.38 379.08&#xA;  A 0.39 0.39 0.0 0 1 524.13 378.92&#xA;  C 526.02 383.36 527.23 386.42 528.48 388.94"></path>
<path stroke="#687602" vector-effect="non-scaling-stroke" d="&#xA;  M 569.76 369.11&#xA;  L 586.03 369.11&#xA;  A 2.22 2.22 0.0 0 0 588.25 366.89&#xA;  L 588.25 361.83&#xA;  A 2.11 2.11 0.0 0 0 586.13 359.72&#xA;  C 578.59 359.78 571.73 360.57 563.06 360.09&#xA;  C 560.87 359.97 559.42 360.28 559.60 362.79&#xA;  Q 560.13 370.26 559.83 374.37&#xA;  C 559.56 378.21 560.17 381.79 559.88 385.92&#xA;  C 559.53 390.91 560.12 395.81 559.81 401.42&#xA;  C 559.60 405.19 559.91 408.36 559.92 411.80&#xA;  Q 559.92 414.11 562.73 414.10&#xA;  Q 575.26 414.04 586.30 413.93&#xA;  A 1.84 1.84 0.0 0 0 588.12 412.09&#xA;  L 588.12 406.71&#xA;  A 1.88 1.87 0.0 0 0 586.24 404.84&#xA;  L 570.08 404.84&#xA;  A 0.81 0.80 90.0 0 1 569.28 404.03&#xA;  L 569.28 391.26&#xA;  A 0.58 0.58 0.0 0 1 569.86 390.68&#xA;  L 585.30 390.68&#xA;  A 1.44 1.44 0.0 0 0 586.74 389.24&#xA;  L 586.74 383.28&#xA;  A 1.50 1.50 0.0 0 0 585.24 381.78&#xA;  L 570.00 381.78&#xA;  A 0.81 0.81 0.0 0 1 569.19 380.97&#xA;  L 569.19 369.68&#xA;  A 0.57 0.57 0.0 0 1 569.76 369.11"></path>
<path stroke="#687602" vector-effect="non-scaling-stroke" d="&#xA;  M 471.46 404.25&#xA;  Q 470.95 401.77 471.11 398.25&#xA;  Q 471.57 387.65 471.06 380.23&#xA;  C 470.67 374.61 471.58 368.61 471.34 362.33&#xA;  A 2.31 2.31 0.0 0 0 469.03 360.10&#xA;  L 464.22 360.10&#xA;  A 2.23 2.23 0.0 0 0 461.99 362.33&#xA;  L 461.99 412.34&#xA;  A 1.68 1.67 -0.0 0 0 463.67 414.01&#xA;  L 487.40 414.01&#xA;  A 1.60 1.60 0.0 0 0 489.00 412.41&#xA;  L 489.00 406.45&#xA;  A 1.53 1.52 0.0 0 0 487.47 404.93&#xA;  L 472.29 404.93&#xA;  A 0.85 0.85 0.0 0 1 471.46 404.25"></path>
<path stroke="#687602" vector-effect="non-scaling-stroke" d="&#xA;  M 504.69 361.66&#xA;  A 1.70 1.70 0.0 0 0 502.99 359.96&#xA;  L 496.97 359.96&#xA;  A 1.70 1.70 0.0 0 0 495.27 361.66&#xA;  L 495.27 412.24&#xA;  A 1.70 1.70 0.0 0 0 496.97 413.94&#xA;  L 502.99 413.94&#xA;  A 1.70 1.70 0.0 0 0 504.69 412.24&#xA;  L 504.69 361.66"></path>
<path stroke="#687602" vector-effect="non-scaling-stroke" d="&#xA;  M 1346.0403 400.8022&#xA;  A 8.67 7.85 -77.0 0 0 1336.4412 407.4841&#xA;  A 8.67 7.85 -77.0 0 0 1342.1397 417.6978&#xA;  A 8.67 7.85 -77.0 0 0 1351.7388 411.0159&#xA;  A 8.67 7.85 -77.0 0 0 1346.0403 400.8022"></path>
<path stroke="#687602" vector-effect="non-scaling-stroke" d="&#xA;  M 1173.2121 372.7182&#xA;  A 0.71 0.71 0.0 0 0 1172.5083 372.0020&#xA;  L 1149.1892 371.7985&#xA;  A 0.71 0.71 0.0 0 0 1148.4730 372.5023&#xA;  L 1148.3679 384.5418&#xA;  A 0.71 0.71 0.0 0 0 1149.0717 385.2580&#xA;  L 1172.3908 385.4615&#xA;  A 0.71 0.71 0.0 0 0 1173.1070 384.7577&#xA;  L 1173.2121 372.7182"></path>
<path stroke="#687602" vector-effect="non-scaling-stroke" d="&#xA;  M 1173.0206 397.4627&#xA;  A 0.75 0.75 0.0 0 0 1172.2732 396.7101&#xA;  L 1149.3334 396.6300&#xA;  A 0.75 0.75 0.0 0 0 1148.5808 397.3774&#xA;  L 1148.5394 409.2373&#xA;  A 0.75 0.75 0.0 0 0 1149.2868 409.9899&#xA;  L 1172.2266 410.0700&#xA;  A 0.75 0.75 0.0 0 0 1172.9792 409.3226&#xA;  L 1173.0206 397.4627"></path>
<path stroke="#687602" vector-effect="non-scaling-stroke" d="&#xA;  M 1172.9886 421.9873&#xA;  A 0.65 0.65 0.0 0 0 1172.3363 421.3396&#xA;  L 1149.1765 421.4205&#xA;  A 0.65 0.65 0.0 0 0 1148.5287 422.0727&#xA;  L 1148.5714 434.2927&#xA;  A 0.65 0.65 0.0 0 0 1149.2237 434.9404&#xA;  L 1172.3835 434.8595&#xA;  A 0.65 0.65 0.0 0 0 1173.0313 434.2073&#xA;  L 1172.9886 421.9873"></path>
<path stroke="#687602" vector-effect="non-scaling-stroke" d="&#xA;  M 1445.69 437.69&#xA;  C 1445.26 432.90 1442.98 428.44 1437.99 427.24&#xA;  C 1434.39 426.38 1429.20 427.04 1428.60 431.42&#xA;  Q 1428.24 434.04 1430.39 435.85&#xA;  C 1434.35 439.17 1439.57 439.14 1444.76 438.78&#xA;  A 1.00 1.00 0.0 0 0 1445.69 437.69"></path>
<path stroke="#687602" vector-effect="non-scaling-stroke" d="&#xA;  M 1220.8490 426.0397&#xA;  A 0.68 0.68 0.0 0 0 1220.1726 425.3562&#xA;  L 1210.2127 425.3040&#xA;  A 0.68 0.68 0.0 0 0 1209.5292 425.9804&#xA;  L 1209.4710 437.1003&#xA;  A 0.68 0.68 0.0 0 0 1210.1474 437.7838&#xA;  L 1220.1073 437.8360&#xA;  A 0.68 0.68 0.0 0 0 1220.7908 437.1596&#xA;  L 1220.8490 426.0397"></path>
</g>
<path fill="#d0eb03" d="&#xA;  M 944.28 196.79&#xA;  Q 1399.61 196.78 1402.75 196.77&#xA;  Q 1434.95 196.72 1447.20 198.28&#xA;  C 1485.71 203.18 1522.07 218.27 1552.01 243.21&#xA;  Q 1605.87 288.08 1619.28 357.49&#xA;  Q 1627.39 399.45 1620.46 441.16&#xA;  C 1605.97 528.39 1534.29 594.34 1446.72 604.48&#xA;  Q 1434.87 605.85 1403.73 605.88&#xA;  Q 1398.21 605.88 944.29 605.89&#xA;  Q 490.36 605.90 484.84 605.90&#xA;  Q 453.71 605.88 441.86 604.51&#xA;  C 354.29 594.37 282.60 528.42 268.11 441.19&#xA;  Q 261.18 399.49 269.28 357.52&#xA;  Q 282.69 288.11 336.55 243.24&#xA;  C 366.49 218.30 402.85 203.21 441.36 198.31&#xA;  Q 453.61 196.75 485.81 196.80&#xA;  Q 488.95 196.80 944.28 196.79&#xA;  Z&#xA;  M 515.36 493.99&#xA;  C 514.27 498.29 518.61 500.19 522.27 499.20&#xA;  Q 526.63 498.02 535.05 493.79&#xA;  Q 564.72 478.88 589.27 456.33&#xA;  C 602.79 443.91 615.18 427.66 620.53 409.65&#xA;  Q 626.96 388.06 621.63 366.71&#xA;  C 615.21 341.02 595.69 319.42 572.01 307.99&#xA;  C 549.37 297.07 522.91 294.48 497.87 301.23&#xA;  Q 488.60 303.73 483.97 305.73&#xA;  C 463.97 314.34 445.25 329.52 435.22 348.88&#xA;  Q 429.98 358.99 427.88 367.37&#xA;  C 422.97 386.89 425.65 408.60 436.52 426.04&#xA;  Q 442.43 435.54 447.79 440.72&#xA;  C 454.04 446.76 463.72 454.33 472.65 458.22&#xA;  C 482.88 462.68 493.73 466.44 504.44 467.61&#xA;  C 510.55 468.27 519.78 467.60 518.77 476.81&#xA;  Q 518.05 483.45 515.36 493.99&#xA;  Z&#xA;  M 1107.92 412.63&#xA;  A 0.36 0.35 -31.5 0 1 1108.59 412.79&#xA;  L 1108.59 452.01&#xA;  A 0.92 0.91 -90.0 0 0 1109.50 452.93&#xA;  L 1119.54 452.93&#xA;  A 0.74 0.74 0.0 0 0 1120.28 452.19&#xA;  L 1120.28 409.07&#xA;  A 0.25 0.25 0.0 0 1 1120.75 408.96&#xA;  L 1126.96 420.73&#xA;  A 0.75 0.75 0.0 0 0 1128.22 420.83&#xA;  L 1134.31 412.76&#xA;  A 1.23 1.22 -45.9 0 0 1134.29 411.26&#xA;  L 1120.69 394.05&#xA;  A 1.64 1.60 -64.7 0 1 1120.34 393.04&#xA;  L 1120.34 388.40&#xA;  A 0.60 0.60 0.0 0 1 1120.94 387.80&#xA;  L 1132.66 387.80&#xA;  A 0.81 0.81 0.0 0 0 1133.47 386.99&#xA;  L 1133.47 377.06&#xA;  A 0.89 0.89 0.0 0 0 1132.58 376.17&#xA;  L 1120.82 376.17&#xA;  A 0.58 0.58 0.0 0 1 1120.24 375.59&#xA;  L 1120.24 356.67&#xA;  A 0.82 0.81 90.0 0 0 1119.43 355.85&#xA;  L 1109.01 355.85&#xA;  A 0.47 0.47 0.0 0 0 1108.54 356.32&#xA;  L 1108.54 375.40&#xA;  A 0.97 0.97 0.0 0 1 1107.57 376.37&#xA;  L 1094.39 376.37&#xA;  A 0.58 0.58 0.0 0 0 1093.81 376.95&#xA;  L 1093.81 386.99&#xA;  A 0.70 0.69 90.0 0 0 1094.50 387.69&#xA;  L 1106.70 387.69&#xA;  A 0.38 0.38 0.0 0 1 1107.07 388.16&#xA;  Q 1102.01 407.24 1091.37 423.00&#xA;  A 0.82 0.80 48.9 0 0 1091.32 423.84&#xA;  L 1096.28 433.25&#xA;  A 0.57 0.57 0.0 0 0 1097.26 433.30&#xA;  Q 1099.28 430.28 1102.45 424.62&#xA;  C 1104.69 420.63 1106.16 416.02 1107.92 412.63&#xA;  Z&#xA;  M 1292.00 394.82&#xA;  A 0.36 0.35 -55.7 0 0 1291.91 394.31&#xA;  Q 1284.23 389.41 1274.95 383.02&#xA;  C 1272.39 381.25 1269.29 379.83 1266.76 378.63&#xA;  A 0.65 0.64 19.9 0 1 1266.41 377.90&#xA;  Q 1267.80 372.03 1268.35 363.50&#xA;  Q 1268.74 357.54 1269.05 356.50&#xA;  A 0.54 0.54 0.0 0 0 1268.54 355.80&#xA;  L 1257.96 355.80&#xA;  A 0.57 0.56 -89.5 0 0 1257.40 356.36&#xA;  Q 1257.32 364.41 1255.33 373.82&#xA;  C 1253.04 384.64 1244.00 391.56 1233.89 394.81&#xA;  A 0.55 0.55 0.0 0 0 1233.63 395.67&#xA;  L 1240.43 404.26&#xA;  A 0.70 0.70 0.0 0 0 1241.29 404.46&#xA;  C 1250.52 400.07 1256.61 396.14 1262.03 388.13&#xA;  A 0.55 0.54 35.8 0 1 1262.81 388.01&#xA;  L 1284.11 404.08&#xA;  A 0.73 0.72 -52.6 0 0 1285.12 403.94&#xA;  L 1292.00 394.82&#xA;  Z&#xA;  M 1229.6774 359.4706&#xA;  A 0.71 0.71 0.0 0 0 1228.9724 358.7557&#xA;  L 1201.5931 358.5645&#xA;  A 0.71 0.71 0.0 0 0 1200.8781 359.2696&#xA;  L 1200.8226 367.2294&#xA;  A 0.71 0.71 0.0 0 0 1201.5276 367.9443&#xA;  L 1228.9069 368.1355&#xA;  A 0.71 0.71 0.0 0 0 1229.6219 367.4304&#xA;  L 1229.6774 359.4706&#xA;  Z&#xA;  M 1304.28 385.34&#xA;  Q 1304.31 385.33 1312.60 384.67&#xA;  C 1320.17 384.07 1328.22 384.40 1335.23 383.66&#xA;  Q 1336.40 383.54 1348.11 383.59&#xA;  A 0.72 0.71 -90.0 0 1 1348.82 384.31&#xA;  L 1348.82 390.02&#xA;  A 0.58 0.58 0.0 0 1 1348.17 390.60&#xA;  Q 1337.82 389.30 1330.09 395.54&#xA;  Q 1326.93 398.10 1325.87 400.40&#xA;  C 1322.07 408.68 1322.85 418.45 1330.18 424.59&#xA;  Q 1337.33 430.59 1346.23 428.66&#xA;  A 0.33 0.33 0.0 0 1 1346.53 429.21&#xA;  Q 1336.82 438.73 1322.74 440.81&#xA;  A 0.54 0.54 0.0 0 0 1322.43 441.72&#xA;  L 1332.17 451.46&#xA;  A 1.25 1.23 58.9 0 0 1333.38 451.77&#xA;  C 1345.01 448.39 1356.46 441.17 1361.62 429.88&#xA;  Q 1368.48 414.88 1361.58 399.01&#xA;  A 1.40 1.37 -56.6 0 1 1361.46 398.40&#xA;  L 1361.61 384.13&#xA;  A 0.63 0.63 0.0 0 1 1362.21 383.50&#xA;  C 1371.25 382.92 1378.22 383.66 1390.16 384.37&#xA;  A 1.03 1.03 0.0 0 0 1391.26 383.34&#xA;  L 1391.26 372.38&#xA;  A 0.51 0.50 0.0 0 0 1390.75 371.88&#xA;  L 1362.31 371.88&#xA;  A 0.69 0.69 0.0 0 1 1361.62 371.24&#xA;  Q 1361.13 365.01 1362.14 360.54&#xA;  A 0.85 0.84 -83.7 0 0 1361.32 359.51&#xA;  L 1347.17 359.51&#xA;  A 0.34 0.34 0.0 0 0 1346.85 359.95&#xA;  Q 1348.38 365.14 1347.97 371.70&#xA;  A 0.47 0.47 0.0 0 1 1347.50 372.14&#xA;  L 1304.48 372.14&#xA;  A 0.80 0.80 0.0 0 0 1303.68 372.94&#xA;  L 1303.66 384.89&#xA;  A 0.47 0.47 0.0 0 0 1304.28 385.34&#xA;  Z&#xA;  M 1172.58 446.24&#xA;  A 0.62 0.62 0.0 0 1 1173.20 446.86&#xA;  L 1173.20 451.00&#xA;  A 0.62 0.62 0.0 0 0 1173.82 451.62&#xA;  L 1184.69 451.62&#xA;  A 0.62 0.62 0.0 0 0 1185.31 451.00&#xA;  L 1185.31 361.23&#xA;  A 0.62 0.62 0.0 0 0 1184.69 360.61&#xA;  L 1137.48 360.61&#xA;  A 0.62 0.62 0.0 0 0 1136.86 361.23&#xA;  L 1136.86 451.73&#xA;  A 0.62 0.62 0.0 0 0 1137.48 452.35&#xA;  L 1147.80 452.35&#xA;  A 0.62 0.62 0.0 0 0 1148.42 451.73&#xA;  L 1148.42 446.86&#xA;  A 0.62 0.62 0.0 0 1 1149.04 446.24&#xA;  L 1172.58 446.24&#xA;  Z&#xA;  M 1290.88 363.44&#xA;  L 1280.34 360.70&#xA;  A 0.55 0.54 -71.5 0 0 1279.69 361.03&#xA;  C 1276.85 368.42 1275.64 371.84 1272.09 377.52&#xA;  A 0.85 0.85 0.0 0 0 1272.46 378.74&#xA;  L 1280.01 382.12&#xA;  A 1.08 1.07 -62.6 0 0 1281.38 381.68&#xA;  L 1291.31 364.47&#xA;  A 0.70 0.70 0.0 0 0 1290.88 363.44&#xA;  Z&#xA;  M 739.75 433.89&#xA;  A 0.46 0.46 0.0 0 1 739.29 433.43&#xA;  L 739.29 361.31&#xA;  A 0.46 0.46 0.0 0 0 738.83 360.85&#xA;  L 723.34 360.85&#xA;  A 0.46 0.46 0.0 0 0 722.88 361.31&#xA;  L 722.88 447.79&#xA;  A 0.46 0.46 0.0 0 0 723.34 448.25&#xA;  L 777.88 448.25&#xA;  A 0.46 0.46 0.0 0 0 778.34 447.79&#xA;  L 778.34 434.35&#xA;  A 0.46 0.46 0.0 0 0 777.88 433.89&#xA;  L 739.75 433.89&#xA;  Z&#xA;  M 809.06 361.60&#xA;  A 0.89 0.89 0.0 0 0 808.17 360.71&#xA;  L 793.17 360.71&#xA;  A 0.89 0.89 0.0 0 0 792.28 361.60&#xA;  L 792.28 447.30&#xA;  A 0.89 0.89 0.0 0 0 793.17 448.19&#xA;  L 808.17 448.19&#xA;  A 0.89 0.89 0.0 0 0 809.06 447.30&#xA;  L 809.06 361.60&#xA;  Z&#xA;  M 844.08 389.25&#xA;  Q 844.44 388.46 845.18 389.57&#xA;  Q 853.75 402.34 859.85 411.73&#xA;  Q 861.28 413.93 863.11 416.32&#xA;  C 866.60 420.86 869.53 426.33 872.62 430.44&#xA;  C 877.70 437.22 879.14 439.87 884.00 447.53&#xA;  A 1.33 1.32 -16.1 0 0 885.12 448.14&#xA;  L 898.61 448.14&#xA;  A 0.70 0.70 0.0 0 0 899.31 447.44&#xA;  L 899.31 361.40&#xA;  A 0.59 0.59 0.0 0 0 898.72 360.81&#xA;  L 883.63 360.81&#xA;  A 0.52 0.51 90.0 0 0 883.12 361.33&#xA;  L 883.12 418.34&#xA;  A 0.61 0.61 0.0 0 1 882.00 418.68&#xA;  Q 871.37 402.83 866.99 396.94&#xA;  Q 863.86 392.72 860.34 386.96&#xA;  C 856.72 381.04 852.06 375.33 848.39 369.09&#xA;  Q 847.39 367.40 843.16 361.06&#xA;  A 0.79 0.77 -17.1 0 0 842.52 360.73&#xA;  L 828.49 360.73&#xA;  A 0.67 0.66 -0.0 0 0 827.82 361.39&#xA;  L 827.82 447.58&#xA;  A 0.61 0.60 0.0 0 0 828.43 448.18&#xA;  L 843.20 448.18&#xA;  A 0.59 0.59 0.0 0 0 843.79 447.59&#xA;  L 844.06 389.36&#xA;  A 0.32 0.24 63.4 0 1 844.08 389.25&#xA;  Z&#xA;  M 973.44 374.89&#xA;  A 0.75 0.75 0.0 0 0 974.19 374.14&#xA;  L 974.19 361.50&#xA;  A 0.75 0.75 0.0 0 0 973.44 360.75&#xA;  L 918.57 360.75&#xA;  A 0.75 0.75 0.0 0 0 917.82 361.50&#xA;  L 917.82 447.50&#xA;  A 0.75 0.75 0.0 0 0 918.57 448.25&#xA;  L 973.83 448.25&#xA;  A 0.75 0.75 0.0 0 0 974.58 447.50&#xA;  L 974.58 434.70&#xA;  A 0.75 0.75 0.0 0 0 973.83 433.95&#xA;  L 934.86 433.95&#xA;  A 0.75 0.75 0.0 0 1 934.11 433.20&#xA;  L 934.11 411.31&#xA;  A 0.75 0.75 0.0 0 1 934.86 410.56&#xA;  L 970.48 410.56&#xA;  A 0.75 0.75 0.0 0 0 971.23 409.81&#xA;  L 971.23 397.34&#xA;  A 0.75 0.75 0.0 0 0 970.48 396.59&#xA;  L 934.77 396.59&#xA;  A 0.75 0.75 0.0 0 1 934.02 395.84&#xA;  L 934.02 375.64&#xA;  A 0.75 0.75 0.0 0 1 934.77 374.89&#xA;  L 973.44 374.89&#xA;  Z&#xA;  M 1233.52 376.96&#xA;  L 1233.52 373.38&#xA;  A 0.86 0.85 0.0 0 0 1232.66 372.53&#xA;  L 1195.80 372.53&#xA;  A 0.29 0.28 -0.0 0 0 1195.51 372.81&#xA;  L 1195.51 382.20&#xA;  A 0.34 0.34 0.0 0 0 1195.84 382.54&#xA;  Q 1213.95 383.37 1232.64 382.43&#xA;  A 0.91 0.90 6.0 0 0 1233.48 381.76&#xA;  Q 1233.62 381.25 1233.41 380.21&#xA;  A 0.64 0.63 4.5 0 1 1234.26 379.49&#xA;  L 1242.99 382.78&#xA;  A 1.01 1.00 24.1 0 0 1244.24 382.31&#xA;  Q 1247.78 375.56 1249.44 370.23&#xA;  Q 1251.13 364.81 1251.60 363.67&#xA;  A 0.37 0.37 0.0 0 0 1251.35 363.17&#xA;  L 1242.45 360.85&#xA;  A 1.00 1.00 0.0 0 0 1241.22 361.60&#xA;  Q 1239.34 370.13 1234.50 377.26&#xA;  A 0.54 0.54 0.0 0 1 1233.52 376.96&#xA;  Z&#xA;  M 1439.61 394.48&#xA;  A 0.21 0.21 0.0 0 1 1439.46 394.11&#xA;  C 1446.24 388.07 1451.56 384.10 1458.03 378.47&#xA;  Q 1461.54 375.41 1467.09 372.00&#xA;  A 0.72 0.72 0.0 0 0 1467.32 370.99&#xA;  L 1462.10 363.17&#xA;  A 1.23 1.23 0.0 0 0 1460.97 362.62&#xA;  Q 1441.27 364.39 1418.50 364.45&#xA;  Q 1414.75 364.46 1411.60 363.67&#xA;  A 0.52 0.52 0.0 0 0 1410.96 364.21&#xA;  L 1411.86 376.44&#xA;  A 0.66 0.66 0.0 0 0 1412.67 377.03&#xA;  Q 1417.37 375.93 1422.29 376.00&#xA;  C 1429.40 376.10 1436.66 375.67 1443.42 375.22&#xA;  A 0.22 0.22 0.0 0 1 1443.59 375.60&#xA;  Q 1433.57 385.28 1427.02 390.66&#xA;  Q 1424.25 392.93 1421.65 395.54&#xA;  C 1417.80 399.41 1413.26 402.67 1409.28 406.15&#xA;  Q 1408.69 406.66 1398.60 415.50&#xA;  A 0.43 0.43 0.0 0 0 1398.58 416.14&#xA;  L 1407.15 424.72&#xA;  A 0.55 0.54 42.6 0 0 1407.95 424.69&#xA;  Q 1411.04 421.05 1417.15 415.61&#xA;  Q 1423.02 410.37 1427.47 408.30&#xA;  C 1435.51 404.54 1443.08 402.78 1451.94 404.85&#xA;  C 1461.93 407.19 1468.60 415.18 1465.49 425.82&#xA;  C 1464.32 429.79 1461.81 432.29 1458.30 434.13&#xA;  A 0.93 0.93 0.0 0 1 1456.96 433.51&#xA;  Q 1454.20 421.15 1442.65 417.94&#xA;  C 1434.20 415.58 1423.94 417.19 1419.32 425.29&#xA;  Q 1413.89 434.82 1421.16 442.86&#xA;  Q 1425.69 447.87 1432.35 449.13&#xA;  Q 1444.35 451.40 1455.25 448.94&#xA;  Q 1458.19 448.27 1463.20 445.93&#xA;  C 1477.18 439.40 1482.48 423.28 1476.43 409.24&#xA;  C 1471.11 396.87 1454.57 392.59 1442.43 394.19&#xA;  Q 1440.67 394.42 1439.61 394.48&#xA;  Z&#xA;  M 1037.22 381.04&#xA;  A 0.25 0.25 0.0 0 1 1037.42 381.46&#xA;  C 1027.23 391.64 1021.62 406.37 1024.82 420.74&#xA;  Q 1026.12 426.59 1028.61 430.45&#xA;  C 1033.59 438.16 1042.40 444.41 1051.25 446.74&#xA;  Q 1057.85 448.49 1064.98 449.26&#xA;  A 0.72 0.71 13.0 0 0 1065.73 448.80&#xA;  L 1070.73 435.54&#xA;  A 0.69 0.69 0.0 0 0 1070.11 434.60&#xA;  C 1059.47 434.34 1045.91 431.86 1040.30 421.38&#xA;  Q 1036.73 414.71 1037.54 408.07&#xA;  Q 1039.79 389.45 1057.35 380.83&#xA;  A 10.27 10.13 -62.2 0 1 1060.22 379.92&#xA;  Q 1069.05 378.53 1077.99 379.44&#xA;  A 0.75 0.75 0.0 0 0 1078.82 378.69&#xA;  L 1078.82 366.32&#xA;  A 0.52 0.52 0.0 0 0 1078.27 365.80&#xA;  C 1066.65 366.30 1057.40 366.75 1046.09 367.94&#xA;  Q 1028.53 369.78 1004.89 372.12&#xA;  C 1001.81 372.43 998.58 372.43 995.36 372.40&#xA;  A 0.52 0.52 0.0 0 0 994.84 372.96&#xA;  L 995.81 386.30&#xA;  A 0.55 0.55 0.0 0 0 996.49 386.79&#xA;  Q 1001.19 385.62 1008.59 384.67&#xA;  Q 1033.96 381.40 1037.22 381.04&#xA;  Z&#xA;  M 1068.79 388.27&#xA;  A 0.32 0.31 -30.3 0 0 1068.66 388.75&#xA;  Q 1073.17 394.59 1076.24 401.82&#xA;  A 0.93 0.93 0.0 0 0 1077.52 402.28&#xA;  L 1084.22 398.75&#xA;  A 0.68 0.68 0.0 0 0 1084.46 397.77&#xA;  L 1076.34 385.57&#xA;  A 0.58 0.58 0.0 0 0 1075.63 385.36&#xA;  L 1068.79 388.27&#xA;  Z&#xA;  M 1230.1498 388.0784&#xA;  A 1.01 1.01 0.0 0 0 1229.1451 387.0631&#xA;  L 1201.2455 386.9170&#xA;  A 1.01 1.01 0.0 0 0 1200.2302 387.9217&#xA;  L 1200.1902 395.5616&#xA;  A 1.01 1.01 0.0 0 0 1201.1949 396.5769&#xA;  L 1229.0945 396.7230&#xA;  A 1.01 1.01 0.0 0 0 1230.1098 395.7183&#xA;  L 1230.1498 388.0784&#xA;  Z&#xA;  M 1065.75 407.38&#xA;  L 1071.38 404.22&#xA;  A 1.02 1.02 0.0 0 0 1071.77 402.83&#xA;  L 1064.98 390.73&#xA;  A 1.50 0.67 60.7 0 0 1063.66 389.75&#xA;  L 1057.42 393.25&#xA;  A 1.50 0.67 60.7 0 0 1057.56 394.89&#xA;  L 1064.36 406.99&#xA;  A 1.02 1.02 0.0 0 0 1065.75 407.38&#xA;  Z&#xA;  M 1262.94 431.50&#xA;  A 0.47 0.47 0.0 0 1 1263.82 431.48&#xA;  Q 1270.17 447.11 1285.69 453.20&#xA;  A 0.91 0.90 -64.3 0 0 1286.79 452.81&#xA;  L 1292.65 442.66&#xA;  A 0.22 0.22 0.0 0 0 1292.52 442.34&#xA;  Q 1278.96 438.20 1272.48 425.48&#xA;  A 0.56 0.56 0.0 0 1 1273.21 424.72&#xA;  L 1280.53 428.00&#xA;  A 1.16 1.16 0.0 0 0 1282.00 427.52&#xA;  L 1291.76 410.62&#xA;  A 0.19 0.19 0.0 0 0 1291.66 410.35&#xA;  L 1281.68 406.59&#xA;  A 1.20 1.20 0.0 0 0 1280.16 407.22&#xA;  L 1272.97 423.25&#xA;  A 0.89 0.89 0.0 0 1 1271.35 423.24&#xA;  Q 1270.37 421.00 1269.97 418.27&#xA;  Q 1268.74 409.71 1268.68 399.63&#xA;  A 0.54 0.53 89.4 0 0 1268.15 399.10&#xA;  L 1257.21 399.10&#xA;  A 0.56 0.55 89.5 0 0 1256.66 399.67&#xA;  Q 1256.83 410.94 1256.39 415.73&#xA;  C 1255.08 429.89 1245.48 438.70 1232.38 442.94&#xA;  A 0.69 0.69 0.0 0 0 1232.02 443.98&#xA;  L 1238.02 453.00&#xA;  A 0.65 0.64 62.9 0 0 1238.76 453.24&#xA;  C 1248.38 449.81 1259.36 441.32 1262.94 431.50&#xA;  Z&#xA;  M 1229.9770 402.2479&#xA;  A 0.91 0.91 0.0 0 0 1229.0638 401.3411&#xA;  L 1201.0040 401.4390&#xA;  A 0.91 0.91 0.0 0 0 1200.0972 402.3522&#xA;  L 1200.1230 409.7521&#xA;  A 0.91 0.91 0.0 0 0 1201.0362 410.6589&#xA;  L 1229.0960 410.5610&#xA;  A 0.91 0.91 0.0 0 0 1230.0028 409.6478&#xA;  L 1229.9770 402.2479&#xA;  Z&#xA;  M 1251.28 410.37&#xA;  A 0.25 0.25 0.0 0 0 1251.12 410.01&#xA;  L 1241.47 407.50&#xA;  A 1.20 1.20 0.0 0 0 1239.98 408.43&#xA;  Q 1238.04 418.22 1232.54 425.32&#xA;  A 0.86 0.85 29.1 0 0 1232.92 426.64&#xA;  L 1241.85 430.00&#xA;  A 0.79 0.79 0.0 0 0 1242.83 429.62&#xA;  L 1248.62 417.89&#xA;  A 4.42 4.11 66.9 0 0 1248.93 417.03&#xA;  Q 1249.82 413.12 1251.28 410.37&#xA;  Z&#xA;  M 1230.03 447.47&#xA;  A 0.53 0.53 0.0 0 0 1230.56 446.94&#xA;  L 1230.56 416.19&#xA;  A 0.53 0.53 0.0 0 0 1230.03 415.66&#xA;  L 1200.04 415.66&#xA;  A 0.53 0.53 0.0 0 0 1199.51 416.19&#xA;  L 1199.51 451.05&#xA;  A 0.53 0.53 0.0 0 0 1200.04 451.58&#xA;  L 1209.07 451.58&#xA;  A 0.53 0.53 0.0 0 0 1209.60 451.05&#xA;  L 1209.60 448.00&#xA;  A 0.53 0.53 0.0 0 1 1210.13 447.47&#xA;  L 1230.03 447.47&#xA;  Z"></path>
<path fill="#000000" d="&#xA;  M 522.27 499.20&#xA;  C 518.61 500.19 514.27 498.29 515.36 493.99&#xA;  Q 518.05 483.45 518.77 476.81&#xA;  C 519.78 467.60 510.55 468.27 504.44 467.61&#xA;  C 493.73 466.44 482.88 462.68 472.65 458.22&#xA;  C 463.72 454.33 454.04 446.76 447.79 440.72&#xA;  Q 442.43 435.54 436.52 426.04&#xA;  C 425.65 408.60 422.97 386.89 427.88 367.37&#xA;  Q 429.98 358.99 435.22 348.88&#xA;  C 445.25 329.52 463.97 314.34 483.97 305.73&#xA;  Q 488.60 303.73 497.87 301.23&#xA;  C 522.91 294.48 549.37 297.07 572.01 307.99&#xA;  C 595.69 319.42 615.21 341.02 621.63 366.71&#xA;  Q 626.96 388.06 620.53 409.65&#xA;  C 615.18 427.66 602.79 443.91 589.27 456.33&#xA;  Q 564.72 478.88 535.05 493.79&#xA;  Q 526.63 498.02 522.27 499.20&#xA;  Z&#xA;  M 528.48 388.94&#xA;  Q 529.96 391.91 531.50 394.93&#xA;  Q 537.17 406.10 539.99 412.67&#xA;  A 2.13 2.11 -11.6 0 0 541.94 413.95&#xA;  L 548.46 413.95&#xA;  A 1.94 1.93 -0.0 0 0 550.40 412.02&#xA;  L 550.40 361.64&#xA;  A 1.71 1.71 0.0 0 0 548.69 359.93&#xA;  L 543.46 359.93&#xA;  A 1.99 1.99 0.0 0 0 541.47 361.92&#xA;  L 541.47 394.68&#xA;  A 0.39 0.39 0.0 0 1 540.71 394.83&#xA;  C 538.82 390.40 537.62 387.34 536.36 384.82&#xA;  Q 534.88 381.85 533.35 378.83&#xA;  Q 527.68 367.66 524.86 361.09&#xA;  A 2.13 2.11 -11.6 0 0 522.91 359.81&#xA;  L 516.39 359.81&#xA;  A 1.94 1.93 -0.0 0 0 514.45 361.74&#xA;  L 514.45 412.12&#xA;  A 1.71 1.71 0.0 0 0 516.16 413.83&#xA;  L 521.39 413.83&#xA;  A 1.99 1.99 0.0 0 0 523.38 411.84&#xA;  L 523.38 379.08&#xA;  A 0.39 0.39 0.0 0 1 524.13 378.92&#xA;  C 526.02 383.36 527.23 386.42 528.48 388.94&#xA;  Z&#xA;  M 569.76 369.11&#xA;  L 586.03 369.11&#xA;  A 2.22 2.22 0.0 0 0 588.25 366.89&#xA;  L 588.25 361.83&#xA;  A 2.11 2.11 0.0 0 0 586.13 359.72&#xA;  C 578.59 359.78 571.73 360.57 563.06 360.09&#xA;  C 560.87 359.97 559.42 360.28 559.60 362.79&#xA;  Q 560.13 370.26 559.83 374.37&#xA;  C 559.56 378.21 560.17 381.79 559.88 385.92&#xA;  C 559.53 390.91 560.12 395.81 559.81 401.42&#xA;  C 559.60 405.19 559.91 408.36 559.92 411.80&#xA;  Q 559.92 414.11 562.73 414.10&#xA;  Q 575.26 414.04 586.30 413.93&#xA;  A 1.84 1.84 0.0 0 0 588.12 412.09&#xA;  L 588.12 406.71&#xA;  A 1.88 1.87 0.0 0 0 586.24 404.84&#xA;  L 570.08 404.84&#xA;  A 0.81 0.80 90.0 0 1 569.28 404.03&#xA;  L 569.28 391.26&#xA;  A 0.58 0.58 0.0 0 1 569.86 390.68&#xA;  L 585.30 390.68&#xA;  A 1.44 1.44 0.0 0 0 586.74 389.24&#xA;  L 586.74 383.28&#xA;  A 1.50 1.50 0.0 0 0 585.24 381.78&#xA;  L 570.00 381.78&#xA;  A 0.81 0.81 0.0 0 1 569.19 380.97&#xA;  L 569.19 369.68&#xA;  A 0.57 0.57 0.0 0 1 569.76 369.11&#xA;  Z&#xA;  M 471.46 404.25&#xA;  Q 470.95 401.77 471.11 398.25&#xA;  Q 471.57 387.65 471.06 380.23&#xA;  C 470.67 374.61 471.58 368.61 471.34 362.33&#xA;  A 2.31 2.31 0.0 0 0 469.03 360.10&#xA;  L 464.22 360.10&#xA;  A 2.23 2.23 0.0 0 0 461.99 362.33&#xA;  L 461.99 412.34&#xA;  A 1.68 1.67 -0.0 0 0 463.67 414.01&#xA;  L 487.40 414.01&#xA;  A 1.60 1.60 0.0 0 0 489.00 412.41&#xA;  L 489.00 406.45&#xA;  A 1.53 1.52 0.0 0 0 487.47 404.93&#xA;  L 472.29 404.93&#xA;  A 0.85 0.85 0.0 0 1 471.46 404.25&#xA;  Z&#xA;  M 504.69 361.66&#xA;  A 1.70 1.70 0.0 0 0 502.99 359.96&#xA;  L 496.97 359.96&#xA;  A 1.70 1.70 0.0 0 0 495.27 361.66&#xA;  L 495.27 412.24&#xA;  A 1.70 1.70 0.0 0 0 496.97 413.94&#xA;  L 502.99 413.94&#xA;  A 1.70 1.70 0.0 0 0 504.69 412.24&#xA;  L 504.69 361.66&#xA;  Z"></path>
<path fill="#000000" d="&#xA;  M 1107.92 412.63&#xA;  C 1106.16 416.02 1104.69 420.63 1102.45 424.62&#xA;  Q 1099.28 430.28 1097.26 433.30&#xA;  A 0.57 0.57 0.0 0 1 1096.28 433.25&#xA;  L 1091.32 423.84&#xA;  A 0.82 0.80 48.9 0 1 1091.37 423.00&#xA;  Q 1102.01 407.24 1107.07 388.16&#xA;  A 0.38 0.38 0.0 0 0 1106.70 387.69&#xA;  L 1094.50 387.69&#xA;  A 0.70 0.69 90.0 0 1 1093.81 386.99&#xA;  L 1093.81 376.95&#xA;  A 0.58 0.58 0.0 0 1 1094.39 376.37&#xA;  L 1107.57 376.37&#xA;  A 0.97 0.97 0.0 0 0 1108.54 375.40&#xA;  L 1108.54 356.32&#xA;  A 0.47 0.47 0.0 0 1 1109.01 355.85&#xA;  L 1119.43 355.85&#xA;  A 0.82 0.81 90.0 0 1 1120.24 356.67&#xA;  L 1120.24 375.59&#xA;  A 0.58 0.58 0.0 0 0 1120.82 376.17&#xA;  L 1132.58 376.17&#xA;  A 0.89 0.89 0.0 0 1 1133.47 377.06&#xA;  L 1133.47 386.99&#xA;  A 0.81 0.81 0.0 0 1 1132.66 387.80&#xA;  L 1120.94 387.80&#xA;  A 0.60 0.60 0.0 0 0 1120.34 388.40&#xA;  L 1120.34 393.04&#xA;  A 1.64 1.60 -64.7 0 0 1120.69 394.05&#xA;  L 1134.29 411.26&#xA;  A 1.23 1.22 -45.9 0 1 1134.31 412.76&#xA;  L 1128.22 420.83&#xA;  A 0.75 0.75 0.0 0 1 1126.96 420.73&#xA;  L 1120.75 408.96&#xA;  A 0.25 0.25 0.0 0 0 1120.28 409.07&#xA;  L 1120.28 452.19&#xA;  A 0.74 0.74 0.0 0 1 1119.54 452.93&#xA;  L 1109.50 452.93&#xA;  A 0.92 0.91 90.0 0 1 1108.59 452.01&#xA;  L 1108.59 412.79&#xA;  A 0.36 0.35 -31.5 0 0 1107.92 412.63&#xA;  Z"></path>
<path fill="#000000" d="&#xA;  M 1292.00 394.82&#xA;  L 1285.12 403.94&#xA;  A 0.73 0.72 -52.6 0 1 1284.11 404.08&#xA;  L 1262.81 388.01&#xA;  A 0.55 0.54 35.8 0 0 1262.03 388.13&#xA;  C 1256.61 396.14 1250.52 400.07 1241.29 404.46&#xA;  A 0.70 0.70 0.0 0 1 1240.43 404.26&#xA;  L 1233.63 395.67&#xA;  A 0.55 0.55 0.0 0 1 1233.89 394.81&#xA;  C 1244.00 391.56 1253.04 384.64 1255.33 373.82&#xA;  Q 1257.32 364.41 1257.40 356.36&#xA;  A 0.57 0.56 -89.5 0 1 1257.96 355.80&#xA;  L 1268.54 355.80&#xA;  A 0.54 0.54 0.0 0 1 1269.05 356.50&#xA;  Q 1268.74 357.54 1268.35 363.50&#xA;  Q 1267.80 372.03 1266.41 377.90&#xA;  A 0.65 0.64 19.9 0 0 1266.76 378.63&#xA;  C 1269.29 379.83 1272.39 381.25 1274.95 383.02&#xA;  Q 1284.23 389.41 1291.91 394.31&#xA;  A 0.36 0.35 -55.7 0 1 1292.00 394.82&#xA;  Z"></path>
<rect fill="#000000" x="-14.40" y="-4.69" transform="translate(1215.25,363.35) rotate(0.4)" width="28.80" height="9.38" rx="0.71"></rect>
<path fill="#000000" d="&#xA;  M 1303.66 384.89&#xA;  L 1303.68 372.94&#xA;  A 0.80 0.80 0.0 0 1 1304.48 372.14&#xA;  L 1347.50 372.14&#xA;  A 0.47 0.47 0.0 0 0 1347.97 371.70&#xA;  Q 1348.38 365.14 1346.85 359.95&#xA;  A 0.34 0.34 0.0 0 1 1347.17 359.51&#xA;  L 1361.32 359.51&#xA;  A 0.85 0.84 -83.7 0 1 1362.14 360.54&#xA;  Q 1361.13 365.01 1361.62 371.24&#xA;  A 0.69 0.69 0.0 0 0 1362.31 371.88&#xA;  L 1390.75 371.88&#xA;  A 0.51 0.50 -0.0 0 1 1391.26 372.38&#xA;  L 1391.26 383.34&#xA;  A 1.03 1.03 0.0 0 1 1390.16 384.37&#xA;  C 1378.22 383.66 1371.25 382.92 1362.21 383.50&#xA;  A 0.63 0.63 0.0 0 0 1361.61 384.13&#xA;  L 1361.46 398.40&#xA;  A 1.40 1.37 -56.6 0 0 1361.58 399.01&#xA;  Q 1368.48 414.88 1361.62 429.88&#xA;  C 1356.46 441.17 1345.01 448.39 1333.38 451.77&#xA;  A 1.25 1.23 58.9 0 1 1332.17 451.46&#xA;  L 1322.43 441.72&#xA;  A 0.54 0.54 0.0 0 1 1322.74 440.81&#xA;  Q 1336.82 438.73 1346.53 429.21&#xA;  A 0.33 0.33 0.0 0 0 1346.23 428.66&#xA;  Q 1337.33 430.59 1330.18 424.59&#xA;  C 1322.85 418.45 1322.07 408.68 1325.87 400.40&#xA;  Q 1326.93 398.10 1330.09 395.54&#xA;  Q 1337.82 389.30 1348.17 390.60&#xA;  A 0.58 0.58 0.0 0 0 1348.82 390.02&#xA;  L 1348.82 384.31&#xA;  A 0.72 0.71 90.0 0 0 1348.11 383.59&#xA;  Q 1336.40 383.54 1335.23 383.66&#xA;  C 1328.22 384.40 1320.17 384.07 1312.60 384.67&#xA;  Q 1304.31 385.33 1304.28 385.34&#xA;  A 0.47 0.47 0.0 0 1 1303.66 384.89&#xA;  Z&#xA;  M 1346.0403 400.8022&#xA;  A 8.67 7.85 -77.0 0 0 1336.4412 407.4841&#xA;  A 8.67 7.85 -77.0 0 0 1342.1397 417.6978&#xA;  A 8.67 7.85 -77.0 0 0 1351.7388 411.0159&#xA;  A 8.67 7.85 -77.0 0 0 1346.0403 400.8022&#xA;  Z"></path>
<path fill="#d0eb03" d="&#xA;  M 536.36 384.82&#xA;  C 537.62 387.34 538.82 390.40 540.71 394.83&#xA;  A 0.39 0.39 0.0 0 0 541.47 394.68&#xA;  L 541.47 361.92&#xA;  A 1.99 1.99 0.0 0 1 543.46 359.93&#xA;  L 548.69 359.93&#xA;  A 1.71 1.71 0.0 0 1 550.40 361.64&#xA;  L 550.40 412.02&#xA;  A 1.94 1.93 -0.0 0 1 548.46 413.95&#xA;  L 541.94 413.95&#xA;  A 2.13 2.11 -11.6 0 1 539.99 412.67&#xA;  Q 537.17 406.10 531.50 394.93&#xA;  Q 529.96 391.91 528.48 388.94&#xA;  C 527.23 386.42 526.02 383.36 524.13 378.92&#xA;  A 0.39 0.39 0.0 0 0 523.38 379.08&#xA;  L 523.38 411.84&#xA;  A 1.99 1.99 0.0 0 1 521.39 413.83&#xA;  L 516.16 413.83&#xA;  A 1.71 1.71 0.0 0 1 514.45 412.12&#xA;  L 514.45 361.74&#xA;  A 1.94 1.93 -0.0 0 1 516.39 359.81&#xA;  L 522.91 359.81&#xA;  A 2.13 2.11 -11.6 0 1 524.86 361.09&#xA;  Q 527.68 367.66 533.35 378.83&#xA;  Q 534.88 381.85 536.36 384.82&#xA;  Z"></path>
<path fill="#d0eb03" d="&#xA;  M 569.76 369.11&#xA;  A 0.57 0.57 0.0 0 0 569.19 369.68&#xA;  L 569.19 380.97&#xA;  A 0.81 0.81 0.0 0 0 570.00 381.78&#xA;  L 585.24 381.78&#xA;  A 1.50 1.50 0.0 0 1 586.74 383.28&#xA;  L 586.74 389.24&#xA;  A 1.44 1.44 0.0 0 1 585.30 390.68&#xA;  L 569.86 390.68&#xA;  A 0.58 0.58 0.0 0 0 569.28 391.26&#xA;  L 569.28 404.03&#xA;  A 0.81 0.80 -90.0 0 0 570.08 404.84&#xA;  L 586.24 404.84&#xA;  A 1.88 1.87 -0.0 0 1 588.12 406.71&#xA;  L 588.12 412.09&#xA;  A 1.84 1.84 0.0 0 1 586.30 413.93&#xA;  Q 575.26 414.04 562.73 414.10&#xA;  Q 559.92 414.11 559.92 411.80&#xA;  C 559.91 408.36 559.60 405.19 559.81 401.42&#xA;  C 560.12 395.81 559.53 390.91 559.88 385.92&#xA;  C 560.17 381.79 559.56 378.21 559.83 374.37&#xA;  Q 560.13 370.26 559.60 362.79&#xA;  C 559.42 360.28 560.87 359.97 563.06 360.09&#xA;  C 571.73 360.57 578.59 359.78 586.13 359.72&#xA;  A 2.11 2.11 0.0 0 1 588.25 361.83&#xA;  L 588.25 366.89&#xA;  A 2.22 2.22 0.0 0 1 586.03 369.11&#xA;  L 569.76 369.11&#xA;  Z"></path>
<path fill="#d0eb03" d="&#xA;  M 471.46 404.25&#xA;  A 0.85 0.85 0.0 0 0 472.29 404.93&#xA;  L 487.47 404.93&#xA;  A 1.53 1.52 0.0 0 1 489.00 406.45&#xA;  L 489.00 412.41&#xA;  A 1.60 1.60 0.0 0 1 487.40 414.01&#xA;  L 463.67 414.01&#xA;  A 1.68 1.67 -0.0 0 1 461.99 412.34&#xA;  L 461.99 362.33&#xA;  A 2.23 2.23 0.0 0 1 464.22 360.10&#xA;  L 469.03 360.10&#xA;  A 2.31 2.31 0.0 0 1 471.34 362.33&#xA;  C 471.58 368.61 470.67 374.61 471.06 380.23&#xA;  Q 471.57 387.65 471.11 398.25&#xA;  Q 470.95 401.77 471.46 404.25&#xA;  Z"></path>
<rect fill="#d0eb03" x="495.27" y="359.96" width="9.42" height="53.98" rx="1.70"></rect>
<path fill="#000000" d="&#xA;  M 1172.58 446.24&#xA;  L 1149.04 446.24&#xA;  A 0.62 0.62 0.0 0 0 1148.42 446.86&#xA;  L 1148.42 451.73&#xA;  A 0.62 0.62 0.0 0 1 1147.80 452.35&#xA;  L 1137.48 452.35&#xA;  A 0.62 0.62 0.0 0 1 1136.86 451.73&#xA;  L 1136.86 361.23&#xA;  A 0.62 0.62 0.0 0 1 1137.48 360.61&#xA;  L 1184.69 360.61&#xA;  A 0.62 0.62 0.0 0 1 1185.31 361.23&#xA;  L 1185.31 451.00&#xA;  A 0.62 0.62 0.0 0 1 1184.69 451.62&#xA;  L 1173.82 451.62&#xA;  A 0.62 0.62 0.0 0 1 1173.20 451.00&#xA;  L 1173.20 446.86&#xA;  A 0.62 0.62 0.0 0 0 1172.58 446.24&#xA;  Z&#xA;  M 1173.2121 372.7182&#xA;  A 0.71 0.71 0.0 0 0 1172.5083 372.0020&#xA;  L 1149.1892 371.7985&#xA;  A 0.71 0.71 0.0 0 0 1148.4730 372.5023&#xA;  L 1148.3679 384.5418&#xA;  A 0.71 0.71 0.0 0 0 1149.0717 385.2580&#xA;  L 1172.3908 385.4615&#xA;  A 0.71 0.71 0.0 0 0 1173.1070 384.7577&#xA;  L 1173.2121 372.7182&#xA;  Z&#xA;  M 1173.0206 397.4627&#xA;  A 0.75 0.75 0.0 0 0 1172.2732 396.7101&#xA;  L 1149.3334 396.6300&#xA;  A 0.75 0.75 0.0 0 0 1148.5808 397.3774&#xA;  L 1148.5394 409.2373&#xA;  A 0.75 0.75 0.0 0 0 1149.2868 409.9899&#xA;  L 1172.2266 410.0700&#xA;  A 0.75 0.75 0.0 0 0 1172.9792 409.3226&#xA;  L 1173.0206 397.4627&#xA;  Z&#xA;  M 1172.9886 421.9873&#xA;  A 0.65 0.65 0.0 0 0 1172.3363 421.3396&#xA;  L 1149.1765 421.4205&#xA;  A 0.65 0.65 0.0 0 0 1148.5287 422.0727&#xA;  L 1148.5714 434.2927&#xA;  A 0.65 0.65 0.0 0 0 1149.2237 434.9404&#xA;  L 1172.3835 434.8595&#xA;  A 0.65 0.65 0.0 0 0 1173.0313 434.2073&#xA;  L 1172.9886 421.9873&#xA;  Z"></path>
<path fill="#000000" d="&#xA;  M 1290.88 363.44&#xA;  A 0.70 0.70 0.0 0 1 1291.31 364.47&#xA;  L 1281.38 381.68&#xA;  A 1.08 1.07 -62.6 0 1 1280.01 382.12&#xA;  L 1272.46 378.74&#xA;  A 0.85 0.85 0.0 0 1 1272.09 377.52&#xA;  C 1275.64 371.84 1276.85 368.42 1279.69 361.03&#xA;  A 0.55 0.54 -71.5 0 1 1280.34 360.70&#xA;  L 1290.88 363.44&#xA;  Z"></path>
<path fill="#000000" d="&#xA;  M 739.75 433.89&#xA;  L 777.88 433.89&#xA;  A 0.46 0.46 0.0 0 1 778.34 434.35&#xA;  L 778.34 447.79&#xA;  A 0.46 0.46 0.0 0 1 777.88 448.25&#xA;  L 723.34 448.25&#xA;  A 0.46 0.46 0.0 0 1 722.88 447.79&#xA;  L 722.88 361.31&#xA;  A 0.46 0.46 0.0 0 1 723.34 360.85&#xA;  L 738.83 360.85&#xA;  A 0.46 0.46 0.0 0 1 739.29 361.31&#xA;  L 739.29 433.43&#xA;  A 0.46 0.46 0.0 0 0 739.75 433.89&#xA;  Z"></path>
<rect fill="#000000" x="792.28" y="360.71" width="16.78" height="87.48" rx="0.89"></rect>
<path fill="#000000" d="&#xA;  M 844.08 389.25&#xA;  A 0.32 0.24 63.4 0 0 844.06 389.36&#xA;  L 843.79 447.59&#xA;  A 0.59 0.59 0.0 0 1 843.20 448.18&#xA;  L 828.43 448.18&#xA;  A 0.61 0.60 0.0 0 1 827.82 447.58&#xA;  L 827.82 361.39&#xA;  A 0.67 0.66 -0.0 0 1 828.49 360.73&#xA;  L 842.52 360.73&#xA;  A 0.79 0.77 -17.1 0 1 843.16 361.06&#xA;  Q 847.39 367.40 848.39 369.09&#xA;  C 852.06 375.33 856.72 381.04 860.34 386.96&#xA;  Q 863.86 392.72 866.99 396.94&#xA;  Q 871.37 402.83 882.00 418.68&#xA;  A 0.61 0.61 0.0 0 0 883.12 418.34&#xA;  L 883.12 361.33&#xA;  A 0.52 0.51 90.0 0 1 883.63 360.81&#xA;  L 898.72 360.81&#xA;  A 0.59 0.59 0.0 0 1 899.31 361.40&#xA;  L 899.31 447.44&#xA;  A 0.70 0.70 0.0 0 1 898.61 448.14&#xA;  L 885.12 448.14&#xA;  A 1.33 1.32 -16.1 0 1 884.00 447.53&#xA;  C 879.14 439.87 877.70 437.22 872.62 430.44&#xA;  C 869.53 426.33 866.60 420.86 863.11 416.32&#xA;  Q 861.28 413.93 859.85 411.73&#xA;  Q 853.75 402.34 845.18 389.57&#xA;  Q 844.44 388.46 844.08 389.25&#xA;  Z"></path>
<path fill="#000000" d="&#xA;  M 973.44 374.89&#xA;  L 934.77 374.89&#xA;  A 0.75 0.75 0.0 0 0 934.02 375.64&#xA;  L 934.02 395.84&#xA;  A 0.75 0.75 0.0 0 0 934.77 396.59&#xA;  L 970.48 396.59&#xA;  A 0.75 0.75 0.0 0 1 971.23 397.34&#xA;  L 971.23 409.81&#xA;  A 0.75 0.75 0.0 0 1 970.48 410.56&#xA;  L 934.86 410.56&#xA;  A 0.75 0.75 0.0 0 0 934.11 411.31&#xA;  L 934.11 433.20&#xA;  A 0.75 0.75 0.0 0 0 934.86 433.95&#xA;  L 973.83 433.95&#xA;  A 0.75 0.75 0.0 0 1 974.58 434.70&#xA;  L 974.58 447.50&#xA;  A 0.75 0.75 0.0 0 1 973.83 448.25&#xA;  L 918.57 448.25&#xA;  A 0.75 0.75 0.0 0 1 917.82 447.50&#xA;  L 917.82 361.50&#xA;  A 0.75 0.75 0.0 0 1 918.57 360.75&#xA;  L 973.44 360.75&#xA;  A 0.75 0.75 0.0 0 1 974.19 361.50&#xA;  L 974.19 374.14&#xA;  A 0.75 0.75 0.0 0 1 973.44 374.89&#xA;  Z"></path>
<path fill="#000000" d="&#xA;  M 1233.52 376.96&#xA;  A 0.54 0.54 0.0 0 0 1234.50 377.26&#xA;  Q 1239.34 370.13 1241.22 361.60&#xA;  A 1.00 1.00 0.0 0 1 1242.45 360.85&#xA;  L 1251.35 363.17&#xA;  A 0.37 0.37 0.0 0 1 1251.60 363.67&#xA;  Q 1251.13 364.81 1249.44 370.23&#xA;  Q 1247.78 375.56 1244.24 382.31&#xA;  A 1.01 1.00 24.1 0 1 1242.99 382.78&#xA;  L 1234.26 379.49&#xA;  A 0.64 0.63 4.5 0 0 1233.41 380.21&#xA;  Q 1233.62 381.25 1233.48 381.76&#xA;  A 0.91 0.90 6.0 0 1 1232.64 382.43&#xA;  Q 1213.95 383.37 1195.84 382.54&#xA;  A 0.34 0.34 0.0 0 1 1195.51 382.20&#xA;  L 1195.51 372.81&#xA;  A 0.29 0.28 0.0 0 1 1195.80 372.53&#xA;  L 1232.66 372.53&#xA;  A 0.86 0.85 -0.0 0 1 1233.52 373.38&#xA;  L 1233.52 376.96&#xA;  Z"></path>
<path fill="#000000" d="&#xA;  M 1439.61 394.48&#xA;  Q 1440.67 394.42 1442.43 394.19&#xA;  C 1454.57 392.59 1471.11 396.87 1476.43 409.24&#xA;  C 1482.48 423.28 1477.18 439.40 1463.20 445.93&#xA;  Q 1458.19 448.27 1455.25 448.94&#xA;  Q 1444.35 451.40 1432.35 449.13&#xA;  Q 1425.69 447.87 1421.16 442.86&#xA;  Q 1413.89 434.82 1419.32 425.29&#xA;  C 1423.94 417.19 1434.20 415.58 1442.65 417.94&#xA;  Q 1454.20 421.15 1456.96 433.51&#xA;  A 0.93 0.93 0.0 0 0 1458.30 434.13&#xA;  C 1461.81 432.29 1464.32 429.79 1465.49 425.82&#xA;  C 1468.60 415.18 1461.93 407.19 1451.94 404.85&#xA;  C 1443.08 402.78 1435.51 404.54 1427.47 408.30&#xA;  Q 1423.02 410.37 1417.15 415.61&#xA;  Q 1411.04 421.05 1407.95 424.69&#xA;  A 0.55 0.54 42.6 0 1 1407.15 424.72&#xA;  L 1398.58 416.14&#xA;  A 0.43 0.43 0.0 0 1 1398.60 415.50&#xA;  Q 1408.69 406.66 1409.28 406.15&#xA;  C 1413.26 402.67 1417.80 399.41 1421.65 395.54&#xA;  Q 1424.25 392.93 1427.02 390.66&#xA;  Q 1433.57 385.28 1443.59 375.60&#xA;  A 0.22 0.22 0.0 0 0 1443.42 375.22&#xA;  C 1436.66 375.67 1429.40 376.10 1422.29 376.00&#xA;  Q 1417.37 375.93 1412.67 377.03&#xA;  A 0.66 0.66 0.0 0 1 1411.86 376.44&#xA;  L 1410.96 364.21&#xA;  A 0.52 0.52 0.0 0 1 1411.60 363.67&#xA;  Q 1414.75 364.46 1418.50 364.45&#xA;  Q 1441.27 364.39 1460.97 362.62&#xA;  A 1.23 1.23 0.0 0 1 1462.10 363.17&#xA;  L 1467.32 370.99&#xA;  A 0.72 0.72 0.0 0 1 1467.09 372.00&#xA;  Q 1461.54 375.41 1458.03 378.47&#xA;  C 1451.56 384.10 1446.24 388.07 1439.46 394.11&#xA;  A 0.21 0.21 0.0 0 0 1439.61 394.48&#xA;  Z&#xA;  M 1445.69 437.69&#xA;  C 1445.26 432.90 1442.98 428.44 1437.99 427.24&#xA;  C 1434.39 426.38 1429.20 427.04 1428.60 431.42&#xA;  Q 1428.24 434.04 1430.39 435.85&#xA;  C 1434.35 439.17 1439.57 439.14 1444.76 438.78&#xA;  A 1.00 1.00 0.0 0 0 1445.69 437.69&#xA;  Z"></path>
<path fill="#000000" d="&#xA;  M 1037.22 381.04&#xA;  Q 1033.96 381.40 1008.59 384.67&#xA;  Q 1001.19 385.62 996.49 386.79&#xA;  A 0.55 0.55 0.0 0 1 995.81 386.30&#xA;  L 994.84 372.96&#xA;  A 0.52 0.52 0.0 0 1 995.36 372.40&#xA;  C 998.58 372.43 1001.81 372.43 1004.89 372.12&#xA;  Q 1028.53 369.78 1046.09 367.94&#xA;  C 1057.40 366.75 1066.65 366.30 1078.27 365.80&#xA;  A 0.52 0.52 0.0 0 1 1078.82 366.32&#xA;  L 1078.82 378.69&#xA;  A 0.75 0.75 0.0 0 1 1077.99 379.44&#xA;  Q 1069.05 378.53 1060.22 379.92&#xA;  A 10.27 10.13 -62.2 0 0 1057.35 380.83&#xA;  Q 1039.79 389.45 1037.54 408.07&#xA;  Q 1036.73 414.71 1040.30 421.38&#xA;  C 1045.91 431.86 1059.47 434.34 1070.11 434.60&#xA;  A 0.69 0.69 0.0 0 1 1070.73 435.54&#xA;  L 1065.73 448.80&#xA;  A 0.72 0.71 13.0 0 1 1064.98 449.26&#xA;  Q 1057.85 448.49 1051.25 446.74&#xA;  C 1042.40 444.41 1033.59 438.16 1028.61 430.45&#xA;  Q 1026.12 426.59 1024.82 420.74&#xA;  C 1021.62 406.37 1027.23 391.64 1037.42 381.46&#xA;  A 0.25 0.25 0.0 0 0 1037.22 381.04&#xA;  Z"></path>
<rect fill="#d0eb03" x="-12.37" y="-6.73" transform="translate(1160.79,378.63) rotate(0.5)" width="24.74" height="13.46" rx="0.71"></rect>
<path fill="#000000" d="&#xA;  M 1068.79 388.27&#xA;  L 1075.63 385.36&#xA;  A 0.58 0.58 0.0 0 1 1076.34 385.57&#xA;  L 1084.46 397.77&#xA;  A 0.68 0.68 0.0 0 1 1084.22 398.75&#xA;  L 1077.52 402.28&#xA;  A 0.93 0.93 0.0 0 1 1076.24 401.82&#xA;  Q 1073.17 394.59 1068.66 388.75&#xA;  A 0.32 0.31 -30.3 0 1 1068.79 388.27&#xA;  Z"></path>
<rect fill="#000000" x="-14.96" y="-4.83" transform="translate(1215.17,391.82) rotate(0.3)" width="29.92" height="9.66" rx="1.01"></rect>
<path fill="#000000" d="&#xA;  M 1065.75 407.38&#xA;  A 1.02 1.02 0.0 0 1 1064.36 406.99&#xA;  L 1057.56 394.89&#xA;  A 1.50 0.67 60.7 0 1 1057.42 393.25&#xA;  L 1063.66 389.75&#xA;  A 1.50 0.67 60.7 0 1 1064.98 390.73&#xA;  L 1071.77 402.83&#xA;  A 1.02 1.02 0.0 0 1 1071.38 404.22&#xA;  L 1065.75 407.38&#xA;  Z"></path>
<rect fill="#d0eb03" x="-12.22" y="-6.68" transform="translate(1160.78,403.35) rotate(0.2)" width="24.44" height="13.36" rx="0.75"></rect>
<path fill="#000000" d="&#xA;  M 1262.94 431.50&#xA;  C 1259.36 441.32 1248.38 449.81 1238.76 453.24&#xA;  A 0.65 0.64 62.9 0 1 1238.02 453.00&#xA;  L 1232.02 443.98&#xA;  A 0.69 0.69 0.0 0 1 1232.38 442.94&#xA;  C 1245.48 438.70 1255.08 429.89 1256.39 415.73&#xA;  Q 1256.83 410.94 1256.66 399.67&#xA;  A 0.56 0.55 89.5 0 1 1257.21 399.10&#xA;  L 1268.15 399.10&#xA;  A 0.54 0.53 89.4 0 1 1268.68 399.63&#xA;  Q 1268.74 409.71 1269.97 418.27&#xA;  Q 1270.37 421.00 1271.35 423.24&#xA;  A 0.89 0.89 0.0 0 0 1272.97 423.25&#xA;  L 1280.16 407.22&#xA;  A 1.20 1.20 0.0 0 1 1281.68 406.59&#xA;  L 1291.66 410.35&#xA;  A 0.19 0.19 0.0 0 1 1291.76 410.62&#xA;  L 1282.00 427.52&#xA;  A 1.16 1.16 0.0 0 1 1280.53 428.00&#xA;  L 1273.21 424.72&#xA;  A 0.56 0.56 0.0 0 0 1272.48 425.48&#xA;  Q 1278.96 438.20 1292.52 442.34&#xA;  A 0.22 0.22 0.0 0 1 1292.65 442.66&#xA;  L 1286.79 452.81&#xA;  A 0.91 0.90 -64.3 0 1 1285.69 453.20&#xA;  Q 1270.17 447.11 1263.82 431.48&#xA;  A 0.47 0.47 0.0 0 0 1262.94 431.50&#xA;  Z"></path>
<ellipse fill="#d0eb03" cx="0.00" cy="0.00" transform="translate(1344.09,409.25) rotate(-77.0)" rx="8.67" ry="7.85"></ellipse>
<rect fill="#000000" x="-14.94" y="-4.61" transform="translate(1215.05,406.00) rotate(-0.2)" width="29.88" height="9.22" rx="0.91"></rect>
<path fill="#000000" d="&#xA;  M 1251.28 410.37&#xA;  Q 1249.82 413.12 1248.93 417.03&#xA;  A 4.42 4.11 66.9 0 1 1248.62 417.89&#xA;  L 1242.83 429.62&#xA;  A 0.79 0.79 0.0 0 1 1241.85 430.00&#xA;  L 1232.92 426.64&#xA;  A 0.86 0.85 29.1 0 1 1232.54 425.32&#xA;  Q 1238.04 418.22 1239.98 408.43&#xA;  A 1.20 1.20 0.0 0 1 1241.47 407.50&#xA;  L 1251.12 410.01&#xA;  A 0.25 0.25 0.0 0 1 1251.28 410.37&#xA;  Z"></path>
<path fill="#000000" d="&#xA;  M 1230.03 447.47&#xA;  L 1210.13 447.47&#xA;  A 0.53 0.53 0.0 0 0 1209.60 448.00&#xA;  L 1209.60 451.05&#xA;  A 0.53 0.53 0.0 0 1 1209.07 451.58&#xA;  L 1200.04 451.58&#xA;  A 0.53 0.53 0.0 0 1 1199.51 451.05&#xA;  L 1199.51 416.19&#xA;  A 0.53 0.53 0.0 0 1 1200.04 415.66&#xA;  L 1230.03 415.66&#xA;  A 0.53 0.53 0.0 0 1 1230.56 416.19&#xA;  L 1230.56 446.94&#xA;  A 0.53 0.53 0.0 0 1 1230.03 447.47&#xA;  Z&#xA;  M 1220.8490 426.0397&#xA;  A 0.68 0.68 0.0 0 0 1220.1726 425.3562&#xA;  L 1210.2127 425.3040&#xA;  A 0.68 0.68 0.0 0 0 1209.5292 425.9804&#xA;  L 1209.4710 437.1003&#xA;  A 0.68 0.68 0.0 0 0 1210.1474 437.7838&#xA;  L 1220.1073 437.8360&#xA;  A 0.68 0.68 0.0 0 0 1220.7908 437.1596&#xA;  L 1220.8490 426.0397&#xA;  Z"></path>
<rect fill="#d0eb03" x="-12.23" y="-6.76" transform="translate(1160.78,428.14) rotate(-0.2)" width="24.46" height="13.52" rx="0.65"></rect>
<rect fill="#d0eb03" x="-5.66" y="-6.24" transform="translate(1215.16,431.57) rotate(0.3)" width="11.32" height="12.48" rx="0.68"></rect>
<path fill="#d0eb03" d="&#xA;  M 1445.69 437.69&#xA;  A 1.00 1.00 0.0 0 1 1444.76 438.78&#xA;  C 1439.57 439.14 1434.35 439.17 1430.39 435.85&#xA;  Q 1428.24 434.04 1428.60 431.42&#xA;  C 1429.20 427.04 1434.39 426.38 1437.99 427.24&#xA;  C 1442.98 428.44 1445.26 432.90 1445.69 437.69&#xA;  Z"></path>
</svg>