<?xml version="1.0" encoding="UTF-8" standalone="no"?>

<svg xmlns="http://www.w3.org/2000/svg" version="1.1" viewBox="0.00 0.00 864.00 1821.00">
<g stroke-width="2.00" fill="none" stroke-linecap="butt">
<path stroke="#818181" vector-effect="non-scaling-stroke" d="&#xA;  M 422.30 407.46&#xA;  L 418.61 403.78&#xA;  A 1.03 1.02 42.8 0 0 417.10 403.83&#xA;  Q 408.95 413.35 411.71 425.34&#xA;  Q 414.06 435.50 424.56 435.88&#xA;  C 434.86 436.25 436.91 423.90 438.81 417.29&#xA;  C 440.65 410.85 447.77 410.65 448.71 417.73&#xA;  Q 449.59 424.42 445.56 429.50&#xA;  A 0.70 0.70 0.0 0 0 445.61 430.43&#xA;  L 449.76 434.57&#xA;  A 0.77 0.77 0.0 0 0 450.90 434.52&#xA;  C 455.92 428.42 457.44 417.12 453.31 410.42&#xA;  Q 450.12 405.24 444.73 404.72&#xA;  C 433.73 403.64 432.11 413.47 429.55 421.82&#xA;  Q 428.41 425.53 427.15 426.67&#xA;  C 423.01 430.39 419.11 427.05 418.27 422.52&#xA;  Q 416.79 414.56 422.31 408.79&#xA;  A 0.96 0.96 0.0 0 0 422.30 407.46"></path>
<path stroke="#818181" vector-effect="non-scaling-stroke" d="&#xA;  M 433.29 460.28&#xA;  C 447.40 460.16 454.07 475.53 444.18 485.51&#xA;  A 0.84 0.83 44.9 0 0 444.19 486.69&#xA;  L 448.46 490.96&#xA;  A 0.61 0.60 -45.6 0 0 449.34 490.95&#xA;  C 462.97 476.38 454.10 452.12 433.23 452.28&#xA;  C 412.35 452.45 403.87 476.85 417.73 491.20&#xA;  A 0.61 0.60 44.7 0 0 418.61 491.20&#xA;  L 422.81 486.86&#xA;  A 0.84 0.83 -45.8 0 0 422.80 485.68&#xA;  C 412.75 475.85 419.18 460.39 433.29 460.28"></path>
<path stroke="#818181" vector-effect="non-scaling-stroke" d="&#xA;  M 412.31 517.59&#xA;  L 427.48 517.59&#xA;  A 0.43 0.43 0.0 0 1 427.91 518.02&#xA;  L 427.91 525.82&#xA;  A 0.65 0.64 73.6 0 1 427.62 526.36&#xA;  L 411.91 536.70&#xA;  A 0.52 0.51 73.8 0 0 411.68 537.13&#xA;  L 411.68 544.71&#xA;  A 0.45 0.45 0.0 0 0 412.38 545.09&#xA;  L 428.42 534.53&#xA;  A 0.72 0.71 63.3 0 1 429.49 534.89&#xA;  Q 432.13 542.40 438.56 543.66&#xA;  C 448.76 545.66 454.84 538.41 454.99 528.99&#xA;  Q 455.13 519.98 455.03 510.85&#xA;  A 0.74 0.73 -90.0 0 0 454.30 510.11&#xA;  L 412.32 510.11&#xA;  A 0.54 0.54 0.0 0 0 411.78 510.65&#xA;  L 411.78 517.06&#xA;  A 0.53 0.53 0.0 0 0 412.31 517.59"></path>
<path stroke="#818181" vector-effect="non-scaling-stroke" d="&#xA;  M 455.83 582.39&#xA;  A 22.42 22.42 0.0 0 0 433.41 559.97&#xA;  A 22.42 22.42 0.0 0 0 410.99 582.39&#xA;  A 22.42 22.42 0.0 0 0 433.41 604.81&#xA;  A 22.42 22.42 0.0 0 0 455.83 582.39"></path>
<path stroke="#818181" vector-effect="non-scaling-stroke" d="&#xA;  M 454.94 623.13&#xA;  A 0.56 0.55 89.4 0 0 454.39 622.58&#xA;  L 412.19 622.62&#xA;  A 0.47 0.46 -0.0 0 0 411.72 623.08&#xA;  L 411.79 649.93&#xA;  A 0.58 0.57 -0.0 0 0 412.37 650.50&#xA;  L 417.91 650.50&#xA;  A 0.55 0.54 90.0 0 0 418.45 649.95&#xA;  L 418.52 630.96&#xA;  A 0.56 0.55 -89.5 0 1 419.07 630.41&#xA;  L 454.45 630.41&#xA;  A 0.55 0.55 0.0 0 0 455.00 629.86&#xA;  L 454.94 623.13"></path>
<path stroke="#818181" vector-effect="non-scaling-stroke" d="&#xA;  M 418.50 676.28&#xA;  A 0.58 0.58 0.0 0 1 419.08 675.70&#xA;  L 454.37 675.70&#xA;  A 0.58 0.58 0.0 0 0 454.95 675.12&#xA;  L 454.95 668.48&#xA;  A 0.58 0.58 0.0 0 0 454.37 667.90&#xA;  L 412.35 667.90&#xA;  A 0.58 0.58 0.0 0 0 411.77 668.48&#xA;  L 411.77 695.19&#xA;  A 0.58 0.58 0.0 0 0 412.35 695.77&#xA;  L 417.92 695.77&#xA;  A 0.58 0.58 0.0 0 0 418.50 695.19&#xA;  L 418.50 676.28"></path>
<path stroke="#818181" vector-effect="non-scaling-stroke" d="&#xA;  M 433.65 1295.91&#xA;  Q 435.19 1295.91 436.41 1294.67&#xA;  Q 453.17 1277.71 464.99 1265.88&#xA;  A 3.05 3.05 0.0 0 0 465.13 1261.72&#xA;  L 465.02 1261.59&#xA;  A 2.73 2.73 0.0 0 0 461.04 1261.44&#xA;  Q 451.31 1271.08 437.19 1285.43&#xA;  Q 436.83 1285.80 436.52 1285.53&#xA;  A 0.34 0.31 22.7 0 1 436.41 1285.29&#xA;  L 436.39 776.39&#xA;  A 1.76 1.76 0.0 0 0 435.09 774.69&#xA;  Q 434.57 774.55 433.61 774.55&#xA;  Q 432.66 774.55 432.14 774.69&#xA;  A 1.76 1.76 0.0 0 0 430.83 776.39&#xA;  L 430.88 1285.29&#xA;  A 0.34 0.31 -22.7 0 1 430.77 1285.53&#xA;  Q 430.46 1285.80 430.10 1285.43&#xA;  Q 415.98 1271.08 406.25 1261.44&#xA;  A 2.73 2.73 0.0 0 0 402.27 1261.59&#xA;  L 402.16 1261.72&#xA;  A 3.05 3.05 0.0 0 0 402.30 1265.88&#xA;  Q 414.12 1277.71 430.88 1294.67&#xA;  Q 432.11 1295.91 433.65 1295.91"></path>
<path stroke="#818181" vector-effect="non-scaling-stroke" d="&#xA;  M 447.92 517.66&#xA;  L 435.08 517.62&#xA;  A 0.51 0.51 0.0 0 0 434.57 518.13&#xA;  L 434.54 528.35&#xA;  A 8.07 6.63 -89.8 0 0 441.14 536.44&#xA;  L 441.74 536.44&#xA;  A 8.07 6.63 -89.8 0 0 448.40 528.39&#xA;  L 448.43 518.17&#xA;  A 0.51 0.51 0.0 0 0 447.92 517.66"></path>
<path stroke="#818181" vector-effect="non-scaling-stroke" d="&#xA;  M 417.8919 582.1667&#xA;  A 15.49 14.53 -179.1 0 0 433.1518 596.9382&#xA;  A 15.49 14.53 -179.1 0 0 448.8681 582.6533&#xA;  A 15.49 14.53 -179.1 0 0 433.6082 567.8818&#xA;  A 15.49 14.53 -179.1 0 0 417.8919 582.1667"></path>
</g>
<path fill="#030303" d="&#xA;  M 422.30 407.46&#xA;  A 0.96 0.96 0.0 0 1 422.31 408.79&#xA;  Q 416.79 414.56 418.27 422.52&#xA;  C 419.11 427.05 423.01 430.39 427.15 426.67&#xA;  Q 428.41 425.53 429.55 421.82&#xA;  C 432.11 413.47 433.73 403.64 444.73 404.72&#xA;  Q 450.12 405.24 453.31 410.42&#xA;  C 457.44 417.12 455.92 428.42 450.90 434.52&#xA;  A 0.77 0.77 0.0 0 1 449.76 434.57&#xA;  L 445.61 430.43&#xA;  A 0.70 0.70 0.0 0 1 445.56 429.50&#xA;  Q 449.59 424.42 448.71 417.73&#xA;  C 447.77 410.65 440.65 410.85 438.81 417.29&#xA;  C 436.91 423.90 434.86 436.25 424.56 435.88&#xA;  Q 414.06 435.50 411.71 425.34&#xA;  Q 408.95 413.35 417.10 403.83&#xA;  A 1.03 1.02 42.8 0 1 418.61 403.78&#xA;  L 422.30 407.46&#xA;  Z"></path>
<path fill="#030303" d="&#xA;  M 433.23 452.28&#xA;  C 454.10 452.12 462.97 476.38 449.34 490.95&#xA;  A 0.61 0.60 -45.6 0 1 448.46 490.96&#xA;  L 444.19 486.69&#xA;  A 0.84 0.83 44.9 0 1 444.18 485.51&#xA;  C 454.07 475.53 447.40 460.16 433.29 460.28&#xA;  C 419.18 460.39 412.75 475.85 422.80 485.68&#xA;  A 0.84 0.83 -45.8 0 1 422.81 486.86&#xA;  L 418.61 491.20&#xA;  A 0.61 0.60 44.7 0 1 417.73 491.20&#xA;  C 403.87 476.85 412.35 452.45 433.23 452.28&#xA;  Z"></path>
<path fill="#030303" d="&#xA;  M 412.31 517.59&#xA;  A 0.53 0.53 0.0 0 1 411.78 517.06&#xA;  L 411.78 510.65&#xA;  A 0.54 0.54 0.0 0 1 412.32 510.11&#xA;  L 454.30 510.11&#xA;  A 0.74 0.73 90.0 0 1 455.03 510.85&#xA;  Q 455.13 519.98 454.99 528.99&#xA;  C 454.84 538.41 448.76 545.66 438.56 543.66&#xA;  Q 432.13 542.40 429.49 534.89&#xA;  A 0.72 0.71 63.3 0 0 428.42 534.53&#xA;  L 412.38 545.09&#xA;  A 0.45 0.45 0.0 0 1 411.68 544.71&#xA;  L 411.68 537.13&#xA;  A 0.52 0.51 73.8 0 1 411.91 536.70&#xA;  L 427.62 526.36&#xA;  A 0.65 0.64 73.6 0 0 427.91 525.82&#xA;  L 427.91 518.02&#xA;  A 0.43 0.43 0.0 0 0 427.48 517.59&#xA;  L 412.31 517.59&#xA;  Z&#xA;  M 447.92 517.66&#xA;  L 435.08 517.62&#xA;  A 0.51 0.51 0.0 0 0 434.57 518.13&#xA;  L 434.54 528.35&#xA;  A 8.07 6.63 -89.8 0 0 441.14 536.44&#xA;  L 441.74 536.44&#xA;  A 8.07 6.63 -89.8 0 0 448.40 528.39&#xA;  L 448.43 518.17&#xA;  A 0.51 0.51 0.0 0 0 447.92 517.66&#xA;  Z"></path>
<path fill="#ffffff" d="&#xA;  M 447.92 517.66&#xA;  A 0.51 0.51 0.0 0 1 448.43 518.17&#xA;  L 448.40 528.39&#xA;  A 8.07 6.63 -89.8 0 1 441.74 536.44&#xA;  L 441.14 536.44&#xA;  A 8.07 6.63 -89.8 0 1 434.54 528.35&#xA;  L 434.57 518.13&#xA;  A 0.51 0.51 0.0 0 1 435.08 517.62&#xA;  L 447.92 517.66&#xA;  Z"></path>
<path fill="#030303" d="&#xA;  M 455.83 582.39&#xA;  A 22.42 22.42 0.0 0 1 433.41 604.81&#xA;  A 22.42 22.42 0.0 0 1 410.99 582.39&#xA;  A 22.42 22.42 0.0 0 1 433.41 559.97&#xA;  A 22.42 22.42 0.0 0 1 455.83 582.39&#xA;  Z&#xA;  M 417.8919 582.1667&#xA;  A 15.49 14.53 -179.1 0 0 433.1518 596.9382&#xA;  A 15.49 14.53 -179.1 0 0 448.8681 582.6533&#xA;  A 15.49 14.53 -179.1 0 0 433.6082 567.8818&#xA;  A 15.49 14.53 -179.1 0 0 417.8919 582.1667&#xA;  Z"></path>
<ellipse fill="#ffffff" cx="0.00" cy="0.00" transform="translate(433.38,582.41) rotate(-179.1)" rx="15.49" ry="14.53"></ellipse>
<path fill="#030303" d="&#xA;  M 454.94 623.13&#xA;  L 455.00 629.86&#xA;  A 0.55 0.55 0.0 0 1 454.45 630.41&#xA;  L 419.07 630.41&#xA;  A 0.56 0.55 -89.5 0 0 418.52 630.96&#xA;  L 418.45 649.95&#xA;  A 0.55 0.54 90.0 0 1 417.91 650.50&#xA;  L 412.37 650.50&#xA;  A 0.58 0.57 -0.0 0 1 411.79 649.93&#xA;  L 411.72 623.08&#xA;  A 0.47 0.46 -0.0 0 1 412.19 622.62&#xA;  L 454.39 622.58&#xA;  A 0.56 0.55 89.4 0 1 454.94 623.13&#xA;  Z"></path>
<path fill="#030303" d="&#xA;  M 418.50 676.28&#xA;  L 418.50 695.19&#xA;  A 0.58 0.58 0.0 0 1 417.92 695.77&#xA;  L 412.35 695.77&#xA;  A 0.58 0.58 0.0 0 1 411.77 695.19&#xA;  L 411.77 668.48&#xA;  A 0.58 0.58 0.0 0 1 412.35 667.90&#xA;  L 454.37 667.90&#xA;  A 0.58 0.58 0.0 0 1 454.95 668.48&#xA;  L 454.95 675.12&#xA;  A 0.58 0.58 0.0 0 1 454.37 675.70&#xA;  L 419.08 675.70&#xA;  A 0.58 0.58 0.0 0 0 418.50 676.28&#xA;  Z"></path>
<path fill="#030303" d="&#xA;  M 433.61 774.55&#xA;  Q 434.57 774.55 435.09 774.69&#xA;  A 1.76 1.76 0.0 0 1 436.39 776.39&#xA;  L 436.41 1285.29&#xA;  A 0.34 0.31 22.7 0 0 436.52 1285.53&#xA;  Q 436.83 1285.80 437.19 1285.43&#xA;  Q 451.31 1271.08 461.04 1261.44&#xA;  A 2.73 2.73 0.0 0 1 465.02 1261.59&#xA;  L 465.13 1261.72&#xA;  A 3.05 3.05 0.0 0 1 464.99 1265.88&#xA;  Q 453.17 1277.71 436.41 1294.67&#xA;  Q 435.19 1295.91 433.65 1295.91&#xA;  Q 432.11 1295.91 430.88 1294.67&#xA;  Q 414.12 1277.71 402.30 1265.88&#xA;  A 3.05 3.05 0.0 0 1 402.16 1261.72&#xA;  L 402.27 1261.59&#xA;  A 2.73 2.73 0.0 0 1 406.25 1261.44&#xA;  Q 415.98 1271.08 430.10 1285.43&#xA;  Q 430.46 1285.80 430.77 1285.53&#xA;  A 0.34 0.31 -22.7 0 0 430.88 1285.29&#xA;  L 430.83 776.39&#xA;  A 1.76 1.76 0.0 0 1 432.14 774.69&#xA;  Q 432.66 774.55 433.61 774.55&#xA;  Z"></path>
</svg>