<?xml version="1.0" encoding="UTF-8" standalone="no"?>
<!DOCTYPE svg PUBLIC "-//W3C//DTD SVG 1.1//EN" "http://www.w3.org/Graphics/SVG/1.1/DTD/svg11.dtd">
<svg xmlns="http://www.w3.org/2000/svg" version="1.1" viewBox="0.00 0.00 1774.00 887.00">
<g stroke-width="2.00" fill="none" stroke-linecap="butt">
<path stroke="#83a8cf" vector-effect="non-scaling-stroke" d="
  M 1272.14 303.29
  L 1272.14 373.97
  A 0.29 0.29 0.0 0 0 1272.42 374.26
  Q 1287.64 374.35 1324.50 374.28
  C 1338.19 374.26 1350.24 364.38 1355.01 351.78
  C 1357.24 345.90 1357.17 340.49 1357.14 333.25
  Q 1357.02 306.94 1357.09 172.16
  A 0.58 0.58 0.0 0 0 1356.51 171.58
  Q 1325.06 171.63 1312.46 171.49
  Q 1301.48 171.36 1296.31 172.94
  C 1282.98 177.02 1272.17 190.05 1272.17 204.27
  Q 1272.13 278.91 1272.14 287.82
  A 0.41 0.40 -77.5 0 0 1272.37 288.19
  C 1282.59 293.11 1295.78 297.73 1306.88 294.66
  C 1315.67 292.23 1318.03 285.71 1318.05 277.25
  Q 1318.09 257.43 1318.11 241.29
  A 0.63 0.62 90.0 0 1 1318.73 240.66
  L 1346.16 240.66
  A 0.42 0.42 0.0 0 1 1346.58 241.08
  Q 1346.61 263.55 1346.61 279.51
  C 1346.63 307.81 1310.13 308.85 1290.75 306.20
  Q 1282.64 305.09 1272.79 302.78
  A 0.53 0.52 -83.1 0 0 1272.14 303.29"
/>
<path stroke="#e78092" vector-effect="non-scaling-stroke" d="
  M 1440.75 257.59
  C 1426.97 251.22 1403.18 244.35 1391.82 258.71
  C 1387.33 264.38 1386.71 274.32 1388.79 280.94
  C 1395.63 302.67 1425.88 295.86 1440.33 288.57
  A 0.63 0.63 0.0 0 1 1441.24 289.14
  L 1441.24 301.82
  A 0.77 0.76 81.2 0 1 1440.71 302.55
  Q 1434.63 304.47 1428.78 305.31
  Q 1411.81 307.76 1395.70 306.35
  C 1386.37 305.53 1374.47 302.23 1367.48 294.83
  A 0.37 0.36 23.1 0 0 1366.85 295.08
  L 1366.85 373.68
  A 0.60 0.59 -0.5 0 0 1367.46 374.27
  Q 1394.61 374.15 1412.98 374.28
  Q 1422.89 374.35 1427.87 372.79
  C 1440.89 368.70 1451.49 355.15 1451.50 341.49
  Q 1451.52 301.77 1451.52 172.21
  A 0.65 0.65 0.0 0 0 1450.87 171.56
  Q 1430.54 171.70 1409.52 171.61
  Q 1398.62 171.56 1396.51 171.83
  C 1383.36 173.51 1372.29 183.12 1368.39 195.47
  Q 1366.82 200.42 1366.84 211.16
  Q 1366.88 236.07 1366.80 251.35
  A 0.44 0.43 -23.1 0 0 1367.55 251.65
  C 1375.78 243.09 1389.35 239.83 1400.77 239.15
  Q 1420.71 237.97 1440.74 243.48
  A 0.68 0.68 0.0 0 1 1441.23 244.13
  L 1441.23 257.28
  A 0.34 0.33 -77.4 0 1 1440.75 257.59"
/>
<path stroke="#81c5a2" vector-effect="non-scaling-stroke" d="
  M 1462.00 240.71
  Q 1470.08 240.74 1512.96 240.56
  C 1518.08 240.54 1527.08 243.22 1530.56 247.92
  C 1534.96 253.85 1534.07 262.33 1528.62 266.98
  Q 1524.62 270.40 1519.63 271.27
  A 0.44 0.44 0.0 0 0 1519.63 272.14
  C 1525.81 273.29 1532.58 276.58 1535.29 282.12
  C 1541.99 295.83 1528.20 305.16 1516.49 305.29
  Q 1489.58 305.59 1461.99 305.30
  A 0.54 0.53 -89.5 0 0 1461.45 305.84
  L 1461.45 373.59
  A 0.68 0.67 90.0 0 0 1462.12 374.27
  Q 1497.86 374.20 1503.78 374.29
  Q 1516.62 374.49 1521.61 372.85
  Q 1535.16 368.39 1541.89 355.63
  Q 1545.63 348.54 1545.65 341.84
  Q 1545.81 270.08 1545.65 171.95
  A 0.36 0.36 0.0 0 0 1545.28 171.59
  Q 1517.01 171.75 1505.18 171.55
  Q 1490.59 171.31 1485.42 172.89
  C 1471.67 177.12 1461.54 190.19 1461.48 204.99
  Q 1461.40 224.60 1461.42 240.14
  A 0.58 0.57 0.0 0 0 1462.00 240.71"
/>
<path stroke="#f8aa81" vector-effect="non-scaling-stroke" d="
  M 939.89 343.93
  Q 940.07 344.21 940.27 344.05"
/>
<path stroke="#ffcd81" vector-effect="non-scaling-stroke" d="
  M 940.27 344.05
  C 958.57 358.44 981.75 365.78 1004.73 363.88
  C 1060.35 359.28 1099.68 306.39 1089.66 251.93
  C 1082.76 214.36 1053.66 183.00 1015.51 175.55
  C 988.36 170.26 961.97 176.89 939.85 194.10"
/>
<path stroke="#f8aa81" vector-effect="non-scaling-stroke" d="
  M 939.85 194.10
  Q 939.77 194.03 939.70 193.95"
/>
<path stroke="#f58089" vector-effect="non-scaling-stroke" d="
  M 939.70 193.95
  C 904.35 166.06 855.61 167.34 821.43 196.43
  Q 797.07 217.16 789.75 250.26
  C 784.29 274.95 790.33 301.69 804.25 322.36
  C 834.60 367.43 896.82 378.46 939.89 343.93"
/>
<path stroke="#ee2b0a" vector-effect="non-scaling-stroke" d="
  M 939.70 193.95
  Q 939.32 194.99 937.95 195.61
  A 1.95 1.94 -77.1 0 0 937.44 195.93
  C 909.23 220.45 897.56 260.84 908.48 296.45
  Q 916.67 323.13 936.54 340.95
  Q 937.84 342.12 939.22 342.95
  A 1.03 1.02 7.8 0 1 939.68 343.55
  Q 939.77 343.88 939.89 343.93"
/>
<path stroke="#f87802" vector-effect="non-scaling-stroke" d="
  M 940.27 344.05
  Q 940.55 343.44 941.00 343.02
  Q 948.10 336.45 952.56 331.33
  Q 962.10 320.39 967.81 306.53
  C 981.75 272.72 976.13 234.94 952.82 206.96
  Q 950.27 203.89 939.85 194.10"
/>
<path stroke="#809ae7" vector-effect="non-scaling-stroke" d="
  M 500.18 208.95
  Q 483.11 202.84 465.52 203.13
  C 439.12 203.57 405.75 217.53 407.12 249.43
  C 407.50 258.49 412.76 266.77 420.04 272.40
  C 428.85 279.21 441.90 285.15 448.34 288.67
  C 453.51 291.50 458.28 296.39 456.01 302.73
  C 452.75 311.87 439.06 313.36 430.47 312.90
  C 419.90 312.34 409.32 309.13 399.54 304.64
  A 0.59 0.58 18.6 0 0 398.73 305.04
  L 392.32 333.10
  A 0.65 0.65 0.0 0 0 392.73 333.86
  Q 421.56 344.66 451.52 339.25
  C 469.27 336.04 485.61 326.01 491.46 308.43
  C 495.68 295.74 494.03 283.08 484.79 273.23
  C 479.63 267.73 472.27 263.79 465.51 260.25
  Q 464.30 259.62 452.68 253.35
  Q 449.38 251.57 446.94 249.08
  C 441.28 243.28 445.55 235.79 452.07 233.54
  C 465.42 228.93 480.85 231.62 493.68 237.35
  A 0.60 0.59 18.5 0 0 494.50 236.95
  L 500.68 209.86
  A 0.78 0.78 0.0 0 0 500.18 208.95"
/>
<path stroke="#809ae7" vector-effect="non-scaling-stroke" d="
  M 271.71 297.20
  Q 264.15 256.28 258.65 219.82
  C 257.13 209.75 248.46 204.88 238.78 204.90
  Q 229.13 204.93 182.81 204.95
  C 179.76 204.95 177.60 204.48 177.54 207.94
  A 1.00 1.00 0.0 0 0 178.33 208.93
  Q 193.20 211.93 207.22 217.29
  C 212.59 219.35 218.57 223.11 220.09 228.42
  Q 237.63 289.85 251.53 338.17
  A 0.86 0.84 81.7 0 0 252.34 338.79
  L 288.58 338.79
  A 1.07 1.05 -78.0 0 0 289.55 338.15
  Q 294.28 327.47 321.71 265.46
  Q 334.09 237.46 347.23 205.92
  A 0.27 0.27 0.0 0 0 346.98 205.55
  L 310.76 205.55
  A 0.80 0.78 11.1 0 0 310.03 206.03
  L 272.06 297.23
  A 0.19 0.18 -39.4 0 1 271.71 297.20"
/>
<path stroke="#809ae7" vector-effect="non-scaling-stroke" d="
  M 367.86 338.84
  A 0.53 0.53 0.0 0 0 368.37 338.43
  L 398.59 206.21
  A 0.53 0.53 0.0 0 0 398.08 205.56
  L 363.51 205.56
  A 0.53 0.53 0.0 0 0 363.00 205.97
  L 332.78 338.19
  A 0.53 0.53 0.0 0 0 333.29 338.84
  L 367.86 338.84"
/>
<path stroke="#809ae7" vector-effect="non-scaling-stroke" d="
  M 619.12 338.78
  A 0.68 0.68 0.0 0 0 619.78 337.96
  L 591.37 206.27
  A 0.84 0.83 -5.9 0 0 590.55 205.61
  Q 582.29 205.62 565.52 205.57
  Q 558.59 205.55 555.65 206.83
  C 547.14 210.52 545.76 215.80 541.14 226.28
  Q 519.89 274.49 491.94 338.40
  A 0.29 0.29 0.0 0 0 492.21 338.81
  L 528.08 338.81
  A 1.32 1.32 0.0 0 0 529.31 337.97
  L 536.43 319.66
  A 0.86 0.85 10.4 0 1 537.23 319.12
  L 581.92 319.12
  A 0.71 0.70 -6.1 0 1 582.61 319.67
  L 586.62 338.25
  A 0.68 0.67 -5.8 0 0 587.28 338.78
  L 619.12 338.78"
/>
<path stroke="#81c5a2" vector-effect="non-scaling-stroke" d="
  M 1479.44 251.75
  L 1479.46 266.49
  A 0.60 0.60 0.0 0 0 1480.06 267.09
  L 1496.65 267.06
  A 9.27 7.34 -0.1 0 0 1505.91 259.71
  L 1505.91 258.45
  A 9.27 7.34 -0.1 0 0 1496.63 251.12
  L 1480.04 251.15
  A 0.60 0.60 0.0 0 0 1479.44 251.75"
/>
<path stroke="#81c5a2" vector-effect="non-scaling-stroke" d="
  M 1479.46 278.27
  L 1479.48 294.17
  A 0.74 0.74 0.0 0 0 1480.23 294.90
  L 1497.95 294.87
  A 10.70 8.28 -0.1 0 0 1508.63 286.57
  L 1508.63 285.75
  A 10.70 8.28 -0.1 0 0 1497.91 277.49
  L 1480.19 277.52
  A 0.74 0.74 0.0 0 0 1479.46 278.27"
/>
<path stroke="#9be0ff" vector-effect="non-scaling-stroke" d="
  M 1629.00 552.09
  Q 1642.48 537.53 1637.40 520.81
  C 1632.36 504.25 1618.41 495.83 1601.25 499.22
  Q 1598.93 499.68 1591.81 502.64"
/>
<path stroke="#fe8098" vector-effect="non-scaling-stroke" d="
  M 1591.81 502.64
  L 1591.24 502.44"
/>
<path stroke="#f58089" vector-effect="non-scaling-stroke" d="
  M 1591.24 502.44
  Q 1579.90 496.72 1568.57 490.94
  Q 1563.74 488.47 1561.25 488.24
  Q 1557.37 487.89 1553.67 489.87
  Q 1549.50 492.10 1544.94 494.51
  Q 1522.55 506.30 1500.28 517.62
  Q 1495.64 519.97 1494.05 521.94
  Q 1491.62 524.95 1491.63 529.05
  Q 1491.67 554.48 1491.62 592.73
  Q 1491.61 598.26 1492.51 600.53
  Q 1494.02 604.36 1497.76 606.26
  Q 1543.33 629.41 1553.01 634.40
  Q 1556.52 636.21 1559.11 636.49
  Q 1562.68 636.87 1565.55 635.43
  Q 1595.51 620.32 1617.86 608.79
  Q 1623.83 605.71 1625.17 604.61
  C 1629.56 600.98 1629.14 595.11 1629.11 588.75
  Q 1629.05 570.57 1629.00 552.09"
/>
<path stroke="#f40121" vector-effect="non-scaling-stroke" d="
  M 1591.24 502.44
  L 1591.27 503.11"
/>
<path stroke="#916188" vector-effect="non-scaling-stroke" d="
  M 1591.27 503.11
  C 1575.51 513.91 1571.69 537.40 1586.37 551.26
  C 1598.90 563.10 1615.76 563.56 1629.00 552.09"
/>
<path stroke="#9a6197" vector-effect="non-scaling-stroke" d="
  M 1591.27 503.11
  L 1591.81 502.64"
/>
<path stroke="#fe8098" vector-effect="non-scaling-stroke" d="
  M 152.22 508.35
  Q 158.24 508.33 170.01 508.31
  Q 176.84 508.30 193.50 510.22
  Q 210.18 512.15 226.85 517.86
  Q 242.01 523.05 252.56 532.62
  C 263.06 542.12 265.90 556.04 259.46 568.74
  C 254.16 579.21 244.22 586.00 233.34 589.89
  Q 213.63 596.93 192.06 596.74
  A 0.99 0.97 6.2 0 0 191.10 597.50
  L 185.63 621.42
  A 0.38 0.38 0.0 0 0 186.00 621.89
  Q 239.48 621.94 264.26 621.89
  C 273.15 621.88 281.12 616.63 284.15 608.32
  Q 285.21 605.40 285.21 597.53
  Q 285.21 531.45 285.16 509.57
  C 285.14 500.08 280.16 493.28 271.40 489.78
  Q 268.15 488.48 260.95 488.62
  Q 256.21 488.72 174.27 488.63
  Q 168.41 488.62 165.39 489.80
  Q 153.70 494.37 151.70 507.74
  A 0.53 0.53 0.0 0 0 152.22 508.35"
/>
<path stroke="#e78092" vector-effect="non-scaling-stroke" d="
  M 1394.76 529.78
  A 38.96 38.96 0.0 0 0 1355.80 490.82
  L 1252.82 490.82
  A 38.96 38.96 0.0 0 0 1213.86 529.78
  L 1213.86 632.38
  A 38.96 38.96 0.0 0 0 1252.82 671.34
  L 1355.80 671.34
  A 38.96 38.96 0.0 0 0 1394.76 632.38
  L 1394.76 529.78"
/>
<path stroke="#e28382" vector-effect="non-scaling-stroke" d="
  M 432.51 529.19
  L 432.51 618.90
  A 0.44 0.44 0.0 0 0 432.95 619.34
  L 449.56 619.34
  A 0.72 0.72 0.0 0 0 450.28 618.62
  L 450.28 591.94
  A 0.64 0.63 90.0 0 1 450.91 591.30
  L 463.44 591.30
  A 1.07 1.07 0.0 0 1 464.32 591.76
  L 483.52 618.76
  A 1.47 1.47 0.0 0 0 484.72 619.38
  L 504.75 619.38
  A 0.41 0.40 72.4 0 0 505.08 618.74
  L 481.92 586.17
  A 0.67 0.66 53.7 0 1 482.06 585.25
  C 496.93 573.98 499.18 552.37 486.75 538.64
  C 481.48 532.81 473.38 528.85 465.73 528.61
  Q 459.20 528.40 433.26 528.44
  A 0.75 0.75 0.0 0 0 432.51 529.19"
/>
<path stroke="#fe8098" vector-effect="non-scaling-stroke" d="
  M 151.78 532.95
  Q 151.85 560.31 151.81 598.08
  Q 151.80 605.33 152.75 607.98
  C 155.70 616.17 163.41 622.17 172.30 621.89
  Q 173.85 621.84 176.64 621.87
  A 0.79 0.79 0.0 0 0 177.41 621.27
  L 199.74 531.78
  A 0.73 0.73 0.0 0 0 199.09 530.88
  Q 175.67 529.04 152.43 532.21
  A 0.75 0.75 0.0 0 0 151.78 532.95"
/>
<path stroke="#fe8098" vector-effect="non-scaling-stroke" d="
  M 195.86 580.84
  Q 206.50 581.53 219.16 579.55
  C 230.95 577.70 239.93 575.16 249.57 569.30
  C 253.84 566.71 257.78 562.14 257.37 556.99
  C 256.68 548.48 244.49 541.90 237.36 539.19
  Q 222.89 533.69 208.05 532.03
  A 0.93 0.93 0.0 0 0 207.06 532.72
  L 195.26 580.02
  A 0.66 0.66 0.0 0 0 195.86 580.84"
/>
<path stroke="#e28382" vector-effect="non-scaling-stroke" d="
  M 537.67 536.39
  L 537.67 619.77
  A 0.49 0.49 0.0 0 0 538.16 620.26
  L 546.58 620.26
  A 0.71 0.71 0.0 0 0 547.29 619.55
  L 547.29 588.15
  A 0.63 0.63 0.0 0 1 547.91 587.52
  Q 557.76 587.45 561.84 587.56
  Q 570.08 587.78 575.41 585.67
  C 585.17 581.82 590.60 573.58 591.17 563.44
  C 592.06 547.69 581.57 536.62 565.98 535.76
  Q 559.48 535.40 538.32 535.72
  A 0.67 0.66 89.6 0 0 537.67 536.39"
/>
<path stroke="#e28382" vector-effect="non-scaling-stroke" d="
  M 595.60 587.44
  C 595.59 595.52 597.43 603.05 601.69 609.57
  C 606.13 616.39 614.23 621.64 622.79 622.06
  Q 635.02 622.65 643.67 612.82
  A 0.43 0.43 0.0 0 1 644.42 613.11
  L 644.42 619.10
  A 1.17 1.17 0.0 0 0 645.59 620.27
  L 652.06 620.26
  A 1.79 1.78 -2.4 0 0 653.84 618.33
  C 653.45 613.78 654.15 608.44 653.96 603.85
  Q 653.83 600.92 653.85 587.53
  Q 653.87 574.14 654.00 571.20
  C 654.21 566.62 653.53 561.27 653.93 556.72
  A 1.79 1.78 2.5 0 0 652.16 554.79
  L 645.69 554.76
  A 1.17 1.17 0.0 0 0 644.51 555.93
  L 644.50 561.92
  A 0.43 0.43 0.0 0 1 643.74 562.20
  Q 635.12 552.35 622.89 552.90
  C 614.33 553.30 606.22 558.52 601.75 565.33
  C 597.48 571.84 595.61 579.36 595.60 587.44"
/>
<path stroke="#e28382" vector-effect="non-scaling-stroke" d="
  M 707.36 554.70
  A 0.38 0.37 -79.9 0 0 707.01 554.95
  L 690.89 604.65
  A 0.53 0.53 0.0 0 1 689.89 604.66
  L 672.85 554.87
  A 0.33 0.33 0.0 0 0 672.54 554.65
  L 662.91 554.65
  A 0.16 0.16 0.0 0 0 662.76 554.87
  L 685.29 617.51
  A 4.77 4.70 -49.4 0 1 685.47 620.07
  C 684.32 625.55 681.56 631.08 674.83 629.71
  Q 672.35 629.21 670.97 627.71
  A 0.98 0.98 0.0 0 0 669.43 627.82
  L 666.31 632.40
  A 1.76 1.76 0.0 0 0 666.69 634.78
  C 673.67 640.17 683.18 639.79 689.19 633.45
  Q 691.61 630.91 694.43 622.16
  Q 699.01 607.94 716.91 554.90
  A 0.15 0.15 0.0 0 0 716.77 554.70
  L 707.36 554.70"
/>
<path stroke="#f8aa81" vector-effect="non-scaling-stroke" d="
  M 877.86 612.33
  C 879.92 619.57 886.25 622.43 893.22 622.95
  C 903.82 623.74 914.28 620.78 921.45 612.66
  A 0.34 0.34 0.0 0 1 922.03 612.79
  Q 924.78 622.24 934.73 622.90
  C 946.48 623.67 955.02 616.45 962.73 607.48
  Q 973.92 594.46 982.95 581.32
  A 0.59 0.59 0.0 0 0 982.46 580.40
  L 974.45 580.40
  A 1.45 1.44 17.2 0 0 973.26 581.02
  Q 968.83 587.48 961.21 597.60
  Q 958.08 601.76 954.89 605.06
  Q 949.70 610.42 947.84 611.82
  C 945.45 613.63 939.84 616.88 938.79 612.52
  Q 938.40 610.92 939.21 608.01
  C 943.70 591.93 948.22 576.65 952.62 559.84
  A 0.70 0.69 -82.6 0 0 951.95 558.96
  Q 935.55 558.90 929.44 573.66
  Q 927.67 577.93 923.34 594.92
  Q 922.13 599.63 920.32 602.17
  C 916.41 607.64 910.49 612.85 903.96 614.48
  C 900.78 615.28 896.33 615.85 895.08 612.19
  Q 894.52 610.55 895.68 606.29
  Q 903.70 576.66 908.58 559.77
  A 0.75 0.75 0.0 0 0 907.87 558.81
  Q 896.59 558.62 889.50 566.62
  Q 885.96 570.61 883.03 580.75
  Q 879.98 591.25 878.61 597.54
  A 7.07 7.00 -20.5 0 1 877.35 600.27
  C 872.71 606.45 869.12 612.65 861.26 614.56
  A 2.54 2.50 -24.1 0 1 858.59 613.56
  Q 857.14 611.47 858.01 608.75
  C 860.11 602.23 862.16 592.84 864.08 586.75
  Q 866.43 579.28 871.67 559.45
  A 0.49 0.49 0.0 0 0 871.21 558.84
  Q 860.11 558.39 848.16 559.50
  C 829.37 561.24 812.79 568.51 803.49 585.76
  Q 797.73 596.42 796.92 606.75
  C 796.09 617.28 804.18 622.33 813.53 622.96
  Q 829.49 624.03 840.45 612.72
  A 0.41 0.41 0.0 0 1 841.14 612.93
  C 842.29 619.28 848.34 622.96 854.69 622.91
  Q 867.84 622.81 877.12 612.16
  A 0.43 0.43 0.0 0 1 877.86 612.33"
/>
<path stroke="#f8aa81" vector-effect="non-scaling-stroke" d="
  M 1011.50 603.47
  Q 1021.98 603.31 1023.74 603.31
  C 1033.49 603.36 1043.00 597.91 1045.46 588.13
  C 1049.46 572.18 1039.28 560.02 1023.06 559.87
  Q 1009.82 559.75 999.99 559.93
  A 0.53 0.53 0.0 0 0 999.47 560.46
  L 999.47 622.08
  A 0.71 0.71 0.0 0 0 1000.18 622.79
  L 1010.25 622.79
  A 0.67 0.67 0.0 0 0 1010.92 622.12
  L 1010.92 604.06
  A 0.59 0.59 0.0 0 1 1011.50 603.47"
/>
<path stroke="#f8aa81" vector-effect="non-scaling-stroke" d="
  M 1074.16 610.20
  Q 1078.45 610.20 1085.10 610.17
  A 1.06 1.04 80.0 0 1 1086.10 610.88
  L 1089.95 622.13
  A 1.07 1.05 80.3 0 0 1090.95 622.85
  L 1101.87 622.85
  A 0.52 0.51 79.7 0 0 1102.35 622.15
  L 1079.17 560.75
  A 1.50 1.50 0.0 0 0 1077.86 559.78
  Q 1076.09 559.66 1074.17 559.66
  Q 1072.26 559.66 1070.48 559.78
  A 1.50 1.50 0.0 0 0 1069.17 560.75
  L 1045.97 622.14
  A 0.52 0.51 -79.7 0 0 1046.45 622.84
  L 1057.37 622.84
  A 1.07 1.05 -80.2 0 0 1058.37 622.12
  L 1062.22 610.88
  A 1.06 1.04 -80.0 0 1 1063.22 610.16
  Q 1069.88 610.20 1074.16 610.20"
/>
<path stroke="#f8aa81" vector-effect="non-scaling-stroke" d="
  M 1123.95 622.79
  Q 1128.37 622.80 1128.97 622.85
  A 0.67 0.67 0.0 0 0 1129.70 622.19
  L 1129.70 604.12
  A 5.04 4.97 59.5 0 1 1130.30 601.74
  L 1152.55 560.60
  A 0.44 0.44 0.0 0 0 1152.17 559.95
  L 1140.54 559.95
  A 1.32 1.32 0.0 0 0 1139.37 560.66
  Q 1131.21 576.23 1124.63 589.38
  Q 1124.39 589.87 1124.02 589.87
  Q 1123.64 589.86 1123.40 589.38
  Q 1116.88 576.20 1108.78 560.60
  A 1.32 1.32 0.0 0 0 1107.61 559.88
  L 1095.98 559.84
  A 0.44 0.44 0.0 0 0 1095.60 560.49
  L 1117.68 601.71
  A 5.04 4.97 -59.3 0 1 1118.27 604.10
  L 1118.20 622.17
  A 0.67 0.67 0.0 0 0 1118.93 622.83
  Q 1119.53 622.78 1123.95 622.79"
/>
<path stroke="#e28382" vector-effect="non-scaling-stroke" d="
  M 432.41 641.73
  A 0.17 0.17 0.0 0 0 432.54 641.77
  L 520.62 629.52
  A 0.17 0.17 0.0 0 0 520.77 629.35
  L 520.77 629.09
  A 0.17 0.17 0.0 0 0 520.60 628.92
  L 417.20 628.92
  A 0.17 0.17 0.0 0 0 417.09 629.22
  L 432.41 641.73"
/>
<path stroke="#9c9998" vector-effect="non-scaling-stroke" d="
  M 124.39 683.15
  L 124.39 668.92
  A 0.45 0.45 0.0 0 1 124.88 668.47
  Q 130.30 668.94 134.60 668.35
  C 150.26 666.18 152.53 644.97 136.45 640.91
  C 132.68 639.95 128.59 640.22 124.41 640.26
  Q 117.47 640.33 116.86 640.37
  A 1.92 1.92 0.0 0 0 115.06 642.29
  L 115.05 683.12
  A 0.39 0.39 0.0 0 0 115.44 683.51
  L 124.03 683.51
  A 0.36 0.36 0.0 0 0 124.39 683.15"
/>
<path stroke="#9c9998" vector-effect="non-scaling-stroke" d="
  M 231.82 683.14
  L 231.83 668.91
  A 0.45 0.45 0.0 0 1 232.31 668.46
  Q 237.73 668.93 242.03 668.34
  C 257.69 666.17 259.96 644.97 243.88 640.91
  C 240.11 639.95 236.03 640.22 231.85 640.26
  Q 224.91 640.33 224.30 640.37
  A 1.92 1.92 0.0 0 0 222.50 642.29
  L 222.49 683.11
  A 0.39 0.39 0.0 0 0 222.88 683.50
  L 231.46 683.50
  A 0.36 0.36 0.0 0 0 231.82 683.14"
/>
<path stroke="#9c9998" vector-effect="non-scaling-stroke" d="
  M 168.55 682.56
  L 169.21 683.27
  A 0.82 0.80 67.5 0 0 169.79 683.52
  L 177.70 683.52
  A 0.62 0.62 0.0 0 0 178.32 682.88
  Q 178.17 668.00 178.30 664.02
  Q 178.46 659.15 177.33 657.13
  C 173.29 649.88 162.37 650.46 154.05 652.18
  A 1.06 1.05 84.3 0 0 153.20 653.21
  L 153.20 654.91
  A 0.75 0.75 0.0 0 0 154.22 655.61
  C 157.91 654.18 168.52 652.25 168.74 658.91
  Q 168.80 660.92 168.69 661.84
  A 0.60 0.59 10.0 0 1 167.96 662.34
  C 160.82 660.69 152.04 661.77 150.03 669.62
  C 147.54 679.31 156.29 686.68 165.44 683.23
  Q 167.38 682.49 167.80 682.36
  A 0.72 0.72 0.0 0 1 168.55 682.56"
/>
<path stroke="#9c9998" vector-effect="non-scaling-stroke" d="
  M 201.58 670.59
  A 0.54 0.54 0.0 0 1 200.60 670.62
  L 190.95 651.35
  A 0.03 0.02 58.3 0 0 190.93 651.34
  L 181.53 651.34
  A 0.11 0.11 0.0 0 0 181.43 651.50
  L 196.23 681.07
  A 1.33 1.29 42.7 0 1 196.29 682.12
  Q 194.97 685.80 192.89 688.57
  Q 191.38 690.59 186.26 690.42
  A 0.59 0.58 -89.1 0 0 185.66 691.01
  L 185.66 694.89
  A 0.61 0.61 0.0 0 0 186.22 695.50
  Q 192.25 696.06 196.70 692.64
  Q 199.27 690.66 202.11 683.63
  Q 205.62 674.99 215.85 652.29
  A 0.73 0.73 0.0 0 0 215.18 651.26
  L 210.66 651.26
  A 1.55 1.53 11.0 0 0 209.23 652.21
  L 201.58 670.59"
/>
<path stroke="#9c9998" vector-effect="non-scaling-stroke" d="
  M 275.93 682.55
  L 276.58 683.25
  A 0.82 0.79 67.6 0 0 277.16 683.50
  L 285.04 683.50
  A 0.62 0.62 0.0 0 0 285.66 682.87
  Q 285.51 668.05 285.64 664.08
  Q 285.80 659.23 284.68 657.22
  C 280.66 650.00 269.78 650.57 261.49 652.28
  A 1.05 1.05 0.0 0 0 260.65 653.31
  L 260.65 655.00
  A 0.75 0.74 79.5 0 0 261.66 655.70
  C 265.34 654.28 275.91 652.36 276.12 658.99
  Q 276.18 660.99 276.07 661.91
  A 0.60 0.59 10.1 0 1 275.34 662.41
  C 268.23 660.76 259.49 661.83 257.48 669.65
  C 255.00 679.30 263.71 686.65 272.83 683.21
  Q 274.76 682.48 275.18 682.35
  A 0.72 0.72 0.0 0 1 275.93 682.55"
/>
<path stroke="#9c9998" vector-effect="non-scaling-stroke" d="
  M 308.61 670.45
  A 0.54 0.54 0.0 0 1 307.63 670.48
  L 297.97 651.22
  A 0.03 0.02 58.3 0 0 297.95 651.21
  L 288.55 651.21
  A 0.11 0.11 0.0 0 0 288.45 651.37
  L 303.27 680.94
  A 1.34 1.29 42.7 0 1 303.33 681.99
  Q 302.01 685.67 299.93 688.44
  Q 298.42 690.46 293.30 690.29
  A 0.59 0.58 -89.1 0 0 292.70 690.88
  L 292.70 694.76
  A 0.61 0.61 0.0 0 0 293.26 695.37
  Q 299.29 695.93 303.74 692.51
  Q 306.31 690.53 309.15 683.49
  Q 312.66 674.85 322.88 652.14
  A 0.73 0.73 0.0 0 0 322.20 651.11
  L 317.68 651.12
  A 1.55 1.53 11.0 0 0 316.25 652.07
  L 308.61 670.45"
/>
<path stroke="#9c9998" vector-effect="non-scaling-stroke" d="
  M 1633.37 674.43
  L 1633.37 694.94
  A 0.68 0.67 -0.0 0 0 1634.05 695.61
  L 1639.70 695.61
  A 0.66 0.66 0.0 0 0 1640.36 694.95
  L 1640.36 669.45
  A 1.02 1.01 68.5 0 1 1640.68 668.71
  L 1650.93 659.17
  A 0.47 0.47 0.0 0 0 1650.94 658.50
  L 1646.80 654.36
  A 0.54 0.54 0.0 0 0 1646.01 654.39
  Q 1633.57 668.48 1615.39 675.34
  A 0.76 0.76 0.0 0 0 1615.05 676.49
  L 1618.08 680.75
  A 1.02 1.01 58.7 0 0 1619.36 681.07
  L 1633.04 674.23
  A 0.23 0.23 0.0 0 1 1633.37 674.43"
/>
<path stroke="#9c9998" vector-effect="non-scaling-stroke" d="
  M 1507.05 683.43
  L 1498.44 674.82
  A 0.98 0.97 -52.4 0 1 1498.29 673.64
  Q 1502.61 666.28 1505.45 658.48
  A 0.71 0.71 0.0 0 0 1505.04 657.58
  L 1499.71 655.51
  A 0.64 0.63 -70.4 0 0 1498.88 655.91
  Q 1496.62 663.04 1492.73 670.22
  A 0.41 0.40 -58.0 0 1 1492.15 670.36
  L 1482.22 663.61
  A 0.79 0.78 39.7 0 0 1481.22 663.70
  L 1477.84 667.08
  A 0.85 0.85 0.0 0 0 1477.96 668.38
  L 1488.37 675.46
  A 0.52 0.52 0.0 0 1 1488.48 676.22
  Q 1481.37 685.18 1471.65 689.95
  A 0.72 0.72 0.0 0 0 1471.44 691.09
  L 1475.02 694.95
  A 0.94 0.94 0.0 0 0 1476.16 695.13
  Q 1486.56 689.33 1493.42 680.27
  A 0.79 0.78 41.0 0 1 1494.60 680.19
  L 1502.59 688.17
  A 0.60 0.59 -44.7 0 0 1503.44 688.17
  L 1507.05 684.56
  A 0.81 0.80 45.3 0 0 1507.05 683.43"
/>
<path stroke="#9c9998" vector-effect="non-scaling-stroke" d="
  M 1606.28 662.07
  A 5.91 5.91 0.0 0 0 1600.37 656.16
  A 5.91 5.91 0.0 0 0 1594.46 662.07
  A 5.91 5.91 0.0 0 0 1600.37 667.98
  A 5.91 5.91 0.0 0 0 1606.28 662.07"
/>
<path stroke="#9c9998" vector-effect="non-scaling-stroke" d="
  M 1537.16 656.87
  A 0.54 0.53 -0.0 0 0 1536.62 657.40
  L 1536.62 690.44
  A 1.94 1.93 -70.5 0 0 1537.33 691.94
  L 1539.86 694.00
  A 1.36 1.34 53.0 0 0 1541.23 694.20
  Q 1551.88 689.76 1559.10 680.33
  A 1.00 0.99 -40.2 0 0 1559.19 679.30
  L 1557.07 675.07
  A 1.03 1.02 -41.2 0 0 1555.30 674.96
  Q 1550.79 681.65 1544.05 685.62
  A 0.59 0.59 0.0 0 1 1543.16 685.11
  L 1543.16 657.43
  A 0.56 0.55 -90.0 0 0 1542.61 656.87
  L 1537.16 656.87"
/>
<path stroke="#9c9998" vector-effect="non-scaling-stroke" d="
  M 1524.09 657.86
  A 0.70 0.70 0.0 0 0 1523.39 658.54
  Q 1523.16 665.46 1523.25 669.88
  C 1523.42 678.73 1521.98 684.45 1515.78 690.10
  A 0.93 0.93 0.0 0 0 1515.81 691.50
  L 1519.48 694.49
  A 1.45 1.45 0.0 0 0 1521.47 694.35
  C 1527.55 687.70 1529.72 680.72 1529.93 671.99
  Q 1530.06 666.52 1529.84 658.59
  A 0.75 0.75 0.0 0 0 1529.09 657.86
  L 1524.09 657.86"
/>
<path stroke="#9c9998" vector-effect="non-scaling-stroke" d="
  M 1605.26 691.19
  L 1609.03 686.57
  A 0.77 0.76 41.3 0 0 1608.96 685.53
  Q 1597.45 674.68 1587.67 663.84
  C 1583.62 659.35 1578.85 661.06 1575.63 665.14
  Q 1569.40 673.03 1564.72 677.82
  A 1.15 1.15 0.0 0 0 1564.71 679.41
  L 1568.35 683.33
  A 0.68 0.68 0.0 0 0 1569.37 683.30
  L 1581.44 668.51
  A 1.13 1.13 0.0 0 1 1583.13 668.45
  L 1604.31 691.22
  A 0.63 0.63 0.0 0 0 1605.26 691.19"
/>
<path stroke="#809ae7" vector-effect="non-scaling-stroke" d="
  M 566.44 243.03
  A 0.32 0.32 0.0 0 0 565.83 242.98
  L 546.87 291.77
  A 0.32 0.32 0.0 0 0 547.17 292.21
  L 576.66 292.21
  A 0.32 0.32 0.0 0 0 576.98 291.82
  L 566.44 243.03"
/>
<path stroke="#f58089" vector-effect="non-scaling-stroke" d="
  M 1548.21 605.65
  Q 1548.22 594.51 1548.27 583.25
  C 1548.32 574.12 1541.61 565.46 1532.26 564.34
  Q 1530.54 564.14 1527.27 565.97
  A 0.53 0.52 -28.5 0 1 1526.55 565.76
  C 1523.42 559.75 1515.38 553.32 1508.68 557.74
  C 1505.48 559.85 1505.16 563.59 1505.16 567.25
  Q 1505.17 571.84 1505.11 584.94
  A 0.51 0.50 11.6 0 0 1505.42 585.40
  L 1511.21 587.82
  A 0.10 0.10 0.0 0 0 1511.35 587.73
  Q 1511.71 580.30 1511.23 571.03
  C 1511.04 567.33 1512.31 562.28 1517.01 564.52
  Q 1522.38 567.08 1522.69 573.25
  Q 1523.12 581.56 1522.90 593.53
  A 0.47 0.46 -78.5 0 0 1523.19 593.98
  L 1529.26 596.51
  A 0.09 0.09 0.0 0 0 1529.38 596.43
  Q 1529.73 590.65 1529.31 584.75
  C 1529.12 582.20 1529.14 577.99 1529.57 575.85
  C 1530.96 568.76 1538.25 573.43 1540.22 577.04
  Q 1541.43 579.26 1541.42 584.24
  Q 1541.39 600.57 1541.42 602.73
  A 0.35 0.32 -80.3 0 0 1541.63 603.05
  L 1548.08 605.74
  A 0.10 0.10 0.0 0 0 1548.21 605.65"
/>
<path stroke="#e78092" vector-effect="non-scaling-stroke" d="
  M 1272.11 532.98
  L 1262.01 532.98
  A 0.71 0.71 0.0 0 0 1261.30 533.69
  L 1261.30 551.38
  A 0.36 0.36 0.0 0 1 1260.75 551.68
  Q 1255.59 548.50 1249.47 549.30
  C 1239.10 550.65 1231.36 558.08 1231.19 568.80
  C 1230.86 588.81 1251.20 595.10 1266.34 585.83
  Q 1270.18 583.48 1271.66 582.67
  A 1.50 1.50 0.0 0 0 1272.43 581.36
  L 1272.43 533.31
  A 0.33 0.32 -90.0 0 0 1272.11 532.98"
/>
<path stroke="#e78092" vector-effect="non-scaling-stroke" d="
  M 1291.32 573.54
  L 1291.32 580.79
  A 1.32 1.31 0.0 0 1 1290.00 582.10
  L 1286.33 582.10
  A 0.65 0.64 -3.9 0 0 1285.69 582.83
  L 1286.30 587.22
  A 1.23 1.23 0.0 0 0 1287.48 588.27
  C 1291.44 588.40 1296.85 588.54 1297.06 583.76
  Q 1297.41 575.94 1297.28 571.32
  A 0.79 0.78 -7.1 0 1 1297.90 570.53
  L 1302.09 569.63
  A 1.48 1.47 80.0 0 0 1303.23 567.99
  L 1302.65 563.82
  A 0.70 0.70 0.0 0 0 1301.72 563.26
  L 1297.91 564.63
  A 0.46 0.46 0.0 0 1 1297.30 564.20
  L 1297.30 558.34
  A 0.63 0.62 90.0 0 1 1297.92 557.71
  L 1302.07 557.71
  A 0.87 0.87 0.0 0 0 1302.94 556.84
  L 1302.94 552.81
  A 1.21 1.21 0.0 0 0 1301.56 551.61
  L 1298.39 552.05
  A 0.94 0.94 0.0 0 1 1297.33 551.12
  L 1297.33 544.69
  A 0.91 0.90 -0.0 0 0 1296.42 543.79
  L 1292.00 543.79
  A 0.86 0.86 0.0 0 0 1291.14 544.65
  L 1291.14 551.01
  A 0.60 0.59 -0.0 0 1 1290.54 551.60
  L 1285.09 551.60
  A 0.85 0.84 90.0 0 0 1284.25 552.45
  L 1284.25 557.01
  A 0.86 0.86 0.0 0 0 1285.11 557.87
  L 1290.05 557.87
  A 1.17 1.17 0.0 0 1 1291.22 559.04
  L 1291.22 565.34
  A 1.46 1.46 0.0 0 1 1289.95 566.79
  L 1284.60 567.54
  A 0.87 0.87 0.0 0 0 1283.86 568.52
  L 1284.49 573.11
  A 0.93 0.93 0.0 0 0 1285.61 573.89
  L 1290.45 572.84
  A 0.72 0.72 0.0 0 1 1291.32 573.54"
/>
<path stroke="#e78092" vector-effect="non-scaling-stroke" d="
  M 1315.96 545.47
  L 1311.45 544.43
  A 1.19 1.19 0.0 0 0 1310.01 545.41
  Q 1307.08 564.17 1301.51 579.28
  Q 1301.03 580.58 1299.47 580.36
  A 0.96 0.96 0.0 0 0 1298.38 581.44
  L 1299.13 586.83
  A 1.15 1.14 80.0 0 0 1300.50 587.80
  L 1320.58 583.47
  A 1.19 1.19 0.0 0 1 1322.00 584.38
  L 1322.67 587.46
  A 0.65 0.64 73.6 0 0 1323.52 587.93
  L 1328.40 586.09
  A 0.99 0.98 71.5 0 0 1328.99 584.89
  Q 1325.64 573.74 1321.48 564.88
  A 1.03 1.03 0.0 0 0 1320.19 564.35
  L 1316.37 565.79
  A 0.92 0.92 0.0 0 0 1315.84 566.97
  L 1319.52 576.73
  A 0.72 0.71 73.7 0 1 1319.00 577.69
  L 1309.10 579.83
  A 0.77 0.77 0.0 0 1 1308.23 578.78
  Q 1309.40 575.92 1310.54 571.81
  Q 1314.16 558.69 1316.83 546.85
  A 1.15 1.15 0.0 0 0 1315.96 545.47"
/>
<path stroke="#e78092" vector-effect="non-scaling-stroke" d="
  M 1355.81 575.87
  C 1352.93 577.90 1348.06 581.60 1344.50 579.36
  C 1340.77 577.01 1340.92 569.66 1341.21 565.50
  Q 1341.92 555.43 1343.10 549.32
  A 0.82 0.82 0.0 0 0 1342.29 548.34
  L 1337.07 548.34
  A 1.05 1.04 5.3 0 0 1336.04 549.19
  Q 1333.86 560.47 1334.58 572.74
  Q 1334.82 576.88 1336.33 580.69
  C 1339.72 589.18 1349.87 587.97 1355.98 583.66
  A 1.05 1.04 72.8 0 0 1356.43 582.80
  L 1356.43 576.19
  A 0.39 0.39 0.0 0 0 1355.81 575.87"
/>
<path stroke="#e78092" vector-effect="non-scaling-stroke" d="
  M 1360.22 550.22
  C 1367.48 560.67 1368.92 570.06 1368.63 582.70
  A 0.57 0.56 -89.5 0 0 1369.19 583.28
  L 1374.68 583.28
  A 0.69 0.69 0.0 0 0 1375.37 582.64
  C 1376.24 571.20 1374.39 560.22 1368.59 550.30
  A 2.52 2.50 74.7 0 0 1366.43 549.06
  L 1360.83 549.06
  A 0.74 0.73 -17.5 0 0 1360.22 550.22"
/>
<path stroke="#e1733f" vector-effect="non-scaling-stroke" d="
  M 1274.82 623.39
  A 13.07 13.07 0.0 0 0 1261.75 610.32
  A 13.07 13.07 0.0 0 0 1248.68 623.39
  A 13.07 13.07 0.0 0 0 1261.75 636.46
  A 13.07 13.07 0.0 0 0 1274.82 623.39"
/>
<path stroke="#e1733f" vector-effect="non-scaling-stroke" d="
  M 1317.33 623.37
  A 13.11 13.11 0.0 0 0 1304.22 610.26
  A 13.11 13.11 0.0 0 0 1291.11 623.37
  A 13.11 13.11 0.0 0 0 1304.22 636.48
  A 13.11 13.11 0.0 0 0 1317.33 623.37"
/>
<path stroke="#e1733f" vector-effect="non-scaling-stroke" d="
  M 1359.94 623.38
  A 13.09 13.09 0.0 0 0 1346.85 610.29
  A 13.09 13.09 0.0 0 0 1333.76 623.38
  A 13.09 13.09 0.0 0 0 1346.85 636.47
  A 13.09 13.09 0.0 0 0 1359.94 623.38"
/>
<path stroke="#e28382" vector-effect="non-scaling-stroke" d="
  M 450.28 546.14
  L 450.28 573.90
  A 0.73 0.73 0.0 0 0 451.01 574.63
  L 462.12 574.63
  A 15.44 14.47 -0.0 0 0 477.56 560.16
  L 477.56 559.88
  A 15.44 14.47 0.0 0 0 462.12 545.41
  L 451.01 545.41
  A 0.73 0.73 0.0 0 0 450.28 546.14"
/>
<path stroke="#e78092" vector-effect="non-scaling-stroke" d="
  M 1250.6254 560.0203
  A 9.76 9.39 -97.8 0 0 1242.6469 570.9644
  A 9.76 9.39 -97.8 0 0 1253.2746 579.3597
  A 9.76 9.39 -97.8 0 0 1261.2531 568.4156
  A 9.76 9.39 -97.8 0 0 1250.6254 560.0203"
/>
<path stroke="#e28382" vector-effect="non-scaling-stroke" d="
  M 547.25 545.77
  L 547.31 577.75
  A 0.64 0.64 0.0 0 0 547.95 578.39
  L 565.14 578.36
  A 16.35 16.16 -0.1 0 0 581.46 562.17
  L 581.46 561.23
  A 16.35 16.16 -0.1 0 0 565.08 545.10
  L 547.89 545.13
  A 0.64 0.64 0.0 0 0 547.25 545.77"
/>
<path stroke="#e28382" vector-effect="non-scaling-stroke" d="
  M 625.0152 561.9000
  A 25.68 19.58 -90.1 0 0 605.4800 587.6142
  A 25.68 19.58 -90.1 0 0 625.1048 613.2600
  A 25.68 19.58 -90.1 0 0 644.6400 587.5458
  A 25.68 19.58 -90.1 0 0 625.0152 561.9000"
/>
<path stroke="#f8aa81" vector-effect="non-scaling-stroke" d="
  M 849.74 567.63
  A 0.59 0.59 0.0 0 0 849.02 566.90
  C 845.60 567.82 841.77 568.48 838.49 570.23
  C 828.86 575.38 822.02 585.18 818.43 595.14
  C 816.66 600.05 809.64 615.66 819.93 615.07
  C 828.11 614.60 833.88 609.09 838.57 602.56
  Q 841.15 598.99 841.74 596.23
  Q 843.25 589.19 843.62 588.03
  Q 846.78 578.21 849.74 567.63"
/>
<path stroke="#f8aa81" vector-effect="non-scaling-stroke" d="
  M 1010.93 570.99
  L 1010.82 592.05
  A 0.72 0.72 0.0 0 0 1011.53 592.77
  L 1024.02 592.84
  A 10.55 10.02 0.3 0 0 1034.62 582.87
  L 1034.64 580.41
  A 10.55 10.02 0.3 0 0 1024.14 570.34
  L 1011.65 570.27
  A 0.72 0.72 0.0 0 0 1010.93 570.99"
/>
<path stroke="#f8aa81" vector-effect="non-scaling-stroke" d="
  M 1066.21 599.70
  A 0.45 0.45 0.0 0 0 1066.64 600.30
  L 1081.74 600.38
  A 0.45 0.45 0.0 0 0 1082.17 599.79
  L 1074.73 577.59
  A 0.45 0.45 0.0 0 0 1073.88 577.59
  L 1066.21 599.70"
/>
<path stroke="#9c9998" vector-effect="non-scaling-stroke" d="
  M 124.38 645.53
  L 124.54 663.45
  A 0.57 0.57 0.0 0 0 125.11 664.01
  L 130.66 663.96
  A 9.62 9.25 -0.5 0 0 140.20 654.63
  L 140.20 654.07
  A 9.62 9.25 -0.5 0 0 130.50 644.91
  L 124.95 644.95
  A 0.57 0.57 0.0 0 0 124.38 645.53"
/>
<path stroke="#9c9998" vector-effect="non-scaling-stroke" d="
  M 231.79 645.37
  L 231.91 663.48
  A 0.46 0.46 0.0 0 0 232.38 663.94
  L 238.03 663.90
  A 9.67 9.24 -0.4 0 0 247.63 654.59
  L 247.63 654.03
  A 9.67 9.24 -0.4 0 0 237.89 644.86
  L 232.24 644.90
  A 0.46 0.46 0.0 0 0 231.79 645.37"
/>
<path stroke="#9c9998" vector-effect="non-scaling-stroke" d="
  M 168.49 677.39
  L 168.73 668.95
  A 2.61 2.61 0.0 0 0 166.19 666.27
  L 163.87 666.20
  A 6.34 6.33 -88.4 0 0 157.37 672.36
  L 157.34 673.34
  A 6.34 6.33 -88.4 0 0 163.49 679.86
  L 165.81 679.92
  A 2.61 2.61 0.0 0 0 168.49 677.39"
/>
<path stroke="#9c9998" vector-effect="non-scaling-stroke" d="
  M 275.76 666.42
  C 273.36 666.06 269.92 665.64 267.77 666.83
  C 264.28 668.76 263.88 674.06 265.72 677.22
  C 267.81 680.82 272.70 680.51 275.69 678.23
  A 1.45 1.43 72.0 0 0 276.27 677.07
  L 276.27 667.01
  A 0.60 0.60 0.0 0 0 275.76 666.42"
/>
<path stroke="#9c9998" vector-effect="non-scaling-stroke" d="
  M 1603.01 662.02
  A 2.74 2.74 0.0 0 0 1600.27 659.28
  A 2.74 2.74 0.0 0 0 1597.53 662.02
  A 2.74 2.74 0.0 0 0 1600.27 664.76
  A 2.74 2.74 0.0 0 0 1603.01 662.02"
/>
</g>
<path fill="#ffffff" d="
  M 1774.00 0.00
  L 1774.00 887.00
  L 0.00 887.00
  L 0.00 0.00
  L 1774.00 0.00
  Z
  M 1272.14 303.29
  L 1272.14 373.97
  A 0.29 0.29 0.0 0 0 1272.42 374.26
  Q 1287.64 374.35 1324.50 374.28
  C 1338.19 374.26 1350.24 364.38 1355.01 351.78
  C 1357.24 345.90 1357.17 340.49 1357.14 333.25
  Q 1357.02 306.94 1357.09 172.16
  A 0.58 0.58 0.0 0 0 1356.51 171.58
  Q 1325.06 171.63 1312.46 171.49
  Q 1301.48 171.36 1296.31 172.94
  C 1282.98 177.02 1272.17 190.05 1272.17 204.27
  Q 1272.13 278.91 1272.14 287.82
  A 0.41 0.40 -77.5 0 0 1272.37 288.19
  C 1282.59 293.11 1295.78 297.73 1306.88 294.66
  C 1315.67 292.23 1318.03 285.71 1318.05 277.25
  Q 1318.09 257.43 1318.11 241.29
  A 0.63 0.62 90.0 0 1 1318.73 240.66
  L 1346.16 240.66
  A 0.42 0.42 0.0 0 1 1346.58 241.08
  Q 1346.61 263.55 1346.61 279.51
  C 1346.63 307.81 1310.13 308.85 1290.75 306.20
  Q 1282.64 305.09 1272.79 302.78
  A 0.53 0.52 -83.1 0 0 1272.14 303.29
  Z
  M 1440.75 257.59
  C 1426.97 251.22 1403.18 244.35 1391.82 258.71
  C 1387.33 264.38 1386.71 274.32 1388.79 280.94
  C 1395.63 302.67 1425.88 295.86 1440.33 288.57
  A 0.63 0.63 0.0 0 1 1441.24 289.14
  L 1441.24 301.82
  A 0.77 0.76 81.2 0 1 1440.71 302.55
  Q 1434.63 304.47 1428.78 305.31
  Q 1411.81 307.76 1395.70 306.35
  C 1386.37 305.53 1374.47 302.23 1367.48 294.83
  A 0.37 0.36 23.1 0 0 1366.85 295.08
  L 1366.85 373.68
  A 0.60 0.59 -0.5 0 0 1367.46 374.27
  Q 1394.61 374.15 1412.98 374.28
  Q 1422.89 374.35 1427.87 372.79
  C 1440.89 368.70 1451.49 355.15 1451.50 341.49
  Q 1451.52 301.77 1451.52 172.21
  A 0.65 0.65 0.0 0 0 1450.87 171.56
  Q 1430.54 171.70 1409.52 171.61
  Q 1398.62 171.56 1396.51 171.83
  C 1383.36 173.51 1372.29 183.12 1368.39 195.47
  Q 1366.82 200.42 1366.84 211.16
  Q 1366.88 236.07 1366.80 251.35
  A 0.44 0.43 -23.1 0 0 1367.55 251.65
  C 1375.78 243.09 1389.35 239.83 1400.77 239.15
  Q 1420.71 237.97 1440.74 243.48
  A 0.68 0.68 0.0 0 1 1441.23 244.13
  L 1441.23 257.28
  A 0.34 0.33 -77.4 0 1 1440.75 257.59
  Z
  M 1462.00 240.71
  Q 1470.08 240.74 1512.96 240.56
  C 1518.08 240.54 1527.08 243.22 1530.56 247.92
  C 1534.96 253.85 1534.07 262.33 1528.62 266.98
  Q 1524.62 270.40 1519.63 271.27
  A 0.44 0.44 0.0 0 0 1519.63 272.14
  C 1525.81 273.29 1532.58 276.58 1535.29 282.12
  C 1541.99 295.83 1528.20 305.16 1516.49 305.29
  Q 1489.58 305.59 1461.99 305.30
  A 0.54 0.53 -89.5 0 0 1461.45 305.84
  L 1461.45 373.59
  A 0.68 0.67 90.0 0 0 1462.12 374.27
  Q 1497.86 374.20 1503.78 374.29
  Q 1516.62 374.49 1521.61 372.85
  Q 1535.16 368.39 1541.89 355.63
  Q 1545.63 348.54 1545.65 341.84
  Q 1545.81 270.08 1545.65 171.95
  A 0.36 0.36 0.0 0 0 1545.28 171.59
  Q 1517.01 171.75 1505.18 171.55
  Q 1490.59 171.31 1485.42 172.89
  C 1471.67 177.12 1461.54 190.19 1461.48 204.99
  Q 1461.40 224.60 1461.42 240.14
  A 0.58 0.57 0.0 0 0 1462.00 240.71
  Z
  M 939.89 343.93
  Q 940.07 344.21 940.27 344.05
  C 958.57 358.44 981.75 365.78 1004.73 363.88
  C 1060.35 359.28 1099.68 306.39 1089.66 251.93
  C 1082.76 214.36 1053.66 183.00 1015.51 175.55
  C 988.36 170.26 961.97 176.89 939.85 194.10
  Q 939.77 194.03 939.70 193.95
  C 904.35 166.06 855.61 167.34 821.43 196.43
  Q 797.07 217.16 789.75 250.26
  C 784.29 274.95 790.33 301.69 804.25 322.36
  C 834.60 367.43 896.82 378.46 939.89 343.93
  Z
  M 500.18 208.95
  Q 483.11 202.84 465.52 203.13
  C 439.12 203.57 405.75 217.53 407.12 249.43
  C 407.50 258.49 412.76 266.77 420.04 272.40
  C 428.85 279.21 441.90 285.15 448.34 288.67
  C 453.51 291.50 458.28 296.39 456.01 302.73
  C 452.75 311.87 439.06 313.36 430.47 312.90
  C 419.90 312.34 409.32 309.13 399.54 304.64
  A 0.59 0.58 18.6 0 0 398.73 305.04
  L 392.32 333.10
  A 0.65 0.65 0.0 0 0 392.73 333.86
  Q 421.56 344.66 451.52 339.25
  C 469.27 336.04 485.61 326.01 491.46 308.43
  C 495.68 295.74 494.03 283.08 484.79 273.23
  C 479.63 267.73 472.27 263.79 465.51 260.25
  Q 464.30 259.62 452.68 253.35
  Q 449.38 251.57 446.94 249.08
  C 441.28 243.28 445.55 235.79 452.07 233.54
  C 465.42 228.93 480.85 231.62 493.68 237.35
  A 0.60 0.59 18.5 0 0 494.50 236.95
  L 500.68 209.86
  A 0.78 0.78 0.0 0 0 500.18 208.95
  Z
  M 271.71 297.20
  Q 264.15 256.28 258.65 219.82
  C 257.13 209.75 248.46 204.88 238.78 204.90
  Q 229.13 204.93 182.81 204.95
  C 179.76 204.95 177.60 204.48 177.54 207.94
  A 1.00 1.00 0.0 0 0 178.33 208.93
  Q 193.20 211.93 207.22 217.29
  C 212.59 219.35 218.57 223.11 220.09 228.42
  Q 237.63 289.85 251.53 338.17
  A 0.86 0.84 81.7 0 0 252.34 338.79
  L 288.58 338.79
  A 1.07 1.05 -78.0 0 0 289.55 338.15
  Q 294.28 327.47 321.71 265.46
  Q 334.09 237.46 347.23 205.92
  A 0.27 0.27 0.0 0 0 346.98 205.55
  L 310.76 205.55
  A 0.80 0.78 11.1 0 0 310.03 206.03
  L 272.06 297.23
  A 0.19 0.18 -39.4 0 1 271.71 297.20
  Z
  M 367.86 338.84
  A 0.53 0.53 0.0 0 0 368.37 338.43
  L 398.59 206.21
  A 0.53 0.53 0.0 0 0 398.08 205.56
  L 363.51 205.56
  A 0.53 0.53 0.0 0 0 363.00 205.97
  L 332.78 338.19
  A 0.53 0.53 0.0 0 0 333.29 338.84
  L 367.86 338.84
  Z
  M 619.12 338.78
  A 0.68 0.68 0.0 0 0 619.78 337.96
  L 591.37 206.27
  A 0.84 0.83 -5.9 0 0 590.55 205.61
  Q 582.29 205.62 565.52 205.57
  Q 558.59 205.55 555.65 206.83
  C 547.14 210.52 545.76 215.80 541.14 226.28
  Q 519.89 274.49 491.94 338.40
  A 0.29 0.29 0.0 0 0 492.21 338.81
  L 528.08 338.81
  A 1.32 1.32 0.0 0 0 529.31 337.97
  L 536.43 319.66
  A 0.86 0.85 10.4 0 1 537.23 319.12
  L 581.92 319.12
  A 0.71 0.70 -6.1 0 1 582.61 319.67
  L 586.62 338.25
  A 0.68 0.67 -5.8 0 0 587.28 338.78
  L 619.12 338.78
  Z
  M 1479.44 251.75
  L 1479.46 266.49
  A 0.60 0.60 0.0 0 0 1480.06 267.09
  L 1496.65 267.06
  A 9.27 7.34 -0.1 0 0 1505.91 259.71
  L 1505.91 258.45
  A 9.27 7.34 -0.1 0 0 1496.63 251.12
  L 1480.04 251.15
  A 0.60 0.60 0.0 0 0 1479.44 251.75
  Z
  M 1479.46 278.27
  L 1479.48 294.17
  A 0.74 0.74 0.0 0 0 1480.23 294.90
  L 1497.95 294.87
  A 10.70 8.28 -0.1 0 0 1508.63 286.57
  L 1508.63 285.75
  A 10.70 8.28 -0.1 0 0 1497.91 277.49
  L 1480.19 277.52
  A 0.74 0.74 0.0 0 0 1479.46 278.27
  Z
  M 1629.00 552.09
  Q 1642.48 537.53 1637.40 520.81
  C 1632.36 504.25 1618.41 495.83 1601.25 499.22
  Q 1598.93 499.68 1591.81 502.64
  L 1591.24 502.44
  Q 1579.90 496.72 1568.57 490.94
  Q 1563.74 488.47 1561.25 488.24
  Q 1557.37 487.89 1553.67 489.87
  Q 1549.50 492.10 1544.94 494.51
  Q 1522.55 506.30 1500.28 517.62
  Q 1495.64 519.97 1494.05 521.94
  Q 1491.62 524.95 1491.63 529.05
  Q 1491.67 554.48 1491.62 592.73
  Q 1491.61 598.26 1492.51 600.53
  Q 1494.02 604.36 1497.76 606.26
  Q 1543.33 629.41 1553.01 634.40
  Q 1556.52 636.21 1559.11 636.49
  Q 1562.68 636.87 1565.55 635.43
  Q 1595.51 620.32 1617.86 608.79
  Q 1623.83 605.71 1625.17 604.61
  C 1629.56 600.98 1629.14 595.11 1629.11 588.75
  Q 1629.05 570.57 1629.00 552.09
  Z
  M 152.22 508.35
  Q 158.24 508.33 170.01 508.31
  Q 176.84 508.30 193.50 510.22
  Q 210.18 512.15 226.85 517.86
  Q 242.01 523.05 252.56 532.62
  C 263.06 542.12 265.90 556.04 259.46 568.74
  C 254.16 579.21 244.22 586.00 233.34 589.89
  Q 213.63 596.93 192.06 596.74
  A 0.99 0.97 6.2 0 0 191.10 597.50
  L 185.63 621.42
  A 0.38 0.38 0.0 0 0 186.00 621.89
  Q 239.48 621.94 264.26 621.89
  C 273.15 621.88 281.12 616.63 284.15 608.32
  Q 285.21 605.40 285.21 597.53
  Q 285.21 531.45 285.16 509.57
  C 285.14 500.08 280.16 493.28 271.40 489.78
  Q 268.15 488.48 260.95 488.62
  Q 256.21 488.72 174.27 488.63
  Q 168.41 488.62 165.39 489.80
  Q 153.70 494.37 151.70 507.74
  A 0.53 0.53 0.0 0 0 152.22 508.35
  Z
  M 1394.76 529.78
  A 38.96 38.96 0.0 0 0 1355.80 490.82
  L 1252.82 490.82
  A 38.96 38.96 0.0 0 0 1213.86 529.78
  L 1213.86 632.38
  A 38.96 38.96 0.0 0 0 1252.82 671.34
  L 1355.80 671.34
  A 38.96 38.96 0.0 0 0 1394.76 632.38
  L 1394.76 529.78
  Z
  M 432.51 529.19
  L 432.51 618.90
  A 0.44 0.44 0.0 0 0 432.95 619.34
  L 449.56 619.34
  A 0.72 0.72 0.0 0 0 450.28 618.62
  L 450.28 591.94
  A 0.64 0.63 90.0 0 1 450.91 591.30
  L 463.44 591.30
  A 1.07 1.07 0.0 0 1 464.32 591.76
  L 483.52 618.76
  A 1.47 1.47 0.0 0 0 484.72 619.38
  L 504.75 619.38
  A 0.41 0.40 72.4 0 0 505.08 618.74
  L 481.92 586.17
  A 0.67 0.66 53.7 0 1 482.06 585.25
  C 496.93 573.98 499.18 552.37 486.75 538.64
  C 481.48 532.81 473.38 528.85 465.73 528.61
  Q 459.20 528.40 433.26 528.44
  A 0.75 0.75 0.0 0 0 432.51 529.19
  Z
  M 151.78 532.95
  Q 151.85 560.31 151.81 598.08
  Q 151.80 605.33 152.75 607.98
  C 155.70 616.17 163.41 622.17 172.30 621.89
  Q 173.85 621.84 176.64 621.87
  A 0.79 0.79 0.0 0 0 177.41 621.27
  L 199.74 531.78
  A 0.73 0.73 0.0 0 0 199.09 530.88
  Q 175.67 529.04 152.43 532.21
  A 0.75 0.75 0.0 0 0 151.78 532.95
  Z
  M 195.86 580.84
  Q 206.50 581.53 219.16 579.55
  C 230.95 577.70 239.93 575.16 249.57 569.30
  C 253.84 566.71 257.78 562.14 257.37 556.99
  C 256.68 548.48 244.49 541.90 237.36 539.19
  Q 222.89 533.69 208.05 532.03
  A 0.93 0.93 0.0 0 0 207.06 532.72
  L 195.26 580.02
  A 0.66 0.66 0.0 0 0 195.86 580.84
  Z
  M 537.67 536.39
  L 537.67 619.77
  A 0.49 0.49 0.0 0 0 538.16 620.26
  L 546.58 620.26
  A 0.71 0.71 0.0 0 0 547.29 619.55
  L 547.29 588.15
  A 0.63 0.63 0.0 0 1 547.91 587.52
  Q 557.76 587.45 561.84 587.56
  Q 570.08 587.78 575.41 585.67
  C 585.17 581.82 590.60 573.58 591.17 563.44
  C 592.06 547.69 581.57 536.62 565.98 535.76
  Q 559.48 535.40 538.32 535.72
  A 0.67 0.66 89.6 0 0 537.67 536.39
  Z
  M 595.60 587.44
  C 595.59 595.52 597.43 603.05 601.69 609.57
  C 606.13 616.39 614.23 621.64 622.79 622.06
  Q 635.02 622.65 643.67 612.82
  A 0.43 0.43 0.0 0 1 644.42 613.11
  L 644.42 619.10
  A 1.17 1.17 0.0 0 0 645.59 620.27
  L 652.06 620.26
  A 1.79 1.78 -2.4 0 0 653.84 618.33
  C 653.45 613.78 654.15 608.44 653.96 603.85
  Q 653.83 600.92 653.85 587.53
  Q 653.87 574.14 654.00 571.20
  C 654.21 566.62 653.53 561.27 653.93 556.72
  A 1.79 1.78 2.5 0 0 652.16 554.79
  L 645.69 554.76
  A 1.17 1.17 0.0 0 0 644.51 555.93
  L 644.50 561.92
  A 0.43 0.43 0.0 0 1 643.74 562.20
  Q 635.12 552.35 622.89 552.90
  C 614.33 553.30 606.22 558.52 601.75 565.33
  C 597.48 571.84 595.61 579.36 595.60 587.44
  Z
  M 707.36 554.70
  A 0.38 0.37 -79.9 0 0 707.01 554.95
  L 690.89 604.65
  A 0.53 0.53 0.0 0 1 689.89 604.66
  L 672.85 554.87
  A 0.33 0.33 0.0 0 0 672.54 554.65
  L 662.91 554.65
  A 0.16 0.16 0.0 0 0 662.76 554.87
  L 685.29 617.51
  A 4.77 4.70 -49.4 0 1 685.47 620.07
  C 684.32 625.55 681.56 631.08 674.83 629.71
  Q 672.35 629.21 670.97 627.71
  A 0.98 0.98 0.0 0 0 669.43 627.82
  L 666.31 632.40
  A 1.76 1.76 0.0 0 0 666.69 634.78
  C 673.67 640.17 683.18 639.79 689.19 633.45
  Q 691.61 630.91 694.43 622.16
  Q 699.01 607.94 716.91 554.90
  A 0.15 0.15 0.0 0 0 716.77 554.70
  L 707.36 554.70
  Z
  M 877.86 612.33
  C 879.92 619.57 886.25 622.43 893.22 622.95
  C 903.82 623.74 914.28 620.78 921.45 612.66
  A 0.34 0.34 0.0 0 1 922.03 612.79
  Q 924.78 622.24 934.73 622.90
  C 946.48 623.67 955.02 616.45 962.73 607.48
  Q 973.92 594.46 982.95 581.32
  A 0.59 0.59 0.0 0 0 982.46 580.40
  L 974.45 580.40
  A 1.45 1.44 17.2 0 0 973.26 581.02
  Q 968.83 587.48 961.21 597.60
  Q 958.08 601.76 954.89 605.06
  Q 949.70 610.42 947.84 611.82
  C 945.45 613.63 939.84 616.88 938.79 612.52
  Q 938.40 610.92 939.21 608.01
  C 943.70 591.93 948.22 576.65 952.62 559.84
  A 0.70 0.69 -82.6 0 0 951.95 558.96
  Q 935.55 558.90 929.44 573.66
  Q 927.67 577.93 923.34 594.92
  Q 922.13 599.63 920.32 602.17
  C 916.41 607.64 910.49 612.85 903.96 614.48
  C 900.78 615.28 896.33 615.85 895.08 612.19
  Q 894.52 610.55 895.68 606.29
  Q 903.70 576.66 908.58 559.77
  A 0.75 0.75 0.0 0 0 907.87 558.81
  Q 896.59 558.62 889.50 566.62
  Q 885.96 570.61 883.03 580.75
  Q 879.98 591.25 878.61 597.54
  A 7.07 7.00 -20.5 0 1 877.35 600.27
  C 872.71 606.45 869.12 612.65 861.26 614.56
  A 2.54 2.50 -24.1 0 1 858.59 613.56
  Q 857.14 611.47 858.01 608.75
  C 860.11 602.23 862.16 592.84 864.08 586.75
  Q 866.43 579.28 871.67 559.45
  A 0.49 0.49 0.0 0 0 871.21 558.84
  Q 860.11 558.39 848.16 559.50
  C 829.37 561.24 812.79 568.51 803.49 585.76
  Q 797.73 596.42 796.92 606.75
  C 796.09 617.28 804.18 622.33 813.53 622.96
  Q 829.49 624.03 840.45 612.72
  A 0.41 0.41 0.0 0 1 841.14 612.93
  C 842.29 619.28 848.34 622.96 854.69 622.91
  Q 867.84 622.81 877.12 612.16
  A 0.43 0.43 0.0 0 1 877.86 612.33
  Z
  M 1011.50 603.47
  Q 1021.98 603.31 1023.74 603.31
  C 1033.49 603.36 1043.00 597.91 1045.46 588.13
  C 1049.46 572.18 1039.28 560.02 1023.06 559.87
  Q 1009.82 559.75 999.99 559.93
  A 0.53 0.53 0.0 0 0 999.47 560.46
  L 999.47 622.08
  A 0.71 0.71 0.0 0 0 1000.18 622.79
  L 1010.25 622.79
  A 0.67 0.67 0.0 0 0 1010.92 622.12
  L 1010.92 604.06
  A 0.59 0.59 0.0 0 1 1011.50 603.47
  Z
  M 1074.16 610.20
  Q 1078.45 610.20 1085.10 610.17
  A 1.06 1.04 80.0 0 1 1086.10 610.88
  L 1089.95 622.13
  A 1.07 1.05 80.3 0 0 1090.95 622.85
  L 1101.87 622.85
  A 0.52 0.51 79.7 0 0 1102.35 622.15
  L 1079.17 560.75
  A 1.50 1.50 0.0 0 0 1077.86 559.78
  Q 1076.09 559.66 1074.17 559.66
  Q 1072.26 559.66 1070.48 559.78
  A 1.50 1.50 0.0 0 0 1069.17 560.75
  L 1045.97 622.14
  A 0.52 0.51 -79.7 0 0 1046.45 622.84
  L 1057.37 622.84
  A 1.07 1.05 -80.2 0 0 1058.37 622.12
  L 1062.22 610.88
  A 1.06 1.04 -80.0 0 1 1063.22 610.16
  Q 1069.88 610.20 1074.16 610.20
  Z
  M 1123.95 622.79
  Q 1128.37 622.80 1128.97 622.85
  A 0.67 0.67 0.0 0 0 1129.70 622.19
  L 1129.70 604.12
  A 5.04 4.97 59.5 0 1 1130.30 601.74
  L 1152.55 560.60
  A 0.44 0.44 0.0 0 0 1152.17 559.95
  L 1140.54 559.95
  A 1.32 1.32 0.0 0 0 1139.37 560.66
  Q 1131.21 576.23 1124.63 589.38
  Q 1124.39 589.87 1124.02 589.87
  Q 1123.64 589.86 1123.40 589.38
  Q 1116.88 576.20 1108.78 560.60
  A 1.32 1.32 0.0 0 0 1107.61 559.88
  L 1095.98 559.84
  A 0.44 0.44 0.0 0 0 1095.60 560.49
  L 1117.68 601.71
  A 5.04 4.97 -59.3 0 1 1118.27 604.10
  L 1118.20 622.17
  A 0.67 0.67 0.0 0 0 1118.93 622.83
  Q 1119.53 622.78 1123.95 622.79
  Z
  M 432.41 641.73
  A 0.17 0.17 0.0 0 0 432.54 641.77
  L 520.62 629.52
  A 0.17 0.17 0.0 0 0 520.77 629.35
  L 520.77 629.09
  A 0.17 0.17 0.0 0 0 520.60 628.92
  L 417.20 628.92
  A 0.17 0.17 0.0 0 0 417.09 629.22
  L 432.41 641.73
  Z
  M 124.39 683.15
  L 124.39 668.92
  A 0.45 0.45 0.0 0 1 124.88 668.47
  Q 130.30 668.94 134.60 668.35
  C 150.26 666.18 152.53 644.97 136.45 640.91
  C 132.68 639.95 128.59 640.22 124.41 640.26
  Q 117.47 640.33 116.86 640.37
  A 1.92 1.92 0.0 0 0 115.06 642.29
  L 115.05 683.12
  A 0.39 0.39 0.0 0 0 115.44 683.51
  L 124.03 683.51
  A 0.36 0.36 0.0 0 0 124.39 683.15
  Z
  M 231.82 683.14
  L 231.83 668.91
  A 0.45 0.45 0.0 0 1 232.31 668.46
  Q 237.73 668.93 242.03 668.34
  C 257.69 666.17 259.96 644.97 243.88 640.91
  C 240.11 639.95 236.03 640.22 231.85 640.26
  Q 224.91 640.33 224.30 640.37
  A 1.92 1.92 0.0 0 0 222.50 642.29
  L 222.49 683.11
  A 0.39 0.39 0.0 0 0 222.88 683.50
  L 231.46 683.50
  A 0.36 0.36 0.0 0 0 231.82 683.14
  Z
  M 168.55 682.56
  L 169.21 683.27
  A 0.82 0.80 67.5 0 0 169.79 683.52
  L 177.70 683.52
  A 0.62 0.62 0.0 0 0 178.32 682.88
  Q 178.17 668.00 178.30 664.02
  Q 178.46 659.15 177.33 657.13
  C 173.29 649.88 162.37 650.46 154.05 652.18
  A 1.06 1.05 84.3 0 0 153.20 653.21
  L 153.20 654.91
  A 0.75 0.75 0.0 0 0 154.22 655.61
  C 157.91 654.18 168.52 652.25 168.74 658.91
  Q 168.80 660.92 168.69 661.84
  A 0.60 0.59 10.0 0 1 167.96 662.34
  C 160.82 660.69 152.04 661.77 150.03 669.62
  C 147.54 679.31 156.29 686.68 165.44 683.23
  Q 167.38 682.49 167.80 682.36
  A 0.72 0.72 0.0 0 1 168.55 682.56
  Z
  M 201.58 670.59
  A 0.54 0.54 0.0 0 1 200.60 670.62
  L 190.95 651.35
  A 0.03 0.02 58.3 0 0 190.93 651.34
  L 181.53 651.34
  A 0.11 0.11 0.0 0 0 181.43 651.50
  L 196.23 681.07
  A 1.33 1.29 42.7 0 1 196.29 682.12
  Q 194.97 685.80 192.89 688.57
  Q 191.38 690.59 186.26 690.42
  A 0.59 0.58 -89.1 0 0 185.66 691.01
  L 185.66 694.89
  A 0.61 0.61 0.0 0 0 186.22 695.50
  Q 192.25 696.06 196.70 692.64
  Q 199.27 690.66 202.11 683.63
  Q 205.62 674.99 215.85 652.29
  A 0.73 0.73 0.0 0 0 215.18 651.26
  L 210.66 651.26
  A 1.55 1.53 11.0 0 0 209.23 652.21
  L 201.58 670.59
  Z
  M 275.93 682.55
  L 276.58 683.25
  A 0.82 0.79 67.6 0 0 277.16 683.50
  L 285.04 683.50
  A 0.62 0.62 0.0 0 0 285.66 682.87
  Q 285.51 668.05 285.64 664.08
  Q 285.80 659.23 284.68 657.22
  C 280.66 650.00 269.78 650.57 261.49 652.28
  A 1.05 1.05 0.0 0 0 260.65 653.31
  L 260.65 655.00
  A 0.75 0.74 79.5 0 0 261.66 655.70
  C 265.34 654.28 275.91 652.36 276.12 658.99
  Q 276.18 660.99 276.07 661.91
  A 0.60 0.59 10.1 0 1 275.34 662.41
  C 268.23 660.76 259.49 661.83 257.48 669.65
  C 255.00 679.30 263.71 686.65 272.83 683.21
  Q 274.76 682.48 275.18 682.35
  A 0.72 0.72 0.0 0 1 275.93 682.55
  Z
  M 308.61 670.45
  A 0.54 0.54 0.0 0 1 307.63 670.48
  L 297.97 651.22
  A 0.03 0.02 58.3 0 0 297.95 651.21
  L 288.55 651.21
  A 0.11 0.11 0.0 0 0 288.45 651.37
  L 303.27 680.94
  A 1.34 1.29 42.7 0 1 303.33 681.99
  Q 302.01 685.67 299.93 688.44
  Q 298.42 690.46 293.30 690.29
  A 0.59 0.58 -89.1 0 0 292.70 690.88
  L 292.70 694.76
  A 0.61 0.61 0.0 0 0 293.26 695.37
  Q 299.29 695.93 303.74 692.51
  Q 306.31 690.53 309.15 683.49
  Q 312.66 674.85 322.88 652.14
  A 0.73 0.73 0.0 0 0 322.20 651.11
  L 317.68 651.12
  A 1.55 1.53 11.0 0 0 316.25 652.07
  L 308.61 670.45
  Z
  M 1633.37 674.43
  L 1633.37 694.94
  A 0.68 0.67 -0.0 0 0 1634.05 695.61
  L 1639.70 695.61
  A 0.66 0.66 0.0 0 0 1640.36 694.95
  L 1640.36 669.45
  A 1.02 1.01 68.5 0 1 1640.68 668.71
  L 1650.93 659.17
  A 0.47 0.47 0.0 0 0 1650.94 658.50
  L 1646.80 654.36
  A 0.54 0.54 0.0 0 0 1646.01 654.39
  Q 1633.57 668.48 1615.39 675.34
  A 0.76 0.76 0.0 0 0 1615.05 676.49
  L 1618.08 680.75
  A 1.02 1.01 58.7 0 0 1619.36 681.07
  L 1633.04 674.23
  A 0.23 0.23 0.0 0 1 1633.37 674.43
  Z
  M 1507.05 683.43
  L 1498.44 674.82
  A 0.98 0.97 -52.4 0 1 1498.29 673.64
  Q 1502.61 666.28 1505.45 658.48
  A 0.71 0.71 0.0 0 0 1505.04 657.58
  L 1499.71 655.51
  A 0.64 0.63 -70.4 0 0 1498.88 655.91
  Q 1496.62 663.04 1492.73 670.22
  A 0.41 0.40 -58.0 0 1 1492.15 670.36
  L 1482.22 663.61
  A 0.79 0.78 39.7 0 0 1481.22 663.70
  L 1477.84 667.08
  A 0.85 0.85 0.0 0 0 1477.96 668.38
  L 1488.37 675.46
  A 0.52 0.52 0.0 0 1 1488.48 676.22
  Q 1481.37 685.18 1471.65 689.95
  A 0.72 0.72 0.0 0 0 1471.44 691.09
  L 1475.02 694.95
  A 0.94 0.94 0.0 0 0 1476.16 695.13
  Q 1486.56 689.33 1493.42 680.27
  A 0.79 0.78 41.0 0 1 1494.60 680.19
  L 1502.59 688.17
  A 0.60 0.59 -44.7 0 0 1503.44 688.17
  L 1507.05 684.56
  A 0.81 0.80 45.3 0 0 1507.05 683.43
  Z
  M 1606.28 662.07
  A 5.91 5.91 0.0 0 0 1600.37 656.16
  A 5.91 5.91 0.0 0 0 1594.46 662.07
  A 5.91 5.91 0.0 0 0 1600.37 667.98
  A 5.91 5.91 0.0 0 0 1606.28 662.07
  Z
  M 1537.16 656.87
  A 0.54 0.53 -0.0 0 0 1536.62 657.40
  L 1536.62 690.44
  A 1.94 1.93 -70.5 0 0 1537.33 691.94
  L 1539.86 694.00
  A 1.36 1.34 53.0 0 0 1541.23 694.20
  Q 1551.88 689.76 1559.10 680.33
  A 1.00 0.99 -40.2 0 0 1559.19 679.30
  L 1557.07 675.07
  A 1.03 1.02 -41.2 0 0 1555.30 674.96
  Q 1550.79 681.65 1544.05 685.62
  A 0.59 0.59 0.0 0 1 1543.16 685.11
  L 1543.16 657.43
  A 0.56 0.55 -90.0 0 0 1542.61 656.87
  L 1537.16 656.87
  Z
  M 1524.09 657.86
  A 0.70 0.70 0.0 0 0 1523.39 658.54
  Q 1523.16 665.46 1523.25 669.88
  C 1523.42 678.73 1521.98 684.45 1515.78 690.10
  A 0.93 0.93 0.0 0 0 1515.81 691.50
  L 1519.48 694.49
  A 1.45 1.45 0.0 0 0 1521.47 694.35
  C 1527.55 687.70 1529.72 680.72 1529.93 671.99
  Q 1530.06 666.52 1529.84 658.59
  A 0.75 0.75 0.0 0 0 1529.09 657.86
  L 1524.09 657.86
  Z
  M 1605.26 691.19
  L 1609.03 686.57
  A 0.77 0.76 41.3 0 0 1608.96 685.53
  Q 1597.45 674.68 1587.67 663.84
  C 1583.62 659.35 1578.85 661.06 1575.63 665.14
  Q 1569.40 673.03 1564.72 677.82
  A 1.15 1.15 0.0 0 0 1564.71 679.41
  L 1568.35 683.33
  A 0.68 0.68 0.0 0 0 1569.37 683.30
  L 1581.44 668.51
  A 1.13 1.13 0.0 0 1 1583.13 668.45
  L 1604.31 691.22
  A 0.63 0.63 0.0 0 0 1605.26 691.19
  Z"
/>
<path fill="#07509f" d="
  M 1272.79 302.78
  Q 1282.64 305.09 1290.75 306.20
  C 1310.13 308.85 1346.63 307.81 1346.61 279.51
  Q 1346.61 263.55 1346.58 241.08
  A 0.42 0.42 0.0 0 0 1346.16 240.66
  L 1318.73 240.66
  A 0.63 0.62 90.0 0 0 1318.11 241.29
  Q 1318.09 257.43 1318.05 277.25
  C 1318.03 285.71 1315.67 292.23 1306.88 294.66
  C 1295.78 297.73 1282.59 293.11 1272.37 288.19
  A 0.41 0.40 -77.5 0 1 1272.14 287.82
  Q 1272.13 278.91 1272.17 204.27
  C 1272.17 190.05 1282.98 177.02 1296.31 172.94
  Q 1301.48 171.36 1312.46 171.49
  Q 1325.06 171.63 1356.51 171.58
  A 0.58 0.58 0.0 0 1 1357.09 172.16
  Q 1357.02 306.94 1357.14 333.25
  C 1357.17 340.49 1357.24 345.90 1355.01 351.78
  C 1350.24 364.38 1338.19 374.26 1324.50 374.28
  Q 1287.64 374.35 1272.42 374.26
  A 0.29 0.29 0.0 0 1 1272.14 373.97
  L 1272.14 303.29
  A 0.53 0.52 -83.1 0 1 1272.79 302.78
  Z"
/>
<path fill="#ce0125" d="
  M 1440.75 257.59
  A 0.34 0.33 -77.4 0 0 1441.23 257.28
  L 1441.23 244.13
  A 0.68 0.68 0.0 0 0 1440.74 243.48
  Q 1420.71 237.97 1400.77 239.15
  C 1389.35 239.83 1375.78 243.09 1367.55 251.65
  A 0.44 0.43 -23.1 0 1 1366.80 251.35
  Q 1366.88 236.07 1366.84 211.16
  Q 1366.82 200.42 1368.39 195.47
  C 1372.29 183.12 1383.36 173.51 1396.51 171.83
  Q 1398.62 171.56 1409.52 171.61
  Q 1430.54 171.70 1450.87 171.56
  A 0.65 0.65 0.0 0 1 1451.52 172.21
  Q 1451.52 301.77 1451.50 341.49
  C 1451.49 355.15 1440.89 368.70 1427.87 372.79
  Q 1422.89 374.35 1412.98 374.28
  Q 1394.61 374.15 1367.46 374.27
  A 0.60 0.59 -0.5 0 1 1366.85 373.68
  L 1366.85 295.08
  A 0.37 0.36 23.1 0 1 1367.48 294.83
  C 1374.47 302.23 1386.37 305.53 1395.70 306.35
  Q 1411.81 307.76 1428.78 305.31
  Q 1434.63 304.47 1440.71 302.55
  A 0.77 0.76 81.2 0 0 1441.24 301.82
  L 1441.24 289.14
  A 0.63 0.63 0.0 0 0 1440.33 288.57
  C 1425.88 295.86 1395.63 302.67 1388.79 280.94
  C 1386.71 274.32 1387.33 264.38 1391.82 258.71
  C 1403.18 244.35 1426.97 251.22 1440.75 257.59
  Z"
/>
<path fill="#028a45" d="
  M 1462.00 240.71
  A 0.58 0.57 0.0 0 1 1461.42 240.14
  Q 1461.40 224.60 1461.48 204.99
  C 1461.54 190.19 1471.67 177.12 1485.42 172.89
  Q 1490.59 171.31 1505.18 171.55
  Q 1517.01 171.75 1545.28 171.59
  A 0.36 0.36 0.0 0 1 1545.65 171.95
  Q 1545.81 270.08 1545.65 341.84
  Q 1545.63 348.54 1541.89 355.63
  Q 1535.16 368.39 1521.61 372.85
  Q 1516.62 374.49 1503.78 374.29
  Q 1497.86 374.20 1462.12 374.27
  A 0.68 0.67 -90.0 0 1 1461.45 373.59
  L 1461.45 305.84
  A 0.54 0.53 -89.5 0 1 1461.99 305.30
  Q 1489.58 305.59 1516.49 305.29
  C 1528.20 305.16 1541.99 295.83 1535.29 282.12
  C 1532.58 276.58 1525.81 273.29 1519.63 272.14
  A 0.44 0.44 0.0 0 1 1519.63 271.27
  Q 1524.62 270.40 1528.62 266.98
  C 1534.07 262.33 1534.96 253.85 1530.56 247.92
  C 1527.08 243.22 1518.08 240.54 1512.96 240.56
  Q 1470.08 240.74 1462.00 240.71
  Z"
/>
<path fill="#eb0112" d="
  M 939.70 193.95
  Q 939.32 194.99 937.95 195.61
  A 1.95 1.94 -77.1 0 0 937.44 195.93
  C 909.23 220.45 897.56 260.84 908.48 296.45
  Q 916.67 323.13 936.54 340.95
  Q 937.84 342.12 939.22 342.95
  A 1.03 1.02 7.8 0 1 939.68 343.55
  Q 939.77 343.88 939.89 343.93
  C 896.82 378.46 834.60 367.43 804.25 322.36
  C 790.33 301.69 784.29 274.95 789.75 250.26
  Q 797.07 217.16 821.43 196.43
  C 855.61 167.34 904.35 166.06 939.70 193.95
  Z"
/>
<path fill="#ff9b02" d="
  M 940.27 344.05
  Q 940.55 343.44 941.00 343.02
  Q 948.10 336.45 952.56 331.33
  Q 962.10 320.39 967.81 306.53
  C 981.75 272.72 976.13 234.94 952.82 206.96
  Q 950.27 203.89 939.85 194.10
  C 961.97 176.89 988.36 170.26 1015.51 175.55
  C 1053.66 183.00 1082.76 214.36 1089.66 251.93
  C 1099.68 306.39 1060.35 359.28 1004.73 363.88
  C 981.75 365.78 958.57 358.44 940.27 344.05
  Z"
/>
<path fill="#f05402" d="
  M 939.70 193.95
  Q 939.77 194.03 939.85 194.10
  Q 950.27 203.89 952.82 206.96
  C 976.13 234.94 981.75 272.72 967.81 306.53
  Q 962.10 320.39 952.56 331.33
  Q 948.10 336.45 941.00 343.02
  Q 940.55 343.44 940.27 344.05
  Q 940.07 344.21 939.89 343.93
  Q 939.77 343.88 939.68 343.55
  A 1.03 1.02 7.8 0 0 939.22 342.95
  Q 937.84 342.12 936.54 340.95
  Q 916.67 323.13 908.48 296.45
  C 897.56 260.84 909.23 220.45 937.44 195.93
  A 1.95 1.94 -77.1 0 1 937.95 195.61
  Q 939.32 194.99 939.70 193.95
  Z"
/>
<path fill="#0035ce" d="
  M 500.18 208.95
  A 0.78 0.78 0.0 0 1 500.68 209.86
  L 494.50 236.95
  A 0.60 0.59 18.5 0 1 493.68 237.35
  C 480.85 231.62 465.42 228.93 452.07 233.54
  C 445.55 235.79 441.28 243.28 446.94 249.08
  Q 449.38 251.57 452.68 253.35
  Q 464.30 259.62 465.51 260.25
  C 472.27 263.79 479.63 267.73 484.79 273.23
  C 494.03 283.08 495.68 295.74 491.46 308.43
  C 485.61 326.01 469.27 336.04 451.52 339.25
  Q 421.56 344.66 392.73 333.86
  A 0.65 0.65 0.0 0 1 392.32 333.10
  L 398.73 305.04
  A 0.59 0.58 18.6 0 1 399.54 304.64
  C 409.32 309.13 419.90 312.34 430.47 312.90
  C 439.06 313.36 452.75 311.87 456.01 302.73
  C 458.28 296.39 453.51 291.50 448.34 288.67
  C 441.90 285.15 428.85 279.21 420.04 272.40
  C 412.76 266.77 407.50 258.49 407.12 249.43
  C 405.75 217.53 439.12 203.57 465.52 203.13
  Q 483.11 202.84 500.18 208.95
  Z"
/>
<path fill="#0035ce" d="
  M 271.71 297.20
  A 0.19 0.18 -39.4 0 0 272.06 297.23
  L 310.03 206.03
  A 0.80 0.78 11.1 0 1 310.76 205.55
  L 346.98 205.55
  A 0.27 0.27 0.0 0 1 347.23 205.92
  Q 334.09 237.46 321.71 265.46
  Q 294.28 327.47 289.55 338.15
  A 1.07 1.05 -78.0 0 1 288.58 338.79
  L 252.34 338.79
  A 0.86 0.84 81.7 0 1 251.53 338.17
  Q 237.63 289.85 220.09 228.42
  C 218.57 223.11 212.59 219.35 207.22 217.29
  Q 193.20 211.93 178.33 208.93
  A 1.00 1.00 0.0 0 1 177.54 207.94
  C 177.60 204.48 179.76 204.95 182.81 204.95
  Q 229.13 204.93 238.78 204.90
  C 248.46 204.88 257.13 209.75 258.65 219.82
  Q 264.15 256.28 271.71 297.20
  Z"
/>
<path fill="#0035ce" d="
  M 367.86 338.84
  L 333.29 338.84
  A 0.53 0.53 0.0 0 1 332.78 338.19
  L 363.00 205.97
  A 0.53 0.53 0.0 0 1 363.51 205.56
  L 398.08 205.56
  A 0.53 0.53 0.0 0 1 398.59 206.21
  L 368.37 338.43
  A 0.53 0.53 0.0 0 1 367.86 338.84
  Z"
/>
<path fill="#0035ce" d="
  M 619.12 338.78
  L 587.28 338.78
  A 0.68 0.67 -5.8 0 1 586.62 338.25
  L 582.61 319.67
  A 0.71 0.70 -6.1 0 0 581.92 319.12
  L 537.23 319.12
  A 0.86 0.85 10.4 0 0 536.43 319.66
  L 529.31 337.97
  A 1.32 1.32 0.0 0 1 528.08 338.81
  L 492.21 338.81
  A 0.29 0.29 0.0 0 1 491.94 338.40
  Q 519.89 274.49 541.14 226.28
  C 545.76 215.80 547.14 210.52 555.65 206.83
  Q 558.59 205.55 565.52 205.57
  Q 582.29 205.62 590.55 205.61
  A 0.84 0.83 -5.9 0 1 591.37 206.27
  L 619.78 337.96
  A 0.68 0.68 0.0 0 1 619.12 338.78
  Z
  M 566.44 243.03
  A 0.32 0.32 0.0 0 0 565.83 242.98
  L 546.87 291.77
  A 0.32 0.32 0.0 0 0 547.17 292.21
  L 576.66 292.21
  A 0.32 0.32 0.0 0 0 576.98 291.82
  L 566.44 243.03
  Z"
/>
<path fill="#ffffff" d="
  M 566.44 243.03
  L 576.98 291.82
  A 0.32 0.32 0.0 0 1 576.66 292.21
  L 547.17 292.21
  A 0.32 0.32 0.0 0 1 546.87 291.77
  L 565.83 242.98
  A 0.32 0.32 0.0 0 1 566.44 243.03
  Z"
/>
<path fill="#028a45" d="
  M 1479.44 251.75
  A 0.60 0.60 0.0 0 1 1480.04 251.15
  L 1496.63 251.12
  A 9.27 7.34 -0.1 0 1 1505.91 258.45
  L 1505.91 259.71
  A 9.27 7.34 -0.1 0 1 1496.65 267.06
  L 1480.06 267.09
  A 0.60 0.60 0.0 0 1 1479.46 266.49
  L 1479.44 251.75
  Z"
/>
<path fill="#028a45" d="
  M 1479.46 278.27
  A 0.74 0.74 0.0 0 1 1480.19 277.52
  L 1497.91 277.49
  A 10.70 8.28 -0.1 0 1 1508.63 285.75
  L 1508.63 286.57
  A 10.70 8.28 -0.1 0 1 1497.95 294.87
  L 1480.23 294.90
  A 0.74 0.74 0.0 0 1 1479.48 294.17
  L 1479.46 278.27
  Z"
/>
<path fill="#eb0112" d="
  M 1591.24 502.44
  L 1591.27 503.11
  C 1575.51 513.91 1571.69 537.40 1586.37 551.26
  C 1598.90 563.10 1615.76 563.56 1629.00 552.09
  Q 1629.05 570.57 1629.11 588.75
  C 1629.14 595.11 1629.56 600.98 1625.17 604.61
  Q 1623.83 605.71 1617.86 608.79
  Q 1595.51 620.32 1565.55 635.43
  Q 1562.68 636.87 1559.11 636.49
  Q 1556.52 636.21 1553.01 634.40
  Q 1543.33 629.41 1497.76 606.26
  Q 1494.02 604.36 1492.51 600.53
  Q 1491.61 598.26 1491.62 592.73
  Q 1491.67 554.48 1491.63 529.05
  Q 1491.62 524.95 1494.05 521.94
  Q 1495.64 519.97 1500.28 517.62
  Q 1522.55 506.30 1544.94 494.51
  Q 1549.50 492.10 1553.67 489.87
  Q 1557.37 487.89 1561.25 488.24
  Q 1563.74 488.47 1568.57 490.94
  Q 1579.90 496.72 1591.24 502.44
  Z
  M 1548.21 605.65
  Q 1548.22 594.51 1548.27 583.25
  C 1548.32 574.12 1541.61 565.46 1532.26 564.34
  Q 1530.54 564.14 1527.27 565.97
  A 0.53 0.52 -28.5 0 1 1526.55 565.76
  C 1523.42 559.75 1515.38 553.32 1508.68 557.74
  C 1505.48 559.85 1505.16 563.59 1505.16 567.25
  Q 1505.17 571.84 1505.11 584.94
  A 0.51 0.50 11.6 0 0 1505.42 585.40
  L 1511.21 587.82
  A 0.10 0.10 0.0 0 0 1511.35 587.73
  Q 1511.71 580.30 1511.23 571.03
  C 1511.04 567.33 1512.31 562.28 1517.01 564.52
  Q 1522.38 567.08 1522.69 573.25
  Q 1523.12 581.56 1522.90 593.53
  A 0.47 0.46 -78.5 0 0 1523.19 593.98
  L 1529.26 596.51
  A 0.09 0.09 0.0 0 0 1529.38 596.43
  Q 1529.73 590.65 1529.31 584.75
  C 1529.12 582.20 1529.14 577.99 1529.57 575.85
  C 1530.96 568.76 1538.25 573.43 1540.22 577.04
  Q 1541.43 579.26 1541.42 584.24
  Q 1541.39 600.57 1541.42 602.73
  A 0.35 0.32 -80.3 0 0 1541.63 603.05
  L 1548.08 605.74
  A 0.10 0.10 0.0 0 0 1548.21 605.65
  Z"
/>
<path fill="#fd0130" d="
  M 152.22 508.35
  A 0.53 0.53 0.0 0 1 151.70 507.74
  Q 153.70 494.37 165.39 489.80
  Q 168.41 488.62 174.27 488.63
  Q 256.21 488.72 260.95 488.62
  Q 268.15 488.48 271.40 489.78
  C 280.16 493.28 285.14 500.08 285.16 509.57
  Q 285.21 531.45 285.21 597.53
  Q 285.21 605.40 284.15 608.32
  C 281.12 616.63 273.15 621.88 264.26 621.89
  Q 239.48 621.94 186.00 621.89
  A 0.38 0.38 0.0 0 1 185.63 621.42
  L 191.10 597.50
  A 0.99 0.97 6.2 0 1 192.06 596.74
  Q 213.63 596.93 233.34 589.89
  C 244.22 586.00 254.16 579.21 259.46 568.74
  C 265.90 556.04 263.06 542.12 252.56 532.62
  Q 242.01 523.05 226.85 517.86
  Q 210.18 512.15 193.50 510.22
  Q 176.84 508.30 170.01 508.31
  Q 158.24 508.33 152.22 508.35
  Z"
/>
<path fill="#ce0125" d="
  M 1394.76 632.38
  A 38.96 38.96 0.0 0 1 1355.80 671.34
  L 1252.82 671.34
  A 38.96 38.96 0.0 0 1 1213.86 632.38
  L 1213.86 529.78
  A 38.96 38.96 0.0 0 1 1252.82 490.82
  L 1355.80 490.82
  A 38.96 38.96 0.0 0 1 1394.76 529.78
  L 1394.76 632.38
  Z
  M 1272.11 532.98
  L 1262.01 532.98
  A 0.71 0.71 0.0 0 0 1261.30 533.69
  L 1261.30 551.38
  A 0.36 0.36 0.0 0 1 1260.75 551.68
  Q 1255.59 548.50 1249.47 549.30
  C 1239.10 550.65 1231.36 558.08 1231.19 568.80
  C 1230.86 588.81 1251.20 595.10 1266.34 585.83
  Q 1270.18 583.48 1271.66 582.67
  A 1.50 1.50 0.0 0 0 1272.43 581.36
  L 1272.43 533.31
  A 0.33 0.32 -90.0 0 0 1272.11 532.98
  Z
  M 1291.32 573.54
  L 1291.32 580.79
  A 1.32 1.31 0.0 0 1 1290.00 582.10
  L 1286.33 582.10
  A 0.65 0.64 -3.9 0 0 1285.69 582.83
  L 1286.30 587.22
  A 1.23 1.23 0.0 0 0 1287.48 588.27
  C 1291.44 588.40 1296.85 588.54 1297.06 583.76
  Q 1297.41 575.94 1297.28 571.32
  A 0.79 0.78 -7.1 0 1 1297.90 570.53
  L 1302.09 569.63
  A 1.48 1.47 80.0 0 0 1303.23 567.99
  L 1302.65 563.82
  A 0.70 0.70 0.0 0 0 1301.72 563.26
  L 1297.91 564.63
  A 0.46 0.46 0.0 0 1 1297.30 564.20
  L 1297.30 558.34
  A 0.63 0.62 90.0 0 1 1297.92 557.71
  L 1302.07 557.71
  A 0.87 0.87 0.0 0 0 1302.94 556.84
  L 1302.94 552.81
  A 1.21 1.21 0.0 0 0 1301.56 551.61
  L 1298.39 552.05
  A 0.94 0.94 0.0 0 1 1297.33 551.12
  L 1297.33 544.69
  A 0.91 0.90 -0.0 0 0 1296.42 543.79
  L 1292.00 543.79
  A 0.86 0.86 0.0 0 0 1291.14 544.65
  L 1291.14 551.01
  A 0.60 0.59 -0.0 0 1 1290.54 551.60
  L 1285.09 551.60
  A 0.85 0.84 90.0 0 0 1284.25 552.45
  L 1284.25 557.01
  A 0.86 0.86 0.0 0 0 1285.11 557.87
  L 1290.05 557.87
  A 1.17 1.17 0.0 0 1 1291.22 559.04
  L 1291.22 565.34
  A 1.46 1.46 0.0 0 1 1289.95 566.79
  L 1284.60 567.54
  A 0.87 0.87 0.0 0 0 1283.86 568.52
  L 1284.49 573.11
  A 0.93 0.93 0.0 0 0 1285.61 573.89
  L 1290.45 572.84
  A 0.72 0.72 0.0 0 1 1291.32 573.54
  Z
  M 1315.96 545.47
  L 1311.45 544.43
  A 1.19 1.19 0.0 0 0 1310.01 545.41
  Q 1307.08 564.17 1301.51 579.28
  Q 1301.03 580.58 1299.47 580.36
  A 0.96 0.96 0.0 0 0 1298.38 581.44
  L 1299.13 586.83
  A 1.15 1.14 80.0 0 0 1300.50 587.80
  L 1320.58 583.47
  A 1.19 1.19 0.0 0 1 1322.00 584.38
  L 1322.67 587.46
  A 0.65 0.64 73.6 0 0 1323.52 587.93
  L 1328.40 586.09
  A 0.99 0.98 71.5 0 0 1328.99 584.89
  Q 1325.64 573.74 1321.48 564.88
  A 1.03 1.03 0.0 0 0 1320.19 564.35
  L 1316.37 565.79
  A 0.92 0.92 0.0 0 0 1315.84 566.97
  L 1319.52 576.73
  A 0.72 0.71 73.7 0 1 1319.00 577.69
  L 1309.10 579.83
  A 0.77 0.77 0.0 0 1 1308.23 578.78
  Q 1309.40 575.92 1310.54 571.81
  Q 1314.16 558.69 1316.83 546.85
  A 1.15 1.15 0.0 0 0 1315.96 545.47
  Z
  M 1355.81 575.87
  C 1352.93 577.90 1348.06 581.60 1344.50 579.36
  C 1340.77 577.01 1340.92 569.66 1341.21 565.50
  Q 1341.92 555.43 1343.10 549.32
  A 0.82 0.82 0.0 0 0 1342.29 548.34
  L 1337.07 548.34
  A 1.05 1.04 5.3 0 0 1336.04 549.19
  Q 1333.86 560.47 1334.58 572.74
  Q 1334.82 576.88 1336.33 580.69
  C 1339.72 589.18 1349.87 587.97 1355.98 583.66
  A 1.05 1.04 72.8 0 0 1356.43 582.80
  L 1356.43 576.19
  A 0.39 0.39 0.0 0 0 1355.81 575.87
  Z
  M 1360.22 550.22
  C 1367.48 560.67 1368.92 570.06 1368.63 582.70
  A 0.57 0.56 -89.5 0 0 1369.19 583.28
  L 1374.68 583.28
  A 0.69 0.69 0.0 0 0 1375.37 582.64
  C 1376.24 571.20 1374.39 560.22 1368.59 550.30
  A 2.52 2.50 74.7 0 0 1366.43 549.06
  L 1360.83 549.06
  A 0.74 0.73 -17.5 0 0 1360.22 550.22
  Z
  M 1274.82 623.39
  A 13.07 13.07 0.0 0 0 1261.75 610.32
  A 13.07 13.07 0.0 0 0 1248.68 623.39
  A 13.07 13.07 0.0 0 0 1261.75 636.46
  A 13.07 13.07 0.0 0 0 1274.82 623.39
  Z
  M 1317.33 623.37
  A 13.11 13.11 0.0 0 0 1304.22 610.26
  A 13.11 13.11 0.0 0 0 1291.11 623.37
  A 13.11 13.11 0.0 0 0 1304.22 636.48
  A 13.11 13.11 0.0 0 0 1317.33 623.37
  Z
  M 1359.94 623.38
  A 13.09 13.09 0.0 0 0 1346.85 610.29
  A 13.09 13.09 0.0 0 0 1333.76 623.38
  A 13.09 13.09 0.0 0 0 1346.85 636.47
  A 13.09 13.09 0.0 0 0 1359.94 623.38
  Z"
/>
<path fill="#36c0fe" d="
  M 1629.00 552.09
  C 1615.76 563.56 1598.90 563.10 1586.37 551.26
  C 1571.69 537.40 1575.51 513.91 1591.27 503.11
  L 1591.81 502.64
  Q 1598.93 499.68 1601.25 499.22
  C 1618.41 495.83 1632.36 504.25 1637.40 520.81
  Q 1642.48 537.53 1629.00 552.09
  Z"
/>
<path fill="#fd0130" d="
  M 1591.81 502.64
  L 1591.27 503.11
  L 1591.24 502.44
  L 1591.81 502.64
  Z"
/>
<path fill="#c50604" d="
  M 433.26 528.44
  Q 459.20 528.40 465.73 528.61
  C 473.38 528.85 481.48 532.81 486.75 538.64
  C 499.18 552.37 496.93 573.98 482.06 585.25
  A 0.67 0.66 53.7 0 0 481.92 586.17
  L 505.08 618.74
  A 0.41 0.40 72.4 0 1 504.75 619.38
  L 484.72 619.38
  A 1.47 1.47 0.0 0 1 483.52 618.76
  L 464.32 591.76
  A 1.07 1.07 0.0 0 0 463.44 591.30
  L 450.91 591.30
  A 0.64 0.63 90.0 0 0 450.28 591.94
  L 450.28 618.62
  A 0.72 0.72 0.0 0 1 449.56 619.34
  L 432.95 619.34
  A 0.44 0.44 0.0 0 1 432.51 618.90
  L 432.51 529.19
  A 0.75 0.75 0.0 0 1 433.26 528.44
  Z
  M 450.28 546.14
  L 450.28 573.90
  A 0.73 0.73 0.0 0 0 451.01 574.63
  L 462.12 574.63
  A 15.44 14.47 -0.0 0 0 477.56 560.16
  L 477.56 559.88
  A 15.44 14.47 0.0 0 0 462.12 545.41
  L 451.01 545.41
  A 0.73 0.73 0.0 0 0 450.28 546.14
  Z"
/>
<path fill="#fd0130" d="
  M 152.43 532.21
  Q 175.67 529.04 199.09 530.88
  A 0.73 0.73 0.0 0 1 199.74 531.78
  L 177.41 621.27
  A 0.79 0.79 0.0 0 1 176.64 621.87
  Q 173.85 621.84 172.30 621.89
  C 163.41 622.17 155.70 616.17 152.75 607.98
  Q 151.80 605.33 151.81 598.08
  Q 151.85 560.31 151.78 532.95
  A 0.75 0.75 0.0 0 1 152.43 532.21
  Z"
/>
<path fill="#fd0130" d="
  M 195.86 580.84
  A 0.66 0.66 0.0 0 1 195.26 580.02
  L 207.06 532.72
  A 0.93 0.93 0.0 0 1 208.05 532.03
  Q 222.89 533.69 237.36 539.19
  C 244.49 541.90 256.68 548.48 257.37 556.99
  C 257.78 562.14 253.84 566.71 249.57 569.30
  C 239.93 575.16 230.95 577.70 219.16 579.55
  Q 206.50 581.53 195.86 580.84
  Z"
/>
<path fill="#ffffff" d="
  M 1272.11 532.98
  A 0.33 0.32 90.0 0 1 1272.43 533.31
  L 1272.43 581.36
  A 1.50 1.50 0.0 0 1 1271.66 582.67
  Q 1270.18 583.48 1266.34 585.83
  C 1251.20 595.10 1230.86 588.81 1231.19 568.80
  C 1231.36 558.08 1239.10 550.65 1249.47 549.30
  Q 1255.59 548.50 1260.75 551.68
  A 0.36 0.36 0.0 0 0 1261.30 551.38
  L 1261.30 533.69
  A 0.71 0.71 0.0 0 1 1262.01 532.98
  L 1272.11 532.98
  Z
  M 1250.6254 560.0203
  A 9.76 9.39 -97.8 0 0 1242.6469 570.9644
  A 9.76 9.39 -97.8 0 0 1253.2746 579.3597
  A 9.76 9.39 -97.8 0 0 1261.2531 568.4156
  A 9.76 9.39 -97.8 0 0 1250.6254 560.0203
  Z"
/>
<path fill="#c50604" d="
  M 538.32 535.72
  Q 559.48 535.40 565.98 535.76
  C 581.57 536.62 592.06 547.69 591.17 563.44
  C 590.60 573.58 585.17 581.82 575.41 585.67
  Q 570.08 587.78 561.84 587.56
  Q 557.76 587.45 547.91 587.52
  A 0.63 0.63 0.0 0 0 547.29 588.15
  L 547.29 619.55
  A 0.71 0.71 0.0 0 1 546.58 620.26
  L 538.16 620.26
  A 0.49 0.49 0.0 0 1 537.67 619.77
  L 537.67 536.39
  A 0.67 0.66 89.6 0 1 538.32 535.72
  Z
  M 547.25 545.77
  L 547.31 577.75
  A 0.64 0.64 0.0 0 0 547.95 578.39
  L 565.14 578.36
  A 16.35 16.16 -0.1 0 0 581.46 562.17
  L 581.46 561.23
  A 16.35 16.16 -0.1 0 0 565.08 545.10
  L 547.89 545.13
  A 0.64 0.64 0.0 0 0 547.25 545.77
  Z"
/>
<path fill="#ffffff" d="
  M 1291.32 573.54
  A 0.72 0.72 0.0 0 0 1290.45 572.84
  L 1285.61 573.89
  A 0.93 0.93 0.0 0 1 1284.49 573.11
  L 1283.86 568.52
  A 0.87 0.87 0.0 0 1 1284.60 567.54
  L 1289.95 566.79
  A 1.46 1.46 0.0 0 0 1291.22 565.34
  L 1291.22 559.04
  A 1.17 1.17 0.0 0 0 1290.05 557.87
  L 1285.11 557.87
  A 0.86 0.86 0.0 0 1 1284.25 557.01
  L 1284.25 552.45
  A 0.85 0.84 90.0 0 1 1285.09 551.60
  L 1290.54 551.60
  A 0.60 0.59 -0.0 0 0 1291.14 551.01
  L 1291.14 544.65
  A 0.86 0.86 0.0 0 1 1292.00 543.79
  L 1296.42 543.79
  A 0.91 0.90 -0.0 0 1 1297.33 544.69
  L 1297.33 551.12
  A 0.94 0.94 0.0 0 0 1298.39 552.05
  L 1301.56 551.61
  A 1.21 1.21 0.0 0 1 1302.94 552.81
  L 1302.94 556.84
  A 0.87 0.87 0.0 0 1 1302.07 557.71
  L 1297.92 557.71
  A 0.63 0.62 90.0 0 0 1297.30 558.34
  L 1297.30 564.20
  A 0.46 0.46 0.0 0 0 1297.91 564.63
  L 1301.72 563.26
  A 0.70 0.70 0.0 0 1 1302.65 563.82
  L 1303.23 567.99
  A 1.48 1.47 80.0 0 1 1302.09 569.63
  L 1297.90 570.53
  A 0.79 0.78 -7.1 0 0 1297.28 571.32
  Q 1297.41 575.94 1297.06 583.76
  C 1296.85 588.54 1291.44 588.40 1287.48 588.27
  A 1.23 1.23 0.0 0 1 1286.30 587.22
  L 1285.69 582.83
  A 0.65 0.64 -3.9 0 1 1286.33 582.10
  L 1290.00 582.10
  A 1.32 1.31 0.0 0 0 1291.32 580.79
  L 1291.32 573.54
  Z"
/>
<path fill="#ffffff" d="
  M 1315.96 545.47
  A 1.15 1.15 0.0 0 1 1316.83 546.85
  Q 1314.16 558.69 1310.54 571.81
  Q 1309.40 575.92 1308.23 578.78
  A 0.77 0.77 0.0 0 0 1309.10 579.83
  L 1319.00 577.69
  A 0.72 0.71 73.7 0 0 1319.52 576.73
  L 1315.84 566.97
  A 0.92 0.92 0.0 0 1 1316.37 565.79
  L 1320.19 564.35
  A 1.03 1.03 0.0 0 1 1321.48 564.88
  Q 1325.64 573.74 1328.99 584.89
  A 0.99 0.98 71.5 0 1 1328.40 586.09
  L 1323.52 587.93
  A 0.65 0.64 73.6 0 1 1322.67 587.46
  L 1322.00 584.38
  A 1.19 1.19 0.0 0 0 1320.58 583.47
  L 1300.50 587.80
  A 1.15 1.14 80.0 0 1 1299.13 586.83
  L 1298.38 581.44
  A 0.96 0.96 0.0 0 1 1299.47 580.36
  Q 1301.03 580.58 1301.51 579.28
  Q 1307.08 564.17 1310.01 545.41
  A 1.19 1.19 0.0 0 1 1311.45 544.43
  L 1315.96 545.47
  Z"
/>
<path fill="#ffffff" d="
  M 547.25 545.77
  A 0.64 0.64 0.0 0 1 547.89 545.13
  L 565.08 545.10
  A 16.35 16.16 -0.1 0 1 581.46 561.23
  L 581.46 562.17
  A 16.35 16.16 -0.1 0 1 565.14 578.36
  L 547.95 578.39
  A 0.64 0.64 0.0 0 1 547.31 577.75
  L 547.25 545.77
  Z"
/>
<path fill="#ffffff" d="
  M 450.28 546.14
  A 0.73 0.73 0.0 0 1 451.01 545.41
  L 462.12 545.41
  A 15.44 14.47 -0.0 0 1 477.56 559.88
  L 477.56 560.16
  A 15.44 14.47 -0.0 0 1 462.12 574.63
  L 451.01 574.63
  A 0.73 0.73 0.0 0 1 450.28 573.90
  L 450.28 546.14
  Z"
/>
<path fill="#ffffff" d="
  M 1355.81 575.87
  A 0.39 0.39 0.0 0 1 1356.43 576.19
  L 1356.43 582.80
  A 1.05 1.04 72.8 0 1 1355.98 583.66
  C 1349.87 587.97 1339.72 589.18 1336.33 580.69
  Q 1334.82 576.88 1334.58 572.74
  Q 1333.86 560.47 1336.04 549.19
  A 1.05 1.04 5.3 0 1 1337.07 548.34
  L 1342.29 548.34
  A 0.82 0.82 0.0 0 1 1343.10 549.32
  Q 1341.92 555.43 1341.21 565.50
  C 1340.92 569.66 1340.77 577.01 1344.50 579.36
  C 1348.06 581.60 1352.93 577.90 1355.81 575.87
  Z"
/>
<path fill="#ffffff" d="
  M 1360.22 550.22
  A 0.74 0.73 -17.5 0 1 1360.83 549.06
  L 1366.43 549.06
  A 2.52 2.50 74.7 0 1 1368.59 550.30
  C 1374.39 560.22 1376.24 571.20 1375.37 582.64
  A 0.69 0.69 0.0 0 1 1374.68 583.28
  L 1369.19 583.28
  A 0.57 0.56 -89.5 0 1 1368.63 582.70
  C 1368.92 570.06 1367.48 560.67 1360.22 550.22
  Z"
/>
<path fill="#c50604" d="
  M 653.85 587.53
  Q 653.83 600.92 653.96 603.85
  C 654.15 608.44 653.45 613.78 653.84 618.33
  A 1.79 1.78 -2.4 0 1 652.06 620.26
  L 645.59 620.27
  A 1.17 1.17 0.0 0 1 644.42 619.10
  L 644.42 613.11
  A 0.43 0.43 0.0 0 0 643.67 612.82
  Q 635.02 622.65 622.79 622.06
  C 614.23 621.64 606.13 616.39 601.69 609.57
  C 597.43 603.05 595.59 595.52 595.60 587.44
  C 595.61 579.36 597.48 571.84 601.75 565.33
  C 606.22 558.52 614.33 553.30 622.89 552.90
  Q 635.12 552.35 643.74 562.20
  A 0.43 0.43 0.0 0 0 644.50 561.92
  L 644.51 555.93
  A 1.17 1.17 0.0 0 1 645.69 554.76
  L 652.16 554.79
  A 1.79 1.78 2.5 0 1 653.93 556.72
  C 653.53 561.27 654.21 566.62 654.00 571.20
  Q 653.87 574.14 653.85 587.53
  Z
  M 625.0152 561.9000
  A 25.68 19.58 -90.1 0 0 605.4800 587.6142
  A 25.68 19.58 -90.1 0 0 625.1048 613.2600
  A 25.68 19.58 -90.1 0 0 644.6400 587.5458
  A 25.68 19.58 -90.1 0 0 625.0152 561.9000
  Z"
/>
<path fill="#c50604" d="
  M 707.36 554.70
  L 716.77 554.70
  A 0.15 0.15 0.0 0 1 716.91 554.90
  Q 699.01 607.94 694.43 622.16
  Q 691.61 630.91 689.19 633.45
  C 683.18 639.79 673.67 640.17 666.69 634.78
  A 1.76 1.76 0.0 0 1 666.31 632.40
  L 669.43 627.82
  A 0.98 0.98 0.0 0 1 670.97 627.71
  Q 672.35 629.21 674.83 629.71
  C 681.56 631.08 684.32 625.55 685.47 620.07
  A 4.77 4.70 -49.4 0 0 685.29 617.51
  L 662.76 554.87
  A 0.16 0.16 0.0 0 1 662.91 554.65
  L 672.54 554.65
  A 0.33 0.33 0.0 0 1 672.85 554.87
  L 689.89 604.66
  A 0.53 0.53 0.0 0 0 690.89 604.65
  L 707.01 554.95
  A 0.38 0.37 -79.9 0 1 707.36 554.70
  Z"
/>
<path fill="#ffffff" d="
  M 1548.21 605.65
  A 0.10 0.10 0.0 0 1 1548.08 605.74
  L 1541.63 603.05
  A 0.35 0.32 -80.3 0 1 1541.42 602.73
  Q 1541.39 600.57 1541.42 584.24
  Q 1541.43 579.26 1540.22 577.04
  C 1538.25 573.43 1530.96 568.76 1529.57 575.85
  C 1529.14 577.99 1529.12 582.20 1529.31 584.75
  Q 1529.73 590.65 1529.38 596.43
  A 0.09 0.09 0.0 0 1 1529.26 596.51
  L 1523.19 593.98
  A 0.47 0.46 -78.5 0 1 1522.90 593.53
  Q 1523.12 581.56 1522.69 573.25
  Q 1522.38 567.08 1517.01 564.52
  C 1512.31 562.28 1511.04 567.33 1511.23 571.03
  Q 1511.71 580.30 1511.35 587.73
  A 0.10 0.10 0.0 0 1 1511.21 587.82
  L 1505.42 585.40
  A 0.51 0.50 11.6 0 1 1505.11 584.94
  Q 1505.17 571.84 1505.16 567.25
  C 1505.16 563.59 1505.48 559.85 1508.68 557.74
  C 1515.38 553.32 1523.42 559.75 1526.55 565.76
  A 0.53 0.52 -28.5 0 0 1527.27 565.97
  Q 1530.54 564.14 1532.26 564.34
  C 1541.61 565.46 1548.32 574.12 1548.27 583.25
  Q 1548.22 594.51 1548.21 605.65
  Z"
/>
<path fill="#f05402" d="
  M 877.86 612.33
  A 0.43 0.43 0.0 0 0 877.12 612.16
  Q 867.84 622.81 854.69 622.91
  C 848.34 622.96 842.29 619.28 841.14 612.93
  A 0.41 0.41 0.0 0 0 840.45 612.72
  Q 829.49 624.03 813.53 622.96
  C 804.18 622.33 796.09 617.28 796.92 606.75
  Q 797.73 596.42 803.49 585.76
  C 812.79 568.51 829.37 561.24 848.16 559.50
  Q 860.11 558.39 871.21 558.84
  A 0.49 0.49 0.0 0 1 871.67 559.45
  Q 866.43 579.28 864.08 586.75
  C 862.16 592.84 860.11 602.23 858.01 608.75
  Q 857.14 611.47 858.59 613.56
  A 2.54 2.50 -24.1 0 0 861.26 614.56
  C 869.12 612.65 872.71 606.45 877.35 600.27
  A 7.07 7.00 -20.5 0 0 878.61 597.54
  Q 879.98 591.25 883.03 580.75
  Q 885.96 570.61 889.50 566.62
  Q 896.59 558.62 907.87 558.81
  A 0.75 0.75 0.0 0 1 908.58 559.77
  Q 903.70 576.66 895.68 606.29
  Q 894.52 610.55 895.08 612.19
  C 896.33 615.85 900.78 615.28 903.96 614.48
  C 910.49 612.85 916.41 607.64 920.32 602.17
  Q 922.13 599.63 923.34 594.92
  Q 927.67 577.93 929.44 573.66
  Q 935.55 558.90 951.95 558.96
  A 0.70 0.69 -82.6 0 1 952.62 559.84
  C 948.22 576.65 943.70 591.93 939.21 608.01
  Q 938.40 610.92 938.79 612.52
  C 939.84 616.88 945.45 613.63 947.84 611.82
  Q 949.70 610.42 954.89 605.06
  Q 958.08 601.76 961.21 597.60
  Q 968.83 587.48 973.26 581.02
  A 1.45 1.44 17.2 0 1 974.45 580.40
  L 982.46 580.40
  A 0.59 0.59 0.0 0 1 982.95 581.32
  Q 973.92 594.46 962.73 607.48
  C 955.02 616.45 946.48 623.67 934.73 622.90
  Q 924.78 622.24 922.03 612.79
  A 0.34 0.34 0.0 0 0 921.45 612.66
  C 914.28 620.78 903.82 623.74 893.22 622.95
  C 886.25 622.43 879.92 619.57 877.86 612.33
  Z
  M 849.74 567.63
  A 0.59 0.59 0.0 0 0 849.02 566.90
  C 845.60 567.82 841.77 568.48 838.49 570.23
  C 828.86 575.38 822.02 585.18 818.43 595.14
  C 816.66 600.05 809.64 615.66 819.93 615.07
  C 828.11 614.60 833.88 609.09 838.57 602.56
  Q 841.15 598.99 841.74 596.23
  Q 843.25 589.19 843.62 588.03
  Q 846.78 578.21 849.74 567.63
  Z"
/>
<path fill="#f05402" d="
  M 1011.50 603.47
  A 0.59 0.59 0.0 0 0 1010.92 604.06
  L 1010.92 622.12
  A 0.67 0.67 0.0 0 1 1010.25 622.79
  L 1000.18 622.79
  A 0.71 0.71 0.0 0 1 999.47 622.08
  L 999.47 560.46
  A 0.53 0.53 0.0 0 1 999.99 559.93
  Q 1009.82 559.75 1023.06 559.87
  C 1039.28 560.02 1049.46 572.18 1045.46 588.13
  C 1043.00 597.91 1033.49 603.36 1023.74 603.31
  Q 1021.98 603.31 1011.50 603.47
  Z
  M 1010.93 570.99
  L 1010.82 592.05
  A 0.72 0.72 0.0 0 0 1011.53 592.77
  L 1024.02 592.84
  A 10.55 10.02 0.3 0 0 1034.62 582.87
  L 1034.64 580.41
  A 10.55 10.02 0.3 0 0 1024.14 570.34
  L 1011.65 570.27
  A 0.72 0.72 0.0 0 0 1010.93 570.99
  Z"
/>
<path fill="#f05402" d="
  M 1074.17 559.66
  Q 1076.09 559.66 1077.86 559.78
  A 1.50 1.50 0.0 0 1 1079.17 560.75
  L 1102.35 622.15
  A 0.52 0.51 79.7 0 1 1101.87 622.85
  L 1090.95 622.85
  A 1.07 1.05 80.3 0 1 1089.95 622.13
  L 1086.10 610.88
  A 1.06 1.04 80.0 0 0 1085.10 610.17
  Q 1078.45 610.20 1074.16 610.20
  Q 1069.88 610.20 1063.22 610.16
  A 1.06 1.04 -80.0 0 0 1062.22 610.88
  L 1058.37 622.12
  A 1.07 1.05 -80.2 0 1 1057.37 622.84
  L 1046.45 622.84
  A 0.52 0.51 -79.7 0 1 1045.97 622.14
  L 1069.17 560.75
  A 1.50 1.50 0.0 0 1 1070.48 559.78
  Q 1072.26 559.66 1074.17 559.66
  Z
  M 1066.21 599.70
  A 0.45 0.45 0.0 0 0 1066.64 600.30
  L 1081.74 600.38
  A 0.45 0.45 0.0 0 0 1082.17 599.79
  L 1074.73 577.59
  A 0.45 0.45 0.0 0 0 1073.88 577.59
  L 1066.21 599.70
  Z"
/>
<path fill="#f05402" d="
  M 1124.02 589.87
  Q 1124.39 589.87 1124.63 589.38
  Q 1131.21 576.23 1139.37 560.66
  A 1.32 1.32 0.0 0 1 1140.54 559.95
  L 1152.17 559.95
  A 0.44 0.44 0.0 0 1 1152.55 560.60
  L 1130.30 601.74
  A 5.04 4.97 59.5 0 0 1129.70 604.12
  L 1129.70 622.19
  A 0.67 0.67 0.0 0 1 1128.97 622.85
  Q 1128.37 622.80 1123.95 622.79
  Q 1119.53 622.78 1118.93 622.83
  A 0.67 0.67 0.0 0 1 1118.20 622.17
  L 1118.27 604.10
  A 5.04 4.97 -59.3 0 0 1117.68 601.71
  L 1095.60 560.49
  A 0.44 0.44 0.0 0 1 1095.98 559.84
  L 1107.61 559.88
  A 1.32 1.32 0.0 0 1 1108.78 560.60
  Q 1116.88 576.20 1123.40 589.38
  Q 1123.64 589.86 1124.02 589.87
  Z"
/>
<ellipse fill="#ce0125" cx="0.00" cy="0.00" transform="translate(1251.95,569.69) rotate(-97.8)" rx="9.76" ry="9.39"/>
<ellipse fill="#ffffff" cx="0.00" cy="0.00" transform="translate(625.06,587.58) rotate(-90.1)" rx="25.68" ry="19.58"/>
<path fill="#ffffff" d="
  M 849.74 567.63
  Q 846.78 578.21 843.62 588.03
  Q 843.25 589.19 841.74 596.23
  Q 841.15 598.99 838.57 602.56
  C 833.88 609.09 828.11 614.60 819.93 615.07
  C 809.64 615.66 816.66 600.05 818.43 595.14
  C 822.02 585.18 828.86 575.38 838.49 570.23
  C 841.77 568.48 845.60 567.82 849.02 566.90
  A 0.59 0.59 0.0 0 1 849.74 567.63
  Z"
/>
<path fill="#ffffff" d="
  M 1010.93 570.99
  A 0.72 0.72 0.0 0 1 1011.65 570.27
  L 1024.14 570.34
  A 10.55 10.02 0.3 0 1 1034.64 580.41
  L 1034.62 582.87
  A 10.55 10.02 0.3 0 1 1024.02 592.84
  L 1011.53 592.77
  A 0.72 0.72 0.0 0 1 1010.82 592.05
  L 1010.93 570.99
  Z"
/>
<path fill="#ffffff" d="
  M 1066.21 599.70
  L 1073.88 577.59
  A 0.45 0.45 0.0 0 1 1074.73 577.59
  L 1082.17 599.79
  A 0.45 0.45 0.0 0 1 1081.74 600.38
  L 1066.64 600.30
  A 0.45 0.45 0.0 0 1 1066.21 599.70
  Z"
/>
<circle fill="#f3e458" cx="1261.75" cy="623.39" r="13.07"/>
<circle fill="#f3e458" cx="1304.22" cy="623.37" r="13.11"/>
<circle fill="#f3e458" cx="1346.85" cy="623.38" r="13.09"/>
<path fill="#c50604" d="
  M 432.41 641.73
  L 417.09 629.22
  A 0.17 0.17 0.0 0 1 417.20 628.92
  L 520.60 628.92
  A 0.17 0.17 0.0 0 1 520.77 629.09
  L 520.77 629.35
  A 0.17 0.17 0.0 0 1 520.62 629.52
  L 432.54 641.77
  A 0.17 0.17 0.0 0 1 432.41 641.73
  Z"
/>
<path fill="#393231" d="
  M 124.39 683.15
  A 0.36 0.36 0.0 0 1 124.03 683.51
  L 115.44 683.51
  A 0.39 0.39 0.0 0 1 115.05 683.12
  L 115.06 642.29
  A 1.92 1.92 0.0 0 1 116.86 640.37
  Q 117.47 640.33 124.41 640.26
  C 128.59 640.22 132.68 639.95 136.45 640.91
  C 152.53 644.97 150.26 666.18 134.60 668.35
  Q 130.30 668.94 124.88 668.47
  A 0.45 0.45 0.0 0 0 124.39 668.92
  L 124.39 683.15
  Z
  M 124.38 645.53
  L 124.54 663.45
  A 0.57 0.57 0.0 0 0 125.11 664.01
  L 130.66 663.96
  A 9.62 9.25 -0.5 0 0 140.20 654.63
  L 140.20 654.07
  A 9.62 9.25 -0.5 0 0 130.50 644.91
  L 124.95 644.95
  A 0.57 0.57 0.0 0 0 124.38 645.53
  Z"
/>
<path fill="#393231" d="
  M 231.82 683.14
  A 0.36 0.36 0.0 0 1 231.46 683.50
  L 222.88 683.50
  A 0.39 0.39 0.0 0 1 222.49 683.11
  L 222.50 642.29
  A 1.92 1.92 0.0 0 1 224.30 640.37
  Q 224.91 640.33 231.85 640.26
  C 236.03 640.22 240.11 639.95 243.88 640.91
  C 259.96 644.97 257.69 666.17 242.03 668.34
  Q 237.73 668.93 232.31 668.46
  A 0.45 0.45 0.0 0 0 231.83 668.91
  L 231.82 683.14
  Z
  M 231.79 645.37
  L 231.91 663.48
  A 0.46 0.46 0.0 0 0 232.38 663.94
  L 238.03 663.90
  A 9.67 9.24 -0.4 0 0 247.63 654.59
  L 247.63 654.03
  A 9.67 9.24 -0.4 0 0 237.89 644.86
  L 232.24 644.90
  A 0.46 0.46 0.0 0 0 231.79 645.37
  Z"
/>
<path fill="#ffffff" d="
  M 231.79 645.37
  A 0.46 0.46 0.0 0 1 232.24 644.90
  L 237.89 644.86
  A 9.67 9.24 -0.4 0 1 247.63 654.03
  L 247.63 654.59
  A 9.67 9.24 -0.4 0 1 238.03 663.90
  L 232.38 663.94
  A 0.46 0.46 0.0 0 1 231.91 663.48
  L 231.79 645.37
  Z"
/>
<path fill="#ffffff" d="
  M 124.38 645.53
  A 0.57 0.57 0.0 0 1 124.95 644.95
  L 130.50 644.91
  A 9.62 9.25 -0.5 0 1 140.20 654.07
  L 140.20 654.63
  A 9.62 9.25 -0.5 0 1 130.66 663.96
  L 125.11 664.01
  A 0.57 0.57 0.0 0 1 124.54 663.45
  L 124.38 645.53
  Z"
/>
<path fill="#393231" d="
  M 168.55 682.56
  A 0.72 0.72 0.0 0 0 167.80 682.36
  Q 167.38 682.49 165.44 683.23
  C 156.29 686.68 147.54 679.31 150.03 669.62
  C 152.04 661.77 160.82 660.69 167.96 662.34
  A 0.60 0.59 10.0 0 0 168.69 661.84
  Q 168.80 660.92 168.74 658.91
  C 168.52 652.25 157.91 654.18 154.22 655.61
  A 0.75 0.75 0.0 0 1 153.20 654.91
  L 153.20 653.21
  A 1.06 1.05 84.3 0 1 154.05 652.18
  C 162.37 650.46 173.29 649.88 177.33 657.13
  Q 178.46 659.15 178.30 664.02
  Q 178.17 668.00 178.32 682.88
  A 0.62 0.62 0.0 0 1 177.70 683.52
  L 169.79 683.52
  A 0.82 0.80 67.5 0 1 169.21 683.27
  L 168.55 682.56
  Z
  M 168.49 677.39
  L 168.73 668.95
  A 2.61 2.61 0.0 0 0 166.19 666.27
  L 163.87 666.20
  A 6.34 6.33 -88.4 0 0 157.37 672.36
  L 157.34 673.34
  A 6.34 6.33 -88.4 0 0 163.49 679.86
  L 165.81 679.92
  A 2.61 2.61 0.0 0 0 168.49 677.39
  Z"
/>
<path fill="#393231" d="
  M 201.58 670.59
  L 209.23 652.21
  A 1.55 1.53 11.0 0 1 210.66 651.26
  L 215.18 651.26
  A 0.73 0.73 0.0 0 1 215.85 652.29
  Q 205.62 674.99 202.11 683.63
  Q 199.27 690.66 196.70 692.64
  Q 192.25 696.06 186.22 695.50
  A 0.61 0.61 0.0 0 1 185.66 694.89
  L 185.66 691.01
  A 0.59 0.58 -89.1 0 1 186.26 690.42
  Q 191.38 690.59 192.89 688.57
  Q 194.97 685.80 196.29 682.12
  A 1.33 1.29 42.7 0 0 196.23 681.07
  L 181.43 651.50
  A 0.11 0.11 0.0 0 1 181.53 651.34
  L 190.93 651.34
  A 0.03 0.02 58.3 0 1 190.95 651.35
  L 200.60 670.62
  A 0.54 0.54 0.0 0 0 201.58 670.59
  Z"
/>
<path fill="#393231" d="
  M 275.18 682.35
  Q 274.76 682.48 272.83 683.21
  C 263.71 686.65 255.00 679.30 257.48 669.65
  C 259.49 661.83 268.23 660.76 275.34 662.41
  A 0.60 0.59 10.1 0 0 276.07 661.91
  Q 276.18 660.99 276.12 658.99
  C 275.91 652.36 265.34 654.28 261.66 655.70
  A 0.75 0.74 79.5 0 1 260.65 655.00
  L 260.65 653.31
  A 1.05 1.05 0.0 0 1 261.49 652.28
  C 269.78 650.57 280.66 650.00 284.68 657.22
  Q 285.80 659.23 285.64 664.08
  Q 285.51 668.05 285.66 682.87
  A 0.62 0.62 0.0 0 1 285.04 683.50
  L 277.16 683.50
  A 0.82 0.79 67.6 0 1 276.58 683.25
  L 275.93 682.55
  A 0.72 0.72 0.0 0 0 275.18 682.35
  Z
  M 275.76 666.42
  C 273.36 666.06 269.92 665.64 267.77 666.83
  C 264.28 668.76 263.88 674.06 265.72 677.22
  C 267.81 680.82 272.70 680.51 275.69 678.23
  A 1.45 1.43 72.0 0 0 276.27 677.07
  L 276.27 667.01
  A 0.60 0.60 0.0 0 0 275.76 666.42
  Z"
/>
<path fill="#393231" d="
  M 308.61 670.45
  L 316.25 652.07
  A 1.55 1.53 11.0 0 1 317.68 651.12
  L 322.20 651.11
  A 0.73 0.73 0.0 0 1 322.88 652.14
  Q 312.66 674.85 309.15 683.49
  Q 306.31 690.53 303.74 692.51
  Q 299.29 695.93 293.26 695.37
  A 0.61 0.61 0.0 0 1 292.70 694.76
  L 292.70 690.88
  A 0.59 0.58 -89.1 0 1 293.30 690.29
  Q 298.42 690.46 299.93 688.44
  Q 302.01 685.67 303.33 681.99
  A 1.34 1.29 42.7 0 0 303.27 680.94
  L 288.45 651.37
  A 0.11 0.11 0.0 0 1 288.55 651.21
  L 297.95 651.21
  A 0.03 0.02 58.3 0 1 297.97 651.22
  L 307.63 670.48
  A 0.54 0.54 0.0 0 0 308.61 670.45
  Z"
/>
<path fill="#393231" d="
  M 1633.37 674.43
  A 0.23 0.23 0.0 0 0 1633.04 674.23
  L 1619.36 681.07
  A 1.02 1.01 58.7 0 1 1618.08 680.75
  L 1615.05 676.49
  A 0.76 0.76 0.0 0 1 1615.39 675.34
  Q 1633.57 668.48 1646.01 654.39
  A 0.54 0.54 0.0 0 1 1646.80 654.36
  L 1650.94 658.50
  A 0.47 0.47 0.0 0 1 1650.93 659.17
  L 1640.68 668.71
  A 1.02 1.01 68.5 0 0 1640.36 669.45
  L 1640.36 694.95
  A 0.66 0.66 0.0 0 1 1639.70 695.61
  L 1634.05 695.61
  A 0.68 0.67 0.0 0 1 1633.37 694.94
  L 1633.37 674.43
  Z"
/>
<path fill="#393231" d="
  M 1507.05 683.43
  A 0.81 0.80 45.3 0 1 1507.05 684.56
  L 1503.44 688.17
  A 0.60 0.59 -44.7 0 1 1502.59 688.17
  L 1494.60 680.19
  A 0.79 0.78 41.0 0 0 1493.42 680.27
  Q 1486.56 689.33 1476.16 695.13
  A 0.94 0.94 0.0 0 1 1475.02 694.95
  L 1471.44 691.09
  A 0.72 0.72 0.0 0 1 1471.65 689.95
  Q 1481.37 685.18 1488.48 676.22
  A 0.52 0.52 0.0 0 0 1488.37 675.46
  L 1477.96 668.38
  A 0.85 0.85 0.0 0 1 1477.84 667.08
  L 1481.22 663.70
  A 0.79 0.78 39.7 0 1 1482.22 663.61
  L 1492.15 670.36
  A 0.41 0.40 -58.0 0 0 1492.73 670.22
  Q 1496.62 663.04 1498.88 655.91
  A 0.64 0.63 -70.4 0 1 1499.71 655.51
  L 1505.04 657.58
  A 0.71 0.71 0.0 0 1 1505.45 658.48
  Q 1502.61 666.28 1498.29 673.64
  A 0.98 0.97 -52.4 0 0 1498.44 674.82
  L 1507.05 683.43
  Z"
/>
<path fill="#393231" d="
  M 1606.28 662.07
  A 5.91 5.91 0.0 0 1 1600.37 667.98
  A 5.91 5.91 0.0 0 1 1594.46 662.07
  A 5.91 5.91 0.0 0 1 1600.37 656.16
  A 5.91 5.91 0.0 0 1 1606.28 662.07
  Z
  M 1603.01 662.02
  A 2.74 2.74 0.0 0 0 1600.27 659.28
  A 2.74 2.74 0.0 0 0 1597.53 662.02
  A 2.74 2.74 0.0 0 0 1600.27 664.76
  A 2.74 2.74 0.0 0 0 1603.01 662.02
  Z"
/>
<path fill="#393231" d="
  M 1537.16 656.87
  L 1542.61 656.87
  A 0.56 0.55 90.0 0 1 1543.16 657.43
  L 1543.16 685.11
  A 0.59 0.59 0.0 0 0 1544.05 685.62
  Q 1550.79 681.65 1555.30 674.96
  A 1.03 1.02 -41.2 0 1 1557.07 675.07
  L 1559.19 679.30
  A 1.00 0.99 -40.2 0 1 1559.10 680.33
  Q 1551.88 689.76 1541.23 694.20
  A 1.36 1.34 53.0 0 1 1539.86 694.00
  L 1537.33 691.94
  A 1.94 1.93 -70.5 0 1 1536.62 690.44
  L 1536.62 657.40
  A 0.54 0.53 -0.0 0 1 1537.16 656.87
  Z"
/>
<path fill="#393231" d="
  M 1524.09 657.86
  L 1529.09 657.86
  A 0.75 0.75 0.0 0 1 1529.84 658.59
  Q 1530.06 666.52 1529.93 671.99
  C 1529.72 680.72 1527.55 687.70 1521.47 694.35
  A 1.45 1.45 0.0 0 1 1519.48 694.49
  L 1515.81 691.50
  A 0.93 0.93 0.0 0 1 1515.78 690.10
  C 1521.98 684.45 1523.42 678.73 1523.25 669.88
  Q 1523.16 665.46 1523.39 658.54
  A 0.70 0.70 0.0 0 1 1524.09 657.86
  Z"
/>
<circle fill="#ffffff" cx="1600.27" cy="662.02" r="2.74"/>
<path fill="#393231" d="
  M 1605.26 691.19
  A 0.63 0.63 0.0 0 1 1604.31 691.22
  L 1583.13 668.45
  A 1.13 1.13 0.0 0 0 1581.44 668.51
  L 1569.37 683.30
  A 0.68 0.68 0.0 0 1 1568.35 683.33
  L 1564.71 679.41
  A 1.15 1.15 0.0 0 1 1564.72 677.82
  Q 1569.40 673.03 1575.63 665.14
  C 1578.85 661.06 1583.62 659.35 1587.67 663.84
  Q 1597.45 674.68 1608.96 685.53
  A 0.77 0.76 41.3 0 1 1609.03 686.57
  L 1605.26 691.19
  Z"
/>
<path fill="#ffffff" d="
  M 275.76 666.42
  A 0.60 0.60 0.0 0 1 276.27 667.01
  L 276.27 677.07
  A 1.45 1.43 72.0 0 1 275.69 678.23
  C 272.70 680.51 267.81 680.82 265.72 677.22
  C 263.88 674.06 264.28 668.76 267.77 666.83
  C 269.92 665.64 273.36 666.06 275.76 666.42
  Z"
/>
<path fill="#ffffff" d="
  M 168.49 677.39
  A 2.61 2.61 0.0 0 1 165.81 679.92
  L 163.49 679.86
  A 6.34 6.33 -88.4 0 1 157.34 673.34
  L 157.37 672.36
  A 6.34 6.33 -88.4 0 1 163.87 666.20
  L 166.19 666.27
  A 2.61 2.61 0.0 0 1 168.73 668.95
  L 168.49 677.39
  Z"
/>
</svg>
