<?xml version="1.0" encoding="UTF-8" standalone="no"?>

<svg xmlns="http://www.w3.org/2000/svg" version="1.1" viewBox="0.00 0.00 1254.00 1254.00">
<g stroke-width="2.00" fill="none" stroke-linecap="butt">
<path stroke="#888888" vector-effect="non-scaling-stroke" d="&#xA;  M 279.08 320.10&#xA;  Q 237.42 371.29 211.62 433.11&#xA;  Q 172.78 526.15 178.66 628.50&#xA;  C 183.53 713.26 214.39 795.69 264.28 863.89&#xA;  C 301.34 914.55 348.58 956.36 402.82 987.82&#xA;  C 463.85 1023.23 533.99 1043.22 604.05 1046.12&#xA;  Q 705.80 1050.33 798.04 1010.20&#xA;  C 849.29 987.91 895.92 955.67 935.65 916.12&#xA;  C 991.55 860.45 1031.23 791.05 1052.14 714.67&#xA;  Q 1057.49 695.15 1060.30 678.52&#xA;  Q 1076.79 580.87 1051.91 488.14&#xA;  C 1017.25 358.91 924.41 247.39 801.67 192.96&#xA;  C 726.35 159.56 643.62 148.45 561.75 159.73&#xA;  Q 483.84 170.46 415.59 207.12&#xA;  Q 336.41 249.66 279.08 320.10"></path>
<path stroke="#888888" vector-effect="non-scaling-stroke" d="&#xA;  M 931.05 862.03&#xA;  C 992.17 790.09 1026.45 698.74 1026.80 604.48&#xA;  Q 1027.04 540.93 1008.94 482.50&#xA;  C 994.76 436.72 972.22 393.96 943.66 355.98&#xA;  Q 938.19 348.71 933.17 342.73&#xA;  Q 925.98 334.17 922.13 329.89&#xA;  Q 875.57 278.23 816.54 245.51&#xA;  Q 756.71 212.36 689.71 201.13&#xA;  C 608.76 187.56 524.27 199.43 450.15 234.86&#xA;  C 387.50 264.80 333.01 310.82 293.30 367.27&#xA;  Q 273.38 395.57 259.63 423.41&#xA;  Q 216.88 509.93 218.06 607.52&#xA;  Q 218.68 658.60 231.91 706.84&#xA;  C 258.65 804.32 321.86 889.54 407.14 943.43&#xA;  Q 416.56 949.38 425.65 954.53&#xA;  Q 515.30 1005.33 619.77 1006.39&#xA;  Q 706.60 1007.27 785.58 971.55&#xA;  Q 870.72 933.03 931.05 862.03"></path>
<path stroke="#888888" vector-effect="non-scaling-stroke" d="&#xA;  M 540.53 661.51&#xA;  A 0.67 0.67 0.0 0 1 541.20 660.84&#xA;  Q 611.03 660.69 635.46 660.89&#xA;  Q 663.92 661.13 677.96 659.31&#xA;  Q 701.55 656.25 722.93 646.96&#xA;  Q 767.98 627.40 789.46 586.27&#xA;  Q 800.81 564.54 804.28 538.91&#xA;  C 807.28 516.72 805.91 492.67 798.86 471.23&#xA;  Q 794.68 458.52 792.15 453.86&#xA;  Q 785.24 441.09 781.40 435.63&#xA;  Q 765.21 412.58 740.47 399.03&#xA;  Q 716.88 386.11 690.67 382.12&#xA;  Q 672.44 379.35 657.25 379.32&#xA;  Q 580.48 379.22 518.26 379.31&#xA;  C 501.80 379.33 489.83 391.25 489.83 407.75&#xA;  Q 489.87 733.27 489.84 821.08&#xA;  C 489.83 837.23 502.03 848.67 518.37 847.08&#xA;  C 528.30 846.10 536.04 839.34 539.37 830.24&#xA;  Q 540.56 826.96 540.56 817.61&#xA;  Q 540.52 727.78 540.53 661.51"></path>
<path stroke="#888888" vector-effect="non-scaling-stroke" d="&#xA;  M 540.92 614.71&#xA;  Q 604.68 614.83 655.00 614.67&#xA;  C 681.85 614.59 708.39 607.16 728.35 589.09&#xA;  C 747.63 571.63 757.17 546.45 757.65 520.76&#xA;  C 758.17 492.96 750.07 467.71 729.19 449.13&#xA;  C 716.70 438.00 700.25 431.02 683.74 427.84&#xA;  Q 668.80 424.97 660.26 424.93&#xA;  Q 608.65 424.64 541.15 424.84&#xA;  A 0.61 0.61 0.0 0 0 540.54 425.45&#xA;  L 540.54 614.32&#xA;  A 0.39 0.39 0.0 0 0 540.92 614.71"></path>
</g>
<path fill="#101010" d="&#xA;  M 279.08 320.10&#xA;  Q 336.41 249.66 415.59 207.12&#xA;  Q 483.84 170.46 561.75 159.73&#xA;  C 643.62 148.45 726.35 159.56 801.67 192.96&#xA;  C 924.41 247.39 1017.25 358.91 1051.91 488.14&#xA;  Q 1076.79 580.87 1060.30 678.52&#xA;  Q 1057.49 695.15 1052.14 714.67&#xA;  C 1031.23 791.05 991.55 860.45 935.65 916.12&#xA;  C 895.92 955.67 849.29 987.91 798.04 1010.20&#xA;  Q 705.80 1050.33 604.05 1046.12&#xA;  C 533.99 1043.22 463.85 1023.23 402.82 987.82&#xA;  C 348.58 956.36 301.34 914.55 264.28 863.89&#xA;  C 214.39 795.69 183.53 713.26 178.66 628.50&#xA;  Q 172.78 526.15 211.62 433.11&#xA;  Q 237.42 371.29 279.08 320.10&#xA;  Z&#xA;  M 931.05 862.03&#xA;  C 992.17 790.09 1026.45 698.74 1026.80 604.48&#xA;  Q 1027.04 540.93 1008.94 482.50&#xA;  C 994.76 436.72 972.22 393.96 943.66 355.98&#xA;  Q 938.19 348.71 933.17 342.73&#xA;  Q 925.98 334.17 922.13 329.89&#xA;  Q 875.57 278.23 816.54 245.51&#xA;  Q 756.71 212.36 689.71 201.13&#xA;  C 608.76 187.56 524.27 199.43 450.15 234.86&#xA;  C 387.50 264.80 333.01 310.82 293.30 367.27&#xA;  Q 273.38 395.57 259.63 423.41&#xA;  Q 216.88 509.93 218.06 607.52&#xA;  Q 218.68 658.60 231.91 706.84&#xA;  C 258.65 804.32 321.86 889.54 407.14 943.43&#xA;  Q 416.56 949.38 425.65 954.53&#xA;  Q 515.30 1005.33 619.77 1006.39&#xA;  Q 706.60 1007.27 785.58 971.55&#xA;  Q 870.72 933.03 931.05 862.03&#xA;  Z"></path>
<path fill="#ffffff" d="&#xA;  M 931.05 862.03&#xA;  Q 870.72 933.03 785.58 971.55&#xA;  Q 706.60 1007.27 619.77 1006.39&#xA;  Q 515.30 1005.33 425.65 954.53&#xA;  Q 416.56 949.38 407.14 943.43&#xA;  C 321.86 889.54 258.65 804.32 231.91 706.84&#xA;  Q 218.68 658.60 218.06 607.52&#xA;  Q 216.88 509.93 259.63 423.41&#xA;  Q 273.38 395.57 293.30 367.27&#xA;  C 333.01 310.82 387.50 264.80 450.15 234.86&#xA;  C 524.27 199.43 608.76 187.56 689.71 201.13&#xA;  Q 756.71 212.36 816.54 245.51&#xA;  Q 875.57 278.23 922.13 329.89&#xA;  Q 925.98 334.17 933.17 342.73&#xA;  Q 938.19 348.71 943.66 355.98&#xA;  C 972.22 393.96 994.76 436.72 1008.94 482.50&#xA;  Q 1027.04 540.93 1026.80 604.48&#xA;  C 1026.45 698.74 992.17 790.09 931.05 862.03&#xA;  Z&#xA;  M 540.53 661.51&#xA;  A 0.67 0.67 0.0 0 1 541.20 660.84&#xA;  Q 611.03 660.69 635.46 660.89&#xA;  Q 663.92 661.13 677.96 659.31&#xA;  Q 701.55 656.25 722.93 646.96&#xA;  Q 767.98 627.40 789.46 586.27&#xA;  Q 800.81 564.54 804.28 538.91&#xA;  C 807.28 516.72 805.91 492.67 798.86 471.23&#xA;  Q 794.68 458.52 792.15 453.86&#xA;  Q 785.24 441.09 781.40 435.63&#xA;  Q 765.21 412.58 740.47 399.03&#xA;  Q 716.88 386.11 690.67 382.12&#xA;  Q 672.44 379.35 657.25 379.32&#xA;  Q 580.48 379.22 518.26 379.31&#xA;  C 501.80 379.33 489.83 391.25 489.83 407.75&#xA;  Q 489.87 733.27 489.84 821.08&#xA;  C 489.83 837.23 502.03 848.67 518.37 847.08&#xA;  C 528.30 846.10 536.04 839.34 539.37 830.24&#xA;  Q 540.56 826.96 540.56 817.61&#xA;  Q 540.52 727.78 540.53 661.51&#xA;  Z"></path>
<path fill="#101010" d="&#xA;  M 540.53 661.51&#xA;  Q 540.52 727.78 540.56 817.61&#xA;  Q 540.56 826.96 539.37 830.24&#xA;  C 536.04 839.34 528.30 846.10 518.37 847.08&#xA;  C 502.03 848.67 489.83 837.23 489.84 821.08&#xA;  Q 489.87 733.27 489.83 407.75&#xA;  C 489.83 391.25 501.80 379.33 518.26 379.31&#xA;  Q 580.48 379.22 657.25 379.32&#xA;  Q 672.44 379.35 690.67 382.12&#xA;  Q 716.88 386.11 740.47 399.03&#xA;  Q 765.21 412.58 781.40 435.63&#xA;  Q 785.24 441.09 792.15 453.86&#xA;  Q 794.68 458.52 798.86 471.23&#xA;  C 805.91 492.67 807.28 516.72 804.28 538.91&#xA;  Q 800.81 564.54 789.46 586.27&#xA;  Q 767.98 627.40 722.93 646.96&#xA;  Q 701.55 656.25 677.96 659.31&#xA;  Q 663.92 661.13 635.46 660.89&#xA;  Q 611.03 660.69 541.20 660.84&#xA;  A 0.67 0.67 0.0 0 0 540.53 661.51&#xA;  Z&#xA;  M 540.92 614.71&#xA;  Q 604.68 614.83 655.00 614.67&#xA;  C 681.85 614.59 708.39 607.16 728.35 589.09&#xA;  C 747.63 571.63 757.17 546.45 757.65 520.76&#xA;  C 758.17 492.96 750.07 467.71 729.19 449.13&#xA;  C 716.70 438.00 700.25 431.02 683.74 427.84&#xA;  Q 668.80 424.97 660.26 424.93&#xA;  Q 608.65 424.64 541.15 424.84&#xA;  A 0.61 0.61 0.0 0 0 540.54 425.45&#xA;  L 540.54 614.32&#xA;  A 0.39 0.39 0.0 0 0 540.92 614.71&#xA;  Z"></path>
<path fill="#ffffff" d="&#xA;  M 540.92 614.71&#xA;  A 0.39 0.39 0.0 0 1 540.54 614.32&#xA;  L 540.54 425.45&#xA;  A 0.61 0.61 0.0 0 1 541.15 424.84&#xA;  Q 608.65 424.64 660.26 424.93&#xA;  Q 668.80 424.97 683.74 427.84&#xA;  C 700.25 431.02 716.70 438.00 729.19 449.13&#xA;  C 750.07 467.71 758.17 492.96 757.65 520.76&#xA;  C 757.17 546.45 747.63 571.63 728.35 589.09&#xA;  C 708.39 607.16 681.85 614.59 655.00 614.67&#xA;  Q 604.68 614.83 540.92 614.71&#xA;  Z"></path>
</svg>