<?xml version="1.0" encoding="UTF-8" standalone="no"?>

<svg xmlns="http://www.w3.org/2000/svg" version="1.1" viewBox="0.00 0.00 1254.00 1254.00">
<g stroke-width="2.00" fill="none" stroke-linecap="butt">
<path stroke="#898989" vector-effect="non-scaling-stroke" d="&#xA;  M 897.02 518.72&#xA;  Q 901.47 521.77 921.63 535.60&#xA;  Q 925.66 538.37 927.68 538.73&#xA;  C 933.92 539.85 939.88 536.05 941.02 529.64&#xA;  Q 942.41 521.85 935.87 517.40&#xA;  C 913.59 502.24 899.55 492.28 880.11 479.18&#xA;  Q 860.34 465.86 835.14 448.35&#xA;  Q 832.45 446.48 825.96 442.07&#xA;  Q 788.57 416.63 760.00 397.29&#xA;  Q 742.61 385.51 650.37 322.92&#xA;  Q 640.50 316.22 636.36 315.04&#xA;  Q 627.15 312.43 617.96 314.94&#xA;  Q 613.57 316.14 601.43 324.45&#xA;  Q 522.68 378.33 417.19 449.89&#xA;  Q 410.05 454.74 402.93 459.64&#xA;  Q 369.97 482.32 319.36 517.18&#xA;  Q 315.52 519.82 314.55 521.28&#xA;  C 309.22 529.31 315.16 539.73 324.68 539.27&#xA;  Q 327.47 539.13 332.57 535.73&#xA;  Q 347.69 525.63 355.89 519.88&#xA;  A 0.31 0.30 72.4 0 1 356.37 520.13&#xA;  Q 356.42 639.80 356.38 841.16&#xA;  Q 356.38 849.16 357.38 852.73&#xA;  C 360.08 862.33 367.40 869.61 376.65 872.51&#xA;  Q 380.60 873.75 393.53 873.75&#xA;  Q 522.95 873.68 860.66 873.72&#xA;  Q 872.88 873.72 877.17 872.28&#xA;  Q 889.18 868.25 894.69 855.69&#xA;  Q 896.70 851.11 896.70 842.56&#xA;  Q 896.74 703.88 896.67 518.90&#xA;  A 0.22 0.22 0.0 0 1 897.02 518.72"></path>
<path stroke="#898989" vector-effect="non-scaling-stroke" d="&#xA;  M 718.64 850.72&#xA;  Q 793.70 850.53 864.82 850.72&#xA;  C 868.91 850.73 873.19 850.00 873.51 845.47&#xA;  Q 873.65 843.59 873.66 835.75&#xA;  Q 873.68 823.97 873.68 503.38&#xA;  A 1.41 1.41 0.0 0 0 873.06 502.21&#xA;  L 632.01 338.35&#xA;  A 1.47 1.34 -14.1 0 0 631.73 338.20&#xA;  Q 628.53 336.93 625.21 337.29&#xA;  Q 623.28 337.50 619.34 340.19&#xA;  Q 435.38 465.79 407.62 484.59&#xA;  Q 380.97 502.62 380.31 503.07&#xA;  A 2.25 2.25 0.0 0 0 379.34 504.92&#xA;  Q 379.33 673.83 379.33 842.46&#xA;  C 379.33 847.62 380.48 850.61 386.00 850.62&#xA;  Q 450.20 850.72 532.70 850.65&#xA;  A 0.66 0.65 0.9 0 0 533.36 850.02&#xA;  Q 533.53 845.93 533.52 840.75&#xA;  Q 533.48 768.40 533.50 646.78&#xA;  Q 533.50 640.22 534.26 637.78&#xA;  C 537.10 628.64 545.38 622.33 555.01 622.32&#xA;  Q 586.90 622.26 693.27 622.29&#xA;  Q 700.26 622.29 702.68 623.01&#xA;  C 709.30 624.99 714.77 630.48 717.12 636.82&#xA;  Q 718.24 639.85 718.24 647.85&#xA;  Q 718.18 817.00 718.23 850.31&#xA;  A 0.41 0.41 0.0 0 0 718.64 850.72"></path>
<path stroke="#898989" vector-effect="non-scaling-stroke" d="&#xA;  M 695.77 644.73&#xA;  A 0.60 0.60 0.0 0 0 695.17 644.13&#xA;  L 556.41 644.13&#xA;  A 0.60 0.60 0.0 0 0 555.81 644.73&#xA;  L 555.81 850.05&#xA;  A 0.60 0.60 0.0 0 0 556.41 850.65&#xA;  L 695.17 850.65&#xA;  A 0.60 0.60 0.0 0 0 695.77 850.05&#xA;  L 695.77 644.73"></path>
</g>
<path fill="#131313" d="&#xA;  M 897.02 518.72&#xA;  A 0.22 0.22 0.0 0 0 896.67 518.90&#xA;  Q 896.74 703.88 896.70 842.56&#xA;  Q 896.70 851.11 894.69 855.69&#xA;  Q 889.18 868.25 877.17 872.28&#xA;  Q 872.88 873.72 860.66 873.72&#xA;  Q 522.95 873.68 393.53 873.75&#xA;  Q 380.60 873.75 376.65 872.51&#xA;  C 367.40 869.61 360.08 862.33 357.38 852.73&#xA;  Q 356.38 849.16 356.38 841.16&#xA;  Q 356.42 639.80 356.37 520.13&#xA;  A 0.31 0.30 72.4 0 0 355.89 519.88&#xA;  Q 347.69 525.63 332.57 535.73&#xA;  Q 327.47 539.13 324.68 539.27&#xA;  C 315.16 539.73 309.22 529.31 314.55 521.28&#xA;  Q 315.52 519.82 319.36 517.18&#xA;  Q 369.97 482.32 402.93 459.64&#xA;  Q 410.05 454.74 417.19 449.89&#xA;  Q 522.68 378.33 601.43 324.45&#xA;  Q 613.57 316.14 617.96 314.94&#xA;  Q 627.15 312.43 636.36 315.04&#xA;  Q 640.50 316.22 650.37 322.92&#xA;  Q 742.61 385.51 760.00 397.29&#xA;  Q 788.57 416.63 825.96 442.07&#xA;  Q 832.45 446.48 835.14 448.35&#xA;  Q 860.34 465.86 880.11 479.18&#xA;  C 899.55 492.28 913.59 502.24 935.87 517.40&#xA;  Q 942.41 521.85 941.02 529.64&#xA;  C 939.88 536.05 933.92 539.85 927.68 538.73&#xA;  Q 925.66 538.37 921.63 535.60&#xA;  Q 901.47 521.77 897.02 518.72&#xA;  Z&#xA;  M 718.64 850.72&#xA;  Q 793.70 850.53 864.82 850.72&#xA;  C 868.91 850.73 873.19 850.00 873.51 845.47&#xA;  Q 873.65 843.59 873.66 835.75&#xA;  Q 873.68 823.97 873.68 503.38&#xA;  A 1.41 1.41 0.0 0 0 873.06 502.21&#xA;  L 632.01 338.35&#xA;  A 1.47 1.34 -14.1 0 0 631.73 338.20&#xA;  Q 628.53 336.93 625.21 337.29&#xA;  Q 623.28 337.50 619.34 340.19&#xA;  Q 435.38 465.79 407.62 484.59&#xA;  Q 380.97 502.62 380.31 503.07&#xA;  A 2.25 2.25 0.0 0 0 379.34 504.92&#xA;  Q 379.33 673.83 379.33 842.46&#xA;  C 379.33 847.62 380.48 850.61 386.00 850.62&#xA;  Q 450.20 850.72 532.70 850.65&#xA;  A 0.66 0.65 0.9 0 0 533.36 850.02&#xA;  Q 533.53 845.93 533.52 840.75&#xA;  Q 533.48 768.40 533.50 646.78&#xA;  Q 533.50 640.22 534.26 637.78&#xA;  C 537.10 628.64 545.38 622.33 555.01 622.32&#xA;  Q 586.90 622.26 693.27 622.29&#xA;  Q 700.26 622.29 702.68 623.01&#xA;  C 709.30 624.99 714.77 630.48 717.12 636.82&#xA;  Q 718.24 639.85 718.24 647.85&#xA;  Q 718.18 817.00 718.23 850.31&#xA;  A 0.41 0.41 0.0 0 0 718.64 850.72&#xA;  Z&#xA;  M 695.77 644.73&#xA;  A 0.60 0.60 0.0 0 0 695.17 644.13&#xA;  L 556.41 644.13&#xA;  A 0.60 0.60 0.0 0 0 555.81 644.73&#xA;  L 555.81 850.05&#xA;  A 0.60 0.60 0.0 0 0 556.41 850.65&#xA;  L 695.17 850.65&#xA;  A 0.60 0.60 0.0 0 0 695.77 850.05&#xA;  L 695.77 644.73&#xA;  Z"></path>
<path fill="#ffffff" d="&#xA;  M 718.64 850.72&#xA;  A 0.41 0.41 0.0 0 1 718.23 850.31&#xA;  Q 718.18 817.00 718.24 647.85&#xA;  Q 718.24 639.85 717.12 636.82&#xA;  C 714.77 630.48 709.30 624.99 702.68 623.01&#xA;  Q 700.26 622.29 693.27 622.29&#xA;  Q 586.90 622.26 555.01 622.32&#xA;  C 545.38 622.33 537.10 628.64 534.26 637.78&#xA;  Q 533.50 640.22 533.50 646.78&#xA;  Q 533.48 768.40 533.52 840.75&#xA;  Q 533.53 845.93 533.36 850.02&#xA;  A 0.66 0.65 0.9 0 1 532.70 850.65&#xA;  Q 450.20 850.72 386.00 850.62&#xA;  C 380.48 850.61 379.33 847.62 379.33 842.46&#xA;  Q 379.33 673.83 379.34 504.92&#xA;  A 2.25 2.25 0.0 0 1 380.31 503.07&#xA;  Q 380.97 502.62 407.62 484.59&#xA;  Q 435.38 465.79 619.34 340.19&#xA;  Q 623.28 337.50 625.21 337.29&#xA;  Q 628.53 336.93 631.73 338.20&#xA;  A 1.47 1.34 -14.1 0 1 632.01 338.35&#xA;  L 873.06 502.21&#xA;  A 1.41 1.41 0.0 0 1 873.68 503.38&#xA;  Q 873.68 823.97 873.66 835.75&#xA;  Q 873.65 843.59 873.51 845.47&#xA;  C 873.19 850.00 868.91 850.73 864.82 850.72&#xA;  Q 793.70 850.53 718.64 850.72&#xA;  Z"></path>
<rect fill="#ffffff" x="555.81" y="644.13" width="139.96" height="206.52" rx="0.60"></rect>
</svg>