<?xml version="1.0" encoding="UTF-8" standalone="no"?>

<svg xmlns="http://www.w3.org/2000/svg" version="1.1" viewBox="0.00 0.00 1254.00 1254.00">
<g stroke-width="2.00" fill="none" stroke-linecap="butt">
<path stroke="#878787" vector-effect="non-scaling-stroke" d="&#xA;  M 625.35 346.41&#xA;  C 609.78 327.46 591.79 309.78 571.88 296.14&#xA;  Q 523.90 263.25 466.50 258.71&#xA;  Q 438.32 256.48 413.19 260.76&#xA;  C 330.71 274.78 265.17 333.04 238.86 412.08&#xA;  Q 227.64 445.80 226.37 479.75&#xA;  Q 223.60 554.45 258.92 617.98&#xA;  C 273.09 643.48 291.21 665.86 313.17 688.33&#xA;  Q 332.96 708.58 354.35 727.02&#xA;  A 1.37 1.37 0.0 0 1 354.78 728.41&#xA;  C 353.54 733.04 353.40 737.22 353.35 742.25&#xA;  C 353.16 759.96 361.41 776.52 375.79 786.70&#xA;  Q 390.88 797.39 411.06 796.58&#xA;  A 0.97 0.96 -0.0 0 1 412.07 797.58&#xA;  C 410.79 830.48 437.59 855.01 469.99 853.34&#xA;  A 0.67 0.67 0.0 0 1 470.69 854.04&#xA;  C 469.92 867.58 473.47 879.87 481.99 890.49&#xA;  Q 500.16 913.13 531.74 910.62&#xA;  A 0.51 0.50 -1.5 0 1 532.29 911.14&#xA;  C 531.64 930.88 544.20 949.11 561.67 957.60&#xA;  C 578.71 965.88 598.35 964.32 614.91 954.96&#xA;  Q 619.79 952.21 626.45 945.71&#xA;  Q 649.07 923.64 663.00 909.40&#xA;  A 0.35 0.35 0.0 0 1 663.50 909.41&#xA;  Q 670.54 916.72 679.83 925.14&#xA;  Q 688.30 932.82 701.29 937.20&#xA;  Q 710.68 940.36 722.00 939.68&#xA;  C 751.19 937.90 774.36 915.05 775.18 885.63&#xA;  A 0.54 0.54 0.0 0 1 775.81 885.12&#xA;  C 798.77 889.27 820.89 880.33 833.50 860.98&#xA;  Q 842.40 847.32 842.85 829.54&#xA;  A 0.51 0.50 2.7 0 1 843.40 829.05&#xA;  C 875.06 831.63 899.41 807.30 900.00 776.24&#xA;  Q 900.05 773.55 899.89 769.96&#xA;  A 0.67 0.66 82.8 0 1 900.41 769.28&#xA;  C 926.07 763.43 942.21 742.66 942.98 716.52&#xA;  Q 943.39 702.58 937.95 690.05&#xA;  A 1.67 1.67 0.0 0 1 938.30 688.22&#xA;  C 960.28 665.96 979.88 641.65 994.73 614.00&#xA;  Q 1019.75 567.41 1024.89 515.37&#xA;  C 1034.64 416.71 986.19 318.41 894.22 276.36&#xA;  Q 862.08 261.67 823.01 258.39&#xA;  Q 812.49 257.51 797.49 258.17&#xA;  Q 782.22 258.84 772.09 260.62&#xA;  Q 711.73 271.21 665.53 309.69&#xA;  Q 659.66 314.58 645.40 327.77&#xA;  Q 632.23 339.93 625.78 346.43&#xA;  A 0.29 0.29 0.0 0 1 625.35 346.41"></path>
<path stroke="#878787" vector-effect="non-scaling-stroke" d="&#xA;  M 620.40 822.40&#xA;  C 623.84 822.41 627.61 822.31 630.91 822.86&#xA;  Q 653.27 826.61 666.35 844.62&#xA;  C 671.59 851.84 674.98 860.63 675.41 869.78&#xA;  Q 675.61 873.99 675.41 879.34&#xA;  A 1.90 1.89 22.6 0 0 676.01 880.79&#xA;  Q 683.56 887.74 693.12 897.85&#xA;  C 697.21 902.17 700.84 905.07 705.88 907.62&#xA;  C 716.79 913.15 730.62 910.98 738.88 901.82&#xA;  C 749.90 889.61 749.06 872.62 737.72 861.05&#xA;  C 717.68 840.61 708.59 831.21 696.05 818.83&#xA;  C 690.81 813.66 686.13 807.96 681.79 803.86&#xA;  C 677.26 799.57 674.85 794.57 676.07 789.06&#xA;  C 677.42 782.96 682.25 778.20 688.34 777.55&#xA;  C 694.42 776.91 698.29 779.07 702.70 783.82&#xA;  Q 705.70 787.04 716.24 797.30&#xA;  C 720.83 801.77 724.85 806.52 729.69 811.05&#xA;  Q 730.21 811.53 741.97 823.45&#xA;  Q 745.27 826.79 765.41 847.45&#xA;  C 770.70 852.87 777.18 856.01 784.46 856.80&#xA;  C 796.25 858.10 807.60 850.30 811.99 839.84&#xA;  C 815.49 831.49 815.07 823.82 811.40 815.79&#xA;  Q 809.72 812.10 802.60 804.96&#xA;  Q 759.58 761.78 739.56 741.19&#xA;  C 733.70 735.17 733.69 724.99 740.42 719.82&#xA;  Q 746.92 714.83 754.58 717.25&#xA;  Q 757.64 718.22 761.31 721.91&#xA;  C 782.44 743.22 804.81 766.06 829.73 791.31&#xA;  Q 833.86 795.49 835.73 796.68&#xA;  C 841.85 800.56 848.55 801.66 855.48 798.97&#xA;  C 868.58 793.90 874.15 779.63 870.24 766.50&#xA;  Q 869.09 762.64 867.59 761.15&#xA;  Q 836.28 730.22 797.83 691.48&#xA;  Q 793.99 687.61 793.23 685.65&#xA;  C 788.74 674.02 799.75 662.75 811.51 667.37&#xA;  Q 813.97 668.34 818.46 672.88&#xA;  Q 861.72 716.68 880.21 735.56&#xA;  C 889.56 745.09 903.70 740.39 910.04 729.89&#xA;  C 916.20 719.71 915.79 708.86 910.28 698.73&#xA;  Q 908.77 695.95 904.86 692.07&#xA;  Q 842.83 630.38 786.25 573.50&#xA;  Q 763.93 551.08 740.52 527.73&#xA;  Q 731.56 518.79 726.35 515.66&#xA;  Q 710.08 505.86 690.54 509.72&#xA;  C 676.17 512.56 664.70 520.67 654.08 530.59&#xA;  Q 634.54 548.85 628.98 554.17&#xA;  C 619.50 563.23 609.10 571.20 597.44 577.44&#xA;  C 569.43 592.45 535.15 594.93 507.37 579.08&#xA;  C 486.01 566.91 472.88 544.21 476.63 519.34&#xA;  C 478.01 510.18 481.97 500.87 487.69 494.20&#xA;  C 494.11 486.73 500.33 480.56 508.37 471.88&#xA;  Q 562.48 413.50 604.79 368.11&#xA;  A 0.60 0.60 0.0 0 0 604.82 367.32&#xA;  Q 584.62 342.44 562.04 325.57&#xA;  C 498.84 278.36 414.14 274.84 347.33 317.09&#xA;  C 310.88 340.15 283.08 375.24 268.20 416.17&#xA;  C 243.16 485.09 254.48 563.46 296.35 623.19&#xA;  C 316.74 652.27 342.35 677.27 368.01 702.05&#xA;  A 0.55 0.54 44.6 0 0 368.78 702.05&#xA;  Q 386.89 683.86 398.02 672.29&#xA;  Q 412.28 657.47 417.22 654.15&#xA;  C 433.58 643.20 454.65 640.55 472.69 649.30&#xA;  Q 495.33 660.29 502.04 684.47&#xA;  Q 504.48 693.27 503.44 702.97&#xA;  A 0.57 0.56 -86.3 0 0 503.99 703.60&#xA;  C 507.09 703.66 510.85 703.25 513.87 703.57&#xA;  Q 538.26 706.20 552.22 724.80&#xA;  Q 564.78 741.52 562.38 762.68&#xA;  A 0.67 0.67 0.0 0 0 563.08 763.42&#xA;  Q 591.73 762.12 609.17 784.63&#xA;  Q 620.19 798.85 619.77 817.02&#xA;  Q 619.76 817.10 619.68 821.66&#xA;  A 0.72 0.72 0.0 0 0 620.40 822.40"></path>
<path stroke="#878787" vector-effect="non-scaling-stroke" d="&#xA;  M 920.52 664.90&#xA;  Q 933.16 651.31 940.00 643.25&#xA;  C 988.39 586.17 1008.82 510.78 990.93 437.55&#xA;  C 977.27 381.63 940.87 333.41 889.27 307.27&#xA;  Q 847.97 286.35 801.52 287.75&#xA;  Q 755.50 289.13 714.20 311.52&#xA;  Q 701.04 318.65 694.96 322.98&#xA;  Q 676.28 336.28 660.23 352.49&#xA;  C 654.49 358.28 649.19 363.46 644.52 368.43&#xA;  Q 620.02 394.53 561.04 457.80&#xA;  Q 537.05 483.53 512.31 510.27&#xA;  Q 507.74 515.21 506.70 518.02&#xA;  C 503.93 525.52 504.55 534.92 508.90 541.57&#xA;  C 518.56 556.32 537.47 562.45 554.00 560.48&#xA;  C 572.07 558.32 588.01 550.60 601.10 539.34&#xA;  Q 608.98 532.57 634.62 508.64&#xA;  C 654.94 489.67 678.05 477.88 706.01 479.51&#xA;  C 720.56 480.36 733.35 485.05 745.42 492.85&#xA;  Q 751.48 496.76 763.94 509.17&#xA;  Q 845.71 590.65 909.63 654.87&#xA;  C 913.90 659.16 916.13 662.03 919.39 664.95&#xA;  A 0.81 0.81 0.0 0 0 920.52 664.90"></path>
<path stroke="#878787" vector-effect="non-scaling-stroke" d="&#xA;  M 465.14 721.16&#xA;  C 475.94 709.95 479.31 693.03 468.08 681.02&#xA;  C 459.45 671.79 446.94 670.76 436.07 676.43&#xA;  Q 432.51 678.29 426.57 684.38&#xA;  Q 417.83 693.35 391.65 719.83&#xA;  Q 386.49 725.05 385.02 727.72&#xA;  C 376.74 742.75 383.13 761.62 399.54 767.15&#xA;  C 407.44 769.80 418.76 768.42 425.17 761.92&#xA;  Q 455.63 731.03 465.14 721.16"></path>
<path stroke="#878787" vector-effect="non-scaling-stroke" d="&#xA;  M 468.59 759.91&#xA;  Q 452.17 776.38 450.67 777.90&#xA;  Q 445.01 783.63 443.56 786.64&#xA;  C 438.43 797.24 439.46 809.28 448.08 817.88&#xA;  C 456.70 826.48 468.74 827.47 479.33 822.32&#xA;  Q 482.33 820.86 488.05 815.19&#xA;  Q 489.57 813.69 505.99 797.22&#xA;  Q 522.42 780.76 523.92 779.24&#xA;  Q 529.58 773.50 531.03 770.50&#xA;  C 536.16 759.90 535.13 747.86 526.51 739.26&#xA;  C 517.89 730.66 505.85 729.66 495.26 734.81&#xA;  Q 492.26 736.27 486.54 741.95&#xA;  Q 485.02 743.45 468.59 759.91"></path>
<path stroke="#878787" vector-effect="non-scaling-stroke" d="&#xA;  M 526.78 818.56&#xA;  Q 510.77 834.38 510.72 834.43&#xA;  Q 503.45 841.64 501.76 845.23&#xA;  C 497.04 855.27 498.51 867.23 506.53 875.34&#xA;  C 514.55 883.45 526.49 885.06 536.58 880.45&#xA;  Q 540.19 878.80 547.48 871.62&#xA;  Q 547.53 871.57 563.54 855.74&#xA;  Q 579.54 839.92 579.59 839.87&#xA;  Q 586.87 832.66 588.56 829.07&#xA;  C 593.28 819.03 591.81 807.07 583.79 798.96&#xA;  C 575.77 790.85 563.82 789.24 553.73 793.85&#xA;  Q 550.12 795.50 542.84 802.69&#xA;  Q 542.79 802.74 526.78 818.56"></path>
<path stroke="#878787" vector-effect="non-scaling-stroke" d="&#xA;  M 567.10 926.70&#xA;  C 575.92 935.14 587.59 936.65 598.34 931.51&#xA;  Q 602.34 929.60 607.98 923.98&#xA;  Q 634.86 897.22 638.27 893.91&#xA;  C 648.47 884.00 651.02 866.91 639.36 856.66&#xA;  C 630.83 849.16 619.40 848.69 609.19 853.44&#xA;  Q 605.46 855.17 599.89 860.90&#xA;  Q 587.79 873.37 568.68 892.13&#xA;  Q 564.16 896.57 562.92 899.31&#xA;  C 558.83 908.40 559.64 919.56 567.10 926.70"></path>
</g>
<path fill="#0f0f0f" d="&#xA;  M 625.35 346.41&#xA;  A 0.29 0.29 0.0 0 0 625.78 346.43&#xA;  Q 632.23 339.93 645.40 327.77&#xA;  Q 659.66 314.58 665.53 309.69&#xA;  Q 711.73 271.21 772.09 260.62&#xA;  Q 782.22 258.84 797.49 258.17&#xA;  Q 812.49 257.51 823.01 258.39&#xA;  Q 862.08 261.67 894.22 276.36&#xA;  C 986.19 318.41 1034.64 416.71 1024.89 515.37&#xA;  Q 1019.75 567.41 994.73 614.00&#xA;  C 979.88 641.65 960.28 665.96 938.30 688.22&#xA;  A 1.67 1.67 0.0 0 0 937.95 690.05&#xA;  Q 943.39 702.58 942.98 716.52&#xA;  C 942.21 742.66 926.07 763.43 900.41 769.28&#xA;  A 0.67 0.66 82.8 0 0 899.89 769.96&#xA;  Q 900.05 773.55 900.00 776.24&#xA;  C 899.41 807.30 875.06 831.63 843.40 829.05&#xA;  A 0.51 0.50 2.7 0 0 842.85 829.54&#xA;  Q 842.40 847.32 833.50 860.98&#xA;  C 820.89 880.33 798.77 889.27 775.81 885.12&#xA;  A 0.54 0.54 0.0 0 0 775.18 885.63&#xA;  C 774.36 915.05 751.19 937.90 722.00 939.68&#xA;  Q 710.68 940.36 701.29 937.20&#xA;  Q 688.30 932.82 679.83 925.14&#xA;  Q 670.54 916.72 663.50 909.41&#xA;  A 0.35 0.35 0.0 0 0 663.00 909.40&#xA;  Q 649.07 923.64 626.45 945.71&#xA;  Q 619.79 952.21 614.91 954.96&#xA;  C 598.35 964.32 578.71 965.88 561.67 957.60&#xA;  C 544.20 949.11 531.64 930.88 532.29 911.14&#xA;  A 0.51 0.50 -1.5 0 0 531.74 910.62&#xA;  Q 500.16 913.13 481.99 890.49&#xA;  C 473.47 879.87 469.92 867.58 470.69 854.04&#xA;  A 0.67 0.67 0.0 0 0 469.99 853.34&#xA;  C 437.59 855.01 410.79 830.48 412.07 797.58&#xA;  A 0.97 0.96 -0.0 0 0 411.06 796.58&#xA;  Q 390.88 797.39 375.79 786.70&#xA;  C 361.41 776.52 353.16 759.96 353.35 742.25&#xA;  C 353.40 737.22 353.54 733.04 354.78 728.41&#xA;  A 1.37 1.37 0.0 0 0 354.35 727.02&#xA;  Q 332.96 708.58 313.17 688.33&#xA;  C 291.21 665.86 273.09 643.48 258.92 617.98&#xA;  Q 223.60 554.45 226.37 479.75&#xA;  Q 227.64 445.80 238.86 412.08&#xA;  C 265.17 333.04 330.71 274.78 413.19 260.76&#xA;  Q 438.32 256.48 466.50 258.71&#xA;  Q 523.90 263.25 571.88 296.14&#xA;  C 591.79 309.78 609.78 327.46 625.35 346.41&#xA;  Z&#xA;  M 620.40 822.40&#xA;  C 623.84 822.41 627.61 822.31 630.91 822.86&#xA;  Q 653.27 826.61 666.35 844.62&#xA;  C 671.59 851.84 674.98 860.63 675.41 869.78&#xA;  Q 675.61 873.99 675.41 879.34&#xA;  A 1.90 1.89 22.6 0 0 676.01 880.79&#xA;  Q 683.56 887.74 693.12 897.85&#xA;  C 697.21 902.17 700.84 905.07 705.88 907.62&#xA;  C 716.79 913.15 730.62 910.98 738.88 901.82&#xA;  C 749.90 889.61 749.06 872.62 737.72 861.05&#xA;  C 717.68 840.61 708.59 831.21 696.05 818.83&#xA;  C 690.81 813.66 686.13 807.96 681.79 803.86&#xA;  C 677.26 799.57 674.85 794.57 676.07 789.06&#xA;  C 677.42 782.96 682.25 778.20 688.34 777.55&#xA;  C 694.42 776.91 698.29 779.07 702.70 783.82&#xA;  Q 705.70 787.04 716.24 797.30&#xA;  C 720.83 801.77 724.85 806.52 729.69 811.05&#xA;  Q 730.21 811.53 741.97 823.45&#xA;  Q 745.27 826.79 765.41 847.45&#xA;  C 770.70 852.87 777.18 856.01 784.46 856.80&#xA;  C 796.25 858.10 807.60 850.30 811.99 839.84&#xA;  C 815.49 831.49 815.07 823.82 811.40 815.79&#xA;  Q 809.72 812.10 802.60 804.96&#xA;  Q 759.58 761.78 739.56 741.19&#xA;  C 733.70 735.17 733.69 724.99 740.42 719.82&#xA;  Q 746.92 714.83 754.58 717.25&#xA;  Q 757.64 718.22 761.31 721.91&#xA;  C 782.44 743.22 804.81 766.06 829.73 791.31&#xA;  Q 833.86 795.49 835.73 796.68&#xA;  C 841.85 800.56 848.55 801.66 855.48 798.97&#xA;  C 868.58 793.90 874.15 779.63 870.24 766.50&#xA;  Q 869.09 762.64 867.59 761.15&#xA;  Q 836.28 730.22 797.83 691.48&#xA;  Q 793.99 687.61 793.23 685.65&#xA;  C 788.74 674.02 799.75 662.75 811.51 667.37&#xA;  Q 813.97 668.34 818.46 672.88&#xA;  Q 861.72 716.68 880.21 735.56&#xA;  C 889.56 745.09 903.70 740.39 910.04 729.89&#xA;  C 916.20 719.71 915.79 708.86 910.28 698.73&#xA;  Q 908.77 695.95 904.86 692.07&#xA;  Q 842.83 630.38 786.25 573.50&#xA;  Q 763.93 551.08 740.52 527.73&#xA;  Q 731.56 518.79 726.35 515.66&#xA;  Q 710.08 505.86 690.54 509.72&#xA;  C 676.17 512.56 664.70 520.67 654.08 530.59&#xA;  Q 634.54 548.85 628.98 554.17&#xA;  C 619.50 563.23 609.10 571.20 597.44 577.44&#xA;  C 569.43 592.45 535.15 594.93 507.37 579.08&#xA;  C 486.01 566.91 472.88 544.21 476.63 519.34&#xA;  C 478.01 510.18 481.97 500.87 487.69 494.20&#xA;  C 494.11 486.73 500.33 480.56 508.37 471.88&#xA;  Q 562.48 413.50 604.79 368.11&#xA;  A 0.60 0.60 0.0 0 0 604.82 367.32&#xA;  Q 584.62 342.44 562.04 325.57&#xA;  C 498.84 278.36 414.14 274.84 347.33 317.09&#xA;  C 310.88 340.15 283.08 375.24 268.20 416.17&#xA;  C 243.16 485.09 254.48 563.46 296.35 623.19&#xA;  C 316.74 652.27 342.35 677.27 368.01 702.05&#xA;  A 0.55 0.54 44.6 0 0 368.78 702.05&#xA;  Q 386.89 683.86 398.02 672.29&#xA;  Q 412.28 657.47 417.22 654.15&#xA;  C 433.58 643.20 454.65 640.55 472.69 649.30&#xA;  Q 495.33 660.29 502.04 684.47&#xA;  Q 504.48 693.27 503.44 702.97&#xA;  A 0.57 0.56 -86.3 0 0 503.99 703.60&#xA;  C 507.09 703.66 510.85 703.25 513.87 703.57&#xA;  Q 538.26 706.20 552.22 724.80&#xA;  Q 564.78 741.52 562.38 762.68&#xA;  A 0.67 0.67 0.0 0 0 563.08 763.42&#xA;  Q 591.73 762.12 609.17 784.63&#xA;  Q 620.19 798.85 619.77 817.02&#xA;  Q 619.76 817.10 619.68 821.66&#xA;  A 0.72 0.72 0.0 0 0 620.40 822.40&#xA;  Z&#xA;  M 920.52 664.90&#xA;  Q 933.16 651.31 940.00 643.25&#xA;  C 988.39 586.17 1008.82 510.78 990.93 437.55&#xA;  C 977.27 381.63 940.87 333.41 889.27 307.27&#xA;  Q 847.97 286.35 801.52 287.75&#xA;  Q 755.50 289.13 714.20 311.52&#xA;  Q 701.04 318.65 694.96 322.98&#xA;  Q 676.28 336.28 660.23 352.49&#xA;  C 654.49 358.28 649.19 363.46 644.52 368.43&#xA;  Q 620.02 394.53 561.04 457.80&#xA;  Q 537.05 483.53 512.31 510.27&#xA;  Q 507.74 515.21 506.70 518.02&#xA;  C 503.93 525.52 504.55 534.92 508.90 541.57&#xA;  C 518.56 556.32 537.47 562.45 554.00 560.48&#xA;  C 572.07 558.32 588.01 550.60 601.10 539.34&#xA;  Q 608.98 532.57 634.62 508.64&#xA;  C 654.94 489.67 678.05 477.88 706.01 479.51&#xA;  C 720.56 480.36 733.35 485.05 745.42 492.85&#xA;  Q 751.48 496.76 763.94 509.17&#xA;  Q 845.71 590.65 909.63 654.87&#xA;  C 913.90 659.16 916.13 662.03 919.39 664.95&#xA;  A 0.81 0.81 0.0 0 0 920.52 664.90&#xA;  Z&#xA;  M 465.14 721.16&#xA;  C 475.94 709.95 479.31 693.03 468.08 681.02&#xA;  C 459.45 671.79 446.94 670.76 436.07 676.43&#xA;  Q 432.51 678.29 426.57 684.38&#xA;  Q 417.83 693.35 391.65 719.83&#xA;  Q 386.49 725.05 385.02 727.72&#xA;  C 376.74 742.75 383.13 761.62 399.54 767.15&#xA;  C 407.44 769.80 418.76 768.42 425.17 761.92&#xA;  Q 455.63 731.03 465.14 721.16&#xA;  Z&#xA;  M 468.59 759.91&#xA;  Q 452.17 776.38 450.67 777.90&#xA;  Q 445.01 783.63 443.56 786.64&#xA;  C 438.43 797.24 439.46 809.28 448.08 817.88&#xA;  C 456.70 826.48 468.74 827.47 479.33 822.32&#xA;  Q 482.33 820.86 488.05 815.19&#xA;  Q 489.57 813.69 505.99 797.22&#xA;  Q 522.42 780.76 523.92 779.24&#xA;  Q 529.58 773.50 531.03 770.50&#xA;  C 536.16 759.90 535.13 747.86 526.51 739.26&#xA;  C 517.89 730.66 505.85 729.66 495.26 734.81&#xA;  Q 492.26 736.27 486.54 741.95&#xA;  Q 485.02 743.45 468.59 759.91&#xA;  Z&#xA;  M 526.78 818.56&#xA;  Q 510.77 834.38 510.72 834.43&#xA;  Q 503.45 841.64 501.76 845.23&#xA;  C 497.04 855.27 498.51 867.23 506.53 875.34&#xA;  C 514.55 883.45 526.49 885.06 536.58 880.45&#xA;  Q 540.19 878.80 547.48 871.62&#xA;  Q 547.53 871.57 563.54 855.74&#xA;  Q 579.54 839.92 579.59 839.87&#xA;  Q 586.87 832.66 588.56 829.07&#xA;  C 593.28 819.03 591.81 807.07 583.79 798.96&#xA;  C 575.77 790.85 563.82 789.24 553.73 793.85&#xA;  Q 550.12 795.50 542.84 802.69&#xA;  Q 542.79 802.74 526.78 818.56&#xA;  Z&#xA;  M 567.10 926.70&#xA;  C 575.92 935.14 587.59 936.65 598.34 931.51&#xA;  Q 602.34 929.60 607.98 923.98&#xA;  Q 634.86 897.22 638.27 893.91&#xA;  C 648.47 884.00 651.02 866.91 639.36 856.66&#xA;  C 630.83 849.16 619.40 848.69 609.19 853.44&#xA;  Q 605.46 855.17 599.89 860.90&#xA;  Q 587.79 873.37 568.68 892.13&#xA;  Q 564.16 896.57 562.92 899.31&#xA;  C 558.83 908.40 559.64 919.56 567.10 926.70&#xA;  Z"></path>
<path fill="#ffffff" d="&#xA;  M 619.68 821.66&#xA;  Q 619.76 817.10 619.77 817.02&#xA;  Q 620.19 798.85 609.17 784.63&#xA;  Q 591.73 762.12 563.08 763.42&#xA;  A 0.67 0.67 0.0 0 1 562.38 762.68&#xA;  Q 564.78 741.52 552.22 724.80&#xA;  Q 538.26 706.20 513.87 703.57&#xA;  C 510.85 703.25 507.09 703.66 503.99 703.60&#xA;  A 0.57 0.56 -86.3 0 1 503.44 702.97&#xA;  Q 504.48 693.27 502.04 684.47&#xA;  Q 495.33 660.29 472.69 649.30&#xA;  C 454.65 640.55 433.58 643.20 417.22 654.15&#xA;  Q 412.28 657.47 398.02 672.29&#xA;  Q 386.89 683.86 368.78 702.05&#xA;  A 0.55 0.54 44.6 0 1 368.01 702.05&#xA;  C 342.35 677.27 316.74 652.27 296.35 623.19&#xA;  C 254.48 563.46 243.16 485.09 268.20 416.17&#xA;  C 283.08 375.24 310.88 340.15 347.33 317.09&#xA;  C 414.14 274.84 498.84 278.36 562.04 325.57&#xA;  Q 584.62 342.44 604.82 367.32&#xA;  A 0.60 0.60 0.0 0 1 604.79 368.11&#xA;  Q 562.48 413.50 508.37 471.88&#xA;  C 500.33 480.56 494.11 486.73 487.69 494.20&#xA;  C 481.97 500.87 478.01 510.18 476.63 519.34&#xA;  C 472.88 544.21 486.01 566.91 507.37 579.08&#xA;  C 535.15 594.93 569.43 592.45 597.44 577.44&#xA;  C 609.10 571.20 619.50 563.23 628.98 554.17&#xA;  Q 634.54 548.85 654.08 530.59&#xA;  C 664.70 520.67 676.17 512.56 690.54 509.72&#xA;  Q 710.08 505.86 726.35 515.66&#xA;  Q 731.56 518.79 740.52 527.73&#xA;  Q 763.93 551.08 786.25 573.50&#xA;  Q 842.83 630.38 904.86 692.07&#xA;  Q 908.77 695.95 910.28 698.73&#xA;  C 915.79 708.86 916.20 719.71 910.04 729.89&#xA;  C 903.70 740.39 889.56 745.09 880.21 735.56&#xA;  Q 861.72 716.68 818.46 672.88&#xA;  Q 813.97 668.34 811.51 667.37&#xA;  C 799.75 662.75 788.74 674.02 793.23 685.65&#xA;  Q 793.99 687.61 797.83 691.48&#xA;  Q 836.28 730.22 867.59 761.15&#xA;  Q 869.09 762.64 870.24 766.50&#xA;  C 874.15 779.63 868.58 793.90 855.48 798.97&#xA;  C 848.55 801.66 841.85 800.56 835.73 796.68&#xA;  Q 833.86 795.49 829.73 791.31&#xA;  C 804.81 766.06 782.44 743.22 761.31 721.91&#xA;  Q 757.64 718.22 754.58 717.25&#xA;  Q 746.92 714.83 740.42 719.82&#xA;  C 733.69 724.99 733.70 735.17 739.56 741.19&#xA;  Q 759.58 761.78 802.60 804.96&#xA;  Q 809.72 812.10 811.40 815.79&#xA;  C 815.07 823.82 815.49 831.49 811.99 839.84&#xA;  C 807.60 850.30 796.25 858.10 784.46 856.80&#xA;  C 777.18 856.01 770.70 852.87 765.41 847.45&#xA;  Q 745.27 826.79 741.97 823.45&#xA;  Q 730.21 811.53 729.69 811.05&#xA;  C 724.85 806.52 720.83 801.77 716.24 797.30&#xA;  Q 705.70 787.04 702.70 783.82&#xA;  C 698.29 779.07 694.42 776.91 688.34 777.55&#xA;  C 682.25 778.20 677.42 782.96 676.07 789.06&#xA;  C 674.85 794.57 677.26 799.57 681.79 803.86&#xA;  C 686.13 807.96 690.81 813.66 696.05 818.83&#xA;  C 708.59 831.21 717.68 840.61 737.72 861.05&#xA;  C 749.06 872.62 749.90 889.61 738.88 901.82&#xA;  C 730.62 910.98 716.79 913.15 705.88 907.62&#xA;  C 700.84 905.07 697.21 902.17 693.12 897.85&#xA;  Q 683.56 887.74 676.01 880.79&#xA;  A 1.90 1.89 22.6 0 1 675.41 879.34&#xA;  Q 675.61 873.99 675.41 869.78&#xA;  C 674.98 860.63 671.59 851.84 666.35 844.62&#xA;  Q 653.27 826.61 630.91 822.86&#xA;  C 627.61 822.31 623.84 822.41 620.40 822.40&#xA;  A 0.72 0.72 0.0 0 1 619.68 821.66&#xA;  Z"></path>
<path fill="#ffffff" d="&#xA;  M 919.39 664.95&#xA;  C 916.13 662.03 913.90 659.16 909.63 654.87&#xA;  Q 845.71 590.65 763.94 509.17&#xA;  Q 751.48 496.76 745.42 492.85&#xA;  C 733.35 485.05 720.56 480.36 706.01 479.51&#xA;  C 678.05 477.88 654.94 489.67 634.62 508.64&#xA;  Q 608.98 532.57 601.10 539.34&#xA;  C 588.01 550.60 572.07 558.32 554.00 560.48&#xA;  C 537.47 562.45 518.56 556.32 508.90 541.57&#xA;  C 504.55 534.92 503.93 525.52 506.70 518.02&#xA;  Q 507.74 515.21 512.31 510.27&#xA;  Q 537.05 483.53 561.04 457.80&#xA;  Q 620.02 394.53 644.52 368.43&#xA;  C 649.19 363.46 654.49 358.28 660.23 352.49&#xA;  Q 676.28 336.28 694.96 322.98&#xA;  Q 701.04 318.65 714.20 311.52&#xA;  Q 755.50 289.13 801.52 287.75&#xA;  Q 847.97 286.35 889.27 307.27&#xA;  C 940.87 333.41 977.27 381.63 990.93 437.55&#xA;  C 1008.82 510.78 988.39 586.17 940.00 643.25&#xA;  Q 933.16 651.31 920.52 664.90&#xA;  A 0.81 0.81 0.0 0 1 919.39 664.95&#xA;  Z"></path>
<path fill="#ffffff" d="&#xA;  M 468.08 681.02&#xA;  C 479.31 693.03 475.94 709.95 465.14 721.16&#xA;  Q 455.63 731.03 425.17 761.92&#xA;  C 418.76 768.42 407.44 769.80 399.54 767.15&#xA;  C 383.13 761.62 376.74 742.75 385.02 727.72&#xA;  Q 386.49 725.05 391.65 719.83&#xA;  Q 417.83 693.35 426.57 684.38&#xA;  Q 432.51 678.29 436.07 676.43&#xA;  C 446.94 670.76 459.45 671.79 468.08 681.02&#xA;  Z"></path>
<path fill="#ffffff" d="&#xA;  M 526.51 739.26&#xA;  C 535.13 747.86 536.16 759.90 531.03 770.50&#xA;  Q 529.58 773.50 523.92 779.24&#xA;  Q 522.42 780.76 505.99 797.22&#xA;  Q 489.57 813.69 488.05 815.19&#xA;  Q 482.33 820.86 479.33 822.32&#xA;  C 468.74 827.47 456.70 826.48 448.08 817.88&#xA;  C 439.46 809.28 438.43 797.24 443.56 786.64&#xA;  Q 445.01 783.63 450.67 777.90&#xA;  Q 452.17 776.38 468.59 759.91&#xA;  Q 485.02 743.45 486.54 741.95&#xA;  Q 492.26 736.27 495.26 734.81&#xA;  C 505.85 729.66 517.89 730.66 526.51 739.26&#xA;  Z"></path>
<path fill="#ffffff" d="&#xA;  M 583.79 798.96&#xA;  C 591.81 807.07 593.28 819.03 588.56 829.07&#xA;  Q 586.87 832.66 579.59 839.87&#xA;  Q 579.54 839.92 563.54 855.74&#xA;  Q 547.53 871.57 547.48 871.62&#xA;  Q 540.19 878.80 536.58 880.45&#xA;  C 526.49 885.06 514.55 883.45 506.53 875.34&#xA;  C 498.51 867.23 497.04 855.27 501.76 845.23&#xA;  Q 503.45 841.64 510.72 834.43&#xA;  Q 510.77 834.38 526.78 818.56&#xA;  Q 542.79 802.74 542.84 802.69&#xA;  Q 550.12 795.50 553.73 793.85&#xA;  C 563.82 789.24 575.77 790.85 583.79 798.96&#xA;  Z"></path>
<path fill="#ffffff" d="&#xA;  M 598.34 931.51&#xA;  C 587.59 936.65 575.92 935.14 567.10 926.70&#xA;  C 559.64 919.56 558.83 908.40 562.92 899.31&#xA;  Q 564.16 896.57 568.68 892.13&#xA;  Q 587.79 873.37 599.89 860.90&#xA;  Q 605.46 855.17 609.19 853.44&#xA;  C 619.40 848.69 630.83 849.16 639.36 856.66&#xA;  C 651.02 866.91 648.47 884.00 638.27 893.91&#xA;  Q 634.86 897.22 607.98 923.98&#xA;  Q 602.34 929.60 598.34 931.51&#xA;  Z"></path>
</svg>