<?xml version="1.0" encoding="UTF-8" standalone="no"?>

<svg xmlns="http://www.w3.org/2000/svg" version="1.1" viewBox="0.00 0.00 1254.00 1254.00">
<path stroke="#848484" stroke-width="2.00" fill="none" stroke-linecap="butt" vector-effect="non-scaling-stroke" d="&#xA;  M 796.02 635.43&#xA;  Q 795.99 635.61 795.68 635.92&#xA;  Q 772.43 659.22 734.54 698.37&#xA;  Q 731.65 701.36 731.04 703.06&#xA;  C 729.08 708.50 733.11 713.44 738.80 713.58&#xA;  Q 741.66 713.66 745.26 710.01&#xA;  Q 775.59 679.29 821.68 632.43&#xA;  A 4.07 4.07 0.0 0 0 822.22 631.71&#xA;  C 824.06 628.42 824.45 622.03 821.42 618.90&#xA;  C 816.28 613.58 811.88 608.58 807.48 604.26&#xA;  C 799.90 596.80 793.54 589.91 787.41 583.69&#xA;  Q 752.59 548.38 748.13 543.69&#xA;  Q 743.88 539.22 742.14 538.65&#xA;  C 735.51 536.48 728.84 541.61 730.95 548.44&#xA;  Q 731.48 550.15 736.08 554.83&#xA;  Q 761.76 580.91 797.32 617.51&#xA;  A 0.36 0.35 68.0 0 1 797.07 618.11&#xA;  Q 782.34 618.16 770.50 618.17&#xA;  Q 511.24 618.43 447.56 618.28&#xA;  Q 442.26 618.27 438.56 618.52&#xA;  C 430.61 619.07 428.43 629.51 435.02 633.46&#xA;  Q 437.04 634.68 442.62 634.68&#xA;  Q 693.62 634.65 783.50 634.68&#xA;  Q 788.23 634.68 795.57 634.90&#xA;  Q 796.09 634.92 796.02 635.43"></path>
<path fill="#090909" d="&#xA;  M 796.02 635.43&#xA;  Q 796.09 634.92 795.57 634.90&#xA;  Q 788.23 634.68 783.50 634.68&#xA;  Q 693.62 634.65 442.62 634.68&#xA;  Q 437.04 634.68 435.02 633.46&#xA;  C 428.43 629.51 430.61 619.07 438.56 618.52&#xA;  Q 442.26 618.27 447.56 618.28&#xA;  Q 511.24 618.43 770.50 618.17&#xA;  Q 782.34 618.16 797.07 618.11&#xA;  A 0.36 0.35 68.0 0 0 797.32 617.51&#xA;  Q 761.76 580.91 736.08 554.83&#xA;  Q 731.48 550.15 730.95 548.44&#xA;  C 728.84 541.61 735.51 536.48 742.14 538.65&#xA;  Q 743.88 539.22 748.13 543.69&#xA;  Q 752.59 548.38 787.41 583.69&#xA;  C 793.54 589.91 799.90 596.80 807.48 604.26&#xA;  C 811.88 608.58 816.28 613.58 821.42 618.90&#xA;  C 824.45 622.03 824.06 628.42 822.22 631.71&#xA;  A 4.07 4.07 0.0 0 1 821.68 632.43&#xA;  Q 775.59 679.29 745.26 710.01&#xA;  Q 741.66 713.66 738.80 713.58&#xA;  C 733.11 713.44 729.08 708.50 731.04 703.06&#xA;  Q 731.65 701.36 734.54 698.37&#xA;  Q 772.43 659.22 795.68 635.92&#xA;  Q 795.99 635.61 796.02 635.43&#xA;  Z"></path>
</svg>