<?xml version="1.0" encoding="UTF-8" standalone="no"?>

<svg xmlns="http://www.w3.org/2000/svg" version="1.1" viewBox="0.00 0.00 1254.00 1254.00">
<g stroke-width="2.00" fill="none" stroke-linecap="butt">
<path stroke="#e8f284" vector-effect="non-scaling-stroke" d="&#xA;  M 623.90 186.16&#xA;  C 539.03 186.78 457.70 212.94 389.28 260.80&#xA;  Q 316.65 311.60 271.40 385.66&#xA;  Q 238.13 440.09 221.97 501.03&#xA;  C 200.11 583.50 203.37 673.07 232.09 753.35&#xA;  Q 250.86 805.81 282.24 850.59&#xA;  C 361.27 963.36 492.70 1032.83 630.06 1031.83&#xA;  C 767.42 1030.83 897.83 959.45 975.20 845.54&#xA;  Q 1005.92 800.31 1023.93 747.58&#xA;  C 1051.47 666.89 1053.43 577.28 1030.37 495.14&#xA;  Q 1013.32 434.44 979.26 380.50&#xA;  Q 932.94 307.11 859.57 257.37&#xA;  C 790.46 210.51 708.76 185.54 623.90 186.16"></path>
<path stroke="#717b0b" vector-effect="non-scaling-stroke" d="&#xA;  M 626.61 822.65&#xA;  Q 631.14 822.65 633.50 819.70&#xA;  C 638.05 814.01 642.65 809.24 646.66 803.91&#xA;  C 649.75 799.81 654.23 794.62 656.69 791.59&#xA;  Q 756.93 668.17 855.46 548.78&#xA;  Q 858.38 545.24 858.98 542.99&#xA;  Q 859.89 539.63 857.98 536.44&#xA;  Q 854.35 530.40 845.29 517.40&#xA;  C 835.33 503.12 826.51 490.04 815.90 474.85&#xA;  Q 797.41 448.39 785.41 430.85&#xA;  Q 784.83 430.00 780.92 424.47&#xA;  C 777.89 420.19 774.98 417.70 770.12 417.80&#xA;  Q 761.96 417.97 755.76 417.96&#xA;  Q 694.92 417.88 642.00 417.92&#xA;  Q 634.49 417.93 626.57 417.93&#xA;  Q 618.64 417.93 611.13 417.92&#xA;  Q 558.21 417.90 497.37 417.99&#xA;  Q 491.17 418.00 483.01 417.83&#xA;  C 478.15 417.73 475.24 420.22 472.21 424.51&#xA;  Q 468.30 430.04 467.72 430.89&#xA;  Q 455.73 448.43 437.24 474.89&#xA;  C 426.64 490.09 417.82 503.17 407.86 517.45&#xA;  Q 398.81 530.45 395.18 536.49&#xA;  Q 393.27 539.68 394.18 543.04&#xA;  Q 394.78 545.29 397.70 548.83&#xA;  Q 496.26 668.20 596.53 791.60&#xA;  C 598.99 794.63 603.47 799.82 606.56 803.91&#xA;  C 610.57 809.24 615.17 814.01 619.72 819.70&#xA;  Q 622.09 822.65 626.61 822.65"></path>
<path stroke="#717b0b" vector-effect="non-scaling-stroke" d="&#xA;  M 609.92 436.71&#xA;  A 0.47 0.47 0.0 0 0 609.53 435.99&#xA;  L 497.13 435.99&#xA;  A 0.47 0.47 0.0 0 0 496.74 436.71&#xA;  L 552.94 522.46&#xA;  A 0.47 0.47 0.0 0 0 553.72 522.46&#xA;  L 609.92 436.71"></path>
<path stroke="#717b0b" vector-effect="non-scaling-stroke" d="&#xA;  M 699.62 522.56&#xA;  A 0.51 0.51 0.0 0 0 700.48 522.56&#xA;  L 756.52 436.75&#xA;  A 0.51 0.51 0.0 0 0 756.10 435.96&#xA;  L 643.68 435.96&#xA;  A 0.51 0.51 0.0 0 0 643.25 436.75&#xA;  L 699.62 522.56"></path>
<path stroke="#717b0b" vector-effect="non-scaling-stroke" d="&#xA;  M 570.03 530.25&#xA;  A 0.88 0.88 0.0 0 0 570.77 531.61&#xA;  L 682.53 531.42&#xA;  A 0.88 0.88 0.0 0 0 683.27 530.05&#xA;  L 627.24 445.16&#xA;  A 0.88 0.88 0.0 0 0 625.76 445.17&#xA;  L 570.03 530.25"></path>
<path stroke="#717b0b" vector-effect="non-scaling-stroke" d="&#xA;  M 480.73 445.16&#xA;  A 0.56 0.56 0.0 0 0 479.80 445.15&#xA;  L 420.66 530.68&#xA;  A 0.56 0.56 0.0 0 0 421.12 531.56&#xA;  L 536.44 531.56&#xA;  A 0.56 0.56 0.0 0 0 536.91 530.69&#xA;  L 480.73 445.16"></path>
<path stroke="#717b0b" vector-effect="non-scaling-stroke" d="&#xA;  M 773.40 445.23&#xA;  A 0.62 0.62 0.0 0 0 772.38 445.24&#xA;  L 716.65 530.56&#xA;  A 0.62 0.62 0.0 0 0 717.17 531.52&#xA;  L 831.86 531.52&#xA;  A 0.62 0.62 0.0 0 0 832.37 530.55&#xA;  L 773.40 445.23"></path>
<path stroke="#717b0b" vector-effect="non-scaling-stroke" d="&#xA;  M 604.61 772.18&#xA;  C 603.08 762.35 599.28 752.96 597.03 743.26&#xA;  Q 594.90 734.04 593.29 729.28&#xA;  C 589.92 719.32 588.35 709.75 585.13 699.06&#xA;  C 582.05 688.80 580.35 679.39 577.31 669.58&#xA;  Q 574.81 661.52 573.07 654.34&#xA;  C 569.69 640.35 567.53 633.52 563.85 619.17&#xA;  Q 561.46 609.85 558.42 599.37&#xA;  C 555.33 588.68 553.95 580.48 550.79 570.05&#xA;  Q 548.84 563.59 546.39 551.17&#xA;  A 1.75 1.75 0.0 0 0 544.67 549.76&#xA;  L 422.95 549.76&#xA;  A 0.51 0.51 0.0 0 0 422.55 550.59&#xA;  Q 430.81 561.06 438.69 570.53&#xA;  Q 452.37 586.98 465.89 603.04&#xA;  C 469.24 607.03 474.17 613.58 478.31 618.18&#xA;  C 481.47 621.68 485.19 627.11 488.68 631.08&#xA;  C 494.97 638.23 500.31 645.42 507.24 653.51&#xA;  Q 510.05 656.80 515.88 663.90&#xA;  Q 517.06 665.33 569.30 729.71&#xA;  C 571.95 732.98 574.93 736.12 577.36 739.36&#xA;  C 582.79 746.61 588.23 752.34 593.29 759.14&#xA;  Q 597.80 765.20 604.20 772.37&#xA;  A 0.24 0.23 19.9 0 0 604.61 772.18"></path>
<path stroke="#717b0b" vector-effect="non-scaling-stroke" d="&#xA;  M 626.37 783.19&#xA;  Q 626.40 783.19 626.44 783.19&#xA;  A 0.13 0.11 -87.0 0 0 626.52 783.10&#xA;  Q 629.57 772.48 632.28 761.76&#xA;  Q 636.44 745.37 677.46 592.50&#xA;  Q 679.80 583.77 682.06 575.41&#xA;  Q 686.44 559.20 688.34 550.46&#xA;  A 0.44 0.43 -83.8 0 0 687.93 549.94&#xA;  Q 678.83 549.66 669.25 549.72&#xA;  Q 656.31 549.80 626.44 549.79&#xA;  Q 596.57 549.78 583.63 549.69&#xA;  Q 574.05 549.63 564.95 549.90&#xA;  A 0.44 0.43 83.8 0 0 564.54 550.42&#xA;  Q 566.43 559.16 570.80 575.38&#xA;  Q 573.06 583.74 575.39 592.47&#xA;  Q 616.32 745.36 620.47 761.76&#xA;  Q 623.17 772.48 626.22 783.10&#xA;  A 0.13 0.11 87.1 0 0 626.30 783.19&#xA;  Q 626.33 783.19 626.37 783.19"></path>
<path stroke="#717b0b" vector-effect="non-scaling-stroke" d="&#xA;  M 648.36 773.03&#xA;  Q 648.80 772.79 649.49 771.99&#xA;  C 654.62 766.07 661.97 756.15 666.89 750.36&#xA;  C 674.87 740.98 680.94 732.73 688.65 723.76&#xA;  C 694.66 716.77 699.78 709.54 706.17 702.49&#xA;  C 710.50 697.71 715.34 690.47 720.41 684.82&#xA;  Q 722.33 682.68 727.60 676.21&#xA;  Q 752.66 645.39 774.74 618.50&#xA;  Q 799.01 588.95 805.21 581.26&#xA;  C 809.67 575.71 813.85 571.41 817.51 566.36&#xA;  C 820.78 561.86 826.66 555.88 830.35 550.68&#xA;  A 0.49 0.49 0.0 0 0 829.99 549.91&#xA;  C 821.84 549.21 814.33 549.77 806.39 549.78&#xA;  Q 759.36 549.82 728.56 549.74&#xA;  C 722.06 549.72 714.97 550.19 708.33 549.70&#xA;  A 1.38 1.38 0.0 0 0 706.86 550.82&#xA;  Q 705.62 557.38 704.38 561.68&#xA;  C 700.02 576.80 697.01 589.39 692.48 606.10&#xA;  Q 683.13 640.55 670.55 687.24&#xA;  Q 669.43 691.42 668.35 695.57&#xA;  Q 659.49 729.54 649.83 765.23&#xA;  Q 648.44 770.35 648.00 772.78&#xA;  A 0.24 0.24 0.0 0 0 648.36 773.03"></path>
</g>
<path fill="#d0e408" d="&#xA;  M 630.06 1031.83&#xA;  C 492.70 1032.83 361.27 963.36 282.24 850.59&#xA;  Q 250.86 805.81 232.09 753.35&#xA;  C 203.37 673.07 200.11 583.50 221.97 501.03&#xA;  Q 238.13 440.09 271.40 385.66&#xA;  Q 316.65 311.60 389.28 260.80&#xA;  C 457.70 212.94 539.03 186.78 623.90 186.16&#xA;  C 708.76 185.54 790.46 210.51 859.57 257.37&#xA;  Q 932.94 307.11 979.26 380.50&#xA;  Q 1013.32 434.44 1030.37 495.14&#xA;  C 1053.43 577.28 1051.47 666.89 1023.93 747.58&#xA;  Q 1005.92 800.31 975.20 845.54&#xA;  C 897.83 959.45 767.42 1030.83 630.06 1031.83&#xA;  Z&#xA;  M 626.61 822.65&#xA;  Q 631.14 822.65 633.50 819.70&#xA;  C 638.05 814.01 642.65 809.24 646.66 803.91&#xA;  C 649.75 799.81 654.23 794.62 656.69 791.59&#xA;  Q 756.93 668.17 855.46 548.78&#xA;  Q 858.38 545.24 858.98 542.99&#xA;  Q 859.89 539.63 857.98 536.44&#xA;  Q 854.35 530.40 845.29 517.40&#xA;  C 835.33 503.12 826.51 490.04 815.90 474.85&#xA;  Q 797.41 448.39 785.41 430.85&#xA;  Q 784.83 430.00 780.92 424.47&#xA;  C 777.89 420.19 774.98 417.70 770.12 417.80&#xA;  Q 761.96 417.97 755.76 417.96&#xA;  Q 694.92 417.88 642.00 417.92&#xA;  Q 634.49 417.93 626.57 417.93&#xA;  Q 618.64 417.93 611.13 417.92&#xA;  Q 558.21 417.90 497.37 417.99&#xA;  Q 491.17 418.00 483.01 417.83&#xA;  C 478.15 417.73 475.24 420.22 472.21 424.51&#xA;  Q 468.30 430.04 467.72 430.89&#xA;  Q 455.73 448.43 437.24 474.89&#xA;  C 426.64 490.09 417.82 503.17 407.86 517.45&#xA;  Q 398.81 530.45 395.18 536.49&#xA;  Q 393.27 539.68 394.18 543.04&#xA;  Q 394.78 545.29 397.70 548.83&#xA;  Q 496.26 668.20 596.53 791.60&#xA;  C 598.99 794.63 603.47 799.82 606.56 803.91&#xA;  C 610.57 809.24 615.17 814.01 619.72 819.70&#xA;  Q 622.09 822.65 626.61 822.65&#xA;  Z"></path>
<path fill="#11110d" d="&#xA;  M 626.57 417.93&#xA;  Q 634.49 417.93 642.00 417.92&#xA;  Q 694.92 417.88 755.76 417.96&#xA;  Q 761.96 417.97 770.12 417.80&#xA;  C 774.98 417.70 777.89 420.19 780.92 424.47&#xA;  Q 784.83 430.00 785.41 430.85&#xA;  Q 797.41 448.39 815.90 474.85&#xA;  C 826.51 490.04 835.33 503.12 845.29 517.40&#xA;  Q 854.35 530.40 857.98 536.44&#xA;  Q 859.89 539.63 858.98 542.99&#xA;  Q 858.38 545.24 855.46 548.78&#xA;  Q 756.93 668.17 656.69 791.59&#xA;  C 654.23 794.62 649.75 799.81 646.66 803.91&#xA;  C 642.65 809.24 638.05 814.01 633.50 819.70&#xA;  Q 631.14 822.65 626.61 822.65&#xA;  Q 622.09 822.65 619.72 819.70&#xA;  C 615.17 814.01 610.57 809.24 606.56 803.91&#xA;  C 603.47 799.82 598.99 794.63 596.53 791.60&#xA;  Q 496.26 668.20 397.70 548.83&#xA;  Q 394.78 545.29 394.18 543.04&#xA;  Q 393.27 539.68 395.18 536.49&#xA;  Q 398.81 530.45 407.86 517.45&#xA;  C 417.82 503.17 426.64 490.09 437.24 474.89&#xA;  Q 455.73 448.43 467.72 430.89&#xA;  Q 468.30 430.04 472.21 424.51&#xA;  C 475.24 420.22 478.15 417.73 483.01 417.83&#xA;  Q 491.17 418.00 497.37 417.99&#xA;  Q 558.21 417.90 611.13 417.92&#xA;  Q 618.64 417.93 626.57 417.93&#xA;  Z&#xA;  M 609.92 436.71&#xA;  A 0.47 0.47 0.0 0 0 609.53 435.99&#xA;  L 497.13 435.99&#xA;  A 0.47 0.47 0.0 0 0 496.74 436.71&#xA;  L 552.94 522.46&#xA;  A 0.47 0.47 0.0 0 0 553.72 522.46&#xA;  L 609.92 436.71&#xA;  Z&#xA;  M 699.62 522.56&#xA;  A 0.51 0.51 0.0 0 0 700.48 522.56&#xA;  L 756.52 436.75&#xA;  A 0.51 0.51 0.0 0 0 756.10 435.96&#xA;  L 643.68 435.96&#xA;  A 0.51 0.51 0.0 0 0 643.25 436.75&#xA;  L 699.62 522.56&#xA;  Z&#xA;  M 570.03 530.25&#xA;  A 0.88 0.88 0.0 0 0 570.77 531.61&#xA;  L 682.53 531.42&#xA;  A 0.88 0.88 0.0 0 0 683.27 530.05&#xA;  L 627.24 445.16&#xA;  A 0.88 0.88 0.0 0 0 625.76 445.17&#xA;  L 570.03 530.25&#xA;  Z&#xA;  M 480.73 445.16&#xA;  A 0.56 0.56 0.0 0 0 479.80 445.15&#xA;  L 420.66 530.68&#xA;  A 0.56 0.56 0.0 0 0 421.12 531.56&#xA;  L 536.44 531.56&#xA;  A 0.56 0.56 0.0 0 0 536.91 530.69&#xA;  L 480.73 445.16&#xA;  Z&#xA;  M 773.40 445.23&#xA;  A 0.62 0.62 0.0 0 0 772.38 445.24&#xA;  L 716.65 530.56&#xA;  A 0.62 0.62 0.0 0 0 717.17 531.52&#xA;  L 831.86 531.52&#xA;  A 0.62 0.62 0.0 0 0 832.37 530.55&#xA;  L 773.40 445.23&#xA;  Z&#xA;  M 604.61 772.18&#xA;  C 603.08 762.35 599.28 752.96 597.03 743.26&#xA;  Q 594.90 734.04 593.29 729.28&#xA;  C 589.92 719.32 588.35 709.75 585.13 699.06&#xA;  C 582.05 688.80 580.35 679.39 577.31 669.58&#xA;  Q 574.81 661.52 573.07 654.34&#xA;  C 569.69 640.35 567.53 633.52 563.85 619.17&#xA;  Q 561.46 609.85 558.42 599.37&#xA;  C 555.33 588.68 553.95 580.48 550.79 570.05&#xA;  Q 548.84 563.59 546.39 551.17&#xA;  A 1.75 1.75 0.0 0 0 544.67 549.76&#xA;  L 422.95 549.76&#xA;  A 0.51 0.51 0.0 0 0 422.55 550.59&#xA;  Q 430.81 561.06 438.69 570.53&#xA;  Q 452.37 586.98 465.89 603.04&#xA;  C 469.24 607.03 474.17 613.58 478.31 618.18&#xA;  C 481.47 621.68 485.19 627.11 488.68 631.08&#xA;  C 494.97 638.23 500.31 645.42 507.24 653.51&#xA;  Q 510.05 656.80 515.88 663.90&#xA;  Q 517.06 665.33 569.30 729.71&#xA;  C 571.95 732.98 574.93 736.12 577.36 739.36&#xA;  C 582.79 746.61 588.23 752.34 593.29 759.14&#xA;  Q 597.80 765.20 604.20 772.37&#xA;  A 0.24 0.23 19.9 0 0 604.61 772.18&#xA;  Z&#xA;  M 626.37 783.19&#xA;  Q 626.40 783.19 626.44 783.19&#xA;  A 0.13 0.11 -87.0 0 0 626.52 783.10&#xA;  Q 629.57 772.48 632.28 761.76&#xA;  Q 636.44 745.37 677.46 592.50&#xA;  Q 679.80 583.77 682.06 575.41&#xA;  Q 686.44 559.20 688.34 550.46&#xA;  A 0.44 0.43 -83.8 0 0 687.93 549.94&#xA;  Q 678.83 549.66 669.25 549.72&#xA;  Q 656.31 549.80 626.44 549.79&#xA;  Q 596.57 549.78 583.63 549.69&#xA;  Q 574.05 549.63 564.95 549.90&#xA;  A 0.44 0.43 83.8 0 0 564.54 550.42&#xA;  Q 566.43 559.16 570.80 575.38&#xA;  Q 573.06 583.74 575.39 592.47&#xA;  Q 616.32 745.36 620.47 761.76&#xA;  Q 623.17 772.48 626.22 783.10&#xA;  A 0.13 0.11 87.1 0 0 626.30 783.19&#xA;  Q 626.33 783.19 626.37 783.19&#xA;  Z&#xA;  M 648.36 773.03&#xA;  Q 648.80 772.79 649.49 771.99&#xA;  C 654.62 766.07 661.97 756.15 666.89 750.36&#xA;  C 674.87 740.98 680.94 732.73 688.65 723.76&#xA;  C 694.66 716.77 699.78 709.54 706.17 702.49&#xA;  C 710.50 697.71 715.34 690.47 720.41 684.82&#xA;  Q 722.33 682.68 727.60 676.21&#xA;  Q 752.66 645.39 774.74 618.50&#xA;  Q 799.01 588.95 805.21 581.26&#xA;  C 809.67 575.71 813.85 571.41 817.51 566.36&#xA;  C 820.78 561.86 826.66 555.88 830.35 550.68&#xA;  A 0.49 0.49 0.0 0 0 829.99 549.91&#xA;  C 821.84 549.21 814.33 549.77 806.39 549.78&#xA;  Q 759.36 549.82 728.56 549.74&#xA;  C 722.06 549.72 714.97 550.19 708.33 549.70&#xA;  A 1.38 1.38 0.0 0 0 706.86 550.82&#xA;  Q 705.62 557.38 704.38 561.68&#xA;  C 700.02 576.80 697.01 589.39 692.48 606.10&#xA;  Q 683.13 640.55 670.55 687.24&#xA;  Q 669.43 691.42 668.35 695.57&#xA;  Q 659.49 729.54 649.83 765.23&#xA;  Q 648.44 770.35 648.00 772.78&#xA;  A 0.24 0.24 0.0 0 0 648.36 773.03&#xA;  Z"></path>
<path fill="#d0e408" d="&#xA;  M 609.92 436.71&#xA;  L 553.72 522.46&#xA;  A 0.47 0.47 0.0 0 1 552.94 522.46&#xA;  L 496.74 436.71&#xA;  A 0.47 0.47 0.0 0 1 497.13 435.99&#xA;  L 609.53 435.99&#xA;  A 0.47 0.47 0.0 0 1 609.92 436.71&#xA;  Z"></path>
<path fill="#d0e408" d="&#xA;  M 699.62 522.56&#xA;  L 643.25 436.75&#xA;  A 0.51 0.51 0.0 0 1 643.68 435.96&#xA;  L 756.10 435.96&#xA;  A 0.51 0.51 0.0 0 1 756.52 436.75&#xA;  L 700.48 522.56&#xA;  A 0.51 0.51 0.0 0 1 699.62 522.56&#xA;  Z"></path>
<path fill="#d0e408" d="&#xA;  M 570.03 530.25&#xA;  L 625.76 445.17&#xA;  A 0.88 0.88 0.0 0 1 627.24 445.16&#xA;  L 683.27 530.05&#xA;  A 0.88 0.88 0.0 0 1 682.53 531.42&#xA;  L 570.77 531.61&#xA;  A 0.88 0.88 0.0 0 1 570.03 530.25&#xA;  Z"></path>
<path fill="#d0e408" d="&#xA;  M 480.73 445.16&#xA;  L 536.91 530.69&#xA;  A 0.56 0.56 0.0 0 1 536.44 531.56&#xA;  L 421.12 531.56&#xA;  A 0.56 0.56 0.0 0 1 420.66 530.68&#xA;  L 479.80 445.15&#xA;  A 0.56 0.56 0.0 0 1 480.73 445.16&#xA;  Z"></path>
<path fill="#d0e408" d="&#xA;  M 773.40 445.23&#xA;  L 832.37 530.55&#xA;  A 0.62 0.62 0.0 0 1 831.86 531.52&#xA;  L 717.17 531.52&#xA;  A 0.62 0.62 0.0 0 1 716.65 530.56&#xA;  L 772.38 445.24&#xA;  A 0.62 0.62 0.0 0 1 773.40 445.23&#xA;  Z"></path>
<path fill="#d0e408" d="&#xA;  M 604.61 772.18&#xA;  A 0.24 0.23 19.9 0 1 604.20 772.37&#xA;  Q 597.80 765.20 593.29 759.14&#xA;  C 588.23 752.34 582.79 746.61 577.36 739.36&#xA;  C 574.93 736.12 571.95 732.98 569.30 729.71&#xA;  Q 517.06 665.33 515.88 663.90&#xA;  Q 510.05 656.80 507.24 653.51&#xA;  C 500.31 645.42 494.97 638.23 488.68 631.08&#xA;  C 485.19 627.11 481.47 621.68 478.31 618.18&#xA;  C 474.17 613.58 469.24 607.03 465.89 603.04&#xA;  Q 452.37 586.98 438.69 570.53&#xA;  Q 430.81 561.06 422.55 550.59&#xA;  A 0.51 0.51 0.0 0 1 422.95 549.76&#xA;  L 544.67 549.76&#xA;  A 1.75 1.75 0.0 0 1 546.39 551.17&#xA;  Q 548.84 563.59 550.79 570.05&#xA;  C 553.95 580.48 555.33 588.68 558.42 599.37&#xA;  Q 561.46 609.85 563.85 619.17&#xA;  C 567.53 633.52 569.69 640.35 573.07 654.34&#xA;  Q 574.81 661.52 577.31 669.58&#xA;  C 580.35 679.39 582.05 688.80 585.13 699.06&#xA;  C 588.35 709.75 589.92 719.32 593.29 729.28&#xA;  Q 594.90 734.04 597.03 743.26&#xA;  C 599.28 752.96 603.08 762.35 604.61 772.18&#xA;  Z"></path>
<path fill="#d0e408" d="&#xA;  M 626.44 549.79&#xA;  Q 656.31 549.80 669.25 549.72&#xA;  Q 678.83 549.66 687.93 549.94&#xA;  A 0.44 0.43 -83.8 0 1 688.34 550.46&#xA;  Q 686.44 559.20 682.06 575.41&#xA;  Q 679.80 583.77 677.46 592.50&#xA;  Q 636.44 745.37 632.28 761.76&#xA;  Q 629.57 772.48 626.52 783.10&#xA;  A 0.13 0.11 -87.0 0 1 626.44 783.19&#xA;  Q 626.40 783.19 626.37 783.19&#xA;  Q 626.33 783.19 626.30 783.19&#xA;  A 0.13 0.11 87.1 0 1 626.22 783.10&#xA;  Q 623.17 772.48 620.47 761.76&#xA;  Q 616.32 745.36 575.39 592.47&#xA;  Q 573.06 583.74 570.80 575.38&#xA;  Q 566.43 559.16 564.54 550.42&#xA;  A 0.44 0.43 83.8 0 1 564.95 549.90&#xA;  Q 574.05 549.63 583.63 549.69&#xA;  Q 596.57 549.78 626.44 549.79&#xA;  Z"></path>
<path fill="#d0e408" d="&#xA;  M 648.36 773.03&#xA;  A 0.24 0.24 0.0 0 1 648.00 772.78&#xA;  Q 648.44 770.35 649.83 765.23&#xA;  Q 659.49 729.54 668.35 695.57&#xA;  Q 669.43 691.42 670.55 687.24&#xA;  Q 683.13 640.55 692.48 606.10&#xA;  C 697.01 589.39 700.02 576.80 704.38 561.68&#xA;  Q 705.62 557.38 706.86 550.82&#xA;  A 1.38 1.38 0.0 0 1 708.33 549.70&#xA;  C 714.97 550.19 722.06 549.72 728.56 549.74&#xA;  Q 759.36 549.82 806.39 549.78&#xA;  C 814.33 549.77 821.84 549.21 829.99 549.91&#xA;  A 0.49 0.49 0.0 0 1 830.35 550.68&#xA;  C 826.66 555.88 820.78 561.86 817.51 566.36&#xA;  C 813.85 571.41 809.67 575.71 805.21 581.26&#xA;  Q 799.01 588.95 774.74 618.50&#xA;  Q 752.66 645.39 727.60 676.21&#xA;  Q 722.33 682.68 720.41 684.82&#xA;  C 715.34 690.47 710.50 697.71 706.17 702.49&#xA;  C 699.78 709.54 694.66 716.77 688.65 723.76&#xA;  C 680.94 732.73 674.87 740.98 666.89 750.36&#xA;  C 661.97 756.15 654.62 766.07 649.49 771.99&#xA;  Q 648.80 772.79 648.36 773.03&#xA;  Z"></path>
</svg>