<?xml version="1.0" encoding="UTF-8" standalone="no"?>

<svg xmlns="http://www.w3.org/2000/svg" version="1.1" viewBox="0.00 0.00 1254.00 1254.00">
<g stroke-width="2.00" fill="none" stroke-linecap="butt">
<path stroke="#cceae0" vector-effect="non-scaling-stroke" d="&#xA;  M 619.66 1083.25&#xA;  C 651.64 1083.51 683.13 1080.59 714.49 1074.02&#xA;  C 801.59 1055.76 880.43 1012.39 943.95 950.45&#xA;  C 1000.37 895.43 1041.72 826.57 1064.49 751.24&#xA;  Q 1072.91 723.40 1078.40 691.61&#xA;  C 1093.64 603.39 1082.73 512.53 1048.38 430.29&#xA;  C 1017.36 356.02 966.81 290.39 902.96 240.56&#xA;  Q 867.30 212.74 826.49 192.55&#xA;  C 764.57 161.91 695.69 146.10 627.46 145.54&#xA;  C 559.23 144.97 490.10 159.62 427.68 189.23&#xA;  Q 386.54 208.74 350.42 235.96&#xA;  C 285.75 284.72 234.12 349.50 201.86 423.24&#xA;  C 166.15 504.90 153.73 595.57 167.50 684.03&#xA;  Q 172.46 715.90 180.41 743.88&#xA;  C 201.92 819.58 242.12 889.12 297.62 945.07&#xA;  C 360.10 1008.06 438.21 1052.73 524.99 1072.44&#xA;  C 556.23 1079.53 587.67 1082.98 619.66 1083.25"></path>
<path stroke="#547268" vector-effect="non-scaling-stroke" d="&#xA;  M 675.70 356.57&#xA;  Q 634.49 350.48 591.15 354.89&#xA;  C 538.81 360.22 489.27 378.91 448.18 411.07&#xA;  C 406.59 443.63 375.60 490.00 363.93 541.68&#xA;  C 355.28 579.98 356.98 621.12 369.41 658.70&#xA;  Q 382.33 697.71 408.30 730.25&#xA;  Q 414.06 737.46 422.02 746.21&#xA;  C 427.46 752.19 427.41 757.90 426.32 765.52&#xA;  Q 424.08 781.03 414.96 842.09&#xA;  C 413.78 849.99 412.79 855.47 417.53 860.99&#xA;  Q 423.77 868.27 432.34 867.94&#xA;  Q 436.22 867.79 445.49 863.39&#xA;  Q 490.96 841.81 520.05 827.60&#xA;  Q 521.23 827.02 532.81 821.56&#xA;  Q 541.15 817.62 550.82 819.91&#xA;  Q 611.86 834.32 672.20 826.10&#xA;  Q 687.18 824.06 701.43 820.45&#xA;  Q 768.21 803.55 818.00 757.30&#xA;  Q 845.89 731.39 863.57 699.82&#xA;  Q 890.57 651.62 892.41 597.78&#xA;  C 896.77 470.63 796.17 374.37 675.70 356.57"></path>
<path stroke="#547268" vector-effect="non-scaling-stroke" d="&#xA;  M 445.12 832.20&#xA;  Q 448.01 831.60 451.95 829.43&#xA;  Q 456.70 826.80 464.64 823.20&#xA;  C 472.12 819.80 476.60 817.27 484.56 813.54&#xA;  Q 494.63 808.81 525.52 793.50&#xA;  Q 532.20 790.19 542.16 790.05&#xA;  Q 547.17 789.97 556.78 792.42&#xA;  C 593.03 801.66 631.13 803.10 668.20 798.14&#xA;  C 740.47 788.48 808.32 745.97 842.71 680.60&#xA;  Q 865.39 637.48 865.28 587.18&#xA;  Q 865.27 583.64 864.81 578.36&#xA;  C 864.17 571.11 863.51 563.29 862.29 556.45&#xA;  C 845.42 461.81 762.36 397.34 670.81 384.18&#xA;  Q 617.40 376.50 565.66 387.18&#xA;  Q 511.37 398.38 466.67 431.65&#xA;  Q 457.38 438.56 441.60 454.18&#xA;  C 436.92 458.81 433.55 463.61 429.76 467.93&#xA;  Q 425.36 472.96 421.47 478.70&#xA;  C 402.86 506.17 390.65 536.41 387.03 569.23&#xA;  C 381.70 617.68 395.37 665.96 424.08 705.47&#xA;  Q 433.89 718.96 444.41 729.69&#xA;  Q 450.45 735.86 451.69 738.20&#xA;  C 456.54 747.35 456.33 753.43 454.32 765.63&#xA;  Q 451.42 783.28 447.57 810.65&#xA;  C 446.65 817.13 444.96 824.32 444.59 831.74&#xA;  A 0.45 0.44 85.5 0 0 445.12 832.20"></path>
<path stroke="#547268" vector-effect="non-scaling-stroke" d="&#xA;  M 547.94 596.84&#xA;  A 35.89 35.89 0.0 0 0 512.05 560.95&#xA;  A 35.89 35.89 0.0 0 0 476.16 596.84&#xA;  A 35.89 35.89 0.0 0 0 512.05 632.73&#xA;  A 35.89 35.89 0.0 0 0 547.94 596.84"></path>
<path stroke="#547268" vector-effect="non-scaling-stroke" d="&#xA;  M 782.10 596.81&#xA;  A 35.89 35.89 0.0 0 0 746.21 560.92&#xA;  A 35.89 35.89 0.0 0 0 710.32 596.81&#xA;  A 35.89 35.89 0.0 0 0 746.21 632.70&#xA;  A 35.89 35.89 0.0 0 0 782.10 596.81"></path>
<path stroke="#547268" vector-effect="non-scaling-stroke" d="&#xA;  M 665.04 596.83&#xA;  A 35.79 35.79 0.0 0 0 629.25 561.04&#xA;  A 35.79 35.79 0.0 0 0 593.46 596.83&#xA;  A 35.79 35.79 0.0 0 0 629.25 632.62&#xA;  A 35.79 35.79 0.0 0 0 665.04 596.83"></path>
<path stroke="#547268" vector-effect="non-scaling-stroke" d="&#xA;  M 523.67 596.98&#xA;  A 11.63 11.63 0.0 0 0 512.04 585.35&#xA;  A 11.63 11.63 0.0 0 0 500.41 596.98&#xA;  A 11.63 11.63 0.0 0 0 512.04 608.61&#xA;  A 11.63 11.63 0.0 0 0 523.67 596.98"></path>
<path stroke="#547268" vector-effect="non-scaling-stroke" d="&#xA;  M 757.9683 595.6875&#xA;  A 11.87 11.54 -6.3 0 0 744.9037 585.5197&#xA;  A 11.87 11.54 -6.3 0 0 734.3717 598.2925&#xA;  A 11.87 11.54 -6.3 0 0 747.4363 608.4603&#xA;  A 11.87 11.54 -6.3 0 0 757.9683 595.6875"></path>
<path stroke="#547268" vector-effect="non-scaling-stroke" d="&#xA;  M 640.76 596.96&#xA;  A 11.65 11.65 0.0 0 0 629.11 585.31&#xA;  A 11.65 11.65 0.0 0 0 617.46 596.96&#xA;  A 11.65 11.65 0.0 0 0 629.11 608.61&#xA;  A 11.65 11.65 0.0 0 0 640.76 596.96"></path>
</g>
<path fill="#99d5c0" d="&#xA;  M 627.46 145.54&#xA;  C 695.69 146.10 764.57 161.91 826.49 192.55&#xA;  Q 867.30 212.74 902.96 240.56&#xA;  C 966.81 290.39 1017.36 356.02 1048.38 430.29&#xA;  C 1082.73 512.53 1093.64 603.39 1078.40 691.61&#xA;  Q 1072.91 723.40 1064.49 751.24&#xA;  C 1041.72 826.57 1000.37 895.43 943.95 950.45&#xA;  C 880.43 1012.39 801.59 1055.76 714.49 1074.02&#xA;  C 683.13 1080.59 651.64 1083.51 619.66 1083.25&#xA;  C 587.67 1082.98 556.23 1079.53 524.99 1072.44&#xA;  C 438.21 1052.73 360.10 1008.06 297.62 945.07&#xA;  C 242.12 889.12 201.92 819.58 180.41 743.88&#xA;  Q 172.46 715.90 167.50 684.03&#xA;  C 153.73 595.57 166.15 504.90 201.86 423.24&#xA;  C 234.12 349.50 285.75 284.72 350.42 235.96&#xA;  Q 386.54 208.74 427.68 189.23&#xA;  C 490.10 159.62 559.23 144.97 627.46 145.54&#xA;  Z&#xA;  M 675.70 356.57&#xA;  Q 634.49 350.48 591.15 354.89&#xA;  C 538.81 360.22 489.27 378.91 448.18 411.07&#xA;  C 406.59 443.63 375.60 490.00 363.93 541.68&#xA;  C 355.28 579.98 356.98 621.12 369.41 658.70&#xA;  Q 382.33 697.71 408.30 730.25&#xA;  Q 414.06 737.46 422.02 746.21&#xA;  C 427.46 752.19 427.41 757.90 426.32 765.52&#xA;  Q 424.08 781.03 414.96 842.09&#xA;  C 413.78 849.99 412.79 855.47 417.53 860.99&#xA;  Q 423.77 868.27 432.34 867.94&#xA;  Q 436.22 867.79 445.49 863.39&#xA;  Q 490.96 841.81 520.05 827.60&#xA;  Q 521.23 827.02 532.81 821.56&#xA;  Q 541.15 817.62 550.82 819.91&#xA;  Q 611.86 834.32 672.20 826.10&#xA;  Q 687.18 824.06 701.43 820.45&#xA;  Q 768.21 803.55 818.00 757.30&#xA;  Q 845.89 731.39 863.57 699.82&#xA;  Q 890.57 651.62 892.41 597.78&#xA;  C 896.77 470.63 796.17 374.37 675.70 356.57&#xA;  Z"></path>
<path fill="#0f0f0f" d="&#xA;  M 675.70 356.57&#xA;  C 796.17 374.37 896.77 470.63 892.41 597.78&#xA;  Q 890.57 651.62 863.57 699.82&#xA;  Q 845.89 731.39 818.00 757.30&#xA;  Q 768.21 803.55 701.43 820.45&#xA;  Q 687.18 824.06 672.20 826.10&#xA;  Q 611.86 834.32 550.82 819.91&#xA;  Q 541.15 817.62 532.81 821.56&#xA;  Q 521.23 827.02 520.05 827.60&#xA;  Q 490.96 841.81 445.49 863.39&#xA;  Q 436.22 867.79 432.34 867.94&#xA;  Q 423.77 868.27 417.53 860.99&#xA;  C 412.79 855.47 413.78 849.99 414.96 842.09&#xA;  Q 424.08 781.03 426.32 765.52&#xA;  C 427.41 757.90 427.46 752.19 422.02 746.21&#xA;  Q 414.06 737.46 408.30 730.25&#xA;  Q 382.33 697.71 369.41 658.70&#xA;  C 356.98 621.12 355.28 579.98 363.93 541.68&#xA;  C 375.60 490.00 406.59 443.63 448.18 411.07&#xA;  C 489.27 378.91 538.81 360.22 591.15 354.89&#xA;  Q 634.49 350.48 675.70 356.57&#xA;  Z&#xA;  M 445.12 832.20&#xA;  Q 448.01 831.60 451.95 829.43&#xA;  Q 456.70 826.80 464.64 823.20&#xA;  C 472.12 819.80 476.60 817.27 484.56 813.54&#xA;  Q 494.63 808.81 525.52 793.50&#xA;  Q 532.20 790.19 542.16 790.05&#xA;  Q 547.17 789.97 556.78 792.42&#xA;  C 593.03 801.66 631.13 803.10 668.20 798.14&#xA;  C 740.47 788.48 808.32 745.97 842.71 680.60&#xA;  Q 865.39 637.48 865.28 587.18&#xA;  Q 865.27 583.64 864.81 578.36&#xA;  C 864.17 571.11 863.51 563.29 862.29 556.45&#xA;  C 845.42 461.81 762.36 397.34 670.81 384.18&#xA;  Q 617.40 376.50 565.66 387.18&#xA;  Q 511.37 398.38 466.67 431.65&#xA;  Q 457.38 438.56 441.60 454.18&#xA;  C 436.92 458.81 433.55 463.61 429.76 467.93&#xA;  Q 425.36 472.96 421.47 478.70&#xA;  C 402.86 506.17 390.65 536.41 387.03 569.23&#xA;  C 381.70 617.68 395.37 665.96 424.08 705.47&#xA;  Q 433.89 718.96 444.41 729.69&#xA;  Q 450.45 735.86 451.69 738.20&#xA;  C 456.54 747.35 456.33 753.43 454.32 765.63&#xA;  Q 451.42 783.28 447.57 810.65&#xA;  C 446.65 817.13 444.96 824.32 444.59 831.74&#xA;  A 0.45 0.44 85.5 0 0 445.12 832.20&#xA;  Z"></path>
<path fill="#99d5c0" d="&#xA;  M 445.12 832.20&#xA;  A 0.45 0.44 85.5 0 1 444.59 831.74&#xA;  C 444.96 824.32 446.65 817.13 447.57 810.65&#xA;  Q 451.42 783.28 454.32 765.63&#xA;  C 456.33 753.43 456.54 747.35 451.69 738.20&#xA;  Q 450.45 735.86 444.41 729.69&#xA;  Q 433.89 718.96 424.08 705.47&#xA;  C 395.37 665.96 381.70 617.68 387.03 569.23&#xA;  C 390.65 536.41 402.86 506.17 421.47 478.70&#xA;  Q 425.36 472.96 429.76 467.93&#xA;  C 433.55 463.61 436.92 458.81 441.60 454.18&#xA;  Q 457.38 438.56 466.67 431.65&#xA;  Q 511.37 398.38 565.66 387.18&#xA;  Q 617.40 376.50 670.81 384.18&#xA;  C 762.36 397.34 845.42 461.81 862.29 556.45&#xA;  C 863.51 563.29 864.17 571.11 864.81 578.36&#xA;  Q 865.27 583.64 865.28 587.18&#xA;  Q 865.39 637.48 842.71 680.60&#xA;  C 808.32 745.97 740.47 788.48 668.20 798.14&#xA;  C 631.13 803.10 593.03 801.66 556.78 792.42&#xA;  Q 547.17 789.97 542.16 790.05&#xA;  Q 532.20 790.19 525.52 793.50&#xA;  Q 494.63 808.81 484.56 813.54&#xA;  C 476.60 817.27 472.12 819.80 464.64 823.20&#xA;  Q 456.70 826.80 451.95 829.43&#xA;  Q 448.01 831.60 445.12 832.20&#xA;  Z&#xA;  M 547.94 596.84&#xA;  A 35.89 35.89 0.0 0 0 512.05 560.95&#xA;  A 35.89 35.89 0.0 0 0 476.16 596.84&#xA;  A 35.89 35.89 0.0 0 0 512.05 632.73&#xA;  A 35.89 35.89 0.0 0 0 547.94 596.84&#xA;  Z&#xA;  M 782.10 596.81&#xA;  A 35.89 35.89 0.0 0 0 746.21 560.92&#xA;  A 35.89 35.89 0.0 0 0 710.32 596.81&#xA;  A 35.89 35.89 0.0 0 0 746.21 632.70&#xA;  A 35.89 35.89 0.0 0 0 782.10 596.81&#xA;  Z&#xA;  M 665.04 596.83&#xA;  A 35.79 35.79 0.0 0 0 629.25 561.04&#xA;  A 35.79 35.79 0.0 0 0 593.46 596.83&#xA;  A 35.79 35.79 0.0 0 0 629.25 632.62&#xA;  A 35.79 35.79 0.0 0 0 665.04 596.83&#xA;  Z"></path>
<path fill="#0f0f0f" d="&#xA;  M 547.94 596.84&#xA;  A 35.89 35.89 0.0 0 1 512.05 632.73&#xA;  A 35.89 35.89 0.0 0 1 476.16 596.84&#xA;  A 35.89 35.89 0.0 0 1 512.05 560.95&#xA;  A 35.89 35.89 0.0 0 1 547.94 596.84&#xA;  Z&#xA;  M 523.67 596.98&#xA;  A 11.63 11.63 0.0 0 0 512.04 585.35&#xA;  A 11.63 11.63 0.0 0 0 500.41 596.98&#xA;  A 11.63 11.63 0.0 0 0 512.04 608.61&#xA;  A 11.63 11.63 0.0 0 0 523.67 596.98&#xA;  Z"></path>
<path fill="#0f0f0f" d="&#xA;  M 782.10 596.81&#xA;  A 35.89 35.89 0.0 0 1 746.21 632.70&#xA;  A 35.89 35.89 0.0 0 1 710.32 596.81&#xA;  A 35.89 35.89 0.0 0 1 746.21 560.92&#xA;  A 35.89 35.89 0.0 0 1 782.10 596.81&#xA;  Z&#xA;  M 757.9683 595.6875&#xA;  A 11.87 11.54 -6.3 0 0 744.9037 585.5197&#xA;  A 11.87 11.54 -6.3 0 0 734.3717 598.2925&#xA;  A 11.87 11.54 -6.3 0 0 747.4363 608.4603&#xA;  A 11.87 11.54 -6.3 0 0 757.9683 595.6875&#xA;  Z"></path>
<path fill="#0f0f0f" d="&#xA;  M 665.04 596.83&#xA;  A 35.79 35.79 0.0 0 1 629.25 632.62&#xA;  A 35.79 35.79 0.0 0 1 593.46 596.83&#xA;  A 35.79 35.79 0.0 0 1 629.25 561.04&#xA;  A 35.79 35.79 0.0 0 1 665.04 596.83&#xA;  Z&#xA;  M 640.76 596.96&#xA;  A 11.65 11.65 0.0 0 0 629.11 585.31&#xA;  A 11.65 11.65 0.0 0 0 617.46 596.96&#xA;  A 11.65 11.65 0.0 0 0 629.11 608.61&#xA;  A 11.65 11.65 0.0 0 0 640.76 596.96&#xA;  Z"></path>
<circle fill="#99d5c0" cx="629.11" cy="596.96" r="11.65"></circle>
<circle fill="#99d5c0" cx="512.04" cy="596.98" r="11.63"></circle>
<ellipse fill="#99d5c0" cx="0.00" cy="0.00" transform="translate(746.17,596.99) rotate(-6.3)" rx="11.87" ry="11.54"></ellipse>
</svg>