<?xml version="1.0" encoding="UTF-8" standalone="no"?>

<svg xmlns="http://www.w3.org/2000/svg" version="1.1" viewBox="0.00 0.00 1254.00 1254.00">
<g stroke-width="2.00" fill="none" stroke-linecap="butt">
<path stroke="#febfd1" vector-effect="non-scaling-stroke" d="&#xA;  M 305.62 923.11&#xA;  C 330.52 948.34 360.93 971.55 392.56 990.42&#xA;  Q 455.79 1028.16 525.56 1044.16&#xA;  C 599.79 1061.19 677.73 1059.15 750.97 1037.62&#xA;  C 818.19 1017.86 881.52 981.56 932.58 934.07&#xA;  C 988.38 882.18 1031.69 815.93 1054.85 743.69&#xA;  Q 1072.90 687.38 1075.46 630.49&#xA;  Q 1077.39 587.82 1072.48 548.52&#xA;  Q 1063.21 474.31 1029.70 405.42&#xA;  C 1024.07 393.84 1016.39 380.28 1009.77 369.48&#xA;  C 962.35 292.02 892.00 229.75 809.44 192.55&#xA;  Q 754.09 167.61 693.47 158.77&#xA;  Q 579.73 142.20 470.63 180.86&#xA;  Q 453.52 186.92 435.68 195.18&#xA;  C 367.11 226.91 307.70 275.77 262.48 336.24&#xA;  Q 215.04 399.68 191.85 478.38&#xA;  Q 188.06 491.22 184.27 509.01&#xA;  Q 164.11 603.59 182.43 698.53&#xA;  Q 188.12 728.02 199.35 758.66&#xA;  C 210.43 788.88 224.64 818.33 242.30 845.21&#xA;  Q 245.69 850.38 248.72 854.84&#xA;  Q 260.11 871.68 270.90 885.09&#xA;  Q 283.31 900.51 305.62 923.11"></path>
<path stroke="#febfd1" vector-effect="non-scaling-stroke" d="&#xA;  M 624.78 478.81&#xA;  Q 622.55 477.04 621.48 475.76&#xA;  C 615.66 468.84 608.30 461.76 601.62 454.42&#xA;  Q 593.44 445.41 586.41 439.69&#xA;  C 562.87 420.54 534.72 410.47 504.39 409.91&#xA;  Q 465.16 409.17 431.12 430.19&#xA;  C 423.22 435.07 414.22 442.46 408.29 448.54&#xA;  Q 384.29 473.13 374.19 504.80&#xA;  C 363.75 537.54 365.49 574.10 377.36 606.44&#xA;  Q 389.31 638.99 411.72 667.96&#xA;  Q 423.92 683.73 433.55 694.34&#xA;  Q 436.28 697.34 455.06 717.52&#xA;  Q 464.66 727.83 504.28 768.27&#xA;  Q 569.71 835.04 599.56 864.86&#xA;  Q 599.94 865.24 608.54 874.21&#xA;  Q 613.75 879.65 619.49 884.35&#xA;  Q 623.61 887.73 629.05 886.50&#xA;  Q 634.19 885.34 636.86 882.61&#xA;  Q 692.40 825.70 773.02 741.28&#xA;  Q 795.87 717.35 815.47 695.22&#xA;  Q 833.23 675.17 846.03 656.56&#xA;  Q 852.31 647.45 859.48 634.27&#xA;  C 877.63 600.89 885.62 562.95 880.08 525.73&#xA;  Q 873.70 482.86 843.64 450.02&#xA;  Q 839.86 445.88 834.42 441.31&#xA;  Q 826.59 434.72 824.48 433.28&#xA;  Q 817.28 428.37 807.73 423.27&#xA;  C 785.32 411.32 758.57 407.20 733.77 410.14&#xA;  Q 683.29 416.13 649.53 452.98&#xA;  Q 640.82 462.49 640.36 462.95&#xA;  Q 635.75 467.62 625.91 478.72&#xA;  A 0.83 0.82 40.3 0 1 624.78 478.81"></path>
<path stroke="#febfd1" vector-effect="non-scaling-stroke" d="&#xA;  M 627.20 851.09&#xA;  C 631.69 847.12 635.30 842.45 640.20 837.79&#xA;  Q 642.93 835.19 644.99 832.90&#xA;  Q 646.30 831.45 649.68 827.93&#xA;  Q 664.39 812.60 674.39 802.14&#xA;  Q 677.74 798.64 685.90 790.15&#xA;  C 719.67 755.02 745.17 728.46 773.66 698.16&#xA;  Q 781.12 690.22 794.56 675.12&#xA;  C 803.19 665.43 811.38 655.00 817.90 646.40&#xA;  Q 818.76 645.26 827.53 631.69&#xA;  C 833.70 622.15 839.24 610.97 842.78 602.29&#xA;  Q 851.42 581.12 853.18 558.00&#xA;  Q 856.13 519.28 835.38 486.22&#xA;  Q 830.37 478.24 823.95 471.36&#xA;  C 817.73 464.70 810.36 458.26 801.53 453.25&#xA;  Q 791.40 447.50 790.05 446.93&#xA;  C 778.04 441.90 764.37 438.68 750.92 438.77&#xA;  Q 739.96 438.85 734.28 439.60&#xA;  Q 709.93 442.80 688.71 457.54&#xA;  C 683.13 461.41 679.08 464.40 675.09 468.60&#xA;  Q 657.78 486.77 636.51 509.78&#xA;  C 631.07 515.66 620.71 517.50 614.83 510.73&#xA;  Q 609.85 505.01 604.55 499.79&#xA;  C 598.50 493.81 593.22 487.63 586.54 480.67&#xA;  Q 584.36 478.39 579.08 472.73&#xA;  Q 563.54 456.08 543.99 447.75&#xA;  Q 504.02 430.71 461.86 446.99&#xA;  C 456.97 448.88 453.46 451.38 448.72 453.84&#xA;  Q 444.58 455.98 439.43 459.92&#xA;  Q 411.58 481.21 400.92 515.89&#xA;  C 392.85 542.15 394.83 571.86 404.04 596.83&#xA;  Q 408.39 608.63 412.13 615.94&#xA;  Q 415.59 622.71 423.03 634.77&#xA;  Q 426.20 639.91 430.04 644.91&#xA;  C 437.29 654.32 441.58 660.54 449.14 668.97&#xA;  C 455.80 676.39 461.97 683.60 469.41 691.39&#xA;  Q 479.68 702.16 500.98 724.26&#xA;  Q 521.36 745.39 552.84 777.10&#xA;  C 566.61 790.97 580.87 805.50 593.69 818.32&#xA;  Q 600.87 825.49 602.42 827.16&#xA;  C 608.44 833.64 612.25 836.81 618.75 843.62&#xA;  Q 621.97 846.98 626.64 851.09&#xA;  A 0.42 0.42 0.0 0 0 627.20 851.09"></path>
</g>
<path fill="#fd7ea2" d="&#xA;  M 392.56 990.42&#xA;  C 360.93 971.55 330.52 948.34 305.62 923.11&#xA;  Q 283.31 900.51 270.90 885.09&#xA;  Q 260.11 871.68 248.72 854.84&#xA;  Q 245.69 850.38 242.30 845.21&#xA;  C 224.64 818.33 210.43 788.88 199.35 758.66&#xA;  Q 188.12 728.02 182.43 698.53&#xA;  Q 164.11 603.59 184.27 509.01&#xA;  Q 188.06 491.22 191.85 478.38&#xA;  Q 215.04 399.68 262.48 336.24&#xA;  C 307.70 275.77 367.11 226.91 435.68 195.18&#xA;  Q 453.52 186.92 470.63 180.86&#xA;  Q 579.73 142.20 693.47 158.77&#xA;  Q 754.09 167.61 809.44 192.55&#xA;  C 892.00 229.75 962.35 292.02 1009.77 369.48&#xA;  C 1016.39 380.28 1024.07 393.84 1029.70 405.42&#xA;  Q 1063.21 474.31 1072.48 548.52&#xA;  Q 1077.39 587.82 1075.46 630.49&#xA;  Q 1072.90 687.38 1054.85 743.69&#xA;  C 1031.69 815.93 988.38 882.18 932.58 934.07&#xA;  C 881.52 981.56 818.19 1017.86 750.97 1037.62&#xA;  C 677.73 1059.15 599.79 1061.19 525.56 1044.16&#xA;  Q 455.79 1028.16 392.56 990.42&#xA;  Z&#xA;  M 624.78 478.81&#xA;  Q 622.55 477.04 621.48 475.76&#xA;  C 615.66 468.84 608.30 461.76 601.62 454.42&#xA;  Q 593.44 445.41 586.41 439.69&#xA;  C 562.87 420.54 534.72 410.47 504.39 409.91&#xA;  Q 465.16 409.17 431.12 430.19&#xA;  C 423.22 435.07 414.22 442.46 408.29 448.54&#xA;  Q 384.29 473.13 374.19 504.80&#xA;  C 363.75 537.54 365.49 574.10 377.36 606.44&#xA;  Q 389.31 638.99 411.72 667.96&#xA;  Q 423.92 683.73 433.55 694.34&#xA;  Q 436.28 697.34 455.06 717.52&#xA;  Q 464.66 727.83 504.28 768.27&#xA;  Q 569.71 835.04 599.56 864.86&#xA;  Q 599.94 865.24 608.54 874.21&#xA;  Q 613.75 879.65 619.49 884.35&#xA;  Q 623.61 887.73 629.05 886.50&#xA;  Q 634.19 885.34 636.86 882.61&#xA;  Q 692.40 825.70 773.02 741.28&#xA;  Q 795.87 717.35 815.47 695.22&#xA;  Q 833.23 675.17 846.03 656.56&#xA;  Q 852.31 647.45 859.48 634.27&#xA;  C 877.63 600.89 885.62 562.95 880.08 525.73&#xA;  Q 873.70 482.86 843.64 450.02&#xA;  Q 839.86 445.88 834.42 441.31&#xA;  Q 826.59 434.72 824.48 433.28&#xA;  Q 817.28 428.37 807.73 423.27&#xA;  C 785.32 411.32 758.57 407.20 733.77 410.14&#xA;  Q 683.29 416.13 649.53 452.98&#xA;  Q 640.82 462.49 640.36 462.95&#xA;  Q 635.75 467.62 625.91 478.72&#xA;  A 0.83 0.82 40.3 0 1 624.78 478.81&#xA;  Z"></path>
<path fill="#ffffff" d="&#xA;  M 624.78 478.81&#xA;  A 0.83 0.82 40.3 0 0 625.91 478.72&#xA;  Q 635.75 467.62 640.36 462.95&#xA;  Q 640.82 462.49 649.53 452.98&#xA;  Q 683.29 416.13 733.77 410.14&#xA;  C 758.57 407.20 785.32 411.32 807.73 423.27&#xA;  Q 817.28 428.37 824.48 433.28&#xA;  Q 826.59 434.72 834.42 441.31&#xA;  Q 839.86 445.88 843.64 450.02&#xA;  Q 873.70 482.86 880.08 525.73&#xA;  C 885.62 562.95 877.63 600.89 859.48 634.27&#xA;  Q 852.31 647.45 846.03 656.56&#xA;  Q 833.23 675.17 815.47 695.22&#xA;  Q 795.87 717.35 773.02 741.28&#xA;  Q 692.40 825.70 636.86 882.61&#xA;  Q 634.19 885.34 629.05 886.50&#xA;  Q 623.61 887.73 619.49 884.35&#xA;  Q 613.75 879.65 608.54 874.21&#xA;  Q 599.94 865.24 599.56 864.86&#xA;  Q 569.71 835.04 504.28 768.27&#xA;  Q 464.66 727.83 455.06 717.52&#xA;  Q 436.28 697.34 433.55 694.34&#xA;  Q 423.92 683.73 411.72 667.96&#xA;  Q 389.31 638.99 377.36 606.44&#xA;  C 365.49 574.10 363.75 537.54 374.19 504.80&#xA;  Q 384.29 473.13 408.29 448.54&#xA;  C 414.22 442.46 423.22 435.07 431.12 430.19&#xA;  Q 465.16 409.17 504.39 409.91&#xA;  C 534.72 410.47 562.87 420.54 586.41 439.69&#xA;  Q 593.44 445.41 601.62 454.42&#xA;  C 608.30 461.76 615.66 468.84 621.48 475.76&#xA;  Q 622.55 477.04 624.78 478.81&#xA;  Z&#xA;  M 627.20 851.09&#xA;  C 631.69 847.12 635.30 842.45 640.20 837.79&#xA;  Q 642.93 835.19 644.99 832.90&#xA;  Q 646.30 831.45 649.68 827.93&#xA;  Q 664.39 812.60 674.39 802.14&#xA;  Q 677.74 798.64 685.90 790.15&#xA;  C 719.67 755.02 745.17 728.46 773.66 698.16&#xA;  Q 781.12 690.22 794.56 675.12&#xA;  C 803.19 665.43 811.38 655.00 817.90 646.40&#xA;  Q 818.76 645.26 827.53 631.69&#xA;  C 833.70 622.15 839.24 610.97 842.78 602.29&#xA;  Q 851.42 581.12 853.18 558.00&#xA;  Q 856.13 519.28 835.38 486.22&#xA;  Q 830.37 478.24 823.95 471.36&#xA;  C 817.73 464.70 810.36 458.26 801.53 453.25&#xA;  Q 791.40 447.50 790.05 446.93&#xA;  C 778.04 441.90 764.37 438.68 750.92 438.77&#xA;  Q 739.96 438.85 734.28 439.60&#xA;  Q 709.93 442.80 688.71 457.54&#xA;  C 683.13 461.41 679.08 464.40 675.09 468.60&#xA;  Q 657.78 486.77 636.51 509.78&#xA;  C 631.07 515.66 620.71 517.50 614.83 510.73&#xA;  Q 609.85 505.01 604.55 499.79&#xA;  C 598.50 493.81 593.22 487.63 586.54 480.67&#xA;  Q 584.36 478.39 579.08 472.73&#xA;  Q 563.54 456.08 543.99 447.75&#xA;  Q 504.02 430.71 461.86 446.99&#xA;  C 456.97 448.88 453.46 451.38 448.72 453.84&#xA;  Q 444.58 455.98 439.43 459.92&#xA;  Q 411.58 481.21 400.92 515.89&#xA;  C 392.85 542.15 394.83 571.86 404.04 596.83&#xA;  Q 408.39 608.63 412.13 615.94&#xA;  Q 415.59 622.71 423.03 634.77&#xA;  Q 426.20 639.91 430.04 644.91&#xA;  C 437.29 654.32 441.58 660.54 449.14 668.97&#xA;  C 455.80 676.39 461.97 683.60 469.41 691.39&#xA;  Q 479.68 702.16 500.98 724.26&#xA;  Q 521.36 745.39 552.84 777.10&#xA;  C 566.61 790.97 580.87 805.50 593.69 818.32&#xA;  Q 600.87 825.49 602.42 827.16&#xA;  C 608.44 833.64 612.25 836.81 618.75 843.62&#xA;  Q 621.97 846.98 626.64 851.09&#xA;  A 0.42 0.42 0.0 0 0 627.20 851.09&#xA;  Z"></path>
<path fill="#fd7ea2" d="&#xA;  M 627.20 851.09&#xA;  A 0.42 0.42 0.0 0 1 626.64 851.09&#xA;  Q 621.97 846.98 618.75 843.62&#xA;  C 612.25 836.81 608.44 833.64 602.42 827.16&#xA;  Q 600.87 825.49 593.69 818.32&#xA;  C 580.87 805.50 566.61 790.97 552.84 777.10&#xA;  Q 521.36 745.39 500.98 724.26&#xA;  Q 479.68 702.16 469.41 691.39&#xA;  C 461.97 683.60 455.80 676.39 449.14 668.97&#xA;  C 441.58 660.54 437.29 654.32 430.04 644.91&#xA;  Q 426.20 639.91 423.03 634.77&#xA;  Q 415.59 622.71 412.13 615.94&#xA;  Q 408.39 608.63 404.04 596.83&#xA;  C 394.83 571.86 392.85 542.15 400.92 515.89&#xA;  Q 411.58 481.21 439.43 459.92&#xA;  Q 444.58 455.98 448.72 453.84&#xA;  C 453.46 451.38 456.97 448.88 461.86 446.99&#xA;  Q 504.02 430.71 543.99 447.75&#xA;  Q 563.54 456.08 579.08 472.73&#xA;  Q 584.36 478.39 586.54 480.67&#xA;  C 593.22 487.63 598.50 493.81 604.55 499.79&#xA;  Q 609.85 505.01 614.83 510.73&#xA;  C 620.71 517.50 631.07 515.66 636.51 509.78&#xA;  Q 657.78 486.77 675.09 468.60&#xA;  C 679.08 464.40 683.13 461.41 688.71 457.54&#xA;  Q 709.93 442.80 734.28 439.60&#xA;  Q 739.96 438.85 750.92 438.77&#xA;  C 764.37 438.68 778.04 441.90 790.05 446.93&#xA;  Q 791.40 447.50 801.53 453.25&#xA;  C 810.36 458.26 817.73 464.70 823.95 471.36&#xA;  Q 830.37 478.24 835.38 486.22&#xA;  Q 856.13 519.28 853.18 558.00&#xA;  Q 851.42 581.12 842.78 602.29&#xA;  C 839.24 610.97 833.70 622.15 827.53 631.69&#xA;  Q 818.76 645.26 817.90 646.40&#xA;  C 811.38 655.00 803.19 665.43 794.56 675.12&#xA;  Q 781.12 690.22 773.66 698.16&#xA;  C 745.17 728.46 719.67 755.02 685.90 790.15&#xA;  Q 677.74 798.64 674.39 802.14&#xA;  Q 664.39 812.60 649.68 827.93&#xA;  Q 646.30 831.45 644.99 832.90&#xA;  Q 642.93 835.19 640.20 837.79&#xA;  C 635.30 842.45 631.69 847.12 627.20 851.09&#xA;  Z"></path>
</svg>