<svg xmlns="http://www.w3.org/2000/svg" style="display: none;">
  <symbol id="i-back" viewBox="0 0 24 24" fill="none" stroke="currentColor" stroke-width="2.2" stroke-linecap="round" stroke-linejoin="round">
    <path d="M15 5L8 12L15 19"/>
  </symbol>

  <symbol id="i-shield" viewBox="0 0 24 24" fill="currentColor">
    <path d="M12 2L4 5V11C4 16 7.5 20.5 12 22C16.5 20.5 20 16 20 11V5L12 2Z"/>
    <path d="M12 6L13.5 9.5L17 10L14.5 12.5L15 16L12 14.5L9 16L9.5 12.5L7 10L10.5 9.5L12 6Z" fill="#5BAA47"/>
  </symbol>

  <symbol id="i-search" viewBox="0 0 24 24" fill="none" stroke="currentColor" stroke-width="2.2" stroke-linecap="round" stroke-linejoin="round">
    <circle cx="10.5" cy="10.5" r="6.5"/>
    <path d="M20 20L15.5 15.5"/>
  </symbol>

  <symbol id="i-phone" viewBox="0 0 24 24" fill="none" stroke="currentColor" stroke-width="2.2" stroke-linecap="round" stroke-linejoin="round">
    <path d="M5 4C5 3 6 2 7 2H9L11 7L8.5 8.5C9.5 11 12 13.5 14.5 14.5L16 12L21 14V16C21 17 20 18 19 18C11 18 5 12 5 4Z"/>
  </symbol>

  <symbol id="i-menu" viewBox="0 0 24 24" fill="none" stroke="currentColor" stroke-width="2.2" stroke-linecap="round">
    <path d="M4 6H20"/>
    <path d="M4 12H20"/>
    <path d="M4 18H20"/>
  </symbol>

  <symbol id="i-plus" viewBox="0 0 24 24" fill="none" stroke="currentColor" stroke-width="2" stroke-linecap="round">
    <path d="M12 5V19"/>
    <path d="M5 12H19"/>
  </symbol>

  <symbol id="i-camera" viewBox="0 0 24 24" fill="none" stroke="currentColor" stroke-width="1.8" stroke-linecap="round" stroke-linejoin="round">
    <path d="M4 8C4 7 5 6 6 6H8L9.5 4H14.5L16 6H18C19 6 20 7 20 8V17C20 18 19 19 18 19H6C5 19 4 18 4 17V8Z"/>
    <circle cx="12" cy="12.5" r="3.5"/>
  </symbol>

  <symbol id="i-image" viewBox="0 0 24 24" fill="none" stroke="currentColor" stroke-width="1.8" stroke-linecap="round" stroke-linejoin="round">
    <rect x="3.5" y="5" width="17" height="14" rx="2"/>
    <circle cx="8" cy="10" r="1.5"/>
    <path d="M4 17L9 12L13 16L16 13L20 17"/>
  </symbol>

  <symbol id="i-mic" viewBox="0 0 24 24" fill="none" stroke="currentColor" stroke-width="2" stroke-linecap="round" stroke-linejoin="round">
    <rect x="9" y="3" width="6" height="12" rx="3"/>
    <path d="M5 11C5 15 8 18 12 18C16 18 19 15 19 11"/>
    <path d="M12 18V21"/>
    <path d="M9 21H15"/>
  </symbol>
</svg>
